<?xml version="1.0" encoding="UTF-8"?>
<!DOCTYPE svg PUBLIC "-//W3C//DTD SVG 1.1//EN" "http://www.w3.org/Graphics/SVG/1.1/DTD/svg11.dtd">
<svg xmlns="http://www.w3.org/2000/svg" version="1.1" width="1525px" height="1494px" style="shape-rendering:geometricPrecision; text-rendering:geometricPrecision; image-rendering:optimizeQuality; fill-rule:evenodd; clip-rule:evenodd" xmlns:xlink="http://www.w3.org/1999/xlink">
<g><path style="opacity:1" fill="#fefefe" d="M 1033.5,142.5 C 1034.29,143.401 1035.29,144.068 1036.5,144.5C 1192.75,211.25 1310.92,319.583 1391,469.5C 1471.24,629.191 1489.9,795.858 1447,969.5C 1392.65,1164.13 1277.65,1310.8 1102,1409.5C 1101.38,1410.45 1101.55,1411.28 1102.5,1412C 1107.6,1414.77 1112.44,1417.94 1117,1421.5C 1117.7,1416.31 1117.54,1411.14 1116.5,1406C 1116.29,1403.54 1117.29,1402.54 1119.5,1403C 1120.83,1410 1120.83,1417 1119.5,1424C 1120.33,1425.82 1121.16,1427.65 1122,1429.5C 1126.44,1430.33 1130.94,1431 1135.5,1431.5C 1135.5,1432.5 1135.5,1433.5 1135.5,1434.5C 1133.44,1434.48 1131.44,1434.15 1129.5,1433.5C 1127.31,1432.2 1124.97,1432.2 1122.5,1433.5C 1122.62,1434.11 1122.96,1434.44 1123.5,1434.5C 1124.12,1436.23 1125.12,1437.73 1126.5,1439C 1132.31,1440.79 1134.81,1444.62 1134,1450.5C 1131.18,1453.65 1128.02,1456.48 1124.5,1459C 1120.73,1460.18 1117.56,1459.35 1115,1456.5C 1113.93,1451.23 1114.6,1446.23 1117,1441.5C 1121.71,1439.72 1122.54,1436.88 1119.5,1433C 1114.97,1432.95 1110.63,1432.12 1106.5,1430.5C 1106.89,1429.28 1107.72,1428.61 1109,1428.5C 1112.17,1429.71 1115.34,1429.71 1118.5,1428.5C 1117.08,1426.29 1115.41,1424.29 1113.5,1422.5C 1107.89,1419.45 1102.73,1415.78 1098,1411.5C 1011.08,1457.85 918.583,1485.19 820.5,1493.5C 783.167,1493.5 745.833,1493.5 708.5,1493.5C 596.278,1484.04 492.111,1450.04 396,1391.5C 390.423,1395.71 384.59,1399.54 378.5,1403C 376.954,1405.26 375.288,1407.42 373.5,1409.5C 373.709,1410.09 374.043,1410.59 374.5,1411C 378.202,1411.68 381.869,1411.51 385.5,1410.5C 386.737,1410.56 387.737,1411.06 388.5,1412C 387.051,1413.12 385.384,1413.78 383.5,1414C 378.742,1414.21 374.075,1414.38 369.5,1414.5C 369.167,1415.17 368.833,1415.83 368.5,1416.5C 373.084,1423.92 371.75,1430.09 364.5,1435C 361.923,1436.25 359.257,1436.58 356.5,1436C 345.058,1429.58 343.725,1421.58 352.5,1412C 357.083,1409.87 361.417,1410.37 365.5,1413.5C 366.478,1413.02 367.311,1412.36 368,1411.5C 367.707,1406.18 367.207,1400.85 366.5,1395.5C 367.5,1395.5 368.5,1395.5 369.5,1395.5C 369.513,1399.41 370.347,1403.07 372,1406.5C 377.498,1400.2 380.998,1392.86 382.5,1384.5C 375.47,1378.81 368.137,1373.48 360.5,1368.5C 360.977,1374.13 360.477,1379.8 359,1385.5C 353.119,1396.19 344.286,1399.69 332.5,1396C 315.841,1385.4 314.174,1372.73 327.5,1358C 329.65,1356.59 331.984,1355.76 334.5,1355.5C 337.187,1355.66 339.854,1355.5 342.5,1355C 341.956,1354.28 341.289,1353.78 340.5,1353.5C 253.673,1288.85 185.506,1208.52 136,1112.5C 129.925,1113.93 123.758,1115.1 117.5,1116C 115.004,1117.08 112.67,1118.41 110.5,1120C 111.167,1120.67 111.833,1121.33 112.5,1122C 116.143,1122.97 119.81,1123.81 123.5,1124.5C 124.687,1125.82 124.354,1126.82 122.5,1127.5C 117.051,1126.74 111.884,1125.07 107,1122.5C 104.357,1124.24 101.523,1125.57 98.5,1126.5C 97.6618,1126.16 97.3284,1125.49 97.5,1124.5C 99.5191,1123.07 101.686,1121.73 104,1120.5C 104.05,1114.51 104.883,1108.51 106.5,1102.5C 107.5,1102.5 108.5,1102.5 109.5,1102.5C 109.3,1105.63 108.634,1108.63 107.5,1111.5C 106.203,1113.69 106.203,1116.03 107.5,1118.5C 108.107,1118.38 108.44,1118.04 108.5,1117.5C 112.082,1115.79 115.248,1113.45 118,1110.5C 121.626,1106.07 125.126,1101.57 128.5,1097C 104.436,1047.37 86.7698,995.534 75.5,941.5C 75.5,940.5 75.5,939.5 75.5,938.5C 73.5,938.5 71.5,938.5 69.5,938.5C 66.15,938.386 62.8167,938.053 59.5,937.5C 54.644,938.267 49.9773,939.6 45.5,941.5C 45.8409,951.575 46.8409,961.575 48.5,971.5C 47.5,971.5 46.5,971.5 45.5,971.5C 43.9735,962.903 42.9735,954.236 42.5,945.5C 41.9473,943.448 40.9473,943.115 39.5,944.5C 38.6773,947.977 38.1773,951.644 38,955.5C 36.5,958.333 34.3333,960.5 31.5,962C 32.9733,962.71 33.6399,963.876 33.5,965.5C 30.5198,965.38 27.6865,964.713 25,963.5C 21.2467,964.364 17.9134,963.364 15,960.5C 11.9049,957.308 9.57161,953.641 8,949.5C 6.62716,933.597 13.4605,928.43 28.5,934C 32,936.167 34.8333,939 37,942.5C 38.8446,941.95 40.3446,940.95 41.5,939.5C 40.3844,934.409 39.7178,929.243 39.5,924C 39.3322,920.619 39.9989,917.453 41.5,914.5C 42.7199,914.887 43.3865,915.72 43.5,917C 42.556,923.808 42.556,930.641 43.5,937.5C 44.0527,939.552 45.0527,939.885 46.5,938.5C 48.3594,937.406 50.3594,936.573 52.5,936C 53.1905,934.933 53.6905,933.766 54,932.5C 58.8774,927.954 64.044,923.787 69.5,920C 70.0585,919.275 70.3918,918.442 70.5,917.5C 52.074,813.523 56.4074,710.523 83.5,608.5C 84.5735,607.749 84.7401,606.749 84,605.5C 83.2828,606.044 82.7828,606.711 82.5,607.5C 81.3406,609.25 79.674,610.25 77.5,610.5C 75.5,610.5 73.5,610.5 71.5,610.5C 69.9064,610.08 68.4064,609.414 67,608.5C 65.2252,609.27 63.7252,610.437 62.5,612C 65.4752,612.044 68.4752,611.877 71.5,611.5C 72.3382,611.842 72.6716,612.508 72.5,613.5C 68.8108,615.084 64.9774,615.418 61,614.5C 57.9449,616.352 58.4449,617.352 62.5,617.5C 62.5,618.5 62.5,619.5 62.5,620.5C 59.6755,620.919 57.5088,619.919 56,617.5C 50.322,622.305 46.4886,621.139 44.5,614C 46.9393,608.406 50.4393,607.572 55,611.5C 55.3333,611.167 55.6667,610.833 56,610.5C 57.8821,606.012 59.2154,601.345 60,596.5C 60.4652,595.069 61.2986,593.903 62.5,593C 60.476,588.848 61.1426,585.014 64.5,581.5C 65.4884,580.205 66.4884,578.872 67.5,577.5C 70.0092,576.887 72.5092,576.22 75,575.5C 74.5059,572.815 73.6725,570.148 72.5,567.5C 72.8417,566.662 73.5084,566.328 74.5,566.5C 77.4389,566.918 79.7722,568.418 81.5,571C 87.0485,571.54 89.7152,574.707 89.5,580.5C 89.1046,584.185 88.9379,587.852 89,591.5C 89.84,588.798 90.6733,586.132 91.5,583.5C 97.0116,563.465 104.012,543.965 112.5,525C 104.3,522.884 96.633,519.718 89.5,515.5C 90.209,514.596 91.209,514.263 92.5,514.5C 99.0036,517.224 105.67,519.557 112.5,521.5C 143.247,450.792 183.913,386.625 234.5,329C 227,323.5 219.5,318 212,312.5C 207.359,320.29 202.192,327.624 196.5,334.5C 195.833,334.167 195.167,333.833 194.5,333.5C 195.702,331.608 197.035,329.774 198.5,328C 196.873,325.246 195.373,322.412 194,319.5C 192.043,318.111 190.21,316.611 188.5,315C 191.287,309.927 193.953,304.761 196.5,299.5C 197.5,298.167 198.5,298.167 199.5,299.5C 196.706,304.253 194.04,309.086 191.5,314C 195.491,316.989 198.324,320.822 200,325.5C 203.424,320.978 206.591,316.311 209.5,311.5C 210.404,310.791 210.737,309.791 210.5,308.5C 216.5,301.5 222.5,294.5 228.5,287.5C 228.833,288.167 229.167,288.833 229.5,289.5C 225.857,294.148 222.19,298.815 218.5,303.5C 222.706,307.87 227.372,311.703 232.5,315C 235.701,317.267 239.034,318.934 242.5,320C 306.269,249.622 381.269,194.622 467.5,155C 454.892,152.887 448.559,145.387 448.5,132.5C 448.67,126.433 450.003,120.767 452.5,115.5C 453.167,115.5 453.833,115.5 454.5,115.5C 451.862,122.952 451.029,130.619 452,138.5C 455.691,150.429 463.524,154.596 475.5,151C 483.662,148.057 491.662,144.724 499.5,141C 501.024,137.884 500.024,136.05 496.5,135.5C 493.175,135.997 490.009,136.997 487,138.5C 484.812,137.941 484.146,136.607 485,134.5C 486.78,133.361 488.614,132.361 490.5,131.5C 491.598,132.397 491.598,133.23 490.5,134C 492.066,134.765 493.399,134.598 494.5,133.5C 499.456,132.243 502.622,134.243 504,139.5C 512.918,135.472 522.084,132.139 531.5,129.5C 532.995,129.011 534.329,128.345 535.5,127.5C 598.111,106.311 662.444,93.978 728.5,90.5C 727.795,82.1918 727.295,73.8585 727,65.5C 717.771,67.2378 708.438,68.5711 699,69.5C 696.966,69.6464 695.299,68.9797 694,67.5C 694.773,47.4839 694.44,27.4839 693,7.5C 694.569,6.87782 696.236,6.54449 698,6.5C 721.157,7.60443 744.324,8.10443 767.5,8C 770.688,7.24461 773.855,6.41128 777,5.5C 777.772,5.6448 778.439,5.97814 779,6.5C 779.373,8.6982 779.873,10.8649 780.5,13C 779.651,22.6348 779.651,32.3015 780.5,42C 780.564,49.5711 779.897,57.0711 778.5,64.5C 764.574,64.6152 750.574,64.6152 736.5,64.5C 736.5,73.1667 736.5,81.8333 736.5,90.5C 839.282,86.4574 938.282,103.791 1033.5,142.5 Z M 903.5,749.5 C 894.64,745.595 888.64,748.261 885.5,757.5C 887.153,765.998 892.153,768.831 900.5,766C 904.655,764.189 906.655,761.023 906.5,756.5C 907.609,756.557 908.609,756.89 909.5,757.5C 910.405,764.836 913.072,765.836 917.5,760.5C 915.833,758.5 914.167,756.5 912.5,754.5C 914.179,753.218 916.013,752.218 918,751.5C 920.148,756.412 922.148,761.412 924,766.5C 925.167,767.667 926.333,768.833 927.5,770C 932.736,771.439 938.069,772.272 943.5,772.5C 943.5,771.5 943.5,770.5 943.5,769.5C 941.833,769.5 940.167,769.5 938.5,769.5C 937.5,768.833 936.5,768.167 935.5,767.5C 938.898,767.82 942.232,767.487 945.5,766.5C 945.376,765.893 945.043,765.56 944.5,765.5C 941.5,764.833 938.5,764.167 935.5,763.5C 939.68,763.218 943.347,761.885 946.5,759.5C 946.833,759.5 947.167,759.5 947.5,759.5C 947.896,768.24 948.562,776.907 949.5,785.5C 948.833,786.167 948.167,786.833 947.5,787.5C 943.158,787.739 938.824,788.073 934.5,788.5C 934.452,785.687 933.785,783.021 932.5,780.5C 937.492,779.668 942.492,779.001 947.5,778.5C 947.5,777.5 947.5,776.5 947.5,775.5C 938.911,775.643 930.245,776.143 921.5,777C 918.313,777.001 915.48,777.834 913,779.5C 908.188,776.615 903.855,777.281 900,781.5C 897.807,791.957 901.973,795.457 912.5,792C 914.543,790.189 916.043,788.022 917,785.5C 918.752,788.672 920.752,791.672 923,794.5C 924.298,793.44 925.465,792.274 926.5,791C 925.132,789.127 923.466,787.46 921.5,786C 923.889,784.904 926.389,784.071 929,783.5C 928.802,786.235 928.969,788.901 929.5,791.5C 934.617,793.723 939.951,795.056 945.5,795.5C 945.714,793.856 945.38,792.356 944.5,791C 945.901,790.59 947.234,790.09 948.5,789.5C 948.5,792.5 948.5,795.5 948.5,798.5C 948.149,802.684 947.482,806.684 946.5,810.5C 946.5,810.167 946.5,809.833 946.5,809.5C 946.586,808.504 946.252,807.671 945.5,807C 934.115,806.497 922.781,805.664 911.5,804.5C 910.914,804.709 910.414,805.043 910,805.5C 906,802.833 902,802.833 898,805.5C 896.348,812.533 899.014,816.867 906,818.5C 909.45,817.887 911.284,815.887 911.5,812.5C 912.833,812.5 914.167,812.5 915.5,812.5C 915.548,816.813 916.715,820.813 919,824.5C 920.011,825.337 921.178,825.67 922.5,825.5C 922.519,823.94 922.852,822.44 923.5,821C 922.034,818.568 920.701,816.068 919.5,813.5C 921.265,812.539 923.265,812.205 925.5,812.5C 926.586,812.62 927.253,813.287 927.5,814.5C 925.834,817.645 926.167,820.479 928.5,823C 932.381,825.107 936.381,826.941 940.5,828.5C 941.522,828.145 942.189,827.478 942.5,826.5C 942.833,826.5 943.167,826.5 943.5,826.5C 942.422,829.402 941.756,832.402 941.5,835.5C 939.932,836.473 938.265,836.64 936.5,836C 926.44,832.924 916.44,829.757 906.5,826.5C 906.281,827.675 906.614,828.675 907.5,829.5C 926.262,836.188 926.095,836.855 907,831.5C 905.188,829.688 903.355,827.855 901.5,826C 893.578,824.25 891.078,827.083 894,834.5C 898.21,839.767 902.377,839.767 906.5,834.5C 907.489,837.438 908.156,840.438 908.5,843.5C 910.685,843.888 912.518,844.888 914,846.5C 914.5,846.167 915,845.833 915.5,845.5C 914.167,842.833 912.833,840.167 911.5,837.5C 911.833,837.167 912.167,836.833 912.5,836.5C 914.115,837.154 915.782,837.654 917.5,838C 918.282,840.74 918.782,843.574 919,846.5C 922.058,850.062 925.558,853.062 929.5,855.5C 931.271,854.965 931.604,854.131 930.5,853C 931.931,852.535 933.097,851.701 934,850.5C 934.399,850.728 934.565,851.062 934.5,851.5C 927.956,866.094 919.29,879.261 908.5,891C 907.833,891.667 907.167,891.667 906.5,891C 903.335,888.665 900.335,886.165 897.5,883.5C 895.864,880.229 893.531,878.895 890.5,879.5C 891.529,877.847 891.029,876.514 889,875.5C 879.861,878.224 878.694,882.724 885.5,889C 883.649,890.684 881.982,892.517 880.5,894.5C 884.375,898.539 888.708,902.039 893.5,905C 894.598,905.77 894.598,906.603 893.5,907.5C 887.874,904.231 882.207,900.897 876.5,897.5C 877.025,890.103 876.359,882.77 874.5,875.5C 873.5,875.5 872.5,875.5 871.5,875.5C 871.332,879.658 871.998,883.658 873.5,887.5C 872.833,889.5 872.167,891.5 871.5,893.5C 869.444,889.412 867.444,885.246 865.5,881C 860.354,878.496 855.854,879.329 852,883.5C 851.24,888.482 853.073,892.315 857.5,895C 860.916,895.893 864.083,895.393 867,893.5C 874.677,898.222 873.844,900.555 864.5,900.5C 864.5,901.5 864.5,902.5 864.5,903.5C 868.576,903.879 872.243,902.879 875.5,900.5C 876.478,900.977 877.311,901.643 878,902.5C 878.843,907.231 881.343,910.565 885.5,912.5C 885.5,912.833 885.5,913.167 885.5,913.5C 830.389,952.596 771.389,959.429 708.5,934C 661.872,912.21 631.205,876.71 616.5,827.5C 620.248,824.734 623.082,821.068 625,816.5C 627.016,818.684 629.183,820.684 631.5,822.5C 633.729,833.377 639.229,835.71 648,829.5C 654.245,820.803 652.245,815.136 642,812.5C 637.6,812.371 634.434,814.205 632.5,818C 631.833,818.667 631.167,818.667 630.5,818C 627.167,814.667 623.833,811.333 620.5,808C 623.063,805.47 625.897,803.303 629,801.5C 629.667,799.833 629.667,798.167 629,796.5C 624.52,792.325 619.353,790.659 613.5,791.5C 613.624,792.107 613.957,792.44 614.5,792.5C 614.167,793.167 613.833,793.833 613.5,794.5C 612.115,795.302 612.282,795.969 614,796.5C 627.625,798.358 627.625,801.358 614,805.5C 613.098,805.257 612.265,804.923 611.5,804.5C 606.76,737.8 631.76,685.633 686.5,648C 734.553,619.16 785.22,613.494 838.5,631C 890.071,650.403 924.405,686.236 941.5,738.5C 928.277,740.635 915.61,744.302 903.5,749.5 Z"/></g>
<g><path style="opacity:1" fill="#050505" d="M 773.5,9.5 C 774.5,9.5 775.5,9.5 776.5,9.5C 776.177,16.0221 776.51,22.3554 777.5,28.5C 777.5,39.8333 777.5,51.1667 777.5,62.5C 762.314,61.3084 747.148,61.3084 732,62.5C 729.432,58.2405 727.932,58.5738 727.5,63.5C 717.204,64.8662 706.871,65.8662 696.5,66.5C 697.639,47.4482 697.306,28.4482 695.5,9.5C 715.994,10.1904 736.494,10.857 757,11.5C 762.628,11.6389 768.128,10.9723 773.5,9.5 Z"/></g>
<g><path style="opacity:1" fill="#cdcdcd" d="M 755.5,14.5 C 760.167,14.5 764.833,14.5 769.5,14.5C 769.301,28.1756 768.801,41.8422 768,55.5C 759.212,56.2384 750.379,56.9051 741.5,57.5C 741.5,43.8333 741.5,30.1667 741.5,16.5C 746.391,16.4681 751.057,15.8015 755.5,14.5 Z"/></g>
<g><path style="opacity:1" fill="#dddddd" d="M 711.5,16.5 C 713.423,20.0293 714.089,24.0293 713.5,28.5C 717.833,28.5 722.167,28.5 726.5,28.5C 726.666,32.5138 726.499,36.5138 726,40.5C 722.606,41.4558 719.106,41.7892 715.5,41.5C 715.5,45.5 715.5,49.5 715.5,53.5C 714.5,53.5 713.5,53.5 712.5,53.5C 712.5,49.5 712.5,45.5 712.5,41.5C 709.833,41.5 707.167,41.5 704.5,41.5C 704.5,37.1667 704.5,32.8333 704.5,28.5C 706.833,28.5 709.167,28.5 711.5,28.5C 711.5,24.5 711.5,20.5 711.5,16.5 Z"/></g>
<g><path style="opacity:1" fill="#0a0a0a" d="M 752.5,17.5 C 757.5,17.5 762.5,17.5 767.5,17.5C 766.612,29.4839 765.945,41.4839 765.5,53.5C 758.5,53.5 751.5,53.5 744.5,53.5C 744.5,41.8333 744.5,30.1667 744.5,18.5C 747.385,18.8064 750.052,18.4731 752.5,17.5 Z"/></g>
<g><path style="opacity:1" fill="#e7e7e7" d="M 749.5,23.5 C 754.544,23.1725 759.544,23.5059 764.5,24.5C 761.914,25.48 759.247,25.8134 756.5,25.5C 756.5,27.8333 756.5,30.1667 756.5,32.5C 763.167,33.1667 763.167,33.8333 756.5,34.5C 756.682,36.5914 756.348,38.5914 755.5,40.5C 757.167,41.1667 758.833,41.8333 760.5,42.5C 756.722,44.2552 752.722,44.9219 748.5,44.5C 748.5,43.5 748.5,42.5 748.5,41.5C 750.167,41.5 751.833,41.5 753.5,41.5C 753.5,39.5 753.5,37.5 753.5,35.5C 752.5,35.5 751.5,35.5 750.5,35.5C 750.5,34.5 750.5,33.5 750.5,32.5C 751.833,32.5 753.167,32.5 754.5,32.5C 754.5,30.1667 754.5,27.8333 754.5,25.5C 752.219,25.9227 750.552,25.256 749.5,23.5 Z"/></g>
<g><path style="opacity:1" fill="#484848" d="M 773.5,9.5 C 774.568,8.56552 775.901,8.23219 777.5,8.5C 777.5,15.1667 777.5,21.8333 777.5,28.5C 776.51,22.3554 776.177,16.0221 776.5,9.5C 775.5,9.5 774.5,9.5 773.5,9.5 Z"/></g>
<g><path style="opacity:1" fill="#030303" d="M 714.5,30.5 C 717.5,30.5 720.5,30.5 723.5,30.5C 723.5,33.1667 723.5,35.8333 723.5,38.5C 720.5,38.5 717.5,38.5 714.5,38.5C 714.5,35.8333 714.5,33.1667 714.5,30.5 Z"/></g>
<g><path style="opacity:1" fill="#141414" d="M 706.5,31.5 C 708.5,31.5 710.5,31.5 712.5,31.5C 712.5,34.1667 712.5,36.8333 712.5,39.5C 710.5,39.5 708.5,39.5 706.5,39.5C 706.5,36.8333 706.5,34.1667 706.5,31.5 Z"/></g>
<g><path style="opacity:1" fill="#d6d6d6" d="M 761.5,36.5 C 763.465,36.9483 763.798,37.9483 762.5,39.5C 761.614,38.675 761.281,37.675 761.5,36.5 Z"/></g>
<g><path style="opacity:1" fill="#181818" d="M 730.5,65.5 C 731.5,65.5 732.5,65.5 733.5,65.5C 734.124,73.819 734.457,82.1523 734.5,90.5C 733.167,90.5 731.833,90.5 730.5,90.5C 730.5,82.1667 730.5,73.8333 730.5,65.5 Z"/></g>
<g><path style="opacity:1" fill="#d5d5d5" d="M 535.5,126.5 C 534.005,126.989 532.671,127.655 531.5,128.5C 524.191,128.334 521.691,124.667 524,117.5C 526.207,116.003 526.874,114.003 526,111.5C 523.263,112.61 520.429,112.777 517.5,112C 512.767,109.078 512.434,105.745 516.5,102C 519.47,101.262 522.136,100.096 524.5,98.5C 517.268,97.9594 514.268,94.2928 515.5,87.5C 511.18,85.0415 509.846,81.5415 511.5,77C 514.606,76.1562 517.439,76.6562 520,78.5C 522.121,77.042 523.454,75.042 524,72.5C 526.286,68.9684 528.952,68.3018 532,70.5C 533.155,74.6742 534.822,78.6742 537,82.5C 537.929,86.2441 537.429,89.7441 535.5,93C 536.766,93.3095 537.933,93.8095 539,94.5C 541.858,88.4415 546.192,86.7748 552,89.5C 552.667,91.8333 552.667,94.1667 552,96.5C 549.982,98.3501 548.149,100.35 546.5,102.5C 547.381,105.265 549.381,105.932 552.5,104.5C 558.883,104.376 561.383,107.376 560,113.5C 556.805,117.51 552.638,119.51 547.5,119.5C 547.5,118.5 547.5,117.5 547.5,116.5C 552.181,116.502 555.515,114.502 557.5,110.5C 555.196,107.387 552.196,106.72 548.5,108.5C 547.803,114.419 544.803,118.586 539.5,121C 539.833,121.333 540.167,121.667 540.5,122C 538.963,123.707 537.296,125.207 535.5,126.5 Z"/></g>
<g><path style="opacity:1" fill="#5b5b5b" d="M 527.5,71.5 C 528.5,71.5 529.5,71.5 530.5,71.5C 530.5,72.5 530.5,73.5 530.5,74.5C 527.433,74.8795 526.433,73.8795 527.5,71.5 Z"/></g>
<g><path style="opacity:1" fill="#cccccc" d="M 476.5,111.5 C 472.485,112.895 468.485,114.395 464.5,116C 461.112,116.659 457.779,116.492 454.5,115.5C 453.833,115.5 453.167,115.5 452.5,115.5C 449.835,112.665 447.335,109.665 445,106.5C 442.151,98.0599 443.984,90.8933 450.5,85C 446.18,81.0734 446.513,77.9068 451.5,75.5C 457.053,75.9382 460.72,78.7716 462.5,84C 470.977,88.4067 478.977,93.5733 486.5,99.5C 487.833,101.5 487.833,103.5 486.5,105.5C 483.47,108.014 480.137,110.014 476.5,111.5 Z"/></g>
<g><path style="opacity:1" fill="#161616" d="M 529.5,92.5 C 526.393,96.0151 522.893,96.3484 519,93.5C 518.03,85.4325 521.197,79.7658 528.5,76.5C 532.589,77.736 534.422,80.4027 534,84.5C 532.492,82.1616 530.325,81.1616 527.5,81.5C 527.325,87.1549 529.491,88.4882 534,85.5C 535.476,89.8444 533.976,92.1778 529.5,92.5 Z"/></g>
<g><path style="opacity:1" fill="#111111" d="M 450.5,78.5 C 453.89,78.5113 456.556,79.8446 458.5,82.5C 453.695,85.7178 451.028,84.3845 450.5,78.5 Z"/></g>
<g><path style="opacity:1" fill="#171717" d="M 513.5,78.5 C 516.487,78.9478 517.487,80.4478 516.5,83C 515.551,83.6172 514.718,83.4506 514,82.5C 513.51,81.2068 513.343,79.8734 513.5,78.5 Z"/></g>
<g><path style="opacity:1" fill="#dcdcdc" d="M 529.5,92.5 C 526.991,91.2548 524.325,90.2548 521.5,89.5C 519.997,86.8492 520.83,85.5159 524,85.5C 526.756,85.4235 527.923,86.7569 527.5,89.5C 530.248,89.4017 530.914,90.4017 529.5,92.5 Z"/></g>
<g><path style="opacity:1" fill="#070707" d="M 454.5,86.5 C 460.268,86.4421 465.601,87.9421 470.5,91C 474.721,93.9369 478.721,97.1035 482.5,100.5C 480.978,102.156 481.311,103.323 483.5,104C 476.404,108.964 468.571,112.13 460,113.5C 453.321,112.667 448.821,109 446.5,102.5C 447.415,101.672 448.081,100.672 448.5,99.5C 447.669,97.5269 447.502,95.5269 448,93.5C 450.826,91.694 452.992,89.3607 454.5,86.5 Z"/></g>
<g><path style="opacity:1" fill="#121212" d="M 545.5,90.5 C 547.948,90.0101 549.615,90.8434 550.5,93C 549.037,95.6312 547.037,97.7979 544.5,99.5C 543.5,98.1667 542.5,96.8333 541.5,95.5C 542.857,93.8144 544.19,92.1477 545.5,90.5 Z"/></g>
<g><path style="opacity:1" fill="#0c0c0c" d="M 530.5,95.5 C 537.661,95.3257 542.327,98.659 544.5,105.5C 543.935,107.405 542.935,109.071 541.5,110.5C 544.853,111.381 545.353,113.047 543,115.5C 539.306,119.24 535.473,119.407 531.5,116C 532.448,115.517 533.448,115.351 534.5,115.5C 534.5,114.5 534.5,113.5 534.5,112.5C 532.856,112.714 531.356,112.38 530,111.5C 529.195,107.558 528.028,103.725 526.5,100C 527.344,97.9933 528.677,96.4933 530.5,95.5 Z"/></g>
<g><path style="opacity:1" fill="#f4f4f4" d="M 465.5,96.5 C 472.512,96.5163 474.845,99.8497 472.5,106.5C 465.202,108.701 462.036,106.034 463,98.5C 463.995,97.9341 464.828,97.2674 465.5,96.5 Z"/></g>
<g><path style="opacity:1" fill="#151515" d="M 520.5,102.5 C 521.833,102.5 523.167,102.5 524.5,102.5C 526.782,109.689 524.449,111.855 517.5,109C 516.978,108.439 516.645,107.772 516.5,107C 517.344,104.993 518.677,103.493 520.5,102.5 Z"/></g>
<g><path style="opacity:1" fill="#060606" d="M 476.5,111.5 C 476.5,111.833 476.5,112.167 476.5,112.5C 475.069,124.787 479.403,127.287 489.5,120C 494.083,119.066 495.583,120.9 494,125.5C 492.606,127.388 491.44,129.388 490.5,131.5C 488.614,132.361 486.78,133.361 485,134.5C 484.146,136.607 484.812,137.941 487,138.5C 490.009,136.997 493.175,135.997 496.5,135.5C 500.024,136.05 501.024,137.884 499.5,141C 491.662,144.724 483.662,148.057 475.5,151C 463.524,154.596 455.691,150.429 452,138.5C 451.029,130.619 451.862,122.952 454.5,115.5C 457.779,116.492 461.112,116.659 464.5,116C 468.485,114.395 472.485,112.895 476.5,111.5 Z"/></g>
<g><path style="opacity:1" fill="#cfcfcf" d="M 476.5,112.5 C 478.02,115.528 479.686,118.528 481.5,121.5C 484.692,119.154 488.192,117.487 492,116.5C 496.51,117.849 498.177,120.849 497,125.5C 496.122,128.215 494.622,130.549 492.5,132.5C 492.957,133.298 493.624,133.631 494.5,133.5C 493.399,134.598 492.066,134.765 490.5,134C 491.598,133.23 491.598,132.397 490.5,131.5C 491.44,129.388 492.606,127.388 494,125.5C 495.583,120.9 494.083,119.066 489.5,120C 479.403,127.287 475.069,124.787 476.5,112.5 Z"/></g>
<g><path style="opacity:1" fill="#0d0d0d" d="M 528.5,116.5 C 531.026,118.932 534.026,120.598 537.5,121.5C 535.02,125.081 531.686,126.248 527.5,125C 526.041,121.929 526.374,119.096 528.5,116.5 Z"/></g>
<g><path style="opacity:1" fill="#4b4b4b" d="M 535.5,126.5 C 535.5,126.833 535.5,127.167 535.5,127.5C 534.329,128.345 532.995,129.011 531.5,129.5C 531.5,129.167 531.5,128.833 531.5,128.5C 532.671,127.655 534.005,126.989 535.5,126.5 Z"/></g>
<g><path style="opacity:1" fill="#c0c0c0" d="M 1306.5,321.5 C 1305.5,321.833 1304.83,322.5 1304.5,323.5C 1302.17,321.159 1300.17,318.492 1298.5,315.5C 1300.69,312.478 1303.35,309.978 1306.5,308C 1304.36,307.027 1302.69,305.527 1301.5,303.5C 1297.52,306.309 1293.69,309.309 1290,312.5C 1287.02,309.849 1284.35,306.849 1282,303.5C 1281.37,301.365 1281.7,299.365 1283,297.5C 1285.68,294.984 1288.18,292.317 1290.5,289.5C 1288.81,286.964 1286.81,285.131 1284.5,284C 1282.35,287.312 1279.69,290.146 1276.5,292.5C 1273.11,289.4 1269.94,286.067 1267,282.5C 1265,280.5 1265,278.5 1267,276.5C 1269.04,274.288 1271.21,272.288 1273.5,270.5C 1272.14,268.972 1270.97,267.305 1270,265.5C 1266.92,268.688 1264.09,272.021 1261.5,275.5C 1258.34,271.874 1255.18,268.207 1252,264.5C 1251.54,261.07 1252.54,258.07 1255,255.5C 1261.07,249.27 1266.57,242.604 1271.5,235.5C 1268.79,231.604 1265.46,228.77 1261.5,227C 1255.47,234.231 1249.8,241.731 1244.5,249.5C 1243.64,250.583 1242.64,250.749 1241.5,250C 1237.94,247.602 1234.94,244.769 1232.5,241.5C 1234.21,237.616 1236.54,234.116 1239.5,231C 1237.34,230.086 1235.34,228.919 1233.5,227.5C 1230.65,230.561 1227.82,233.561 1225,236.5C 1220.51,234.339 1216.68,231.339 1213.5,227.5C 1215.64,224.193 1217.97,221.026 1220.5,218C 1217.83,216.999 1215.49,215.499 1213.5,213.5C 1210.58,217.024 1207.91,220.691 1205.5,224.5C 1203.73,223.965 1203.4,223.131 1204.5,222C 1202.1,221.205 1199.93,220.038 1198,218.5C 1197.33,217.167 1197.33,215.833 1198,214.5C 1200.17,211.667 1202.33,208.833 1204.5,206C 1204.17,205.667 1203.83,205.333 1203.5,205C 1200.69,203.911 1198.03,202.911 1195.5,202C 1193.74,206.636 1191.24,210.803 1188,214.5C 1184.16,211.914 1180.16,209.581 1176,207.5C 1176.4,202.356 1178.23,197.689 1181.5,193.5C 1180.02,192.52 1178.69,191.353 1177.5,190C 1176.67,189.312 1176,189.479 1175.5,190.5C 1173.62,193.751 1171.62,196.918 1169.5,200C 1163.56,201.874 1158.89,200.041 1155.5,194.5C 1156.88,190.911 1158.88,187.744 1161.5,185C 1159.54,184.047 1157.88,182.713 1156.5,181C 1155.55,180.383 1154.72,180.549 1154,181.5C 1152.89,184.726 1151.06,187.393 1148.5,189.5C 1145,186.336 1141,184.003 1136.5,182.5C 1135.39,181.277 1135.22,179.944 1136,178.5C 1138.23,176.522 1139.4,174.355 1139.5,172C 1136.34,171.063 1133.51,169.563 1131,167.5C 1129.17,170 1127.33,172.5 1125.5,175C 1124.5,175.667 1123.5,175.667 1122.5,175C 1119.38,173.027 1116.22,171.193 1113,169.5C 1113.2,167.063 1114.04,164.729 1115.5,162.5C 1113.64,160.303 1111.31,158.969 1108.5,158.5C 1108.71,161.127 1107.54,162.793 1105,163.5C 1099.53,161.854 1095.03,158.854 1091.5,154.5C 1092.37,152.587 1093.37,150.753 1094.5,149C 1091.97,148.484 1089.8,147.317 1088,145.5C 1086.42,152.852 1082.59,154.352 1076.5,150C 1071.49,147.621 1071.16,144.621 1075.5,141C 1073.33,139.5 1071.17,138 1069,136.5C 1067.72,139.765 1065.56,142.099 1062.5,143.5C 1059.23,142.53 1056.23,141.03 1053.5,139C 1052.41,136.936 1052.24,134.769 1053,132.5C 1054.56,128.381 1056.39,124.381 1058.5,120.5C 1055.12,118.26 1051.46,116.593 1047.5,115.5C 1045.21,125.694 1041.55,135.361 1036.5,144.5C 1035.29,144.068 1034.29,143.401 1033.5,142.5C 1038.71,133.069 1042.88,123.069 1046,112.5C 1047.05,111.483 1048.22,111.316 1049.5,112C 1052.57,114.452 1056.07,115.952 1060,116.5C 1061.17,117.009 1062,117.842 1062.5,119C 1060.48,123.546 1058.31,128.046 1056,132.5C 1055.18,134.701 1055.68,136.534 1057.5,138C 1059.17,138.833 1060.83,139.667 1062.5,140.5C 1064.29,138.424 1065.95,136.257 1067.5,134C 1071.29,134.242 1074.62,135.742 1077.5,138.5C 1078.64,140.959 1078.31,143.293 1076.5,145.5C 1078.03,147.188 1079.86,148.521 1082,149.5C 1083.38,147.246 1084.88,145.08 1086.5,143C 1087.83,142.333 1089.17,142.333 1090.5,143C 1092.41,144.87 1094.57,146.37 1097,147.5C 1097.92,150.308 1097.09,152.475 1094.5,154C 1097.75,156.543 1101.25,158.709 1105,160.5C 1105.78,157.924 1107.28,155.924 1109.5,154.5C 1113.46,156.299 1116.8,158.799 1119.5,162C 1118.38,163.737 1117.38,165.571 1116.5,167.5C 1118.99,169.069 1121.49,170.736 1124,172.5C 1125.43,168.942 1127.76,166.276 1131,164.5C 1134.71,166.519 1138.55,168.352 1142.5,170C 1143.36,170.689 1144.02,171.522 1144.5,172.5C 1143.07,175.433 1141.07,177.933 1138.5,180C 1142.13,180.82 1145.13,182.653 1147.5,185.5C 1149.61,182.792 1151.61,179.959 1153.5,177C 1154.5,176.333 1155.5,176.333 1156.5,177C 1159.17,179.987 1162.17,182.487 1165.5,184.5C 1162.62,187.092 1160.62,190.259 1159.5,194C 1162.35,198.57 1165.51,199.07 1169,195.5C 1170.73,191.357 1173.39,188.024 1177,185.5C 1179.97,188.06 1182.8,190.727 1185.5,193.5C 1182.79,197.083 1180.46,200.917 1178.5,205C 1181.5,206.833 1184.5,208.667 1187.5,210.5C 1189.09,207.579 1190.59,204.579 1192,201.5C 1193.12,199.876 1194.62,198.876 1196.5,198.5C 1199.68,200.255 1203.01,201.755 1206.5,203C 1208.21,204.133 1208.71,205.633 1208,207.5C 1204.93,210.062 1202.43,213.062 1200.5,216.5C 1202.28,218.447 1204.28,218.78 1206.5,217.5C 1207.97,214.185 1210.14,211.519 1213,209.5C 1216.96,211.64 1220.46,214.306 1223.5,217.5C 1221.93,221.072 1219.93,224.405 1217.5,227.5C 1219.53,229.522 1221.86,231.189 1224.5,232.5C 1226.93,229.312 1229.6,226.312 1232.5,223.5C 1236.51,225.506 1240.18,228.006 1243.5,231C 1240.83,234.333 1238.17,237.667 1235.5,241C 1237.47,243.316 1239.8,245.149 1242.5,246.5C 1248.29,239.09 1253.95,231.59 1259.5,224C 1260.42,223.626 1261.25,223.126 1262,222.5C 1267.01,226.677 1271.84,231.01 1276.5,235.5C 1269.14,244.525 1261.8,253.525 1254.5,262.5C 1256.86,265.022 1259.02,267.688 1261,270.5C 1263.33,266.833 1266.33,263.833 1270,261.5C 1273.23,264.067 1275.73,267.234 1277.5,271C 1275.55,273.737 1273.05,275.904 1270,277.5C 1269.83,278.167 1269.67,278.833 1269.5,279.5C 1271.42,282.76 1273.75,285.76 1276.5,288.5C 1278.96,285.542 1281.62,282.709 1284.5,280C 1285.78,279.316 1286.95,279.483 1288,280.5C 1289.79,283.952 1291.96,287.118 1294.5,290C 1290.68,293.328 1287.35,297.161 1284.5,301.5C 1285.85,304.196 1287.68,306.53 1290,308.5C 1293.17,306 1296.33,303.5 1299.5,301C 1300.83,300.333 1302.17,300.333 1303.5,301C 1305.83,303.5 1308.17,306 1310.5,308.5C 1307.69,310.811 1305.02,313.311 1302.5,316C 1303.65,317.981 1304.98,319.814 1306.5,321.5 Z"/></g>
<g><path style="opacity:1" fill="#080808" d="M 228.5,287.5 C 222.5,294.5 216.5,301.5 210.5,308.5C 209.735,308.077 208.902,307.743 208,307.5C 206.342,309.468 204.675,311.468 203,313.5C 201.762,311.565 201.262,309.565 201.5,307.5C 200.281,308.263 199.281,309.263 198.5,310.5C 195.004,309.522 194.67,310.356 197.5,313C 196.378,316.945 197.378,317.445 200.5,314.5C 200.833,315 201.167,315.5 201.5,316C 200.453,317.578 200.453,319.078 201.5,320.5C 204.195,316.97 206.695,313.304 209,309.5C 209.464,310.094 209.631,310.761 209.5,311.5C 206.591,316.311 203.424,320.978 200,325.5C 198.324,320.822 195.491,316.989 191.5,314C 194.04,309.086 196.706,304.253 199.5,299.5C 198.5,298.167 197.5,298.167 196.5,299.5C 193.953,304.761 191.287,309.927 188.5,315C 190.21,316.611 192.043,318.111 194,319.5C 195.373,322.412 196.873,325.246 198.5,328C 197.035,329.774 195.702,331.608 194.5,333.5C 192.661,334.508 191.328,336.008 190.5,338C 189.5,338.667 188.5,338.667 187.5,338C 183.12,333.952 178.454,330.285 173.5,327C 171.438,325.468 170.104,323.468 169.5,321C 164.126,318.644 158.793,316.31 153.5,314C 150.776,312.478 148.776,310.311 147.5,307.5C 160.042,289.122 173.542,271.455 188,254.5C 188.855,251.399 190.355,248.732 192.5,246.5C 203.565,253.701 215.232,259.867 227.5,265C 232.116,267.282 235.783,270.616 238.5,275C 234.789,278.954 231.456,283.121 228.5,287.5 Z"/></g>
<g><path style="opacity:1" fill="#e1e1e1" d="M 188.5,264.5 C 190.384,264.712 191.717,265.712 192.5,267.5C 191.302,267.94 190.135,268.273 189,268.5C 185.365,274.965 181.532,281.298 177.5,287.5C 178.167,288.167 178.833,288.833 179.5,289.5C 177.034,290.881 175.034,290.381 173.5,288C 179.135,280.562 184.135,272.729 188.5,264.5 Z"/></g>
<g><path style="opacity:1" fill="#cecece" d="M 229.5,289.5 C 229.167,288.833 228.833,288.167 228.5,287.5C 231.456,283.121 234.789,278.954 238.5,275C 235.783,270.616 232.116,267.282 227.5,265C 215.232,259.867 203.565,253.701 192.5,246.5C 190.355,248.732 188.855,251.399 188,254.5C 173.542,271.455 160.042,289.122 147.5,307.5C 148.776,310.311 150.776,312.478 153.5,314C 158.793,316.31 164.126,318.644 169.5,321C 170.104,323.468 171.438,325.468 173.5,327C 178.454,330.285 183.12,333.952 187.5,338C 188.5,338.667 189.5,338.667 190.5,338C 191.328,336.008 192.661,334.508 194.5,333.5C 195.167,333.833 195.833,334.167 196.5,334.5C 194.721,336.546 193.054,338.713 191.5,341C 189.365,341.635 187.365,341.301 185.5,340C 178.167,334 170.833,328 163.5,322C 157.843,319.507 152.51,316.507 147.5,313C 146.308,311.088 145.308,309.088 144.5,307C 157.484,288.204 171.317,270.037 186,252.5C 187.265,249.539 188.431,246.539 189.5,243.5C 190.365,242.417 191.365,242.251 192.5,243C 195.833,245.333 199.167,247.667 202.5,250C 211.622,254.061 220.622,258.394 229.5,263C 232.939,265.139 236.106,267.639 239,270.5C 240.373,272.695 240.706,275.029 240,277.5C 236.635,281.693 233.135,285.693 229.5,289.5 Z"/></g>
<g><path style="opacity:1" fill="#dddddd" d="M 195.5,272.5 C 195.187,275.247 195.52,277.914 196.5,280.5C 197.107,280.376 197.44,280.043 197.5,279.5C 200.245,278.263 202.578,276.43 204.5,274C 205.483,273.409 206.15,273.743 206.5,275C 204.785,278.379 202.118,280.713 198.5,282C 205.429,285.622 205.095,288.122 197.5,289.5C 197.36,287.876 198.027,286.71 199.5,286C 198.437,284.812 197.103,284.312 195.5,284.5C 195.588,288.306 194.921,291.973 193.5,295.5C 192.833,294.833 192.167,294.167 191.5,293.5C 190.482,277.555 189.482,277.555 188.5,293.5C 187.5,293.5 186.5,293.5 185.5,293.5C 185.895,289.815 186.062,286.148 186,282.5C 185,283.5 184,284.5 183,285.5C 183.636,279.898 186.136,275.232 190.5,271.5C 190.833,271.833 191.167,272.167 191.5,272.5C 190.248,274.001 189.248,275.668 188.5,277.5C 189.655,278.95 191.155,279.95 193,280.5C 193.179,277.447 193.679,274.447 194.5,271.5C 195.107,271.624 195.44,271.957 195.5,272.5 Z"/></g>
<g><path style="opacity:1" fill="#ededed" d="M 173.5,273.5 C 175.924,273.192 178.257,273.526 180.5,274.5C 179.333,274.833 178.167,275.167 177,275.5C 175.319,275.392 174.152,274.725 173.5,273.5 Z"/></g>
<g><path style="opacity:1" fill="#818181" d="M 195.5,272.5 C 196.167,274.833 196.833,277.167 197.5,279.5C 197.44,280.043 197.107,280.376 196.5,280.5C 195.52,277.914 195.187,275.247 195.5,272.5 Z"/></g>
<g><path style="opacity:1" fill="#dddddd" d="M 168.5,291.5 C 169.376,291.369 170.043,291.702 170.5,292.5C 167.446,296.25 166.946,300.25 169,304.5C 170.584,300.325 172.918,296.659 176,293.5C 179.407,296.786 183.24,299.453 187.5,301.5C 185.628,305.412 183.628,309.245 181.5,313C 177.628,312.901 174.295,311.401 171.5,308.5C 171.167,308.667 170.833,308.833 170.5,309C 171.293,310.085 171.96,311.252 172.5,312.5C 171.998,313.521 171.332,313.688 170.5,313C 168.524,309.547 166.691,306.047 165,302.5C 163.401,305.378 161.567,308.044 159.5,310.5C 159.167,310 158.833,309.5 158.5,309C 161.965,303.237 165.298,297.403 168.5,291.5 Z"/></g>
<g><path style="opacity:1" fill="#0c0c0c" d="M 175.5,297.5 C 178.689,298.593 181.356,300.426 183.5,303C 182.623,305.927 181.123,308.427 179,310.5C 176.043,309.273 173.543,307.44 171.5,305C 172.644,302.367 173.977,299.867 175.5,297.5 Z"/></g>
<g><path style="opacity:1" fill="#d1d1d1" d="M 186.5,305.5 C 188.288,305.215 189.955,305.548 191.5,306.5C 190.332,308.217 188.665,308.884 186.5,308.5C 186.5,307.5 186.5,306.5 186.5,305.5 Z"/></g>
<g><path style="opacity:1" fill="#dcdcdc" d="M 210.5,308.5 C 210.737,309.791 210.404,310.791 209.5,311.5C 209.631,310.761 209.464,310.094 209,309.5C 206.695,313.304 204.195,316.97 201.5,320.5C 200.453,319.078 200.453,317.578 201.5,316C 201.167,315.5 200.833,315 200.5,314.5C 197.378,317.445 196.378,316.945 197.5,313C 194.67,310.356 195.004,309.522 198.5,310.5C 199.281,309.263 200.281,308.263 201.5,307.5C 201.262,309.565 201.762,311.565 203,313.5C 204.675,311.468 206.342,309.468 208,307.5C 208.902,307.743 209.735,308.077 210.5,308.5 Z"/></g>
<g><path style="opacity:1" fill="#131313" d="M 215.5,306.5 C 223.109,311.646 230.776,316.813 238.5,322C 239.474,324.702 238.474,326.035 235.5,326C 228.167,320.667 220.833,315.333 213.5,310C 214.305,308.887 214.972,307.721 215.5,306.5 Z"/></g>
<g><path style="opacity:1" fill="#cfcfcf" d="M 1361.5,362.5 C 1361.83,363.5 1362.5,364.167 1363.5,364.5C 1363.65,369.281 1362.99,373.948 1361.5,378.5C 1361.25,379.713 1360.59,380.38 1359.5,380.5C 1359.5,379.167 1359.5,377.833 1359.5,376.5C 1360.17,372.833 1360.83,369.167 1361.5,365.5C 1358.78,366.352 1356.11,367.519 1353.5,369C 1351.32,371.35 1348.98,373.517 1346.5,375.5C 1345.42,374.635 1345.25,373.635 1346,372.5C 1347.38,371.295 1348.54,369.962 1349.5,368.5C 1346.83,369.833 1344.17,371.167 1341.5,372.5C 1340.49,372.062 1340.49,371.396 1341.5,370.5C 1342.8,369.173 1344.13,367.84 1345.5,366.5C 1343.78,360.969 1340.78,360.136 1336.5,364C 1336,365.158 1335.17,365.991 1334,366.5C 1331.54,364.286 1329.54,361.619 1328,358.5C 1327.33,356.833 1327.33,355.167 1328,353.5C 1329.9,351.47 1332.06,349.803 1334.5,348.5C 1333.47,346.639 1331.97,345.305 1330,344.5C 1329.38,343.551 1329.55,342.718 1330.5,342C 1327.75,343.296 1324.92,344.796 1322,346.5C 1319.37,344.192 1317.03,341.525 1315,338.5C 1314.18,336.299 1314.68,334.466 1316.5,333C 1319.02,331.659 1321.69,330.826 1324.5,330.5C 1323.23,326.619 1321.39,322.952 1319,319.5C 1315.66,322.339 1311.99,324.672 1308,326.5C 1306.36,326.022 1305.19,325.022 1304.5,323.5C 1304.83,322.5 1305.5,321.833 1306.5,321.5C 1307.22,321.918 1307.72,322.584 1308,323.5C 1312,320.833 1316,318.167 1320,315.5C 1321.87,317.756 1323.37,320.256 1324.5,323C 1329.11,324.29 1333.78,324.624 1338.5,324C 1337.57,319.108 1338.91,314.774 1342.5,311C 1348.99,306.908 1355.66,306.574 1362.5,310C 1369.58,319.851 1368.92,329.184 1360.5,338C 1353.2,342.2 1347.37,340.7 1343,333.5C 1339.78,336.38 1336.95,339.547 1334.5,343C 1336.77,345.382 1338.11,348.215 1338.5,351.5C 1329.84,352.311 1328.34,355.977 1334,362.5C 1336.69,360.319 1339.69,358.652 1343,357.5C 1344.56,358.952 1345.9,360.619 1347,362.5C 1351.83,361.192 1356.67,361.192 1361.5,362.5 Z"/></g>
<g><path style="opacity:1" fill="#040404" d="M 1347.5,311.5 C 1362.37,309.876 1367.54,316.209 1363,330.5C 1359.86,336.989 1355.03,338.823 1348.5,336C 1345.78,331.96 1343.28,327.793 1341,323.5C 1340.34,317.989 1342.51,313.989 1347.5,311.5 Z"/></g>
<g><path style="opacity:1" fill="#171717" d="M 1326.5,327.5 C 1330.85,326.033 1335.19,326.366 1339.5,328.5C 1332.78,332.076 1325.78,335.076 1318.5,337.5C 1317.29,336.726 1317.29,335.893 1318.5,335C 1321.35,333.829 1324.18,332.662 1327,331.5C 1327.76,329.934 1327.6,328.601 1326.5,327.5 Z"/></g>
<g><path style="opacity:1" fill="#1a1a1a" d="M 1338.5,331.5 C 1340.65,331.696 1340.81,332.696 1339,334.5C 1336.17,338.089 1332.67,339.589 1328.5,339C 1326.33,340.5 1324.17,342 1322,343.5C 1321.04,342.421 1320.21,341.255 1319.5,340C 1326.11,337.636 1332.44,334.803 1338.5,331.5 Z"/></g>
<g><path style="opacity:1" fill="#cecece" d="M 1364.5,364.5 C 1364.17,363.5 1363.5,362.833 1362.5,362.5C 1356.13,350.745 1359.46,343.245 1372.5,340C 1376.96,339.133 1381.29,339.466 1385.5,341C 1388.43,344.925 1390.93,349.092 1393,353.5C 1393.63,364.541 1388.3,370.208 1377,370.5C 1371.94,370.217 1367.77,368.217 1364.5,364.5 Z"/></g>
<g><path style="opacity:1" fill="#050505" d="M 1372.5,342.5 C 1376.41,342.263 1380.08,343.096 1383.5,345C 1385.61,346.264 1386.61,348.097 1386.5,350.5C 1389.77,351.019 1391.11,353.019 1390.5,356.5C 1390.22,362.281 1387.22,365.781 1381.5,367C 1374.79,368.729 1369.29,366.895 1365,361.5C 1359.65,351.779 1362.15,345.445 1372.5,342.5 Z"/></g>
<g><path style="opacity:1" fill="#2b2b2b" d="M 1361.5,362.5 C 1361.83,362.5 1362.17,362.5 1362.5,362.5C 1363.5,362.833 1364.17,363.5 1364.5,364.5C 1364.17,364.5 1363.83,364.5 1363.5,364.5C 1362.5,364.167 1361.83,363.5 1361.5,362.5 Z"/></g>
<g><path style="opacity:1" fill="#0d0d0d" d="M 1349.5,368.5 C 1349.67,367.178 1349.34,366.011 1348.5,365C 1357.43,363.862 1357.77,365.028 1349.5,368.5 Z"/></g>
<g><path style="opacity:1" fill="#111111" d="M 1359.5,376.5 C 1358.73,377.263 1358.23,378.263 1358,379.5C 1357.1,377.602 1355.93,375.936 1354.5,374.5C 1351.68,377.075 1348.68,379.408 1345.5,381.5C 1343.47,379.295 1341.81,376.795 1340.5,374C 1341.06,373.617 1341.39,373.117 1341.5,372.5C 1344.17,371.167 1346.83,369.833 1349.5,368.5C 1348.54,369.962 1347.38,371.295 1346,372.5C 1345.25,373.635 1345.42,374.635 1346.5,375.5C 1348.98,373.517 1351.32,371.35 1353.5,369C 1356.11,367.519 1358.78,366.352 1361.5,365.5C 1360.83,369.167 1360.17,372.833 1359.5,376.5 Z"/></g>
<g><path style="opacity:1" fill="#cccccc" d="M 92.5,514.5 C 91.209,514.263 90.209,514.596 89.5,515.5C 86.981,521.857 84.1477,528.19 81,534.5C 79.3805,536.726 77.2138,538.06 74.5,538.5C 60.5903,533.957 46.7569,529.29 33,524.5C 40.7865,506.089 49.2865,487.922 58.5,470C 68.1967,472.177 77.8633,474.843 87.5,478C 91.8692,479.267 95.7025,481.433 99,484.5C 97.0578,494.327 93.8912,503.827 89.5,513C 90.7375,513.232 91.7375,513.732 92.5,514.5 Z"/></g>
<g><path style="opacity:1" fill="#0a0a0a" d="M 55.5,483.5 C 56.7718,480.652 57.6051,477.652 58,474.5C 58.7387,473.426 59.7387,472.759 61,472.5C 69.7509,475.563 78.5843,478.397 87.5,481C 90.656,481.937 93.4894,483.437 96,485.5C 92.4321,497.537 88.4321,509.537 84,521.5C 82.4018,526.532 79.9018,531.032 76.5,535C 65.6262,533.741 55.6262,529.908 46.5,523.5C 42.8731,524.707 39.5398,524.04 36.5,521.5C 42.3365,508.494 48.6698,495.827 55.5,483.5 Z"/></g>
<g><path style="opacity:1" fill="#d9d9d9" d="M 62.5,486.5 C 61.7326,487.172 61.0659,488.005 60.5,489C 59.6683,489.688 59.0016,489.521 58.5,488.5C 59.9718,485.283 61.1385,481.949 62,478.5C 63.3946,477.185 64.3946,477.519 65,479.5C 66.5553,477.485 68.3886,477.152 70.5,478.5C 69.5,479.333 68.5,480.167 67.5,481C 68.6184,482.074 69.6184,483.24 70.5,484.5C 71.8333,483.5 73.1667,482.5 74.5,481.5C 75.4995,484.242 74.4995,486.242 71.5,487.5C 70.8333,489.5 70.1667,491.5 69.5,493.5C 68.5713,492.311 68.238,490.978 68.5,489.5C 64.9206,489.234 64.5873,487.901 67.5,485.5C 64.5266,478.543 62.86,478.876 62.5,486.5 Z"/></g>
<g><path style="opacity:1" fill="#e3e3e3" d="M 55.5,483.5 C 59.9709,482.47 60.3042,483.136 56.5,485.5C 55.7025,485.043 55.3691,484.376 55.5,483.5 Z"/></g>
<g><path style="opacity:1" fill="#e3e3e3" d="M 62.5,486.5 C 64.0853,487.474 65.0853,488.974 65.5,491C 65,491.5 64.5,492 64,492.5C 62.6814,490.75 62.1814,488.75 62.5,486.5 Z"/></g>
<g><path style="opacity:1" fill="#d7d7d7" d="M 57.5,490.5 C 61.2349,490.546 62.5683,492.213 61.5,495.5C 60.8333,495.167 60.1667,494.833 59.5,494.5C 58.8333,496.833 58.1667,499.167 57.5,501.5C 55.3501,499.851 53.3501,498.018 51.5,496C 52.8187,494.372 54.1521,494.539 55.5,496.5C 56.2945,494.505 56.9612,492.505 57.5,490.5 Z"/></g>
<g><path style="opacity:1" fill="#c1c1c1" d="M 1341.5,370.5 C 1340.49,371.396 1340.49,372.062 1341.5,372.5C 1341.39,373.117 1341.06,373.617 1340.5,374C 1341.81,376.795 1343.47,379.295 1345.5,381.5C 1348.68,379.408 1351.68,377.075 1354.5,374.5C 1355.93,375.936 1357.1,377.602 1358,379.5C 1358.23,378.263 1358.73,377.263 1359.5,376.5C 1359.5,377.833 1359.5,379.167 1359.5,380.5C 1360.03,381.721 1360.69,382.887 1361.5,384C 1359.19,386.487 1356.52,388.487 1353.5,390C 1355.36,391.558 1356.86,393.391 1358,395.5C 1360.65,391.84 1363.98,390.173 1368,390.5C 1369.46,393.928 1371.29,397.095 1373.5,400C 1372.55,402.546 1370.71,404.046 1368,404.5C 1368.13,407.098 1369.13,409.431 1371,411.5C 1372.71,408.42 1375.21,407.254 1378.5,408C 1380.5,411 1382.5,414 1384.5,417C 1382.17,419.167 1379.5,420.834 1376.5,422C 1377.67,423.833 1378.83,425.667 1380,427.5C 1382.51,425.577 1385.18,423.91 1388,422.5C 1394.24,426.908 1393.91,430.908 1387,434.5C 1386.28,436.112 1386.45,437.612 1387.5,439C 1395.31,435.081 1402.98,430.581 1410.5,425.5C 1412.9,428.626 1415.07,431.96 1417,435.5C 1418.63,438.058 1419.63,440.725 1420,443.5C 1412.36,448.304 1404.86,453.304 1397.5,458.5C 1398.05,460.333 1398.89,462 1400,463.5C 1402.93,460.13 1406.43,457.964 1410.5,457C 1412.46,461.083 1414.79,464.917 1417.5,468.5C 1414.99,470.926 1411.99,472.592 1408.5,473.5C 1407.61,476.116 1408.28,478.449 1410.5,480.5C 1413.94,478.697 1417.44,477.03 1421,475.5C 1423.35,477.816 1425.35,480.483 1427,483.5C 1427.98,484.759 1428.32,486.092 1428,487.5C 1423.29,489.106 1419.12,491.606 1415.5,495C 1417.01,497.333 1418.67,499.5 1420.5,501.5C 1423.99,499.921 1427.33,498.087 1430.5,496C 1432.11,495.28 1433.61,495.446 1435,496.5C 1437.04,499.602 1438.04,502.935 1438,506.5C 1434.41,508.53 1430.58,509.863 1426.5,510.5C 1427.35,514.553 1428.52,518.553 1430,522.5C 1433.24,519.795 1436.74,517.461 1440.5,515.5C 1441.8,516.09 1442.63,517.09 1443,518.5C 1444.11,522.508 1445.61,526.341 1447.5,530C 1444.17,531.667 1440.83,533.333 1437.5,535C 1438.25,537.175 1439.09,539.341 1440,541.5C 1442.56,539.273 1445.4,537.439 1448.5,536C 1450.44,535.257 1452.27,535.424 1454,536.5C 1455.32,539.77 1455.99,543.103 1456,546.5C 1451.99,549.114 1447.82,551.448 1443.5,553.5C 1443.91,555.887 1444.91,557.887 1446.5,559.5C 1449.79,556.845 1453.46,555.345 1457.5,555C 1458.52,557.545 1459.69,560.045 1461,562.5C 1461.75,563.635 1461.58,564.635 1460.5,565.5C 1456.58,566.86 1452.91,568.694 1449.5,571C 1451.2,573.587 1452.2,576.421 1452.5,579.5C 1456.47,578.185 1460.47,576.851 1464.5,575.5C 1465.17,575.833 1465.83,576.167 1466.5,576.5C 1468.7,580.224 1469.7,584.057 1469.5,588C 1466.49,589.504 1463.49,591.004 1460.5,592.5C 1461.41,594.664 1462.58,596.664 1464,598.5C 1470.65,594.833 1474.48,596.833 1475.5,604.5C 1475.17,605.167 1474.83,605.833 1474.5,606.5C 1472.19,607.214 1470.02,608.214 1468,609.5C 1467.56,611.684 1468.06,613.684 1469.5,615.5C 1471.97,613.749 1474.64,612.915 1477.5,613C 1479.8,617.19 1480.8,621.524 1480.5,626C 1477.14,626.771 1473.81,627.605 1470.5,628.5C 1470.08,630.326 1470.08,632.326 1470.5,634.5C 1474.81,633.502 1479.14,633.002 1483.5,633C 1484.89,638.468 1486.23,643.968 1487.5,649.5C 1483.14,650.021 1478.81,650.688 1474.5,651.5C 1473.93,654.412 1473.93,657.412 1474.5,660.5C 1485.75,657.903 1497.08,656.07 1508.5,655C 1509.41,662.129 1510.41,669.295 1511.5,676.5C 1511.17,677.833 1510.83,679.167 1510.5,680.5C 1494.77,683.281 1479.1,686.114 1463.5,689C 1462.45,687.284 1463.11,686.284 1465.5,686C 1479.71,682.697 1494.04,680.197 1508.5,678.5C 1507.77,671.426 1506.6,664.426 1505,657.5C 1494.56,659.322 1484.22,661.655 1474,664.5C 1473.59,664.043 1473.09,663.709 1472.5,663.5C 1471.01,658.92 1470.51,654.254 1471,649.5C 1474.96,647.781 1479.12,647.114 1483.5,647.5C 1482.86,643.473 1482.03,639.473 1481,635.5C 1476.91,636.731 1472.74,637.731 1468.5,638.5C 1467.34,634.555 1466.84,630.555 1467,626.5C 1470.78,625.261 1474.62,624.095 1478.5,623C 1476.98,621.103 1476.32,618.936 1476.5,616.5C 1473.42,616.804 1470.59,617.804 1468,619.5C 1461.96,611.808 1463.46,606.642 1472.5,604C 1471.62,602.414 1470.62,600.914 1469.5,599.5C 1463.3,603.323 1459.46,601.656 1458,594.5C 1457.33,593.167 1457.33,591.833 1458,590.5C 1460.31,588.89 1462.81,587.557 1465.5,586.5C 1466.67,583.475 1466.01,580.808 1463.5,578.5C 1460.06,580.303 1456.56,581.97 1453,583.5C 1451.35,583.18 1450.35,582.18 1450,580.5C 1448.93,577.129 1447.77,573.796 1446.5,570.5C 1449.22,567.052 1452.72,564.719 1457,563.5C 1457.26,561.361 1456.43,559.694 1454.5,558.5C 1451.24,560.047 1448.07,561.713 1445,563.5C 1443.12,562.907 1442.12,561.573 1442,559.5C 1440.94,556.451 1440.78,553.451 1441.5,550.5C 1445.46,548.57 1449.46,546.737 1453.5,545C 1452.87,542.657 1451.87,540.49 1450.5,538.5C 1446.58,540.708 1442.75,543.041 1439,545.5C 1435.95,541.363 1434.78,536.863 1435.5,532C 1438.22,530.928 1440.88,529.762 1443.5,528.5C 1442.5,525.833 1441.5,523.167 1440.5,520.5C 1440,519.479 1439.33,519.312 1438.5,520C 1435.42,522.29 1432.25,524.457 1429,526.5C 1426.55,521.658 1424.38,516.658 1422.5,511.5C 1425.66,507.92 1429.66,505.92 1434.5,505.5C 1434.74,502.774 1433.9,500.441 1432,498.5C 1428.08,501.213 1423.91,503.547 1419.5,505.5C 1417.2,503.569 1415.36,501.236 1414,498.5C 1412.7,496.635 1412.37,494.635 1413,492.5C 1416.83,490 1420.67,487.5 1424.5,485C 1422.39,483.736 1421.39,481.903 1421.5,479.5C 1417.28,481.287 1412.95,482.454 1408.5,483C 1406.77,479.944 1404.77,477.11 1402.5,474.5C 1405.21,471.583 1408.54,469.583 1412.5,468.5C 1413.52,467.998 1413.69,467.332 1413,466.5C 1411.26,464.679 1409.76,462.679 1408.5,460.5C 1406.31,462.524 1403.98,464.357 1401.5,466C 1400.17,466.667 1398.83,466.667 1397.5,466C 1396.37,463.566 1395.37,461.066 1394.5,458.5C 1395.73,455.698 1397.73,453.531 1400.5,452C 1405.67,448.833 1410.83,445.667 1416,442.5C 1415.09,437.142 1412.59,432.975 1408.5,430C 1401.99,434.086 1395.66,438.42 1389.5,443C 1388.06,443.781 1386.72,443.614 1385.5,442.5C 1383.12,439.274 1382.62,435.941 1384,432.5C 1385.97,431.36 1387.81,430.027 1389.5,428.5C 1389,427.5 1388.5,426.5 1388,425.5C 1381.05,433.109 1376.22,431.942 1373.5,422C 1375.17,419.315 1377.51,417.315 1380.5,416C 1377.71,410.189 1374.54,410.022 1371,415.5C 1367.25,412.14 1364.92,408.14 1364,403.5C 1365.93,401.962 1368.1,400.795 1370.5,400C 1368.47,398.104 1366.8,395.937 1365.5,393.5C 1363.13,395.682 1360.46,397.349 1357.5,398.5C 1355.21,396.712 1353.04,394.712 1351,392.5C 1350.33,391.167 1350.33,389.833 1351,388.5C 1353.26,386.954 1355.42,385.288 1357.5,383.5C 1356.14,381.972 1354.97,380.305 1354,378.5C 1351.31,380.694 1348.47,382.694 1345.5,384.5C 1344.25,383.96 1343.09,383.293 1342,382.5C 1340.5,379.5 1339,376.5 1337.5,373.5C 1338.28,371.712 1339.62,370.712 1341.5,370.5 Z"/></g>
<g><path style="opacity:1" fill="#dbdbdb" d="M 59.5,496.5 C 62.3084,497.929 65.3084,498.595 68.5,498.5C 68.762,499.978 68.4287,501.311 67.5,502.5C 63.8936,501.537 61.2269,499.537 59.5,496.5 Z"/></g>
<g><path style="opacity:1" fill="#dfdfdf" d="M 73.5,497.5 C 74.8221,497.33 75.9887,497.663 77,498.5C 77.7943,501.471 78.461,504.471 79,507.5C 79.869,504.67 81.0357,502.003 82.5,499.5C 82.8867,501.731 83.0534,504.064 83,506.5C 89.005,504.945 89.8383,506.278 85.5,510.5C 84.7425,509.189 83.7425,508.689 82.5,509C 81.974,511.972 80.6407,514.472 78.5,516.5C 77.2113,511.451 76.0446,506.118 75,500.5C 73.7713,504.473 72.6047,508.473 71.5,512.5C 71.1667,512.833 70.8333,513.167 70.5,513.5C 70.1667,512.667 69.8333,511.833 69.5,511C 70.337,506.325 71.6703,501.825 73.5,497.5 Z"/></g>
<g><path style="opacity:1" fill="#dcdcdc" d="M 52.5,505.5 C 53.5862,505.62 54.2528,506.287 54.5,507.5C 53.9537,509.135 53.6204,510.801 53.5,512.5C 55.3084,512.509 56.9751,512.009 58.5,511C 60.0175,509.315 61.6841,507.815 63.5,506.5C 63.8333,506.833 64.1667,507.167 64.5,507.5C 62.1585,511.344 58.8251,513.844 54.5,515C 56,516.5 57.5,518 59,519.5C 59.7494,520.635 59.5827,521.635 58.5,522.5C 56.1831,520.684 54.0165,518.684 52,516.5C 51.1495,519.612 49.9828,519.946 48.5,517.5C 48.9312,516.707 49.2645,515.873 49.5,515C 48.0042,513.669 46.6709,512.169 45.5,510.5C 47.061,509.653 48.561,509.986 50,511.5C 51.3187,509.713 52.152,507.713 52.5,505.5 Z"/></g>
<g><path style="opacity:1" fill="#d4d4d4" d="M 74.5,566.5 C 73.5084,566.328 72.8417,566.662 72.5,567.5C 71.8501,567.196 71.1835,566.863 70.5,566.5C 69.6816,569.107 69.1816,571.774 69,574.5C 68.0754,575.047 67.2421,575.713 66.5,576.5C 66.6236,577.107 66.9569,577.44 67.5,577.5C 66.4884,578.872 65.4884,580.205 64.5,581.5C 62.9117,576.375 63.5784,571.541 66.5,567C 64.9772,565.146 63.1438,563.646 61,562.5C 58.596,553.901 61.4293,551.401 69.5,555C 71.6311,558.664 73.2978,562.498 74.5,566.5 Z"/></g>
<g><path style="opacity:1" fill="#171717" d="M 63.5,555.5 C 67.1667,555.833 69.1667,557.833 69.5,561.5C 64.5393,563.047 62.5393,561.047 63.5,555.5 Z"/></g>
<g><path style="opacity:1" fill="#131313" d="M 72.5,567.5 C 73.6725,570.148 74.5059,572.815 75,575.5C 72.5092,576.22 70.0092,576.887 67.5,577.5C 66.9569,577.44 66.6236,577.107 66.5,576.5C 67.2421,575.713 68.0754,575.047 69,574.5C 69.1816,571.774 69.6816,569.107 70.5,566.5C 71.1835,566.863 71.8501,567.196 72.5,567.5 Z"/></g>
<g><path style="opacity:1" fill="#5e5e5e" d="M 75.5,568.5 C 76.9616,569.458 78.2949,570.624 79.5,572C 79,572.5 78.5,573 78,573.5C 76.6283,572.09 75.795,570.423 75.5,568.5 Z"/></g>
<g><path style="opacity:1" fill="#0f0f0f" d="M 65.5,593.5 C 65.3284,592.508 65.6618,591.842 66.5,591.5C 68.4352,592.15 70.4352,592.483 72.5,592.5C 72.5,591.5 72.5,590.5 72.5,589.5C 70.0504,589.702 67.717,589.369 65.5,588.5C 65.1667,587.833 64.8333,587.167 64.5,586.5C 64.9867,585.527 65.4867,584.527 66,583.5C 67.7093,586.116 69.876,587.116 72.5,586.5C 71.1349,585.059 69.6349,583.726 68,582.5C 67.4372,581.275 67.7705,580.275 69,579.5C 70.6837,581.351 72.5171,583.018 74.5,584.5C 74.8333,584 75.1667,583.5 75.5,583C 74.2011,581.674 72.8678,580.34 71.5,579C 72.1667,578.833 72.8333,578.667 73.5,578.5C 75.1596,579.787 76.8262,581.12 78.5,582.5C 78.8333,582.167 79.1667,581.833 79.5,581.5C 76.6678,576.406 77.1678,575.74 81,579.5C 81.5,579.167 82,578.833 82.5,578.5C 79.5,576.167 79.8333,574.5 83.5,573.5C 85.1965,574.364 86.3632,575.697 87,577.5C 87.5334,586.893 85.8667,595.893 82,604.5C 77.8477,609.048 73.3477,609.548 68.5,606C 70.7801,605.767 72.7801,604.934 74.5,603.5C 71.9659,602.223 69.4659,602.223 67,603.5C 66.3076,602.975 65.8076,602.308 65.5,601.5C 67.8333,600.833 70.1667,600.167 72.5,599.5C 61.8333,598.167 61.8333,596.833 72.5,595.5C 70.4902,593.829 68.1569,593.162 65.5,593.5 Z"/></g>
<g><path style="opacity:1" fill="#6f6f6f" d="M 89.5,580.5 C 90.1667,581.5 90.8333,582.5 91.5,583.5C 90.6733,586.132 89.84,588.798 89,591.5C 88.9379,587.852 89.1046,584.185 89.5,580.5 Z"/></g>
<g><path style="opacity:1" fill="#dfdfdf" d="M 65.5,588.5 C 67.717,589.369 70.0504,589.702 72.5,589.5C 72.5,590.5 72.5,591.5 72.5,592.5C 70.4352,592.483 68.4352,592.15 66.5,591.5C 65.9094,590.849 65.2427,590.182 64.5,589.5C 64.6236,588.893 64.9569,588.56 65.5,588.5 Z"/></g>
<g><path style="opacity:1" fill="#707070" d="M 64.5,586.5 C 64.8333,587.167 65.1667,587.833 65.5,588.5C 64.9569,588.56 64.6236,588.893 64.5,589.5C 65.2427,590.182 65.9094,590.849 66.5,591.5C 65.6618,591.842 65.3284,592.508 65.5,593.5C 63.466,591.345 63.1326,589.012 64.5,586.5 Z"/></g>
<g><path style="opacity:1" fill="#262626" d="M 61.5,598.5 C 65.8912,603.888 65.0579,608.555 59,612.5C 60.0542,607.98 60.8875,603.314 61.5,598.5 Z"/></g>
<g><path style="opacity:1" fill="#3d3d3d" d="M 83.5,608.5 C 83.5,607.833 83.1667,607.5 82.5,607.5C 82.7828,606.711 83.2828,606.044 84,605.5C 84.7401,606.749 84.5735,607.749 83.5,608.5 Z"/></g>
<g><path style="opacity:1" fill="#141414" d="M 71.5,610.5 C 71.5,610.833 71.5,611.167 71.5,611.5C 68.4752,611.877 65.4752,612.044 62.5,612C 63.7252,610.437 65.2252,609.27 67,608.5C 68.4064,609.414 69.9064,610.08 71.5,610.5 Z"/></g>
<g><path style="opacity:1" fill="#919191" d="M 71.5,611.5 C 71.5,611.167 71.5,610.833 71.5,610.5C 73.5,610.5 75.5,610.5 77.5,610.5C 75.7056,611.233 74.0389,612.233 72.5,613.5C 72.6716,612.508 72.3382,611.842 71.5,611.5 Z"/></g>
<g><path style="opacity:1" fill="#1b1b1b" d="M 48.5,611.5 C 52.2253,611.78 53.392,613.78 52,617.5C 51.586,617.957 51.086,618.291 50.5,618.5C 47.7813,616.684 47.1146,614.351 48.5,611.5 Z"/></g>
<g><path style="opacity:1" fill="#bdbdbd" d="M 769.5,733.5 C 770.5,733.5 771.5,733.5 772.5,733.5C 771.485,740.894 770.151,748.227 768.5,755.5C 767.5,755.5 766.5,755.5 765.5,755.5C 766.833,748.167 768.167,740.833 769.5,733.5 Z"/></g>
<g><path style="opacity:1" fill="#bdbdbd" d="M 753.5,740.5 C 754.496,740.414 755.329,740.748 756,741.5C 758.17,746.017 760.337,750.517 762.5,755C 761.975,755.692 761.308,756.192 760.5,756.5C 757.737,751.814 755.07,746.98 752.5,742C 753.056,741.617 753.389,741.117 753.5,740.5 Z"/></g>
<g><path style="opacity:1" fill="#0a0a0a" d="M 947.5,759.5 C 947.167,759.5 946.833,759.5 946.5,759.5C 946.083,758.876 945.416,758.543 944.5,758.5C 940.071,759.55 935.737,760.883 931.5,762.5C 930.093,756.946 928.093,751.612 925.5,746.5C 925.709,745.914 926.043,745.414 926.5,745C 931.873,743.606 937.206,742.106 942.5,740.5C 944.776,746.664 946.443,752.997 947.5,759.5 Z"/></g>
<g><path style="opacity:1" fill="#b5b5b5" d="M 790.5,741.5 C 792.466,742.255 792.8,743.421 791.5,745C 787.167,748 782.833,751 778.5,754C 777.552,754.483 776.552,754.649 775.5,754.5C 775.281,753.325 775.614,752.325 776.5,751.5C 781.234,748.145 785.9,744.812 790.5,741.5 Z"/></g>
<g><path style="opacity:1" fill="#bfbfbf" d="M 742.5,742.5 C 747.637,748.75 752.304,755.417 756.5,762.5C 756,762.833 755.5,763.167 755,763.5C 749.997,757.641 745.497,751.308 741.5,744.5C 741.863,743.817 742.196,743.15 742.5,742.5 Z"/></g>
<g><path style="opacity:1" fill="#1a1a1a" d="M 919.5,746.5 C 920.978,746.238 922.311,746.571 923.5,747.5C 926.59,752.768 928.257,758.434 928.5,764.5C 930.861,764.326 933.194,763.993 935.5,763.5C 938.5,764.167 941.5,764.833 944.5,765.5C 938.491,765.666 932.491,765.499 926.5,765C 924.265,758.794 921.931,752.627 919.5,746.5 Z"/></g>
<g><path style="opacity:1" fill="#d2d2d2" d="M 919.5,746.5 C 921.931,752.627 924.265,758.794 926.5,765C 932.491,765.499 938.491,765.666 944.5,765.5C 945.043,765.56 945.376,765.893 945.5,766.5C 942.232,767.487 938.898,767.82 935.5,767.5C 933.473,767.338 931.473,767.505 929.5,768C 932.393,769.149 935.393,769.649 938.5,769.5C 940.167,769.5 941.833,769.5 943.5,769.5C 943.5,770.5 943.5,771.5 943.5,772.5C 938.069,772.272 932.736,771.439 927.5,770C 926.333,768.833 925.167,767.667 924,766.5C 922.148,761.412 920.148,756.412 918,751.5C 916.013,752.218 914.179,753.218 912.5,754.5C 914.167,756.5 915.833,758.5 917.5,760.5C 913.072,765.836 910.405,764.836 909.5,757.5C 908.947,755.448 907.947,755.115 906.5,756.5C 906.655,761.023 904.655,764.189 900.5,766C 892.153,768.831 887.153,765.998 885.5,757.5C 888.64,748.261 894.64,745.595 903.5,749.5C 903.328,750.492 903.662,751.158 904.5,751.5C 905.204,753.344 906.537,753.844 908.5,753C 912.088,751.378 915.421,749.545 918.5,747.5C 918.5,746.833 918.833,746.5 919.5,746.5 Z"/></g>
<g><path style="opacity:1" fill="#1b1b1b" d="M 918.5,747.5 C 915.421,749.545 912.088,751.378 908.5,753C 906.537,753.844 905.204,753.344 904.5,751.5C 908.982,749.562 913.649,748.229 918.5,747.5 Z"/></g>
<g><path style="opacity:1" fill="#0c0c0c" d="M 893.5,750.5 C 900.985,749.829 904.152,753.163 903,760.5C 898.12,764.618 893.453,764.284 889,759.5C 888.377,755.412 889.877,752.412 893.5,750.5 Z"/></g>
<g><path style="opacity:1" fill="#bfbfbf" d="M 799.5,751.5 C 800.873,751.343 802.207,751.51 803.5,752C 804.833,752.667 804.833,753.333 803.5,754C 797.236,755.606 791.07,757.44 785,759.5C 783.383,758.464 783.216,757.297 784.5,756C 789.756,754.942 794.756,753.442 799.5,751.5 Z"/></g>
<g><path style="opacity:1" fill="#bbbbbb" d="M 733.5,751.5 C 737.842,753.328 741.509,756.161 744.5,760C 747.672,761.752 750.672,763.752 753.5,766C 752.892,766.87 752.059,767.37 751,767.5C 744.775,763.948 739.108,759.614 734,754.5C 733.517,753.552 733.351,752.552 733.5,751.5 Z"/></g>
<g><path style="opacity:1" fill="#555555" d="M 906.5,756.5 C 907.947,755.115 908.947,755.448 909.5,757.5C 908.609,756.89 907.609,756.557 906.5,756.5 Z"/></g>
<g><path style="opacity:1" fill="#bebebe" d="M 729.5,761.5 C 734.602,764.755 739.602,768.255 744.5,772C 746.459,772.931 748.459,773.764 750.5,774.5C 751.386,775.325 751.719,776.325 751.5,777.5C 742.619,774.719 734.952,769.886 728.5,763C 729.056,762.617 729.389,762.117 729.5,761.5 Z"/></g>
<g><path style="opacity:1" fill="#cecece" d="M 767.5,761.5 C 780.935,762.114 786.435,769.114 784,782.5C 783.446,787.043 781.279,790.543 777.5,793C 771.542,793.603 765.876,793.27 760.5,792C 753.519,785.261 752.686,777.761 758,769.5C 760.772,766.217 763.939,763.55 767.5,761.5 Z"/></g>
<g><path style="opacity:1" fill="#040404" d="M 767.5,764.5 C 779.286,764.807 783.786,770.807 781,782.5C 779.053,790.127 774.22,792.627 766.5,790C 759.929,787.358 757.096,782.524 758,775.5C 760.26,770.933 763.426,767.267 767.5,764.5 Z"/></g>
<g><path style="opacity:1" fill="#b5b5b5" d="M 786.5,764.5 C 792.296,767.105 797.462,770.772 802,775.5C 802.483,776.448 802.649,777.448 802.5,778.5C 801.448,778.649 800.448,778.483 799.5,778C 795.944,773.941 791.944,770.441 787.5,767.5C 786.614,766.675 786.281,765.675 786.5,764.5 Z"/></g>
<g><path style="opacity:1" fill="#5b5b5b" d="M 935.5,767.5 C 936.5,768.167 937.5,768.833 938.5,769.5C 935.393,769.649 932.393,769.149 929.5,768C 931.473,767.505 933.473,767.338 935.5,767.5 Z"/></g>
<g><path style="opacity:1" fill="#d2d2d2" d="M 947.5,787.5 C 947.833,788.167 948.167,788.833 948.5,789.5C 947.234,790.09 945.901,790.59 944.5,791C 945.38,792.356 945.714,793.856 945.5,795.5C 939.951,795.056 934.617,793.723 929.5,791.5C 928.969,788.901 928.802,786.235 929,783.5C 926.389,784.071 923.889,784.904 921.5,786C 923.466,787.46 925.132,789.127 926.5,791C 925.465,792.274 924.298,793.44 923,794.5C 920.752,791.672 918.752,788.672 917,785.5C 916.043,788.022 914.543,790.189 912.5,792C 901.973,795.457 897.807,791.957 900,781.5C 903.855,777.281 908.188,776.615 913,779.5C 915.48,777.834 918.313,777.001 921.5,777C 930.245,776.143 938.911,775.643 947.5,775.5C 947.5,776.5 947.5,777.5 947.5,778.5C 942.492,779.001 937.492,779.668 932.5,780.5C 933.785,783.021 934.452,785.687 934.5,788.5C 938.824,788.073 943.158,787.739 947.5,787.5 Z"/></g>
<g><path style="opacity:1" fill="#6e6e6e" d="M 727.5,777.5 C 724.918,777.025 722.918,777.692 721.5,779.5C 720.596,778.791 720.263,777.791 720.5,776.5C 723.059,776.198 725.393,776.532 727.5,777.5 Z"/></g>
<g><path style="opacity:1" fill="#c6c6c6" d="M 727.5,777.5 C 734.588,777.594 741.588,778.428 748.5,780C 749.833,780.667 749.833,781.333 748.5,782C 739.509,781.428 730.509,780.594 721.5,779.5C 722.918,777.692 724.918,777.025 727.5,777.5 Z"/></g>
<g><path style="opacity:1" fill="#121212" d="M 917.5,779.5 C 933.332,779.156 933.499,780.156 918,782.5C 913.637,782.088 913.47,781.088 917.5,779.5 Z"/></g>
<g><path style="opacity:1" fill="#0b0b0b" d="M 904.5,780.5 C 910.337,779.518 913.17,781.851 913,787.5C 909.286,791.693 905.953,791.359 903,786.5C 902.252,784.16 902.752,782.16 904.5,780.5 Z"/></g>
<g><path style="opacity:1" fill="#bdbdbd" d="M 789.5,782.5 C 790.675,782.281 791.675,782.614 792.5,783.5C 795.714,788.211 798.714,793.044 801.5,798C 801.167,798.5 800.833,799 800.5,799.5C 797.104,795.721 793.937,791.721 791,787.5C 789.991,785.975 789.491,784.308 789.5,782.5 Z"/></g>
<g><path style="opacity:1" fill="#cccccc" d="M 723.5,790.5 C 726.203,788.89 729.203,787.89 732.5,787.5C 737.169,786.499 741.835,785.499 746.5,784.5C 746.5,785.5 746.5,786.5 746.5,787.5C 739.026,789.873 731.359,790.873 723.5,790.5 Z"/></g>
<g><path style="opacity:1" fill="#717171" d="M 732.5,787.5 C 729.203,787.89 726.203,788.89 723.5,790.5C 722.596,789.791 722.263,788.791 722.5,787.5C 725.833,787.5 729.167,787.5 732.5,787.5 Z"/></g>
<g><path style="opacity:1" fill="#bdbdbd" d="M 784.5,789.5 C 785.675,789.281 786.675,789.614 787.5,790.5C 790.41,796.239 793.91,801.572 798,806.5C 798.781,807.944 798.614,809.277 797.5,810.5C 793.768,806.051 790.268,801.384 787,796.5C 785.589,794.35 784.755,792.016 784.5,789.5 Z"/></g>
<g><path style="opacity:1" fill="#cecece" d="M 616.5,827.5 C 615.662,827.158 615.328,826.492 615.5,825.5C 617.054,824.086 618.388,822.419 619.5,820.5C 619.03,819.537 618.363,819.537 617.5,820.5C 616.833,820.5 616.167,820.5 615.5,820.5C 617.477,818.186 619.477,815.853 621.5,813.5C 621.023,812.522 620.357,811.689 619.5,811C 616.969,810.552 614.636,809.719 612.5,808.5C 611.566,807.432 611.232,806.099 611.5,804.5C 612.265,804.923 613.098,805.257 614,805.5C 627.625,801.358 627.625,798.358 614,796.5C 612.282,795.969 612.115,795.302 613.5,794.5C 619.371,794.644 619.704,793.977 614.5,792.5C 613.957,792.44 613.624,792.107 613.5,791.5C 619.353,790.659 624.52,792.325 629,796.5C 629.667,798.167 629.667,799.833 629,801.5C 625.897,803.303 623.063,805.47 620.5,808C 623.833,811.333 627.167,814.667 630.5,818C 631.167,818.667 631.833,818.667 632.5,818C 634.434,814.205 637.6,812.371 642,812.5C 652.245,815.136 654.245,820.803 648,829.5C 639.229,835.71 633.729,833.377 631.5,822.5C 629.183,820.684 627.016,818.684 625,816.5C 623.082,821.068 620.248,824.734 616.5,827.5 Z"/></g>
<g><path style="opacity:1" fill="#c0c0c0" d="M 745.5,790.5 C 746.5,790.5 747.5,790.5 748.5,790.5C 748.439,793.05 747.106,794.55 744.5,795C 738.11,798.075 731.443,800.241 724.5,801.5C 724.5,800.5 724.5,799.5 724.5,798.5C 732.021,796.996 739.021,794.33 745.5,790.5 Z"/></g>
<g><path style="opacity:1" fill="#2f2f2f" d="M 614.5,792.5 C 619.704,793.977 619.371,794.644 613.5,794.5C 613.833,793.833 614.167,793.167 614.5,792.5 Z"/></g>
<g><path style="opacity:1" fill="#575757" d="M 949.5,785.5 C 949.818,790.032 949.485,794.366 948.5,798.5C 948.5,795.5 948.5,792.5 948.5,789.5C 948.167,788.833 947.833,788.167 947.5,787.5C 948.167,786.833 948.833,786.167 949.5,785.5 Z"/></g>
<g><path style="opacity:1" fill="#bdbdbd" d="M 739.5,802.5 C 742.106,803.85 742.106,805.35 739.5,807C 736.029,809.072 732.362,810.572 728.5,811.5C 728.281,810.325 728.614,809.325 729.5,808.5C 733.229,806.977 736.562,804.977 739.5,802.5 Z"/></g>
<g><path style="opacity:1" fill="#c4c4c4" d="M 770.5,802.5 C 771.809,804.571 772.475,807.071 772.5,810C 772.353,814.87 771.853,819.703 771,824.5C 770.586,824.957 770.086,825.291 769.5,825.5C 768.761,817.779 769.094,810.112 770.5,802.5 Z"/></g>
<g><path style="opacity:1" fill="#d5d5d5" d="M 946.5,809.5 C 941.93,810.441 937.263,810.774 932.5,810.5C 932.223,813.448 932.556,816.281 933.5,819C 937.504,819.997 941.504,820.831 945.5,821.5C 945.672,822.492 945.338,823.158 944.5,823.5C 943.054,822.387 941.387,822.22 939.5,823C 940.938,823.219 942.271,823.719 943.5,824.5C 943.137,825.183 942.804,825.85 942.5,826.5C 942.189,827.478 941.522,828.145 940.5,828.5C 936.381,826.941 932.381,825.107 928.5,823C 926.167,820.479 925.834,817.645 927.5,814.5C 927.253,813.287 926.586,812.62 925.5,812.5C 923.307,811.203 920.973,811.203 918.5,812.5C 918.624,813.107 918.957,813.44 919.5,813.5C 920.701,816.068 922.034,818.568 923.5,821C 922.852,822.44 922.519,823.94 922.5,825.5C 921.178,825.67 920.011,825.337 919,824.5C 916.715,820.813 915.548,816.813 915.5,812.5C 914.167,812.5 912.833,812.5 911.5,812.5C 911.284,815.887 909.45,817.887 906,818.5C 899.014,816.867 896.348,812.533 898,805.5C 902,802.833 906,802.833 910,805.5C 910.414,805.043 910.914,804.709 911.5,804.5C 922.781,805.664 934.115,806.497 945.5,807C 946.252,807.671 946.586,808.504 946.5,809.5 Z"/></g>
<g><path style="opacity:1" fill="#0c0c0c" d="M 900.5,806.5 C 908.427,805.237 910.76,808.07 907.5,815C 901.851,815.17 899.518,812.337 900.5,806.5 Z"/></g>
<g><path style="opacity:1" fill="#c0c0c0" d="M 759.5,806.5 C 762.998,806.565 763.498,807.899 761,810.5C 758.578,814.344 755.911,818.01 753,821.5C 751.989,822.337 750.822,822.67 749.5,822.5C 749.351,821.448 749.517,820.448 750,819.5C 753.771,815.569 756.938,811.236 759.5,806.5 Z"/></g>
<g><path style="opacity:1" fill="#111111" d="M 612.5,808.5 C 614.636,809.719 616.969,810.552 619.5,811C 620.357,811.689 621.023,812.522 621.5,813.5C 619.477,815.853 617.477,818.186 615.5,820.5C 613.584,816.837 612.584,812.837 612.5,808.5 Z"/></g>
<g><path style="opacity:1" fill="#1e1e1e" d="M 911.5,807.5 C 917.448,808.127 923.448,808.794 929.5,809.5C 926.126,809.984 922.626,809.984 919,809.5C 916.071,809.475 913.571,808.809 911.5,807.5 Z"/></g>
<g><path style="opacity:1" fill="#bcbcbc" d="M 774.5,808.5 C 777.606,813.05 779.939,818.05 781.5,823.5C 778.566,822.711 776.732,820.711 776,817.5C 774.468,814.49 773.968,811.49 774.5,808.5 Z"/></g>
<g><path style="opacity:1" fill="#0b0b0b" d="M 946.5,809.5 C 946.5,809.833 946.5,810.167 946.5,810.5C 946.276,814.179 945.942,817.846 945.5,821.5C 941.504,820.831 937.504,819.997 933.5,819C 932.556,816.281 932.223,813.448 932.5,810.5C 937.263,810.774 941.93,810.441 946.5,809.5 Z"/></g>
<g><path style="opacity:1" fill="#545454" d="M 925.5,812.5 C 923.265,812.205 921.265,812.539 919.5,813.5C 918.957,813.44 918.624,813.107 918.5,812.5C 920.973,811.203 923.307,811.203 925.5,812.5 Z"/></g>
<g><path style="opacity:1" fill="#c0c0c0" d="M 750.5,802.5 C 752.355,802.272 753.188,802.939 753,804.5C 747.136,810.699 740.969,816.532 734.5,822C 733.365,822.749 732.365,822.583 731.5,821.5C 737.548,814.785 743.881,808.452 750.5,802.5 Z"/></g>
<g><path style="opacity:1" fill="#0a0a0a" d="M 636.5,816.5 C 640.505,816.169 643.838,817.503 646.5,820.5C 647.192,819.975 647.692,819.308 648,818.5C 648.921,825.863 645.754,829.696 638.5,830C 635.503,825.855 634.836,821.355 636.5,816.5 Z"/></g>
<g><path style="opacity:1" fill="#292929" d="M 944.5,823.5 C 944.737,824.791 944.404,825.791 943.5,826.5C 943.167,826.5 942.833,826.5 942.5,826.5C 942.804,825.85 943.137,825.183 943.5,824.5C 942.271,823.719 940.938,823.219 939.5,823C 941.387,822.22 943.054,822.387 944.5,823.5 Z"/></g>
<g><path style="opacity:1" fill="#191919" d="M 615.5,825.5 C 615.392,823.486 616.058,821.82 617.5,820.5C 618.363,819.537 619.03,819.537 619.5,820.5C 618.388,822.419 617.054,824.086 615.5,825.5 Z"/></g>
<g><path style="opacity:1" fill="#cccccc" d="M 941.5,835.5 C 941.204,837.403 940.537,839.07 939.5,840.5C 934.418,838.563 929.085,837.23 923.5,836.5C 923.192,838.924 923.526,841.257 924.5,843.5C 928.673,844.763 932.339,846.763 935.5,849.5C 935.672,850.492 935.338,851.158 934.5,851.5C 934.565,851.062 934.399,850.728 934,850.5C 933.097,851.701 931.931,852.535 930.5,853C 931.604,854.131 931.271,854.965 929.5,855.5C 925.558,853.062 922.058,850.062 919,846.5C 918.782,843.574 918.282,840.74 917.5,838C 915.782,837.654 914.115,837.154 912.5,836.5C 912.167,836.833 911.833,837.167 911.5,837.5C 912.833,840.167 914.167,842.833 915.5,845.5C 915,845.833 914.5,846.167 914,846.5C 912.518,844.888 910.685,843.888 908.5,843.5C 908.156,840.438 907.489,837.438 906.5,834.5C 902.377,839.767 898.21,839.767 894,834.5C 891.078,827.083 893.578,824.25 901.5,826C 903.355,827.855 905.188,829.688 907,831.5C 926.095,836.855 926.262,836.188 907.5,829.5C 906.614,828.675 906.281,827.675 906.5,826.5C 916.44,829.757 926.44,832.924 936.5,836C 938.265,836.64 939.932,836.473 941.5,835.5 Z"/></g>
<g><path style="opacity:1" fill="#151515" d="M 896.5,827.5 C 899.683,827.929 902.016,829.596 903.5,832.5C 901.616,836.017 899.283,836.351 896.5,833.5C 895.377,831.518 895.377,829.518 896.5,827.5 Z"/></g>
<g><path style="opacity:1" fill="#0d0d0d" d="M 939.5,840.5 C 938.15,843.572 936.817,846.572 935.5,849.5C 932.339,846.763 928.673,844.763 924.5,843.5C 923.526,841.257 923.192,838.924 923.5,836.5C 929.085,837.23 934.418,838.563 939.5,840.5 Z"/></g>
<g><path style="opacity:1" fill="#cacaca" d="M 893.5,907.5 C 893.158,908.338 892.492,908.672 891.5,908.5C 887.77,907.944 884.603,906.278 882,903.5C 882.864,906.561 884.03,909.561 885.5,912.5C 881.343,910.565 878.843,907.231 878,902.5C 877.311,901.643 876.478,900.977 875.5,900.5C 872.243,902.879 868.576,903.879 864.5,903.5C 864.5,902.5 864.5,901.5 864.5,900.5C 873.844,900.555 874.677,898.222 867,893.5C 864.083,895.393 860.916,895.893 857.5,895C 853.073,892.315 851.24,888.482 852,883.5C 855.854,879.329 860.354,878.496 865.5,881C 867.444,885.246 869.444,889.412 871.5,893.5C 871.56,894.043 871.893,894.376 872.5,894.5C 873.474,892.257 873.808,889.924 873.5,887.5C 871.998,883.658 871.332,879.658 871.5,875.5C 872.5,875.5 873.5,875.5 874.5,875.5C 876.359,882.77 877.025,890.103 876.5,897.5C 882.207,900.897 887.874,904.231 893.5,907.5 Z"/></g>
<g><path style="opacity:1" fill="#1e1e1e" d="M 884.5,880.5 C 886.544,881.031 888.211,882.198 889.5,884C 887.697,887.071 885.863,886.904 884,883.5C 883.53,882.423 883.697,881.423 884.5,880.5 Z"/></g>
<g><path style="opacity:1" fill="#adadad" d="M 890.5,879.5 C 893.531,878.895 895.864,880.229 897.5,883.5C 896.833,883.833 896.167,884.167 895.5,884.5C 894.5,884.167 893.833,883.5 893.5,882.5C 892.282,881.839 890.949,881.172 889.5,880.5C 889.624,879.893 889.957,879.56 890.5,879.5 Z"/></g>
<g><path style="opacity:1" fill="#070707" d="M 856.5,882.5 C 864.489,881.317 867.156,884.484 864.5,892C 858.515,893.194 855.182,890.694 854.5,884.5C 855.243,883.818 855.909,883.151 856.5,882.5 Z"/></g>
<g><path style="opacity:1" fill="#0d0d0d" d="M 893.5,882.5 C 893.833,883.5 894.5,884.167 895.5,884.5C 898.384,888.549 902.051,891.716 906.5,894C 903.976,898.024 900.642,901.191 896.5,903.5C 891.91,901.238 887.91,898.238 884.5,894.5C 887.556,890.458 890.556,886.458 893.5,882.5 Z"/></g>
<g><path style="opacity:1" fill="#3f3f3f" d="M 873.5,887.5 C 873.808,889.924 873.474,892.257 872.5,894.5C 871.893,894.376 871.56,894.043 871.5,893.5C 872.167,891.5 872.833,889.5 873.5,887.5 Z"/></g>
<g><path style="opacity:1" fill="#1f1f1f" d="M 891.5,908.5 C 889.54,910.156 887.54,911.823 885.5,913.5C 885.5,913.167 885.5,912.833 885.5,912.5C 884.03,909.561 882.864,906.561 882,903.5C 884.603,906.278 887.77,907.944 891.5,908.5 Z"/></g>
<g><path style="opacity:1" fill="#121212" d="M 70.5,921.5 C 72.5186,926.067 73.8519,930.9 74.5,936C 68.4048,936.322 62.4048,935.655 56.5,934C 61.3611,929.968 66.0277,925.801 70.5,921.5 Z"/></g>
<g><path style="opacity:1" fill="#080808" d="M 14.5,934.5 C 26.6932,933.694 34.0265,938.861 36.5,950C 32.9456,961.449 26.279,963.783 16.5,957C 9.38115,949.986 8.71448,942.486 14.5,934.5 Z"/></g>
<g><path style="opacity:1" fill="#525252" d="M 43.5,937.5 C 44.391,938.11 45.391,938.443 46.5,938.5C 45.0527,939.885 44.0527,939.552 43.5,937.5 Z"/></g>
<g><path style="opacity:1" fill="#6b6b6b" d="M 69.5,938.5 C 71.5,938.5 73.5,938.5 75.5,938.5C 75.5,939.5 75.5,940.5 75.5,941.5C 73.6391,940.158 71.6391,939.158 69.5,938.5 Z"/></g>
<g><path style="opacity:1" fill="#454545" d="M 39.5,944.5 C 40.9473,943.115 41.9473,943.448 42.5,945.5C 41.609,944.89 40.609,944.557 39.5,944.5 Z"/></g>
<g><path style="opacity:1" fill="#515151" d="M 43.5,988.5 C 41.744,989.552 41.0773,991.219 41.5,993.5C 40.5386,991.735 40.2053,989.735 40.5,987.5C 41.791,987.263 42.791,987.596 43.5,988.5 Z"/></g>
<g><path style="opacity:1" fill="#d2d2d2" d="M 43.5,988.5 C 44.5464,995.13 44.7131,1001.8 44,1008.5C 43.586,1008.96 43.086,1009.29 42.5,1009.5C 41.5052,1004.21 41.1718,998.875 41.5,993.5C 41.0773,991.219 41.744,989.552 43.5,988.5 Z"/></g>
<g><path style="opacity:1" fill="#d9d9d9" d="M 41.5,1019.5 C 45.1667,1019.5 48.8333,1019.5 52.5,1019.5C 53.8333,1019.5 55.1667,1019.5 56.5,1019.5C 55.0264,1011.41 54.0264,1003.24 53.5,995C 53.3909,992.3 53.8909,989.8 55,987.5C 56.6259,998.394 58.1259,1009.39 59.5,1020.5C 63.4196,1020.04 65.9196,1021.71 67,1025.5C 68.246,1031.65 69.4127,1037.82 70.5,1044C 70.1528,1050.04 67.1528,1054.04 61.5,1056C 53.9308,1057.9 46.2641,1058.57 38.5,1058C 36.6711,1057.73 35.1711,1056.89 34,1055.5C 31.6755,1047.87 29.5088,1040.2 27.5,1032.5C 28.3307,1024.08 32.9974,1019.74 41.5,1019.5 Z"/></g>
<g><path style="opacity:1" fill="#bbbbbb" d="M 53.5,1017.5 C 52.8333,1017.5 52.1667,1017.5 51.5,1017.5C 51.1494,1009.66 49.816,1001.99 47.5,994.5C 47.8333,993.5 48.5,992.833 49.5,992.5C 51.4296,995.872 52.5963,999.539 53,1003.5C 53.4181,1007.18 53.9181,1010.84 54.5,1014.5C 54.4805,1015.73 54.1471,1016.73 53.5,1017.5 Z"/></g>
<g><path style="opacity:1" fill="#6f6f6f" d="M 51.5,1017.5 C 52.1667,1017.5 52.8333,1017.5 53.5,1017.5C 53.1667,1018.17 52.8333,1018.83 52.5,1019.5C 48.8333,1019.5 45.1667,1019.5 41.5,1019.5C 44.8333,1018.83 48.1667,1018.17 51.5,1017.5 Z"/></g>
<g><path style="opacity:1" fill="#080808" d="M 39.5,1021.5 C 42.5184,1021.34 45.5184,1021.5 48.5,1022C 47.6695,1026.43 47.6695,1030.93 48.5,1035.5C 43.7425,1036.77 38.9092,1037.77 34,1038.5C 28.1978,1034.4 28.0311,1029.9 33.5,1025C 35.4319,1023.54 37.4319,1022.37 39.5,1021.5 Z"/></g>
<g><path style="opacity:1" fill="#111111" d="M 51.5,1021.5 C 55.5036,1022.22 59.5036,1023.06 63.5,1024C 64.7393,1027.36 65.4059,1030.86 65.5,1034.5C 61.5,1034.5 57.5,1034.5 53.5,1034.5C 52.3538,1030.25 51.6871,1025.91 51.5,1021.5 Z"/></g>
<g><path style="opacity:1" fill="#080808" d="M 55.5,1038.5 C 59.5,1038.5 63.5,1038.5 67.5,1038.5C 69.2437,1046.18 66.577,1051.35 59.5,1054C 57.8659,1054.49 56.1992,1054.66 54.5,1054.5C 54.2175,1049.07 54.5509,1043.74 55.5,1038.5 Z"/></g>
<g><path style="opacity:1" fill="#060606" d="M 43.5,1040.5 C 45.5,1040.5 47.5,1040.5 49.5,1040.5C 49.5029,1045.53 49.8363,1050.53 50.5,1055.5C 45.7027,1055.88 41.036,1055.38 36.5,1054C 35.1124,1050.28 34.1124,1046.45 33.5,1042.5C 37.0399,1042.25 40.3733,1041.58 43.5,1040.5 Z"/></g>
<g><path style="opacity:1" fill="#0e0e0e" d="M 129.5,1099.5 C 131.474,1102.77 133.474,1106.1 135.5,1109.5C 131.115,1110.95 126.615,1111.95 122,1112.5C 120.743,1112.15 120.409,1111.48 121,1110.5C 124.073,1106.94 126.906,1103.27 129.5,1099.5 Z"/></g>
<g><path style="opacity:1" fill="#444444" d="M 107.5,1111.5 C 107.205,1113.74 107.539,1115.74 108.5,1117.5C 108.44,1118.04 108.107,1118.38 107.5,1118.5C 106.203,1116.03 106.203,1113.69 107.5,1111.5 Z"/></g>
<g><path style="opacity:1" fill="#d2d2d2" d="M 97.5,1124.5 C 97.3284,1125.49 97.6618,1126.16 98.5,1126.5C 100.146,1130.75 99.479,1134.58 96.5,1138C 97.3366,1139.01 97.67,1140.18 97.5,1141.5C 91.1084,1142.77 85.1084,1141.6 79.5,1138C 78.5649,1134.5 77.5649,1131 76.5,1127.5C 76.9947,1120.74 80.6613,1117.41 87.5,1117.5C 91.956,1118.38 95.2893,1120.71 97.5,1124.5 Z"/></g>
<g><path style="opacity:1" fill="#0c0c0c" d="M 83.5,1120.5 C 91.1642,1120.16 95.4975,1123.83 96.5,1131.5C 95.7728,1135.88 93.1061,1137.88 88.5,1137.5C 82.6305,1136.65 79.6305,1133.15 79.5,1127C 79.4344,1123.91 80.7677,1121.75 83.5,1120.5 Z"/></g>
<g><path style="opacity:1" fill="#dcdcdc" d="M 1284.5,1326.5 C 1292.83,1328.51 1293.67,1332.51 1287,1338.5C 1286.25,1351.78 1281.08,1362.95 1271.5,1372C 1258.05,1383.15 1244.89,1394.65 1232,1406.5C 1231.46,1419.26 1230.12,1431.93 1228,1444.5C 1226.45,1449.38 1223.45,1453.05 1219,1455.5C 1218.08,1454.95 1217.24,1454.29 1216.5,1453.5C 1211.85,1444.71 1207.68,1435.71 1204,1426.5C 1198.94,1424.24 1196.44,1420.24 1196.5,1414.5C 1196.76,1410.55 1197.93,1406.88 1200,1403.5C 1212.33,1390.5 1224.67,1377.5 1237,1364.5C 1237.78,1363.27 1238.28,1361.94 1238.5,1360.5C 1237.53,1357.54 1237.36,1354.54 1238,1351.5C 1241.88,1345.28 1247.21,1340.95 1254,1338.5C 1256.5,1338.99 1258.5,1340.32 1260,1342.5C 1267.57,1336.06 1275.74,1330.73 1284.5,1326.5 Z"/></g>
<g><path style="opacity:1" fill="#0d0d0d" d="M 1266.5,1355.5 C 1265.5,1355.5 1264.5,1355.5 1263.5,1355.5C 1263.17,1355.5 1262.83,1355.5 1262.5,1355.5C 1263.69,1354.14 1264.69,1352.64 1265.5,1351C 1264.76,1348.84 1263.76,1346.84 1262.5,1345C 1269.58,1337.08 1278.24,1331.91 1288.5,1329.5C 1288.02,1334.32 1285.35,1337.32 1280.5,1338.5C 1279.61,1339.32 1279.28,1340.32 1279.5,1341.5C 1276.48,1341.8 1274.48,1343.47 1273.5,1346.5C 1276.22,1350.35 1279.05,1350.35 1282,1346.5C 1282.54,1350.1 1281.37,1353.1 1278.5,1355.5C 1279.49,1358.53 1278.49,1360.86 1275.5,1362.5C 1274.41,1361.61 1274.41,1360.61 1275.5,1359.5C 1274.69,1358.19 1273.69,1357.02 1272.5,1356C 1270.36,1356.56 1268.36,1356.39 1266.5,1355.5 Z"/></g>
<g><path style="opacity:1" fill="#101010" d="M 1251.5,1341.5 C 1253.42,1341.79 1255.09,1342.63 1256.5,1344C 1251.95,1348.9 1247.28,1353.24 1242.5,1357C 1240.68,1355.53 1240.18,1353.7 1241,1351.5C 1244.4,1347.93 1247.9,1344.6 1251.5,1341.5 Z"/></g>
<g><path style="opacity:1" fill="#151515" d="M 1258.5,1348.5 C 1260.2,1348.69 1261.53,1349.52 1262.5,1351C 1259.02,1355.65 1255.02,1359.81 1250.5,1363.5C 1249.42,1362.64 1249.25,1361.64 1250,1360.5C 1253.59,1356.97 1256.42,1352.97 1258.5,1348.5 Z"/></g>
<g><path style="opacity:1" fill="#cbcbcb" d="M 1270.5,1349.5 C 1272.05,1349.82 1272.71,1350.82 1272.5,1352.5C 1269.75,1352.6 1269.09,1351.6 1270.5,1349.5 Z"/></g>
<g><path style="opacity:1" fill="#cdcdcd" d="M 1266.5,1355.5 C 1266.28,1354.32 1266.61,1353.32 1267.5,1352.5C 1268.8,1354.05 1268.46,1355.05 1266.5,1355.5 Z"/></g>
<g><path style="opacity:1" fill="#919191" d="M 340.5,1353.5 C 341.289,1353.78 341.956,1354.28 342.5,1355C 339.854,1355.5 337.187,1355.66 334.5,1355.5C 336.5,1354.83 338.5,1354.17 340.5,1353.5 Z"/></g>
<g><path style="opacity:1" fill="#0d0d0d" d="M 348.5,1392.5 C 348.167,1392.5 347.833,1392.5 347.5,1392.5C 342.684,1391.67 337.684,1391.17 332.5,1391C 329.553,1390.89 328.22,1389.39 328.5,1386.5C 324.422,1386.74 322.256,1384.74 322,1380.5C 320.396,1370.21 324.23,1362.71 333.5,1358C 353.083,1357.25 360.583,1366.42 356,1385.5C 354.264,1388.74 351.764,1391.07 348.5,1392.5 Z"/></g>
<g><path style="opacity:1" fill="#2c2c2c" d="M 1262.5,1355.5 C 1262.83,1355.5 1263.17,1355.5 1263.5,1355.5C 1264.87,1356.92 1266.2,1358.42 1267.5,1360C 1267.14,1361.22 1266.64,1362.39 1266,1363.5C 1265.31,1362.64 1264.48,1361.98 1263.5,1361.5C 1261.33,1363.17 1259.33,1365.01 1257.5,1367C 1258.96,1370.3 1261.29,1372.63 1264.5,1374C 1263.03,1376.73 1261.03,1377.56 1258.5,1376.5C 1257.83,1371.49 1255.17,1369.82 1250.5,1371.5C 1251.11,1370.61 1251.44,1369.61 1251.5,1368.5C 1252.38,1368.63 1253.04,1368.3 1253.5,1367.5C 1252.67,1366.55 1252.51,1365.55 1253,1364.5C 1254.18,1365.73 1255.35,1365.73 1256.5,1364.5C 1254.24,1362.97 1254.57,1361.64 1257.5,1360.5C 1258.83,1358.5 1260.5,1356.83 1262.5,1355.5 Z"/></g>
<g><path style="opacity:1" fill="#fefefe" d="M 1257.5,1360.5 C 1259.34,1360.64 1259.67,1361.31 1258.5,1362.5C 1257.7,1362.04 1257.37,1361.38 1257.5,1360.5 Z"/></g>
<g><path style="opacity:1" fill="#f5f5f5" d="M 1261.5,1357.5 C 1264.12,1358.47 1264.12,1359.47 1261.5,1360.5C 1260.44,1359.58 1260.44,1358.58 1261.5,1357.5 Z"/></g>
<g><path style="opacity:1" fill="#373737" d="M 1271.5,1363.5 C 1272.76,1363.46 1273.76,1363.96 1274.5,1365C 1273.33,1366.17 1272.17,1367.33 1271,1368.5C 1270.17,1367 1269,1365.83 1267.5,1365C 1269.06,1364.79 1270.39,1364.29 1271.5,1363.5 Z"/></g>
<g><path style="opacity:1" fill="#e6e6e6" d="M 331.5,1365.5 C 332.5,1365.5 333.5,1365.5 334.5,1365.5C 333.637,1367.9 333.637,1370.23 334.5,1372.5C 340.113,1366.83 341.113,1367.16 337.5,1373.5C 339.149,1374.15 340.482,1375.15 341.5,1376.5C 339.587,1377.05 337.587,1377.22 335.5,1377C 339.392,1379.16 339.392,1379.99 335.5,1379.5C 334.833,1380.83 334.167,1382.17 333.5,1383.5C 332.459,1377.3 329.792,1376.3 325.5,1380.5C 324.406,1379.13 324.74,1377.97 326.5,1377C 325.5,1376.17 324.5,1375.33 323.5,1374.5C 325.5,1374.17 327.5,1373.83 329.5,1373.5C 322.87,1370.48 323.203,1369.31 330.5,1370C 331.38,1368.64 331.714,1367.14 331.5,1365.5 Z"/></g>
<g><path style="opacity:1" fill="#7e7e7e" d="M 1251.5,1368.5 C 1251.44,1369.61 1251.11,1370.61 1250.5,1371.5C 1249.83,1372.5 1249.17,1373.5 1248.5,1374.5C 1246.95,1374.28 1245.29,1373.94 1243.5,1373.5C 1244.42,1371.24 1246.09,1370.24 1248.5,1370.5C 1248.5,1369.5 1248.5,1368.5 1248.5,1367.5C 1250.65,1364.67 1251.65,1365 1251.5,1368.5 Z"/></g>
<g><path style="opacity:1" fill="#e8e8e8" d="M 1258.5,1376.5 C 1257.83,1377.85 1257.83,1379.01 1258.5,1380C 1256.87,1380.49 1255.2,1380.66 1253.5,1380.5C 1249.37,1380.07 1247.7,1378.07 1248.5,1374.5C 1249.17,1373.5 1249.83,1372.5 1250.5,1371.5C 1255.17,1369.82 1257.83,1371.49 1258.5,1376.5 Z"/></g>
<g><path style="opacity:1" fill="#525252" d="M 1261.5,1369.5 C 1262.74,1368.26 1263.74,1368.6 1264.5,1370.5C 1264.17,1370.83 1263.83,1371.17 1263.5,1371.5C 1262.82,1370.76 1262.15,1370.09 1261.5,1369.5 Z"/></g>
<g><path style="opacity:1" fill="#5e5e5e" d="M 331.5,1374.5 C 333.337,1374.64 333.67,1375.31 332.5,1376.5C 331.702,1376.04 331.369,1375.38 331.5,1374.5 Z"/></g>
<g><path style="opacity:1" fill="#d9d9d9" d="M 344.5,1368.5 C 347.518,1368.34 350.518,1368.5 353.5,1369C 353.957,1369.41 354.291,1369.91 354.5,1370.5C 353.167,1373.17 351.833,1375.83 350.5,1378.5C 351.167,1379.17 351.833,1379.83 352.5,1380.5C 350.5,1382.17 348.5,1383.83 346.5,1385.5C 345.534,1383.21 344.201,1381.21 342.5,1379.5C 342.728,1377.6 343.728,1376.27 345.5,1375.5C 346.731,1376.65 346.731,1377.82 345.5,1379C 348.243,1381.22 349.243,1380.88 348.5,1378C 349.068,1376.13 349.735,1374.3 350.5,1372.5C 348.604,1371.53 346.604,1371.2 344.5,1371.5C 344.5,1370.5 344.5,1369.5 344.5,1368.5 Z"/></g>
<g><path style="opacity:1" fill="#1e1e1e" d="M 1230.5,1375.5 C 1231.53,1375.9 1231.69,1376.56 1231,1377.5C 1223.5,1387.82 1216.5,1398.49 1210,1409.5C 1213.49,1396.2 1220.32,1384.87 1230.5,1375.5 Z"/></g>
<g><path style="opacity:1" fill="#181818" d="M 1248.5,1367.5 C 1248.5,1368.5 1248.5,1369.5 1248.5,1370.5C 1246.09,1370.24 1244.42,1371.24 1243.5,1373.5C 1245.29,1373.94 1246.95,1374.28 1248.5,1374.5C 1247.7,1378.07 1249.37,1380.07 1253.5,1380.5C 1253.92,1381.22 1254.58,1381.72 1255.5,1382C 1250.71,1385.82 1246.21,1389.98 1242,1394.5C 1242,1390.82 1240.67,1387.82 1238,1385.5C 1234.87,1387.31 1232.04,1389.47 1229.5,1392C 1230.02,1392.95 1230.69,1393.78 1231.5,1394.5C 1229.93,1395.63 1228.26,1395.8 1226.5,1395C 1227.55,1393.28 1226.89,1392.28 1224.5,1392C 1226.02,1389.69 1228.02,1388.19 1230.5,1387.5C 1230.38,1384.8 1231.38,1384.13 1233.5,1385.5C 1234.52,1384.31 1235.69,1383.31 1237,1382.5C 1237.69,1381.67 1237.52,1381 1236.5,1380.5C 1235.38,1381.83 1234.05,1382.33 1232.5,1382C 1236.71,1376.41 1241.05,1370.91 1245.5,1365.5C 1246.27,1366.61 1247.27,1367.28 1248.5,1367.5 Z"/></g>
<g><path style="opacity:1" fill="#e2e2e2" d="M 1238.5,1377.5 C 1240.05,1377.82 1240.71,1378.82 1240.5,1380.5C 1242.14,1380.52 1243.48,1379.85 1244.5,1378.5C 1245.39,1379.32 1245.72,1380.32 1245.5,1381.5C 1246.68,1381.28 1247.68,1381.61 1248.5,1382.5C 1247.17,1383.5 1247.17,1384.5 1248.5,1385.5C 1246.75,1386.4 1244.92,1387.06 1243,1387.5C 1240.52,1385.09 1238.69,1382.26 1237.5,1379C 1238.06,1378.62 1238.39,1378.12 1238.5,1377.5 Z"/></g>
<g><path style="opacity:1" fill="#ebebeb" d="M 1241.5,1375.5 C 1243.34,1375.64 1243.67,1376.31 1242.5,1377.5C 1241.7,1377.04 1241.37,1376.38 1241.5,1375.5 Z"/></g>
<g><path style="opacity:1" fill="#151515" d="M 384.5,1385.5 C 387.714,1386.44 390.714,1387.94 393.5,1390C 389.482,1393.49 385.148,1396.16 380.5,1398C 382.334,1394 383.668,1389.83 384.5,1385.5 Z"/></g>
<g><path style="opacity:1" fill="#888888" d="M 347.5,1392.5 C 347.833,1392.5 348.167,1392.5 348.5,1392.5C 346.193,1394.05 343.527,1394.71 340.5,1394.5C 338.5,1394.33 336.5,1394.17 334.5,1394C 338.882,1393.71 343.215,1393.21 347.5,1392.5 Z"/></g>
<g><path style="opacity:1" fill="#101010" d="M 1213.5,1391.5 C 1214.04,1391.56 1214.38,1391.89 1214.5,1392.5C 1208.57,1400.65 1205.91,1409.65 1206.5,1419.5C 1211.33,1411.83 1216.17,1404.17 1221,1396.5C 1222,1397.83 1223,1397.83 1224,1396.5C 1224.5,1398.47 1224.66,1400.47 1224.5,1402.5C 1226.39,1402.7 1227.89,1402.04 1229,1400.5C 1230.18,1401.73 1231.35,1401.73 1232.5,1400.5C 1231.97,1399.81 1231.31,1399.31 1230.5,1399C 1231.77,1398.1 1232.77,1396.93 1233.5,1395.5C 1235.48,1396.97 1237.15,1396.64 1238.5,1394.5C 1239.83,1395.5 1239.83,1396.5 1238.5,1397.5C 1236.35,1399.15 1234.35,1400.98 1232.5,1403C 1231.21,1403.49 1229.87,1403.66 1228.5,1403.5C 1228.65,1404.55 1228.48,1405.55 1228,1406.5C 1221.77,1411.7 1215.27,1416.53 1208.5,1421C 1204.25,1424.96 1201.42,1424.12 1200,1418.5C 1199.33,1415.5 1199.33,1412.5 1200,1409.5C 1203.95,1403.06 1208.45,1397.06 1213.5,1391.5 Z"/></g>
<g><path style="opacity:1" fill="#080808" d="M 354.5,1413.5 C 360.439,1413.05 364.939,1415.39 368,1420.5C 369.492,1427.23 366.992,1431.56 360.5,1433.5C 356.866,1432.12 353.533,1430.46 350.5,1428.5C 348.327,1422.51 349.661,1417.51 354.5,1413.5 Z"/></g>
<g><path style="opacity:1" fill="#212121" d="M 1213.5,1426.5 C 1214.87,1426.34 1216.21,1426.51 1217.5,1427C 1219.07,1429.6 1221.07,1430.77 1223.5,1430.5C 1221.6,1431.47 1219.6,1431.8 1217.5,1431.5C 1217.73,1433.72 1216.89,1435.38 1215,1436.5C 1214.87,1435.22 1215.37,1434.06 1216.5,1433C 1215.09,1431.02 1214.09,1428.86 1213.5,1426.5 Z"/></g>
<g><path style="opacity:1" fill="#0b0b0b" d="M 1228.5,1408.5 C 1229.71,1409.5 1229.55,1410.5 1228,1411.5C 1227.67,1418.83 1227.33,1426.17 1227,1433.5C 1226.76,1438.81 1225.42,1443.81 1223,1448.5C 1221.85,1449.74 1220.51,1450.74 1219,1451.5C 1216.58,1447.66 1214.41,1443.66 1212.5,1439.5C 1216.03,1438.08 1219.69,1437.41 1223.5,1437.5C 1223.47,1434.77 1224.14,1432.27 1225.5,1430C 1225.41,1428.89 1225.08,1427.89 1224.5,1427C 1221.25,1426.37 1218.25,1425.21 1215.5,1423.5C 1212.84,1423.5 1211.51,1424.83 1211.5,1427.5C 1211.39,1429.37 1212.06,1430.87 1213.5,1432C 1212.3,1432.9 1211.47,1434.07 1211,1435.5C 1209.77,1432.05 1208.27,1428.71 1206.5,1425.5C 1214.26,1420.3 1221.6,1414.63 1228.5,1408.5 Z"/></g>
<g><path style="opacity:1" fill="#8b8b8b" d="M 1129.5,1433.5 C 1127.26,1433.21 1125.26,1433.54 1123.5,1434.5C 1122.96,1434.44 1122.62,1434.11 1122.5,1433.5C 1124.97,1432.2 1127.31,1432.2 1129.5,1433.5 Z"/></g>
<g><path style="opacity:1" fill="#0e0e0e" d="M 1120.5,1441.5 C 1122.48,1441.38 1124.15,1442.05 1125.5,1443.5C 1128.46,1442.57 1130.46,1443.74 1131.5,1447C 1129.29,1452.05 1125.62,1455.55 1120.5,1457.5C 1117.98,1456.31 1116.64,1454.31 1116.5,1451.5C 1116.63,1447.6 1117.96,1444.26 1120.5,1441.5 Z"/></g>
</svg>
