<?xml version="1.0" encoding="UTF-8"?>
<!DOCTYPE svg PUBLIC "-//W3C//DTD SVG 1.1//EN" "http://www.w3.org/Graphics/SVG/1.1/DTD/svg11.dtd">
<svg xmlns="http://www.w3.org/2000/svg" version="1.1" width="1514px" height="1412px" style="shape-rendering:geometricPrecision; text-rendering:geometricPrecision; image-rendering:optimizeQuality; fill-rule:evenodd; clip-rule:evenodd" xmlns:xlink="http://www.w3.org/1999/xlink">
<g><path style="opacity:1" fill="#fefefe" d="M 1114.5,47.5 C 1115.83,47.5 1117.17,47.5 1118.5,47.5C 1118.74,46.209 1118.4,45.209 1117.5,44.5C 1116.42,42.8427 1115.76,41.0093 1115.5,39C 1116.54,35.5516 1117.37,32.0516 1118,28.5C 1121.9,28.99 1124.9,31.3234 1127,35.5C 1127.83,38.7928 1128.33,42.1262 1128.5,45.5C 1131.6,45.3083 1134.6,44.6416 1137.5,43.5C 1140.66,45.0267 1143.99,45.6933 1147.5,45.5C 1147.67,46.8221 1147.34,47.9887 1146.5,49C 1141.24,52.144 1135.57,53.9773 1129.5,54.5C 1130.81,61.2003 1132.31,67.867 1134,74.5C 1135.29,72.7513 1136.46,70.918 1137.5,69C 1138.72,68.4372 1139.72,68.7705 1140.5,70C 1139.77,74.1433 1137.44,76.81 1133.5,78C 1135.03,82.2456 1136.36,86.5789 1137.5,91C 1137.24,92.2613 1136.57,93.2613 1135.5,94C 1139.16,97.8166 1143.49,100.65 1148.5,102.5C 1152.16,95.8424 1155.83,89.1757 1159.5,82.5C 1150.2,75.8515 1148.7,67.8515 1155,58.5C 1163.74,51.034 1172.41,51.3674 1181,59.5C 1184.17,74.303 1178.34,82.1364 1163.5,83C 1159.79,88.9274 1156.45,95.094 1153.5,101.5C 1158.48,107.947 1163.81,114.113 1169.5,120C 1168.41,121.365 1167.07,121.699 1165.5,121C 1161,115.833 1156.5,110.667 1152,105.5C 1149.83,108.346 1148.33,111.512 1147.5,115C 1148.57,121.706 1149.57,128.372 1150.5,135C 1150.17,135.333 1149.83,135.667 1149.5,136C 1286.59,229.576 1379.26,356.076 1427.5,515.5C 1427.8,517.403 1428.46,519.07 1429.5,520.5C 1433.98,536.417 1438.15,552.417 1442,568.5C 1443.71,563.962 1446.88,562.462 1451.5,564C 1456.14,567.126 1459.48,571.293 1461.5,576.5C 1460.59,579.3 1458.59,580.633 1455.5,580.5C 1451.5,580.5 1447.5,580.5 1443.5,580.5C 1443.26,581.791 1443.6,582.791 1444.5,583.5C 1444.93,586.166 1445.43,588.832 1446,591.5C 1452.52,585.912 1458.52,586.579 1464,593.5C 1465.7,595.577 1466.87,597.91 1467.5,600.5C 1468.62,602.979 1468.62,605.312 1467.5,607.5C 1465.78,602.241 1463.12,597.408 1459.5,593C 1452.45,588.694 1448.45,590.527 1447.5,598.5C 1447.66,605.484 1449.16,612.151 1452,618.5C 1457.55,622.768 1462.22,621.768 1466,615.5C 1467.14,613.257 1467.97,610.924 1468.5,608.5C 1469.47,606.052 1469.81,603.385 1469.5,600.5C 1470.33,599.668 1471.16,600.001 1472,601.5C 1473.19,613.146 1468.36,620.813 1457.5,624.5C 1455.14,623.905 1452.98,622.905 1451,621.5C 1472.79,820.06 1421.79,997.06 1298,1152.5C 1266.08,1190.43 1230.91,1224.93 1192.5,1256C 1196.99,1266.12 1200.49,1276.62 1203,1287.5C 1205.37,1289.7 1207.54,1292.04 1209.5,1294.5C 1209.78,1295.29 1210.28,1295.96 1211,1296.5C 1211.82,1291.65 1211.65,1286.98 1210.5,1282.5C 1209.98,1278.53 1208.98,1274.69 1207.5,1271C 1208.56,1269.81 1209.9,1269.31 1211.5,1269.5C 1213.52,1279.65 1214.19,1289.82 1213.5,1300C 1214.64,1301.97 1215.97,1303.81 1217.5,1305.5C 1223.68,1301.92 1230.01,1301.58 1236.5,1304.5C 1237.62,1305.76 1238.29,1305.42 1238.5,1303.5C 1239.19,1302.23 1240.02,1302.23 1241,1303.5C 1241.11,1307.54 1242.28,1311.21 1244.5,1314.5C 1243.31,1315.43 1241.98,1315.76 1240.5,1315.5C 1240.23,1323.26 1236.4,1328.26 1229,1330.5C 1217.56,1327.06 1212.56,1319.39 1214,1307.5C 1212.92,1305 1211.59,1302.67 1210,1300.5C 1202.02,1304.24 1194.02,1304.24 1186,1300.5C 1185.44,1299.28 1185.77,1298.28 1187,1297.5C 1193.86,1300.03 1200.7,1300.03 1207.5,1297.5C 1204.32,1293.49 1200.99,1289.66 1197.5,1286C 1189.4,1280.87 1181.57,1275.37 1174,1269.5C 1011.55,1385.13 831.716,1425.97 634.5,1392C 558.747,1377.59 487.413,1351.42 420.5,1313.5C 419.86,1311.67 418.86,1311.33 417.5,1312.5C 418.793,1314.1 419.793,1315.77 420.5,1317.5C 421.922,1317.75 422.922,1318.58 423.5,1320C 424.592,1324.45 424.592,1329.12 423.5,1334C 419.936,1336.2 416.102,1337.7 412,1338.5C 408.012,1337.84 404.512,1336.51 401.5,1334.5C 400.817,1332.82 399.483,1332.16 397.5,1332.5C 396.316,1331.31 396.316,1330.15 397.5,1329C 395.59,1328.59 394.59,1327.43 394.5,1325.5C 395.337,1323.2 395.504,1320.86 395,1318.5C 396.775,1314.86 398.608,1311.19 400.5,1307.5C 401.167,1307.17 401.833,1306.83 402.5,1306.5C 404.056,1307.55 405.723,1308.21 407.5,1308.5C 409.424,1308.29 409.757,1307.62 408.5,1306.5C 362.748,1279.43 320.748,1247.27 282.5,1210C 273.785,1209.36 266.785,1212.52 261.5,1219.5C 263.885,1221.88 265.885,1224.55 267.5,1227.5C 266.877,1229.71 265.877,1231.71 264.5,1233.5C 267.818,1236.32 270.985,1239.32 274,1242.5C 275.414,1250.56 274.414,1258.23 271,1265.5C 267.833,1267.33 265.333,1269.83 263.5,1273C 260.352,1274.6 257.019,1275.6 253.5,1276C 252.283,1277.65 251.45,1279.48 251,1281.5C 249.391,1282.15 247.891,1282.98 246.5,1284C 244.191,1284.76 242.191,1284.26 240.5,1282.5C 238.941,1283.45 237.274,1284.11 235.5,1284.5C 233.962,1284.55 232.962,1283.88 232.5,1282.5C 232.719,1281.32 232.386,1280.32 231.5,1279.5C 230.893,1279.62 230.56,1279.96 230.5,1280.5C 228.598,1281.51 226.598,1281.68 224.5,1281C 222.5,1278 220.5,1275 218.5,1272C 209.917,1272.92 206.25,1269.08 207.5,1260.5C 196.631,1263.46 192.464,1259.46 195,1248.5C 191.97,1248.38 188.803,1248.22 185.5,1248C 184.57,1246.81 183.903,1245.47 183.5,1244C 184.5,1241 185.5,1238 186.5,1235C 182.735,1229.92 183.569,1225.42 189,1221.5C 188.961,1217.37 190.795,1214.37 194.5,1212.5C 193.572,1211.23 193.405,1209.9 194,1208.5C 196.08,1206.88 198.246,1205.38 200.5,1204C 198.437,1202.43 197.771,1200.6 198.5,1198.5C 200.858,1196.71 203.525,1195.71 206.5,1195.5C 206.626,1192.41 208.293,1190.57 211.5,1190C 217.052,1188.15 222.719,1187.49 228.5,1188C 229.574,1188.74 230.241,1189.74 230.5,1191C 229.375,1192.96 228.041,1194.8 226.5,1196.5C 232.056,1198.07 237.723,1199.24 243.5,1200C 247.103,1201.77 249.436,1204.6 250.5,1208.5C 255.292,1203.1 258.958,1196.93 261.5,1190C 244.901,1171.28 228.901,1152.12 213.5,1132.5C 213.068,1131.29 212.401,1130.29 211.5,1129.5C 209.886,1127.54 208.219,1125.54 206.5,1123.5C 203.86,1126.81 200.86,1129.81 197.5,1132.5C 196.224,1133.61 196.224,1134.61 197.5,1135.5C 197.833,1136.5 198.5,1137.17 199.5,1137.5C 201.861,1138.43 204.028,1139.77 206,1141.5C 209.678,1150.38 212.178,1159.55 213.5,1169C 212.743,1170.51 211.743,1171.85 210.5,1173C 206.668,1174.62 202.668,1175.62 198.5,1176C 197.718,1178.74 197.218,1181.57 197,1184.5C 196,1185.17 195,1185.83 194,1186.5C 185.966,1183.87 177.799,1181.71 169.5,1180C 166.055,1177.73 164.055,1174.56 163.5,1170.5C 163.975,1167.92 163.308,1165.92 161.5,1164.5C 157.253,1164.82 153.253,1163.99 149.5,1162C 148.524,1159.85 148.691,1157.69 150,1155.5C 152.312,1152.02 155.146,1149.02 158.5,1146.5C 157.456,1144.23 157.289,1141.9 158,1139.5C 161.307,1137.06 164.974,1135.4 169,1134.5C 167.172,1130.79 166.505,1126.79 167,1122.5C 171.337,1121.24 175.171,1122.24 178.5,1125.5C 179.623,1126.76 180.289,1126.42 180.5,1124.5C 180.281,1123.32 180.614,1122.32 181.5,1121.5C 186.205,1120.14 190.872,1120.3 195.5,1122C 197.303,1122.64 198.636,1123.8 199.5,1125.5C 201.316,1124.19 202.983,1122.69 204.5,1121C 133.089,1022.62 90.0891,912.785 75.5,791.5C 75.4249,788.794 75.0916,786.127 74.5,783.5C 74.4793,776.626 73.8127,769.959 72.5,763.5C 61.6349,595.416 104.635,442.916 201.5,306C 199.109,305.713 196.776,305.213 194.5,304.5C 190.725,308.532 187.059,312.699 183.5,317C 181.833,317.667 180.167,317.667 178.5,317C 176.623,314.749 175.123,312.249 174,309.5C 172.606,303.238 170.606,297.238 168,291.5C 166.715,282.971 168.715,275.305 174,268.5C 196.795,242.036 219.962,215.87 243.5,190C 246.557,188.475 249.557,187.141 252.5,186C 269.542,171.289 286.875,156.956 304.5,143C 308.609,139.612 313.275,137.279 318.5,136C 326.119,130.716 333.452,125.049 340.5,119C 347.263,114.568 354.263,110.568 361.5,107C 363.5,106.333 365.5,106.333 367.5,107C 372.824,111.949 375.657,118.116 376,125.5C 377.992,126.328 379.492,127.661 380.5,129.5C 380.238,130.978 380.571,132.311 381.5,133.5C 382.107,133.376 382.44,133.043 382.5,132.5C 530.358,37.2226 691.691,1.7226 866.5,26C 927.631,35.4889 986.464,52.6555 1043,77.5C 1048.12,70.2053 1054.62,64.5386 1062.5,60.5C 1065.98,53.1774 1070.48,46.5108 1076,40.5C 1067.64,28.3296 1069.14,17.163 1080.5,7C 1084.56,4.65971 1088.89,3.99304 1093.5,5C 1097.59,7.1267 1101.42,9.6267 1105,12.5C 1108.02,23.1228 1105.18,31.9562 1096.5,39C 1091.21,42.7478 1085.71,43.2478 1080,40.5C 1076.88,45.2861 1073.38,49.7861 1069.5,54C 1075.63,55.7066 1081.8,56.2066 1088,55.5C 1090.77,52.4396 1094.27,50.7729 1098.5,50.5C 1096.89,47.1456 1097.22,44.1456 1099.5,41.5C 1101.62,42.4033 1101.95,43.7367 1100.5,45.5C 1101.5,46.5 1102.5,47.5 1103.5,48.5C 1107.09,47.5741 1110.76,47.2408 1114.5,47.5 Z"/></g>
<g><path style="opacity:1" fill="#2a2a2a" d="M 1085.5,7.5 C 1088.19,7.33591 1090.85,7.50258 1093.5,8C 1089.97,8.14459 1086.64,8.97792 1083.5,10.5C 1083.17,10.3333 1082.83,10.1667 1082.5,10C 1083.57,9.14825 1084.57,8.31491 1085.5,7.5 Z"/></g>
<g><path style="opacity:1" fill="#060606" d="M 1080.5,10.5 C 1081.4,11.209 1081.74,12.209 1081.5,13.5C 1085.23,12.2027 1089.06,11.2027 1093,10.5C 1094.17,10.6667 1095.33,10.8333 1096.5,11C 1098.06,13.3639 1100.23,14.8639 1103,15.5C 1104.05,26.5763 1099.55,34.4096 1089.5,39C 1075.75,38.6991 1070.92,31.8658 1075,18.5C 1076.6,15.6305 1078.43,12.9639 1080.5,10.5 Z"/></g>
<g><path style="opacity:1" fill="#353535" d="M 1119.5,35.5 C 1121.07,38.9166 1121.57,42.5832 1121,46.5C 1119.06,42.9074 1118.56,39.2408 1119.5,35.5 Z"/></g>
<g><path style="opacity:1" fill="#4b4b4b" d="M 1122.5,35.5 C 1123.79,36.0577 1124.62,37.0577 1125,38.5C 1125.82,41.2272 1125.65,43.8938 1124.5,46.5C 1123.69,42.8384 1123.02,39.1718 1122.5,35.5 Z"/></g>
<g><path style="opacity:1" fill="#4a4a4a" d="M 1117.5,44.5 C 1118.4,45.209 1118.74,46.209 1118.5,47.5C 1117.17,47.5 1115.83,47.5 1114.5,47.5C 1115.9,46.8999 1116.9,45.8999 1117.5,44.5 Z"/></g>
<g><path style="opacity:1" fill="#474747" d="M 1112.5,49.5 C 1115.52,49.3354 1118.52,49.502 1121.5,50C 1115.18,51.1844 1108.84,51.8511 1102.5,52C 1105.83,50.9156 1109.17,50.0823 1112.5,49.5 Z"/></g>
<g><path style="opacity:1" fill="#a1a1a1" d="M 1116.5,52.5 C 1118.86,52.3367 1121.19,52.5034 1123.5,53C 1117.09,53.8434 1110.76,55.01 1104.5,56.5C 1104.17,56.1667 1103.83,55.8333 1103.5,55.5C 1107.94,54.4002 1112.28,53.4002 1116.5,52.5 Z"/></g>
<g><path style="opacity:1" fill="#454545" d="M 1092.5,54.5 C 1095.19,54.3359 1097.85,54.5026 1100.5,55C 1098.11,55.2868 1095.78,55.7868 1093.5,56.5C 1092.7,56.0431 1092.37,55.3764 1092.5,54.5 Z"/></g>
<g><path style="opacity:1" fill="#030303" d="M 1111.5,56.5 C 1113.83,56.5 1116.17,56.5 1118.5,56.5C 1119.01,61.6991 1120.34,66.6991 1122.5,71.5C 1120.17,71.5 1117.83,71.5 1115.5,71.5C 1117.89,74.1135 1120.72,76.1135 1124,77.5C 1126.8,90.6511 1134.47,99.9845 1147,105.5C 1146.58,108.521 1145.42,111.355 1143.5,114C 1134.77,114.492 1126.11,115.159 1117.5,116C 1099.57,105.785 1081.41,95.952 1063,86.5C 1062.74,76.9997 1063.91,67.6664 1066.5,58.5C 1067.33,58.1667 1068.17,57.8333 1069,57.5C 1079.05,60.0608 1089.05,60.0608 1099,57.5C 1101.5,58.1513 1102.84,59.818 1103,62.5C 1104.02,63.6872 1105.19,64.6872 1106.5,65.5C 1106.83,65 1107.17,64.5 1107.5,64C 1105.42,62.7562 1104.42,60.9229 1104.5,58.5C 1107.07,58.2785 1109.4,57.6118 1111.5,56.5 Z"/></g>
<g><path style="opacity:1" fill="#080808" d="M 1160.5,57.5 C 1161.16,58.2778 1161.99,58.9444 1163,59.5C 1167.21,56.1817 1170.38,56.8483 1172.5,61.5C 1173.32,62.3857 1174.32,62.719 1175.5,62.5C 1175.27,60.6453 1175.94,59.8119 1177.5,60C 1180.14,65.3515 1179.64,70.5182 1176,75.5C 1168.31,81.3485 1161.31,80.6818 1155,73.5C 1154.16,69.7054 1154.5,66.0387 1156,62.5C 1157.71,60.9625 1159.21,59.2959 1160.5,57.5 Z"/></g>
<g><path style="opacity:1" fill="#131313" d="M 1123.5,62.5 C 1123.67,63.4916 1123.34,64.1583 1122.5,64.5C 1121.49,61.4726 1121.49,58.4726 1122.5,55.5C 1123.47,57.7427 1123.81,60.076 1123.5,62.5 Z"/></g>
<g><path style="opacity:1" fill="#868686" d="M 1123.5,62.5 C 1124.74,65.6335 1125.24,68.9668 1125,72.5C 1124.06,69.846 1123.23,67.1794 1122.5,64.5C 1123.34,64.1583 1123.67,63.4916 1123.5,62.5 Z"/></g>
<g><path style="opacity:1" fill="#0a0a0a" d="M 1060.5,64.5 C 1061.23,71.0427 1060.89,77.7094 1059.5,84.5C 1054.61,83.3904 1050.28,81.2238 1046.5,78C 1050.56,72.8155 1055.23,68.3155 1060.5,64.5 Z"/></g>
<g><path style="opacity:1" fill="#303030" d="M 1125.5,55.5 C 1126.12,55.6107 1126.62,55.944 1127,56.5C 1128.23,62.5342 1129.23,68.5342 1130,74.5C 1127.01,68.57 1125.51,62.2367 1125.5,55.5 Z"/></g>
<g><path style="opacity:1" fill="#656565" d="M 1126.5,76.5 C 1128.24,78.1195 1128.74,80.1195 1128,82.5C 1127.19,80.5643 1126.69,78.5643 1126.5,76.5 Z"/></g>
<g><path style="opacity:1" fill="#242424" d="M 1131.5,83.5 C 1133.24,85.1195 1133.74,87.1195 1133,89.5C 1131.87,87.6547 1131.37,85.6547 1131.5,83.5 Z"/></g>
<g><path style="opacity:1" fill="#0e0e0e" d="M 361.5,133.5 C 360.859,134.482 360.193,135.482 359.5,136.5C 353.343,137.492 349.677,140.992 348.5,147C 339.845,151.329 331.845,156.662 324.5,163C 320.942,163.146 317.609,163.979 314.5,165.5C 314.714,163.856 314.38,162.356 313.5,161C 308.481,160.502 303.481,160.668 298.5,161.5C 299.584,156.753 302.584,154.086 307.5,153.5C 307.5,152.5 307.5,151.5 307.5,150.5C 296.991,155.29 287.991,162.29 280.5,171.5C 284.513,176.512 289.179,180.845 294.5,184.5C 294.833,184 295.167,183.5 295.5,183C 293.855,181.355 292.188,179.688 290.5,178C 294.459,173.691 293.793,172.858 288.5,175.5C 287.008,173.844 285.342,172.344 283.5,171C 285.167,169.833 286.833,168.667 288.5,167.5C 292.167,170.833 295.833,174.167 299.5,177.5C 299.833,177.167 300.167,176.833 300.5,176.5C 299.5,175.167 298.5,173.833 297.5,172.5C 300.359,169.182 299.692,168.182 295.5,169.5C 290.752,167.457 290.086,164.957 293.5,162C 295.744,163.157 298.244,163.99 301,164.5C 304.484,163.667 307.984,163.501 311.5,164C 309.508,165.998 307.508,167.998 305.5,170C 305.833,170.5 306.167,171 306.5,171.5C 309.337,170.669 311.504,169.002 313,166.5C 313.399,166.728 313.565,167.062 313.5,167.5C 313.5,168.833 313.5,170.167 313.5,171.5C 308.035,171.466 304.869,174.133 304,179.5C 292.91,189.247 281.743,199.08 270.5,209C 265.089,211.274 260.089,214.108 255.5,217.5C 252.523,222.311 248.689,226.311 244,229.5C 235.572,238.591 227.905,248.258 221,258.5C 214.884,260.625 211.884,264.958 212,271.5C 204.29,272.52 201.457,276.687 203.5,284C 202.743,285.512 201.743,286.846 200.5,288C 192.759,289.615 189.592,294.448 191,302.5C 188.552,306.615 185.719,310.448 182.5,314C 178.911,313.392 176.911,311.059 176.5,307C 179.604,302.225 183.104,297.725 187,293.5C 187.667,292.5 187.667,291.5 187,290.5C 184.38,287.424 181.88,284.258 179.5,281C 175.885,280.644 173.218,282.144 171.5,285.5C 170.369,283.926 170.202,282.259 171,280.5C 173.879,274.295 177.546,268.628 182,263.5C 201.079,243.092 219.412,222.092 237,200.5C 236.591,202.225 236.758,203.892 237.5,205.5C 241.612,199.885 246.278,194.719 251.5,190C 265.458,179.044 279.125,167.71 292.5,156C 297.833,152 303.167,148 308.5,144C 314.457,141.688 320.124,138.855 325.5,135.5C 336.829,124.682 349.663,116.015 364,109.5C 366.151,109.643 367.818,110.643 369,112.5C 372.472,117.609 373.139,122.942 371,128.5C 369.322,127.318 369.488,126.152 371.5,125C 370.306,121.445 368.972,117.945 367.5,114.5C 359.75,113.085 357.25,116.085 360,123.5C 360.914,125.664 362.081,127.664 363.5,129.5C 364.391,130.59 365.391,130.59 366.5,129.5C 367.833,130.833 367.833,132.167 366.5,133.5C 364.801,132.185 363.135,132.185 361.5,133.5 Z"/></g>
<g><path style="opacity:1" fill="#171717" d="M 364.5,115.5 C 366.101,118.102 367.435,120.936 368.5,124C 367.667,126.5 366.167,127 364,125.5C 362.97,123.412 362.137,121.245 361.5,119C 362.071,117.401 363.071,116.234 364.5,115.5 Z"/></g>
<g><path style="opacity:1" fill="#101010" d="M 1126.5,117.5 C 1132.83,117.5 1139.17,117.5 1145.5,117.5C 1146.61,122.838 1146.61,128.171 1145.5,133.5C 1137.83,128.667 1130.17,123.833 1122.5,119C 1124.06,118.79 1125.39,118.29 1126.5,117.5 Z"/></g>
<g><path style="opacity:1" fill="#e3e3e3" d="M 361.5,133.5 C 358.22,135.14 354.886,136.807 351.5,138.5C 346.425,135.018 344.091,130.351 344.5,124.5C 348.282,122.096 352.282,120.596 356.5,120C 358.28,124.514 359.947,129.014 361.5,133.5 Z"/></g>
<g><path style="opacity:1" fill="#0e0e0e" d="M 353.5,122.5 C 358.814,127.76 358.314,132.094 352,135.5C 349.793,132.922 347.96,130.089 346.5,127C 348.898,125.476 351.231,123.976 353.5,122.5 Z"/></g>
<g><path style="opacity:1" fill="#191919" d="M 375.5,129.5 C 379.476,131.498 379.309,133.498 375,135.5C 374.5,135.333 374,135.167 373.5,135C 374.861,133.416 375.528,131.582 375.5,129.5 Z"/></g>
<g><path style="opacity:1" fill="#414141" d="M 380.5,129.5 C 381.167,130.5 381.833,131.5 382.5,132.5C 382.44,133.043 382.107,133.376 381.5,133.5C 380.571,132.311 380.238,130.978 380.5,129.5 Z"/></g>
<g><path style="opacity:1" fill="#dedede" d="M 325.5,135.5 C 327.255,134.928 328.922,134.094 330.5,133C 334.546,132.676 337.379,134.509 339,138.5C 340.358,140.859 341.358,143.193 342,145.5C 338.7,147.302 335.533,149.302 332.5,151.5C 329.747,146.992 326.747,142.659 323.5,138.5C 324.193,137.482 324.859,136.482 325.5,135.5 Z"/></g>
<g><path style="opacity:1" fill="#0d0d0d" d="M 330.5,135.5 C 331.552,135.351 332.552,135.517 333.5,136C 335.291,138.414 336.957,140.914 338.5,143.5C 336.833,144.833 335.167,146.167 333.5,147.5C 331.252,144.672 329.252,141.672 327.5,138.5C 328.34,137.265 329.34,136.265 330.5,135.5 Z"/></g>
<g><path style="opacity:1" fill="#646464" d="M 363.5,135.5 C 367.061,135.915 366.894,136.915 363,138.5C 362.53,137.423 362.697,136.423 363.5,135.5 Z"/></g>
<g><path style="opacity:1" fill="#1f1f1f" d="M 367.5,138.5 C 371.135,138.656 371.468,139.822 368.5,142C 366.741,142.798 365.074,142.631 363.5,141.5C 364.901,140.479 366.235,139.479 367.5,138.5 Z"/></g>
<g><path style="opacity:1" fill="#292929" d="M 355.5,140.5 C 356.552,140.351 357.552,140.517 358.5,141C 356.695,141.972 355.028,143.139 353.5,144.5C 353.167,144.167 352.833,143.833 352.5,143.5C 353.34,142.265 354.34,141.265 355.5,140.5 Z"/></g>
<g><path style="opacity:1" fill="#e0e0e0" d="M 318.5,140.5 C 319.496,140.414 320.329,140.748 321,141.5C 322.923,145.258 325.423,148.591 328.5,151.5C 325.81,154.185 322.81,156.518 319.5,158.5C 316.342,155.172 313.342,151.672 310.5,148C 313.062,145.267 315.729,142.767 318.5,140.5 Z"/></g>
<g><path style="opacity:1" fill="#121212" d="M 317.5,144.5 C 320.07,146.403 322.404,148.737 324.5,151.5C 323.126,152.711 321.626,153.711 320,154.5C 315.362,151.952 314.529,148.619 317.5,144.5 Z"/></g>
<g><path style="opacity:1" fill="#242424" d="M 358.5,143.5 C 360.028,143.517 360.528,144.184 360,145.5C 358.677,148.059 356.843,148.725 354.5,147.5C 355.867,146.16 357.2,144.827 358.5,143.5 Z"/></g>
<g><path style="opacity:1" fill="#111111" d="M 350.5,148.5 C 352.507,149.348 353.674,150.682 354,152.5C 345.333,159.167 336.667,165.833 328,172.5C 327.432,169.779 327.099,167.112 327,164.5C 334.484,158.492 342.318,153.158 350.5,148.5 Z"/></g>
<g><path style="opacity:1" fill="#e2e2e2" d="M 314.5,165.5 C 314.672,166.492 314.338,167.158 313.5,167.5C 313.565,167.062 313.399,166.728 313,166.5C 311.504,169.002 309.337,170.669 306.5,171.5C 306.167,171 305.833,170.5 305.5,170C 307.508,167.998 309.508,165.998 311.5,164C 307.984,163.501 304.484,163.667 301,164.5C 298.244,163.99 295.744,163.157 293.5,162C 290.086,164.957 290.752,167.457 295.5,169.5C 299.692,168.182 300.359,169.182 297.5,172.5C 298.5,173.833 299.5,175.167 300.5,176.5C 300.167,176.833 299.833,177.167 299.5,177.5C 295.833,174.167 292.167,170.833 288.5,167.5C 286.833,168.667 285.167,169.833 283.5,171C 285.342,172.344 287.008,173.844 288.5,175.5C 293.793,172.858 294.459,173.691 290.5,178C 292.188,179.688 293.855,181.355 295.5,183C 295.167,183.5 294.833,184 294.5,184.5C 289.179,180.845 284.513,176.512 280.5,171.5C 287.991,162.29 296.991,155.29 307.5,150.5C 307.5,151.5 307.5,152.5 307.5,153.5C 302.584,154.086 299.584,156.753 298.5,161.5C 303.481,160.668 308.481,160.502 313.5,161C 314.38,162.356 314.714,163.856 314.5,165.5 Z"/></g>
<g><path style="opacity:1" fill="#101010" d="M 322.5,167.5 C 326.355,169.269 326.355,171.436 322.5,174C 321.167,174.667 319.833,174.667 318.5,174C 317.549,173.282 317.383,172.449 318,171.5C 319.667,170.267 321.167,168.933 322.5,167.5 Z"/></g>
<g><path style="opacity:1" fill="#0d0d0d" d="M 313.5,174.5 C 316.332,176.407 317.166,179.073 316,182.5C 312.505,185.336 310.005,184.503 308.5,180C 310.351,178.317 312.017,176.484 313.5,174.5 Z"/></g>
<g><path style="opacity:1" fill="#e1e1e1" d="M 268.5,179.5 C 273.548,180.161 273.548,181.494 268.5,183.5C 269.653,187.38 271.986,189.047 275.5,188.5C 275.023,189.478 274.357,190.311 273.5,191C 275.378,192.993 275.712,195.159 274.5,197.5C 271.692,193.237 268.859,188.903 266,184.5C 265.294,182.045 266.127,180.378 268.5,179.5 Z"/></g>
<g><path style="opacity:1" fill="#181818" d="M 302.5,183.5 C 303.822,183.33 304.989,183.663 306,184.5C 306.495,186.473 306.662,188.473 306.5,190.5C 300.347,190.873 299.014,188.539 302.5,183.5 Z"/></g>
<g><path style="opacity:1" fill="#e3e3e3" d="M 263.5,185.5 C 264.376,185.369 265.043,185.702 265.5,186.5C 263.833,188.5 262.167,190.5 260.5,192.5C 260.977,193.478 261.643,194.311 262.5,195C 264.587,194.782 266.587,194.949 268.5,195.5C 265.716,197.952 266.049,199.952 269.5,201.5C 268.833,201.833 268.167,202.167 267.5,202.5C 263.237,199.907 259.57,196.574 256.5,192.5C 258.548,189.785 260.882,187.452 263.5,185.5 Z"/></g>
<g><path style="opacity:1" fill="#0f0f0f" d="M 300.5,195.5 C 292.88,202.784 285.214,210.118 277.5,217.5C 276.896,214.737 275.562,212.403 273.5,210.5C 280.207,203.625 287.374,197.291 295,191.5C 296.431,193.438 298.265,194.771 300.5,195.5 Z"/></g>
<g><path style="opacity:1" fill="#ebebeb" d="M 253.5,192.5 C 255.048,192.821 255.715,193.821 255.5,195.5C 250.453,195.376 248.62,197.709 250,202.5C 252.475,207.492 255.975,208.492 260.5,205.5C 261.754,207.259 261.421,208.759 259.5,210C 257.5,210.667 255.5,210.667 253.5,210C 248.466,206.769 246.632,202.269 248,196.5C 249.5,194.531 251.333,193.198 253.5,192.5 Z"/></g>
<g><path style="opacity:1" fill="#555555" d="M 300.5,195.5 C 300.281,194.325 300.614,193.325 301.5,192.5C 302.665,193.86 302.332,194.86 300.5,195.5 Z"/></g>
<g><path style="opacity:1" fill="#e8e8e8" d="M 232.5,210.5 C 234.989,210.298 237.323,210.798 239.5,212C 240.337,213.011 240.67,214.178 240.5,215.5C 242.199,215.34 243.866,215.506 245.5,216C 247.319,222.384 244.986,225.718 238.5,226C 234.644,222.9 230.977,219.567 227.5,216C 229.373,214.296 231.04,212.463 232.5,210.5 Z"/></g>
<g><path style="opacity:1" fill="#151515" d="M 233.5,213.5 C 234.833,213.5 236.167,213.5 237.5,213.5C 237.19,219.711 235.19,220.545 231.5,216C 232.381,215.292 233.047,214.458 233.5,213.5 Z"/></g>
<g><path style="opacity:1" fill="#1c1c1c" d="M 269.5,212.5 C 273.438,212.843 274.438,214.843 272.5,218.5C 269.717,221.351 267.384,221.017 265.5,217.5C 266.857,215.814 268.19,214.148 269.5,212.5 Z"/></g>
<g><path style="opacity:1" fill="#1d1d1d" d="M 240.5,217.5 C 241.833,217.5 243.167,217.5 244.5,217.5C 244.405,220.272 243.071,222.272 240.5,223.5C 239.354,222.855 238.354,222.022 237.5,221C 238.71,219.961 239.71,218.794 240.5,217.5 Z"/></g>
<g><path style="opacity:1" fill="#0a0a0a" d="M 261.5,219.5 C 268.308,224.331 267.975,228.664 260.5,232.5C 258.5,230.833 256.5,229.167 254.5,227.5C 255.015,225.775 255.682,224.108 256.5,222.5C 258.396,221.725 260.063,220.725 261.5,219.5 Z"/></g>
<g><path style="opacity:1" fill="#e4e4e4" d="M 225.5,219.5 C 229.833,219.167 231.833,221.167 231.5,225.5C 235.73,224.831 237.563,226.498 237,230.5C 235.507,235.168 232.674,236.334 228.5,234C 225.269,231.273 222.603,228.106 220.5,224.5C 221.882,222.451 223.548,220.785 225.5,219.5 Z"/></g>
<g><path style="opacity:1" fill="#0b0b0b" d="M 225.5,222.5 C 226.5,222.5 227.5,222.5 228.5,222.5C 228.396,227.498 226.729,228.331 223.5,225C 224.381,224.292 225.047,223.458 225.5,222.5 Z"/></g>
<g><path style="opacity:1" fill="#696969" d="M 271.5,221.5 C 272.239,221.369 272.906,221.536 273.5,222C 272.333,223.167 271.167,224.333 270,225.5C 269.516,223.807 270.016,222.473 271.5,221.5 Z"/></g>
<g><path style="opacity:1" fill="#212121" d="M 231.5,227.5 C 232.675,227.281 233.675,227.614 234.5,228.5C 233.754,229.736 233.421,231.07 233.5,232.5C 228.383,231.826 227.717,230.16 231.5,227.5 Z"/></g>
<g><path style="opacity:1" fill="#e1e1e1" d="M 215.5,229.5 C 217.288,229.215 218.955,229.548 220.5,230.5C 215.689,232.187 214.356,235.353 216.5,240C 220.357,238.585 224.357,237.418 228.5,236.5C 227.904,240.358 226.238,243.691 223.5,246.5C 222.692,246.192 222.025,245.692 221.5,245C 222.257,243.488 223.257,242.154 224.5,241C 222.799,240.655 221.466,241.322 220.5,243C 215.366,244.042 212.699,241.876 212.5,236.5C 213.025,233.971 214.025,231.638 215.5,229.5 Z"/></g>
<g><path style="opacity:1" fill="#0f0f0f" d="M 248.5,230.5 C 249.833,230.5 251.167,230.5 252.5,230.5C 252.5,233.833 254.167,235.5 257.5,235.5C 256.826,240.151 254.159,241.651 249.5,240C 247.773,238.611 246.439,236.944 245.5,235C 246.555,233.493 247.555,231.993 248.5,230.5 Z"/></g>
<g><path style="opacity:1" fill="#0a0a0a" d="M 241.5,236.5 C 244.482,239.469 247.816,242.136 251.5,244.5C 244.833,252.167 238.167,259.833 231.5,267.5C 230.524,263.19 227.857,260.524 223.5,259.5C 228.785,251.259 234.785,243.593 241.5,236.5 Z"/></g>
<g><path style="opacity:1" fill="#e4e4e4" d="M 205.5,244.5 C 206.873,244.343 208.207,244.51 209.5,245C 211.373,247.209 213.54,249.042 216,250.5C 217.176,254.26 216.01,257.093 212.5,259C 210.711,259.52 209.044,259.187 207.5,258C 205.957,256.122 204.124,254.622 202,253.5C 202.54,250.393 203.707,247.393 205.5,244.5 Z"/></g>
<g><path style="opacity:1" fill="#121212" d="M 206.5,247.5 C 209.245,248.738 211.579,250.571 213.5,253C 212.937,255.251 211.603,256.251 209.5,256C 207.983,254.315 206.316,252.815 204.5,251.5C 205.63,250.378 206.297,249.044 206.5,247.5 Z"/></g>
<g><path style="opacity:1" fill="#e1e1e1" d="M 195.5,258.5 C 200.778,258.756 204.445,261.423 206.5,266.5C 201.429,274.461 196.263,274.461 191,266.5C 190.333,265.5 190.333,264.5 191,263.5C 192.707,261.963 194.207,260.296 195.5,258.5 Z"/></g>
<g><path style="opacity:1" fill="#121212" d="M 197.5,260.5 C 203.253,263.215 203.753,266.548 199,270.5C 197.167,268.667 195.333,266.833 193.5,265C 195.041,263.629 196.375,262.129 197.5,260.5 Z"/></g>
<g><path style="opacity:1" fill="#0c0c0c" d="M 220.5,262.5 C 228.819,262.975 230.486,266.475 225.5,273C 221.428,274.336 218.428,273.169 216.5,269.5C 218.11,267.275 219.443,264.941 220.5,262.5 Z"/></g>
<g><path style="opacity:1" fill="#e3e3e3" d="M 184.5,270.5 C 188.581,271.4 192.081,273.4 195,276.5C 195.179,280.535 193.345,283.535 189.5,285.5C 186.528,283.694 183.695,281.694 181,279.5C 180.481,275.868 181.647,272.868 184.5,270.5 Z"/></g>
<g><path style="opacity:1" fill="#6f6f6f" d="M 216.5,274.5 C 215.244,274.539 214.244,274.039 213.5,273C 214.998,272.415 215.998,272.915 216.5,274.5 Z"/></g>
<g><path style="opacity:1" fill="#131313" d="M 185.5,273.5 C 188.34,274.423 190.674,276.09 192.5,278.5C 191.52,279.981 190.353,281.315 189,282.5C 187.622,280.787 185.955,279.453 184,278.5C 183.387,276.505 183.887,274.838 185.5,273.5 Z"/></g>
<g><path style="opacity:1" fill="#0f0f0f" d="M 211.5,276.5 C 214.734,276.237 216.068,277.737 215.5,281C 215.655,284.17 214.155,285.67 211,285.5C 209.338,285.612 208.171,284.946 207.5,283.5C 208.861,281.15 210.194,278.816 211.5,276.5 Z"/></g>
<g><path style="opacity:1" fill="#282828" d="M 216.5,274.5 C 218.637,275.787 220.97,276.621 223.5,277C 222,279.167 220.5,281.333 219,283.5C 218.799,280.247 217.966,277.247 216.5,274.5 Z"/></g>
<g><path style="opacity:1" fill="#111111" d="M 176.5,283.5 C 177.239,283.369 177.906,283.536 178.5,284C 180.15,286.813 182.15,289.313 184.5,291.5C 181.858,295.309 179.025,298.976 176,302.5C 173.733,297.713 172.733,292.713 173,287.5C 174.376,286.295 175.542,284.962 176.5,283.5 Z"/></g>
<g><path style="opacity:1" fill="#0b0b0b" d="M 204.5,286.5 C 207.556,287.296 210.556,288.296 213.5,289.5C 212.243,291.679 210.743,293.679 209,295.5C 207.192,292.562 205.692,289.562 204.5,286.5 Z"/></g>
<g><path style="opacity:1" fill="#131313" d="M 201.5,291.5 C 205.254,292.828 206.421,295.494 205,299.5C 202.695,301.93 199.862,302.93 196.5,302.5C 197.332,298.499 198.999,294.832 201.5,291.5 Z"/></g>
<g><path style="opacity:1" fill="#3a3a3a" d="M 196.5,291.5 C 197.239,291.369 197.906,291.536 198.5,292C 197.378,294.124 195.878,295.957 194,297.5C 193.972,295.213 194.805,293.213 196.5,291.5 Z"/></g>
<g><path style="opacity:1" fill="#d7d7d7" d="M 1429.5,520.5 C 1428.46,519.07 1427.8,517.403 1427.5,515.5C 1436.93,511.62 1446.26,507.453 1455.5,503C 1450.2,493.115 1447.37,482.615 1447,471.5C 1447.5,471 1448,470.5 1448.5,470C 1459.21,465.975 1469.87,461.975 1480.5,458C 1483.53,456.86 1485.69,457.694 1487,460.5C 1491.99,479.817 1497.99,498.817 1505,517.5C 1505.67,519.833 1505.67,522.167 1505,524.5C 1493.51,531.774 1481.01,535.608 1467.5,536C 1465.74,534.992 1464.57,533.492 1464,531.5C 1461.65,522.948 1458.82,514.614 1455.5,506.5C 1447.44,510.864 1439.1,514.698 1430.5,518C 1429.75,518.671 1429.41,519.504 1429.5,520.5 Z"/></g>
<g><path style="opacity:1" fill="#0b0b0b" d="M 1480.5,460.5 C 1481.82,460.33 1482.99,460.663 1484,461.5C 1489.2,480.425 1495.2,499.091 1502,517.5C 1502.9,520.025 1502.4,522.192 1500.5,524C 1496.83,525.683 1493.17,527.016 1489.5,528C 1492.4,525.603 1494.73,522.77 1496.5,519.5C 1494.58,518.359 1492.58,518.192 1490.5,519C 1486.34,519.824 1482.51,521.324 1479,523.5C 1478.22,524.944 1478.39,526.277 1479.5,527.5C 1481.39,528.609 1483.39,529.443 1485.5,530C 1480.05,532.448 1474.39,533.448 1468.5,533C 1462.47,513.864 1456.14,494.864 1449.5,476C 1449.44,473.194 1450.77,471.527 1453.5,471C 1460.08,468.361 1466.74,466.361 1473.5,465C 1474.73,466.183 1474.73,467.349 1473.5,468.5C 1468.3,470.592 1463.64,473.425 1459.5,477C 1459.83,477.5 1460.17,478 1460.5,478.5C 1464.34,476.079 1468.34,473.912 1472.5,472C 1473.78,471.316 1474.95,471.483 1476,472.5C 1476.4,473.872 1476.9,475.205 1477.5,476.5C 1473.39,478.055 1469.39,479.888 1465.5,482C 1464.27,483.183 1464.27,484.349 1465.5,485.5C 1467.43,483.422 1469.59,482.755 1472,483.5C 1472.78,484.944 1472.61,486.277 1471.5,487.5C 1469.09,488.701 1467.09,490.367 1465.5,492.5C 1467.17,495.156 1468.83,497.823 1470.5,500.5C 1471.61,498.716 1471.61,496.882 1470.5,495C 1473.08,491.443 1474.74,491.943 1475.5,496.5C 1476.32,497.386 1477.32,497.719 1478.5,497.5C 1476.15,492.189 1477.82,489.522 1483.5,489.5C 1483.34,491.527 1483.5,493.527 1484,495.5C 1484.41,495.957 1484.91,496.291 1485.5,496.5C 1485.83,495.167 1486.17,493.833 1486.5,492.5C 1485.96,489.312 1484.96,486.312 1483.5,483.5C 1481.06,483.756 1478.73,484.423 1476.5,485.5C 1474.78,484.332 1474.12,482.665 1474.5,480.5C 1476.2,480.66 1477.87,480.494 1479.5,480C 1480.06,479.275 1480.39,478.442 1480.5,477.5C 1478.22,472.397 1476.89,467.064 1476.5,461.5C 1478.1,461.768 1479.43,461.434 1480.5,460.5 Z"/></g>
<g><path style="opacity:1" fill="#e4e4e4" d="M 1484.5,499.5 C 1486.29,499.215 1487.95,499.548 1489.5,500.5C 1491.38,503.257 1492.05,506.09 1491.5,509C 1489.68,512.251 1487.02,514.585 1483.5,516C 1487.11,515.304 1490.78,514.47 1494.5,513.5C 1494.5,514.5 1494.5,515.5 1494.5,516.5C 1488.55,518.037 1482.55,519.37 1476.5,520.5C 1476.45,517.708 1477.79,515.875 1480.5,515C 1477.89,515.359 1475.22,515.859 1472.5,516.5C 1472.07,512.758 1471.57,509.091 1471,505.5C 1475.3,502.798 1479.8,500.798 1484.5,499.5 Z"/></g>
<g><path style="opacity:1" fill="#131313" d="M 1483.5,502.5 C 1485.17,502.5 1486.83,502.5 1488.5,502.5C 1488.5,504.5 1488.5,506.5 1488.5,508.5C 1486.32,508.586 1484.32,509.253 1482.5,510.5C 1481.71,508.535 1481.04,506.535 1480.5,504.5C 1481.6,503.824 1482.6,503.158 1483.5,502.5 Z"/></g>
<g><path style="opacity:1" fill="#1a1a1a" d="M 1475.5,505.5 C 1476.5,505.5 1477.5,505.5 1478.5,505.5C 1479.11,508.916 1478.11,511.582 1475.5,513.5C 1473.35,510.579 1473.35,507.913 1475.5,505.5 Z"/></g>
<g><path style="opacity:1" fill="#1e1e1e" d="M 1486.5,522.5 C 1491.42,522.11 1491.76,523.277 1487.5,526C 1480.13,526.158 1479.8,524.991 1486.5,522.5 Z"/></g>
<g><path style="opacity:1" fill="#121212" d="M 1446.5,566.5 C 1451.12,566.455 1453.46,568.788 1453.5,573.5C 1455.96,573.227 1457.62,574.227 1458.5,576.5C 1453.96,578.554 1449.3,578.887 1444.5,577.5C 1443.1,573.491 1443.77,569.824 1446.5,566.5 Z"/></g>
<g><path style="opacity:1" fill="#909090" d="M 1455.5,580.5 C 1451.56,580.875 1447.89,581.875 1444.5,583.5C 1443.6,582.791 1443.26,581.791 1443.5,580.5C 1447.5,580.5 1451.5,580.5 1455.5,580.5 Z"/></g>
<g><path style="opacity:1" fill="#0a0a0a" d="M 1467.5,607.5 C 1467.5,608.167 1467.83,608.5 1468.5,608.5C 1467.97,610.924 1467.14,613.257 1466,615.5C 1462.22,621.768 1457.55,622.768 1452,618.5C 1449.16,612.151 1447.66,605.484 1447.5,598.5C 1448.45,590.527 1452.45,588.694 1459.5,593C 1463.12,597.408 1465.78,602.241 1467.5,607.5 Z"/></g>
<g><path style="opacity:1" fill="#878787" d="M 1467.5,600.5 C 1468.17,600.5 1468.83,600.5 1469.5,600.5C 1469.81,603.385 1469.47,606.052 1468.5,608.5C 1467.83,608.5 1467.5,608.167 1467.5,607.5C 1468.62,605.312 1468.62,602.979 1467.5,600.5 Z"/></g>
<g><path style="opacity:1" fill="#d3d3d3" d="M 72.5,763.5 C 73.8127,769.959 74.4793,776.626 74.5,783.5C 73.5655,784.568 73.2322,785.901 73.5,787.5C 73.5,788.5 73.5,789.5 73.5,790.5C 72.0222,790.762 70.6888,790.429 69.5,789.5C 68.5774,786.553 67.9107,783.553 67.5,780.5C 64.5019,779.658 61.5019,779.158 58.5,779C 55.5497,785.118 50.8831,789.285 44.5,791.5C 47.2806,792.907 50.114,794.24 53,795.5C 53.7203,797.112 53.5536,798.612 52.5,800C 47.8333,800.667 43.1667,800.667 38.5,800C 37.287,797.313 36.6203,794.48 36.5,791.5C 34.4086,791.318 32.4086,791.652 30.5,792.5C 27.5684,806.766 22.7351,807.1 16,793.5C 12.8333,791.667 10.3333,789.167 8.5,786C 21.2181,782.026 32.7181,775.192 43,765.5C 45,762.833 47,760.167 49,757.5C 52.6059,745.375 51.7726,733.542 46.5,722C 47.3333,721.167 48.1667,720.333 49,719.5C 57.0742,725.959 62.4075,734.292 65,744.5C 67.0152,753.087 66.1819,761.42 62.5,769.5C 65.7041,770.204 68.8708,770.87 72,771.5C 72.4974,768.854 72.6641,766.187 72.5,763.5 Z"/></g>
<g><path style="opacity:1" fill="#080808" d="M 50.5,724.5 C 60.2384,734.888 64.0717,747.221 62,761.5C 61.2574,765.079 59.7574,768.246 57.5,771C 57.9054,771.945 58.572,772.612 59.5,773C 63.1667,773.333 66.8333,773.667 70.5,774C 71.5536,775.388 71.7203,776.888 71,778.5C 66.5494,777.234 62.0494,776.401 57.5,776C 55.1667,779 52.8333,782 50.5,785C 47.6497,786.171 44.8164,787.338 42,788.5C 41.3389,794.474 44.1722,797.307 50.5,797C 47.1832,797.498 43.8499,797.665 40.5,797.5C 40.5771,786.669 36.0771,784.336 27,790.5C 26.911,794.028 26.2444,797.362 25,800.5C 21.6819,797.866 19.3485,794.533 18,790.5C 16.082,789.458 14.2487,788.292 12.5,787C 14.8406,787.557 17.1739,787.39 19.5,786.5C 20.7481,784.541 22.4148,783.041 24.5,782C 38.8163,776.019 48.6496,765.853 54,751.5C 55.3547,742.113 54.188,733.113 50.5,724.5 Z"/></g>
<g><path style="opacity:1" fill="#646464" d="M 74.5,783.5 C 75.0916,786.127 75.4249,788.794 75.5,791.5C 74.8333,790.167 74.1667,788.833 73.5,787.5C 73.2322,785.901 73.5655,784.568 74.5,783.5 Z"/></g>
<g><path style="opacity:1" fill="#d2d2d2" d="M 20.5,788.5 C 21.5,788.5 22.5,788.5 23.5,788.5C 22.7542,792.31 21.7542,792.31 20.5,788.5 Z"/></g>
<g><path style="opacity:1" fill="#050505" d="M 183.5,1123.5 C 187.546,1123.15 191.38,1123.82 195,1125.5C 194.373,1129.11 194.04,1132.78 194,1136.5C 197.078,1138.96 200.244,1141.29 203.5,1143.5C 207.87,1152.06 209.537,1161.06 208.5,1170.5C 204.154,1171.67 199.821,1172.83 195.5,1174C 194.556,1176.72 194.223,1179.55 194.5,1182.5C 191.107,1182.94 188.107,1182.1 185.5,1180C 188.505,1177.65 190.505,1174.65 191.5,1171C 191,1170.5 190.5,1170 190,1169.5C 188.533,1172.27 186.7,1174.77 184.5,1177C 172.691,1181.42 166.358,1177.25 165.5,1164.5C 168.909,1164.75 172.242,1164.42 175.5,1163.5C 176.83,1161.65 176.497,1160.15 174.5,1159C 171.167,1158.33 167.833,1158.33 164.5,1159C 162.941,1160.63 160.941,1161.46 158.5,1161.5C 155.869,1161.68 153.535,1161.01 151.5,1159.5C 153.593,1155.29 156.593,1151.95 160.5,1149.5C 162.071,1150.31 163.738,1150.64 165.5,1150.5C 165.675,1147.67 164.342,1146 161.5,1145.5C 160.319,1143.8 160.319,1142.14 161.5,1140.5C 165.461,1139.65 168.961,1137.98 172,1135.5C 172.242,1132.12 171.408,1128.95 169.5,1126C 169.833,1125.5 170.167,1125 170.5,1124.5C 174.139,1126.32 177.639,1128.32 181,1130.5C 181.772,1130.36 182.439,1130.02 183,1129.5C 183.495,1127.53 183.662,1125.53 183.5,1123.5 Z"/></g>
<g><path style="opacity:1" fill="#2e2e2e" d="M 180.5,1124.5 C 180.289,1126.42 179.623,1126.76 178.5,1125.5C 179.167,1125.17 179.833,1124.83 180.5,1124.5 Z"/></g>
<g><path style="opacity:1" fill="#0e0e0e" d="M 211.5,1129.5 C 208.141,1131.22 204.475,1132.39 200.5,1133C 199.058,1133.38 198.058,1134.21 197.5,1135.5C 196.224,1134.61 196.224,1133.61 197.5,1132.5C 200.86,1129.81 203.86,1126.81 206.5,1123.5C 208.219,1125.54 209.886,1127.54 211.5,1129.5 Z"/></g>
<g><path style="opacity:1" fill="#c6c6c6" d="M 211.5,1129.5 C 212.401,1130.29 213.068,1131.29 213.5,1132.5C 208.741,1134.17 204.074,1135.84 199.5,1137.5C 198.5,1137.17 197.833,1136.5 197.5,1135.5C 198.058,1134.21 199.058,1133.38 200.5,1133C 204.475,1132.39 208.141,1131.22 211.5,1129.5 Z"/></g>
<g><path style="opacity:1" fill="#575757" d="M 166.5,1160.5 C 168.199,1160.34 169.866,1160.51 171.5,1161C 169.728,1162.49 167.728,1162.82 165.5,1162C 166.056,1161.62 166.389,1161.12 166.5,1160.5 Z"/></g>
<g><path style="opacity:1" fill="#757575" d="M 161.5,1164.5 C 163.308,1165.92 163.975,1167.92 163.5,1170.5C 162.715,1168.63 162.048,1166.63 161.5,1164.5 Z"/></g>
<g><path style="opacity:1" fill="#191919" d="M 225.5,1199.5 C 225.5,1199.83 225.5,1200.17 225.5,1200.5C 221.727,1200.74 218.06,1200.24 214.5,1199C 213.62,1197.64 213.286,1196.14 213.5,1194.5C 212.448,1194.65 211.448,1194.48 210.5,1194C 215.873,1191.24 221.54,1190.24 227.5,1191C 225.443,1192.72 223.776,1194.72 222.5,1197C 222.748,1198.75 223.748,1199.58 225.5,1199.5 Z"/></g>
<g><path style="opacity:1" fill="#555555" d="M 264.5,1192.5 C 265.776,1193.39 265.776,1194.39 264.5,1195.5C 263.438,1194.58 263.438,1193.58 264.5,1192.5 Z"/></g>
<g><path style="opacity:1" fill="#191919" d="M 203.5,1198.5 C 205.857,1198.34 208.19,1198.5 210.5,1199C 212.701,1202.71 214.201,1206.55 215,1210.5C 213.846,1209.26 212.512,1208.26 211,1207.5C 210.837,1205.32 210.004,1203.49 208.5,1202C 207.668,1201.31 207.002,1201.48 206.5,1202.5C 209.724,1207.98 208.057,1210.98 201.5,1211.5C 205.07,1213.28 207.737,1215.95 209.5,1219.5C 209.167,1219.83 208.833,1220.17 208.5,1220.5C 206.477,1217.48 203.81,1215.15 200.5,1213.5C 196.879,1216.2 196.212,1215.87 198.5,1212.5C 198.023,1211.52 197.357,1210.69 196.5,1210C 199.102,1209.12 201.269,1207.62 203,1205.5C 203.624,1203.54 203.124,1201.87 201.5,1200.5C 202.243,1199.82 202.909,1199.15 203.5,1198.5 Z"/></g>
<g><path style="opacity:1" fill="#b7b7b7" d="M 225.5,1200.5 C 225.5,1200.17 225.5,1199.83 225.5,1199.5C 230.325,1200.3 234.992,1201.3 239.5,1202.5C 234.703,1202.48 230.036,1201.81 225.5,1200.5 Z"/></g>
<g><path style="opacity:1" fill="#2b2b2b" d="M 271.5,1200.5 C 272.756,1200.46 273.756,1200.96 274.5,1202C 271.428,1204.95 268.261,1207.78 265,1210.5C 264.333,1209.83 264.333,1209.17 265,1208.5C 267.758,1206.25 269.925,1203.58 271.5,1200.5 Z"/></g>
<g><path style="opacity:1" fill="#676767" d="M 220.5,1203.5 C 221.274,1202.85 222.274,1202.52 223.5,1202.5C 228.75,1202.89 233.75,1204.05 238.5,1206C 237.975,1206.69 237.308,1207.19 236.5,1207.5C 235.088,1206.19 233.421,1205.36 231.5,1205C 227.748,1204.76 224.081,1204.26 220.5,1203.5 Z"/></g>
<g><path style="opacity:1" fill="#111111" d="M 275.5,1204.5 C 276.756,1204.46 277.756,1204.96 278.5,1206C 276.835,1206.79 275.169,1207.12 273.5,1207C 274.381,1206.29 275.047,1205.46 275.5,1204.5 Z"/></g>
<g><path style="opacity:1" fill="#696969" d="M 216.5,1205.5 C 218.983,1205.73 219.483,1206.4 218,1207.5C 216.97,1207.16 216.47,1206.5 216.5,1205.5 Z"/></g>
<g><path style="opacity:1" fill="#545454" d="M 239.5,1202.5 C 243.884,1202.4 246.05,1204.4 246,1208.5C 245,1207.17 244,1207.17 243,1208.5C 242.993,1205.69 241.826,1203.69 239.5,1202.5 Z"/></g>
<g><path style="opacity:1" fill="#000000" d="M 226.5,1208.5 C 227.708,1207.22 229.042,1207.22 230.5,1208.5C 229.192,1209.63 227.858,1209.63 226.5,1208.5 Z"/></g>
<g><path style="opacity:1" fill="#262626" d="M 222.5,1208.5 C 224.332,1209.14 224.665,1210.14 223.5,1211.5C 222.614,1210.68 222.281,1209.68 222.5,1208.5 Z"/></g>
<g><path style="opacity:1" fill="#717171" d="M 234.5,1210.5 C 236.983,1210.73 237.483,1211.4 236,1212.5C 234.97,1212.16 234.47,1211.5 234.5,1210.5 Z"/></g>
<g><path style="opacity:1" fill="#555555" d="M 207.5,1211.5 C 209.074,1211.94 210.241,1212.94 211,1214.5C 211.667,1215.17 211.667,1215.83 211,1216.5C 209.198,1215.21 208.031,1213.54 207.5,1211.5 Z"/></g>
<g><path style="opacity:1" fill="#1c1c1c" d="M 251.5,1212.5 C 254.513,1212.72 256.847,1214.05 258.5,1216.5C 258.167,1216.83 257.833,1217.17 257.5,1217.5C 255.167,1216.33 252.833,1215.17 250.5,1214C 251.056,1213.62 251.389,1213.12 251.5,1212.5 Z"/></g>
<g><path style="opacity:1" fill="#787878" d="M 231.5,1215.5 C 232.251,1214.43 233.251,1214.26 234.5,1215C 233.648,1216.73 232.648,1216.9 231.5,1215.5 Z"/></g>
<g><path style="opacity:1" fill="#434343" d="M 215.5,1217.5 C 216.077,1216.23 216.743,1216.23 217.5,1217.5C 217.03,1218.46 216.363,1218.46 215.5,1217.5 Z"/></g>
<g><path style="opacity:1" fill="#181818" d="M 195.5,1217.5 C 196.777,1218.69 197.444,1220.36 197.5,1222.5C 197.333,1224.17 197.167,1225.83 197,1227.5C 194.228,1228.43 192.728,1227.26 192.5,1224C 193.259,1221.73 194.259,1219.57 195.5,1217.5 Z"/></g>
<g><path style="opacity:1" fill="#5b5b5b" d="M 225.5,1217.5 C 227.337,1217.64 227.67,1218.31 226.5,1219.5C 225.702,1219.04 225.369,1218.38 225.5,1217.5 Z"/></g>
<g><path style="opacity:1" fill="#111111" d="M 203.5,1220.5 C 204.289,1220.78 204.956,1221.28 205.5,1222C 204.184,1222.53 203.517,1222.03 203.5,1220.5 Z"/></g>
<g><path style="opacity:1" fill="#222222" d="M 232.5,1219.5 C 232.56,1218.96 232.893,1218.62 233.5,1218.5C 235.167,1219.33 236.833,1220.17 238.5,1221C 239.747,1222.49 239.747,1223.99 238.5,1225.5C 236.839,1223.17 234.839,1221.17 232.5,1219.5 Z"/></g>
<g><path style="opacity:1" fill="#1e1e1e" d="M 252.5,1219.5 C 252.897,1218.47 253.563,1218.31 254.5,1219C 256.507,1220.71 258.507,1222.38 260.5,1224C 259.407,1225.37 258.074,1225.7 256.5,1225C 255.303,1222.98 253.97,1221.15 252.5,1219.5 Z"/></g>
<g><path style="opacity:1" fill="#303030" d="M 219.5,1220.5 C 221.337,1220.64 221.67,1221.31 220.5,1222.5C 219.702,1222.04 219.369,1221.38 219.5,1220.5 Z"/></g>
<g><path style="opacity:1" fill="#212121" d="M 247.5,1219.5 C 248.962,1220.46 250.295,1221.62 251.5,1223C 249.159,1223.17 247.826,1222 247.5,1219.5 Z"/></g>
<g><path style="opacity:1" fill="#262626" d="M 242.5,1223.5 C 244.337,1223.64 244.67,1224.31 243.5,1225.5C 242.702,1225.04 242.369,1224.38 242.5,1223.5 Z"/></g>
<g><path style="opacity:1" fill="#1f1f1f" d="M 222.5,1226.5 C 223.497,1225.29 224.497,1225.45 225.5,1227C 224.423,1227.47 223.423,1227.3 222.5,1226.5 Z"/></g>
<g><path style="opacity:1" fill="#1c1c1c" d="M 188.5,1226.5 C 191.506,1227.35 192.506,1229.18 191.5,1232C 186.722,1232.07 185.722,1230.24 188.5,1226.5 Z"/></g>
<g><path style="opacity:1" fill="#313131" d="M 207.5,1224.5 C 211.157,1224.97 211.324,1226.31 208,1228.5C 207.51,1227.21 207.343,1225.87 207.5,1224.5 Z"/></g>
<g><path style="opacity:1" fill="#151515" d="M 199.5,1228.5 C 200.872,1229.89 201.872,1231.55 202.5,1233.5C 202.547,1235 201.881,1236 200.5,1236.5C 199.684,1234.71 198.684,1233.05 197.5,1231.5C 198.193,1230.48 198.859,1229.48 199.5,1228.5 Z"/></g>
<g><path style="opacity:1" fill="#6d6d6d" d="M 211.5,1227.5 C 212.552,1227.35 213.552,1227.52 214.5,1228C 212.697,1228.64 211.364,1229.8 210.5,1231.5C 210.167,1231.17 209.833,1230.83 209.5,1230.5C 210.193,1229.48 210.859,1228.48 211.5,1227.5 Z"/></g>
<g><path style="opacity:1" fill="#272727" d="M 247.5,1229.5 C 249.983,1229.73 250.483,1230.4 249,1231.5C 247.97,1231.16 247.47,1230.5 247.5,1229.5 Z"/></g>
<g><path style="opacity:1" fill="#525252" d="M 261.5,1229.5 C 263.975,1229.75 263.975,1230.41 261.5,1231.5C 260.537,1231.03 260.537,1230.36 261.5,1229.5 Z"/></g>
<g><path style="opacity:1" fill="#1b1b1b" d="M 192.5,1233.5 C 195.833,1233.5 197.5,1235.17 197.5,1238.5C 194.753,1238.81 192.086,1238.48 189.5,1237.5C 190.524,1236.15 191.524,1234.81 192.5,1233.5 Z"/></g>
<g><path style="opacity:1" fill="#464646" d="M 218.5,1238.5 C 219.568,1237.57 220.901,1237.23 222.5,1237.5C 222.719,1238.68 222.386,1239.68 221.5,1240.5C 220.482,1239.81 219.482,1239.14 218.5,1238.5 Z"/></g>
<g><path style="opacity:1" fill="#303030" d="M 263.5,1236.5 C 265.963,1238.46 268.297,1240.63 270.5,1243C 266.166,1243.14 263.832,1240.98 263.5,1236.5 Z"/></g>
<g><path style="opacity:1" fill="#7f7f7f" d="M 189.5,1240.5 C 191.924,1240.19 194.257,1240.53 196.5,1241.5C 196.376,1242.11 196.043,1242.44 195.5,1242.5C 193.5,1241.83 191.5,1241.17 189.5,1240.5 Z"/></g>
<g><path style="opacity:1" fill="#0b0b0b" d="M 189.5,1240.5 C 191.5,1241.17 193.5,1241.83 195.5,1242.5C 193.316,1244.58 190.649,1245.58 187.5,1245.5C 187.077,1243.22 187.744,1241.55 189.5,1240.5 Z"/></g>
<g><path style="opacity:1" fill="#606060" d="M 202.5,1241.5 C 204.225,1241.84 204.725,1242.84 204,1244.5C 202.961,1243.76 202.461,1242.76 202.5,1241.5 Z"/></g>
<g><path style="opacity:1" fill="#535353" d="M 227.5,1241.5 C 228.776,1242.39 228.776,1243.39 227.5,1244.5C 226.438,1243.58 226.438,1242.58 227.5,1241.5 Z"/></g>
<g><path style="opacity:1" fill="#121212" d="M 207.5,1243.5 C 209.905,1244.4 211.905,1245.9 213.5,1248C 212.378,1251.41 212.211,1254.91 213,1258.5C 215.468,1261.28 216.635,1264.61 216.5,1268.5C 214.833,1268.5 213.167,1268.5 211.5,1268.5C 211.002,1265.51 210.502,1262.51 210,1259.5C 208.829,1258.11 207.329,1257.27 205.5,1257C 206.448,1256.52 207.448,1256.35 208.5,1256.5C 208.073,1252.18 207.739,1247.84 207.5,1243.5 Z"/></g>
<g><path style="opacity:1" fill="#2d2d2d" d="M 242.5,1241.5 C 245.005,1243.19 245.838,1245.52 245,1248.5C 243.097,1246.56 242.264,1244.23 242.5,1241.5 Z"/></g>
<g><path style="opacity:1" fill="#4e4e4e" d="M 232.5,1241.5 C 233.793,1243.36 233.793,1245.36 232.5,1247.5C 232.08,1245.67 232.08,1243.67 232.5,1241.5 Z"/></g>
<g><path style="opacity:1" fill="#323232" d="M 266.5,1245.5 C 268.832,1246.16 269.499,1247.49 268.5,1249.5C 267.295,1248.42 266.628,1247.09 266.5,1245.5 Z"/></g>
<g><path style="opacity:1" fill="#272727" d="M 256.5,1247.5 C 258.085,1248 258.585,1249 258,1250.5C 256.961,1249.76 256.461,1248.76 256.5,1247.5 Z"/></g>
<g><path style="opacity:1" fill="#6f6f6f" d="M 237.5,1248.5 C 238.473,1248.99 239.473,1249.49 240.5,1250C 238.843,1250.73 237.843,1250.23 237.5,1248.5 Z"/></g>
<g><path style="opacity:1" fill="#484848" d="M 198.5,1247.5 C 200.099,1249.6 201.932,1251.6 204,1253.5C 204.667,1254.17 204.667,1254.83 204,1255.5C 201.139,1253.48 199.305,1250.82 198.5,1247.5 Z"/></g>
<g><path style="opacity:1" fill="#202020" d="M 253.5,1250.5 C 256.575,1252.32 257.741,1254.98 257,1258.5C 253.507,1256.6 252.34,1253.93 253.5,1250.5 Z"/></g>
<g><path style="opacity:1" fill="#171717" d="M 239.5,1252.5 C 245.183,1251.67 246.683,1253.67 244,1258.5C 242.846,1257.26 241.512,1256.26 240,1255.5C 239.517,1254.55 239.351,1253.55 239.5,1252.5 Z"/></g>
<g><path style="opacity:1" fill="#333333" d="M 268.5,1252.5 C 271.012,1253.22 271.012,1254.22 268.5,1255.5C 267.438,1254.58 267.438,1253.58 268.5,1252.5 Z"/></g>
<g><path style="opacity:1" fill="#2f2f2f" d="M 263.5,1250.5 C 265.026,1251.49 265.693,1252.99 265.5,1255C 265.167,1256.17 264.833,1257.33 264.5,1258.5C 263.52,1255.91 263.187,1253.25 263.5,1250.5 Z"/></g>
<g><path style="opacity:1" fill="#151515" d="M 197.5,1253.5 C 199.296,1254.79 200.963,1256.29 202.5,1258C 198.834,1258.82 197.167,1257.32 197.5,1253.5 Z"/></g>
<g><path style="opacity:1" fill="#343434" d="M 227.5,1254.5 C 228.239,1254.37 228.906,1254.54 229.5,1255C 228.234,1256.98 226.568,1257.98 224.5,1258C 225.71,1256.96 226.71,1255.79 227.5,1254.5 Z"/></g>
<g><path style="opacity:1" fill="#585858" d="M 249.5,1254.5 C 251.383,1256.4 253.383,1258.23 255.5,1260C 251.856,1260.2 249.856,1258.36 249.5,1254.5 Z"/></g>
<g><path style="opacity:1" fill="#0f0f0f" d="M 1188.5,1257.5 C 1191.32,1259.8 1193.16,1262.8 1194,1266.5C 1196.16,1271.8 1197.33,1277.13 1197.5,1282.5C 1190.32,1277.75 1183.32,1272.75 1176.5,1267.5C 1180.53,1264.16 1184.53,1260.83 1188.5,1257.5 Z"/></g>
<g><path style="opacity:1" fill="#757575" d="M 228.5,1258.5 C 230.975,1258.75 230.975,1259.41 228.5,1260.5C 227.537,1260.03 227.537,1259.36 228.5,1258.5 Z"/></g>
<g><path style="opacity:1" fill="#272727" d="M 246.5,1263.5 C 247.892,1262.48 249.225,1262.81 250.5,1264.5C 250.167,1264.83 249.833,1265.17 249.5,1265.5C 248.482,1264.81 247.482,1264.14 246.5,1263.5 Z"/></g>
<g><path style="opacity:1" fill="#696969" d="M 253.5,1262.5 C 255.337,1262.64 255.67,1263.31 254.5,1264.5C 253.702,1264.04 253.369,1263.38 253.5,1262.5 Z"/></g>
<g><path style="opacity:1" fill="#131313" d="M 265.5,1260.5 C 267.337,1260.64 267.67,1261.31 266.5,1262.5C 263.093,1263.28 260.26,1264.95 258,1267.5C 257.5,1267.17 257,1266.83 256.5,1266.5C 259.047,1263.73 262.047,1261.73 265.5,1260.5 Z"/></g>
<g><path style="opacity:1" fill="#2c2c2c" d="M 232.5,1265.5 C 236.169,1264.6 238.836,1266.1 240.5,1270C 239.092,1270.32 237.759,1269.98 236.5,1269C 235.295,1267.62 233.962,1266.46 232.5,1265.5 Z"/></g>
<g><path style="opacity:1" fill="#cfcfcf" d="M 1302.5,1279.5 C 1301.56,1278.03 1300.23,1277.03 1298.5,1276.5C 1295.18,1275.74 1293.85,1273.9 1294.5,1271C 1296.83,1270.67 1299.17,1270.33 1301.5,1270C 1298.97,1269.38 1296.63,1268.38 1294.5,1267C 1297.93,1265.08 1301.27,1265.41 1304.5,1268C 1306.01,1268.84 1306.51,1270 1306,1271.5C 1304.51,1273 1302.68,1273.84 1300.5,1274C 1303.15,1275.65 1305.49,1277.65 1307.5,1280C 1305.73,1281.8 1304.06,1281.64 1302.5,1279.5 Z"/></g>
<g><path style="opacity:1" fill="#272727" d="M 224.5,1266.5 C 224.56,1265.96 224.893,1265.62 225.5,1265.5C 227.336,1266.92 229.336,1268.09 231.5,1269C 232.554,1270.39 232.72,1271.89 232,1273.5C 228.975,1271.64 226.475,1269.31 224.5,1266.5 Z"/></g>
<g><path style="opacity:1" fill="#171717" d="M 246.5,1267.5 C 248.394,1268.05 250.06,1269.05 251.5,1270.5C 248.167,1272.25 246.501,1271.25 246.5,1267.5 Z"/></g>
<g><path style="opacity:1" fill="#171717" d="M 218.5,1262.5 C 219.496,1262.41 220.329,1262.75 221,1263.5C 222.511,1269.36 226.011,1273.53 231.5,1276C 229.611,1278.19 227.444,1278.69 225,1277.5C 223.404,1272.13 221.238,1267.13 218.5,1262.5 Z"/></g>
<g><path style="opacity:1" fill="#191919" d="M 254.5,1270.5 C 261.108,1270.27 261.608,1270.94 256,1272.5C 254.97,1272.16 254.47,1271.5 254.5,1270.5 Z"/></g>
<g><path style="opacity:1" fill="#101010" d="M 243.5,1271.5 C 247.559,1273.64 248.393,1276.64 246,1280.5C 245.517,1279.55 245.351,1278.55 245.5,1277.5C 242.032,1278.15 238.865,1279.48 236,1281.5C 235.51,1280.21 235.343,1278.87 235.5,1277.5C 239.606,1277.39 242.273,1275.39 243.5,1271.5 Z"/></g>
<g><path style="opacity:1" fill="#c8c8c8" d="M 1318.5,1286.5 C 1317.19,1284.87 1317.19,1283.2 1318.5,1281.5C 1316.32,1280.34 1314.32,1279.01 1312.5,1277.5C 1312.81,1276.69 1313.31,1276.03 1314,1275.5C 1318.96,1276.95 1323.79,1278.78 1328.5,1281C 1330.78,1282.36 1330.95,1283.86 1329,1285.5C 1327.14,1284.24 1325.14,1283.24 1323,1282.5C 1321.65,1284.02 1320.15,1285.35 1318.5,1286.5 Z"/></g>
<g><path style="opacity:1" fill="#d8d8d8" d="M 1298.5,1277.5 C 1299.17,1278.83 1300.17,1279.83 1301.5,1280.5C 1306.28,1291.99 1302.95,1294.49 1291.5,1288C 1285.71,1282.79 1286.38,1278.96 1293.5,1276.5C 1295.21,1276.73 1296.87,1277.06 1298.5,1277.5 Z"/></g>
<g><path style="opacity:1" fill="#262626" d="M 1298.5,1276.5 C 1300.23,1277.03 1301.56,1278.03 1302.5,1279.5C 1301.83,1279.5 1301.5,1279.83 1301.5,1280.5C 1300.17,1279.83 1299.17,1278.83 1298.5,1277.5C 1298.5,1277.17 1298.5,1276.83 1298.5,1276.5 Z"/></g>
<g><path style="opacity:1" fill="#101010" d="M 1291.5,1279.5 C 1297.85,1279.5 1300.51,1282.5 1299.5,1288.5C 1296.42,1287.21 1293.59,1285.54 1291,1283.5C 1290.42,1282.07 1290.59,1280.74 1291.5,1279.5 Z"/></g>
<g><path style="opacity:1" fill="#323232" d="M 230.5,1280.5 C 230.56,1279.96 230.893,1279.62 231.5,1279.5C 232.386,1280.32 232.719,1281.32 232.5,1282.5C 231.833,1281.83 231.167,1281.17 230.5,1280.5 Z"/></g>
<g><path style="opacity:1" fill="#c9c9c9" d="M 1318.5,1286.5 C 1321.69,1287.73 1325.02,1288.9 1328.5,1290C 1329.73,1291.18 1329.73,1292.35 1328.5,1293.5C 1322.96,1291.53 1317.3,1290.03 1311.5,1289C 1310.66,1287.99 1310.33,1286.82 1310.5,1285.5C 1313.13,1286.09 1315.79,1286.42 1318.5,1286.5 Z"/></g>
<g><path style="opacity:1" fill="#939393" d="M 1210.5,1282.5 C 1211.65,1286.98 1211.82,1291.65 1211,1296.5C 1210.28,1295.96 1209.78,1295.29 1209.5,1294.5C 1210.48,1290.7 1210.82,1286.7 1210.5,1282.5 Z"/></g>
<g><path style="opacity:1" fill="#c7c7c7" d="M 1281.5,1288.5 C 1286.86,1290.01 1291.86,1292.35 1296.5,1295.5C 1297.42,1293.24 1299.09,1292.24 1301.5,1292.5C 1300.38,1296.73 1298.22,1300.39 1295,1303.5C 1294.31,1302.97 1293.81,1302.31 1293.5,1301.5C 1294.33,1300.55 1294.49,1299.55 1294,1298.5C 1290.4,1295.9 1286.57,1293.73 1282.5,1292C 1281.66,1290.99 1281.33,1289.82 1281.5,1288.5 Z"/></g>
<g><path style="opacity:1" fill="#c8c8c8" d="M 1259.5,1289.5 C 1265.2,1289.03 1270.7,1289.69 1276,1291.5C 1276.48,1292.45 1276.65,1293.45 1276.5,1294.5C 1267.59,1291.53 1258.92,1292.2 1250.5,1296.5C 1248.65,1295.82 1248.31,1294.82 1249.5,1293.5C 1252.86,1291.94 1256.2,1290.61 1259.5,1289.5 Z"/></g>
<g><path style="opacity:1" fill="#bebebe" d="M 1312.5,1291.5 C 1318.15,1291.66 1323.15,1293.49 1327.5,1297C 1326.89,1297.87 1326.06,1298.37 1325,1298.5C 1321.35,1296.21 1317.52,1295.55 1313.5,1296.5C 1316.38,1299.11 1319.72,1300.94 1323.5,1302C 1324.34,1303.01 1324.67,1304.18 1324.5,1305.5C 1318.59,1304.8 1313.76,1302.13 1310,1297.5C 1309.03,1294.66 1309.87,1292.66 1312.5,1291.5 Z"/></g>
<g><path style="opacity:1" fill="#b7b7b7" d="M 1277.5,1297.5 C 1282.77,1299.8 1287.77,1302.64 1292.5,1306C 1293.82,1307.54 1293.49,1308.71 1291.5,1309.5C 1286.96,1306.47 1282.3,1303.63 1277.5,1301C 1276.32,1299.85 1276.32,1298.69 1277.5,1297.5 Z"/></g>
<g><path style="opacity:1" fill="#323232" d="M 1238.5,1303.5 C 1238.29,1305.42 1237.62,1305.76 1236.5,1304.5C 1237.17,1304.17 1237.83,1303.83 1238.5,1303.5 Z"/></g>
<g><path style="opacity:1" fill="#070707" d="M 1222.5,1305.5 C 1240.07,1305.08 1243.41,1311.92 1232.5,1326C 1223.49,1327.49 1218.49,1323.65 1217.5,1314.5C 1218.42,1310.98 1220.09,1307.98 1222.5,1305.5 Z"/></g>
<g><path style="opacity:1" fill="#c6c6c6" d="M 1271.5,1313.5 C 1270.24,1308.6 1272.07,1305.93 1277,1305.5C 1286.06,1306.51 1289.39,1311.18 1287,1319.5C 1285.99,1320.34 1284.82,1320.67 1283.5,1320.5C 1286.39,1312.68 1283.39,1309.02 1274.5,1309.5C 1274.5,1310.83 1274.5,1312.17 1274.5,1313.5C 1273.5,1313.5 1272.5,1313.5 1271.5,1313.5 Z"/></g>
<g><path style="opacity:1" fill="#404040" d="M 408.5,1306.5 C 409.757,1307.62 409.424,1308.29 407.5,1308.5C 407.833,1307.83 408.167,1307.17 408.5,1306.5 Z"/></g>
<g><path style="opacity:1" fill="#c6c6c6" d="M 1304.5,1301.5 C 1310.94,1302.88 1316.27,1306.05 1320.5,1311C 1319.97,1311.69 1319.31,1312.19 1318.5,1312.5C 1315.52,1308.84 1313.18,1309.01 1311.5,1313C 1313.89,1315.05 1315.89,1317.38 1317.5,1320C 1317.17,1320.5 1316.83,1321 1316.5,1321.5C 1313.03,1319.19 1309.69,1316.69 1306.5,1314C 1303.98,1312.66 1301.31,1311.83 1298.5,1311.5C 1298.5,1310.5 1298.5,1309.5 1298.5,1308.5C 1302.17,1308.33 1305.5,1309.33 1308.5,1311.5C 1309.89,1310.41 1310.39,1309.08 1310,1307.5C 1308.09,1306.31 1306.09,1305.31 1304,1304.5C 1303.53,1303.42 1303.7,1302.42 1304.5,1301.5 Z"/></g>
<g><path style="opacity:1" fill="#0f0f0f" d="M 401.5,1311.5 C 405.61,1311.39 409.277,1312.39 412.5,1314.5C 412.281,1315.68 412.614,1316.68 413.5,1317.5C 417.224,1314.52 418.224,1315.19 416.5,1319.5C 419.276,1319.09 419.943,1319.92 418.5,1322C 420.907,1324.09 420.907,1326.09 418.5,1328C 421.156,1330.23 420.823,1332.06 417.5,1333.5C 416.571,1332.31 416.238,1330.98 416.5,1329.5C 413.626,1329.62 411.126,1330.62 409,1332.5C 407.667,1328.5 406.333,1328.5 405,1332.5C 404.788,1330.22 403.955,1328.22 402.5,1326.5C 400.784,1326 399.117,1325.67 397.5,1325.5C 399.045,1324.55 400.712,1324.21 402.5,1324.5C 402.5,1323.5 402.5,1322.5 402.5,1321.5C 400.571,1321.77 398.905,1321.27 397.5,1320C 399.398,1319.1 401.064,1317.93 402.5,1316.5C 400.335,1315.12 400.001,1313.45 401.5,1311.5 Z"/></g>
<g><path style="opacity:1" fill="#646464" d="M 420.5,1313.5 C 420.5,1314.83 420.5,1316.17 420.5,1317.5C 419.793,1315.77 418.793,1314.1 417.5,1312.5C 418.86,1311.33 419.86,1311.67 420.5,1313.5 Z"/></g>
<g><path style="opacity:1" fill="#c5c5c5" d="M 1271.5,1313.5 C 1275.79,1317.12 1279.79,1321.12 1283.5,1325.5C 1281.55,1329.13 1278.55,1331.13 1274.5,1331.5C 1274.35,1330.45 1274.52,1329.45 1275,1328.5C 1280.36,1326.42 1280.52,1324.42 1275.5,1322.5C 1274.02,1323.48 1272.69,1324.65 1271.5,1326C 1270.06,1326.78 1268.72,1326.61 1267.5,1325.5C 1269.17,1323.5 1270.83,1321.5 1272.5,1319.5C 1271.24,1318.62 1270.07,1317.62 1269,1316.5C 1268,1319.23 1266.17,1320.9 1263.5,1321.5C 1263.88,1316.46 1266.54,1313.79 1271.5,1313.5 Z"/></g>
<g><path style="opacity:1" fill="#bfbfbf" d="M 1296.5,1313.5 C 1298.18,1314.18 1298.84,1315.52 1298.5,1317.5C 1297.5,1317.5 1296.5,1317.5 1295.5,1317.5C 1295.43,1316.04 1295.77,1314.71 1296.5,1313.5 Z"/></g>
<g><path style="opacity:1" fill="#d4d4d4" d="M 1258.5,1324.5 C 1260.2,1324.34 1261.87,1324.51 1263.5,1325C 1266.7,1328.54 1270.2,1331.7 1274,1334.5C 1274.67,1335.17 1274.67,1335.83 1274,1336.5C 1269.72,1340.59 1264.88,1341.42 1259.5,1339C 1255.96,1334.35 1255.63,1329.52 1258.5,1324.5 Z"/></g>
<g><path style="opacity:1" fill="#111111" d="M 1259.5,1327.5 C 1263.65,1328.97 1266.99,1331.64 1269.5,1335.5C 1261.67,1339.03 1258.34,1336.36 1259.5,1327.5 Z"/></g>
<g><path style="opacity:1" fill="#c5c5c5" d="M 1290.5,1323.5 C 1291.59,1323.62 1292.25,1324.29 1292.5,1325.5C 1292.28,1327.06 1291.61,1328.39 1290.5,1329.5C 1293.69,1331.07 1296.86,1332.73 1300,1334.5C 1301.63,1332.69 1303.13,1332.52 1304.5,1334C 1302.34,1336.99 1300.01,1339.83 1297.5,1342.5C 1296.5,1342.17 1295.83,1341.5 1295.5,1340.5C 1296.31,1339.19 1297.31,1338.02 1298.5,1337C 1293.23,1335.02 1288.56,1332.85 1284.5,1330.5C 1286.52,1328.15 1288.52,1325.81 1290.5,1323.5 Z"/></g>
<g><path style="opacity:1" fill="#3c3c3c" d="M 397.5,1332.5 C 399.483,1332.16 400.817,1332.82 401.5,1334.5C 400.005,1334.01 398.671,1333.34 397.5,1332.5 Z"/></g>
<g><path style="opacity:1" fill="#cbcbcb" d="M 1204.5,1325.5 C 1207.32,1325.08 1209.49,1326.08 1211,1328.5C 1214.17,1333.5 1216.67,1338.83 1218.5,1344.5C 1216.11,1348.53 1213.11,1349.2 1209.5,1346.5C 1208.57,1344.51 1208.41,1342.51 1209,1340.5C 1206.93,1341.26 1204.76,1341.76 1202.5,1342C 1208.7,1350.56 1206.7,1356.06 1196.5,1358.5C 1196.28,1357.32 1196.61,1356.32 1197.5,1355.5C 1201.33,1354.56 1202.66,1352.4 1201.5,1349C 1200.83,1348.33 1200.17,1348.33 1199.5,1349C 1197.46,1351.37 1195.13,1353.37 1192.5,1355C 1194.32,1356.47 1194.82,1358.3 1194,1360.5C 1191.08,1363.6 1187.58,1365.6 1183.5,1366.5C 1183.35,1365.45 1183.52,1364.45 1184,1363.5C 1186.33,1361.99 1188.5,1360.33 1190.5,1358.5C 1189.42,1356.46 1187.75,1355.12 1185.5,1354.5C 1183.93,1356.42 1181.93,1357.42 1179.5,1357.5C 1179.77,1354.72 1181.11,1352.55 1183.5,1351C 1182.97,1349.44 1182.3,1347.94 1181.5,1346.5C 1182.29,1344.51 1183.46,1344.18 1185,1345.5C 1186.11,1348.73 1187.94,1351.39 1190.5,1353.5C 1192.85,1350.31 1195.69,1347.65 1199,1345.5C 1199.36,1342.51 1198.03,1340.51 1195,1339.5C 1194.23,1339.64 1193.56,1339.98 1193,1340.5C 1192.16,1342.35 1191.33,1344.18 1190.5,1346C 1189.03,1346.6 1188.03,1346.1 1187.5,1344.5C 1188.35,1337.78 1191.85,1335.44 1198,1337.5C 1197.85,1332.13 1200.02,1328.13 1204.5,1325.5 Z"/></g>
<g><path style="opacity:1" fill="#101010" d="M 1204.5,1328.5 C 1207.93,1329.11 1209.93,1331.28 1210.5,1335C 1208.72,1338.1 1206.06,1339.1 1202.5,1338C 1201.05,1334.42 1201.72,1331.26 1204.5,1328.5 Z"/></g>
<g><path style="opacity:1" fill="#c3c3c3" d="M 1243.5,1335.5 C 1244.55,1335.35 1245.55,1335.52 1246.5,1336C 1249.68,1340.01 1253.01,1343.84 1256.5,1347.5C 1258.07,1345.58 1260.07,1344.58 1262.5,1344.5C 1262.65,1345.55 1262.48,1346.55 1262,1347.5C 1258.31,1350.69 1254.48,1353.69 1250.5,1356.5C 1249.42,1355.64 1249.25,1354.64 1250,1353.5C 1251.17,1352.33 1252.33,1351.17 1253.5,1350C 1250.45,1346.07 1247.29,1342.24 1244,1338.5C 1243.52,1337.55 1243.35,1336.55 1243.5,1335.5 Z"/></g>
<g><path style="opacity:1" fill="#c6c6c6" d="M 1275.5,1337.5 C 1277.78,1337.61 1279.78,1338.44 1281.5,1340C 1285.31,1342.65 1288.65,1345.81 1291.5,1349.5C 1291,1350.88 1290,1351.55 1288.5,1351.5C 1284.7,1349.92 1281.03,1348.42 1277.5,1347C 1280.7,1351.36 1283.7,1355.86 1286.5,1360.5C 1285.71,1362.49 1284.54,1362.82 1283,1361.5C 1280,1356.5 1277,1351.5 1274,1346.5C 1273.51,1344.87 1273.34,1343.2 1273.5,1341.5C 1274.55,1341.65 1275.55,1341.48 1276.5,1341C 1275.66,1339.99 1275.33,1338.82 1275.5,1337.5 Z"/></g>
<g><path style="opacity:1" fill="#2e2e2e" d="M 1212.5,1340.5 C 1213.84,1341.31 1214.84,1342.48 1215.5,1344C 1213.91,1346.04 1212.58,1345.88 1211.5,1343.5C 1212.13,1342.58 1212.46,1341.58 1212.5,1340.5 Z"/></g>
<g><path style="opacity:1" fill="#c3c3c3" d="M 1236.5,1343.5 C 1238.72,1344.2 1240.55,1345.54 1242,1347.5C 1244.37,1351.04 1246.53,1354.7 1248.5,1358.5C 1247.64,1359.58 1246.64,1359.75 1245.5,1359C 1243.96,1357.42 1242.79,1355.59 1242,1353.5C 1241.5,1354 1241,1354.5 1240.5,1355C 1242.78,1357.4 1244.12,1360.23 1244.5,1363.5C 1243.18,1363.67 1242.01,1363.34 1241,1362.5C 1238.8,1357.47 1235.63,1353.13 1231.5,1349.5C 1231.83,1348.5 1232.5,1347.83 1233.5,1347.5C 1240.17,1352.83 1240.83,1352.17 1235.5,1345.5C 1235.86,1344.82 1236.2,1344.15 1236.5,1343.5 Z"/></g>
<g><path style="opacity:1" fill="#c6c6c6" d="M 1227.5,1350.5 C 1228.5,1350.41 1229.33,1350.75 1230,1351.5C 1240.6,1372.22 1237.6,1373.88 1221,1356.5C 1220.22,1355.06 1220.39,1353.72 1221.5,1352.5C 1223.82,1354.32 1225.98,1356.32 1228,1358.5C 1228.43,1356.33 1227.93,1354.33 1226.5,1352.5C 1226.86,1351.82 1227.2,1351.15 1227.5,1350.5 Z"/></g>
<g><path style="opacity:1" fill="#c9c9c9" d="M 1265.5,1350.5 C 1271.96,1350.16 1276.13,1353.16 1278,1359.5C 1278.6,1363.05 1277.93,1366.39 1276,1369.5C 1274.89,1371.04 1273.39,1371.7 1271.5,1371.5C 1271.28,1369.32 1272.12,1367.65 1274,1366.5C 1274.67,1364.83 1274.67,1363.17 1274,1361.5C 1272.91,1363.35 1271.57,1365.02 1270,1366.5C 1268.63,1365.41 1268.3,1364.07 1269,1362.5C 1270.3,1360.73 1271.46,1358.9 1272.5,1357C 1268.39,1351.88 1265.89,1352.71 1265,1359.5C 1264.33,1360.83 1263.67,1360.83 1263,1359.5C 1261.93,1355.9 1262.76,1352.9 1265.5,1350.5 Z"/></g>
<g><path style="opacity:1" fill="#c2c2c2" d="M 1214.5,1355.5 C 1216.37,1355.86 1217.87,1356.86 1219,1358.5C 1221.3,1362.3 1223.8,1365.97 1226.5,1369.5C 1228.41,1367.24 1230.41,1367.07 1232.5,1369C 1229.16,1372.72 1225.16,1375.05 1220.5,1376C 1220.04,1375.59 1219.71,1375.09 1219.5,1374.5C 1221.01,1373.75 1222.01,1372.58 1222.5,1371C 1220.46,1366.3 1217.63,1362.13 1214,1358.5C 1213.53,1357.42 1213.7,1356.42 1214.5,1355.5 Z"/></g>
<g><path style="opacity:1" fill="#c6c6c6" d="M 1260.5,1367.5 C 1260,1365.92 1259,1365.42 1257.5,1366C 1258.07,1366.99 1258.73,1367.83 1259.5,1368.5C 1262.25,1372.67 1264.42,1377.01 1266,1381.5C 1265.67,1381.83 1265.33,1382.17 1265,1382.5C 1258.88,1376.76 1255.38,1369.93 1254.5,1362C 1255.83,1361.33 1257.17,1361.33 1258.5,1362C 1262.6,1364.47 1266.43,1367.3 1270,1370.5C 1270.75,1371.64 1270.58,1372.64 1269.5,1373.5C 1266.48,1371.47 1263.48,1369.47 1260.5,1367.5 Z"/></g>
<g><path style="opacity:1" fill="#d2d2d2" d="M 1164.5,1368.5 C 1165.6,1370.36 1166.93,1372.02 1168.5,1373.5C 1168.83,1373.33 1169.17,1373.17 1169.5,1373C 1168.27,1371.33 1166.93,1369.83 1165.5,1368.5C 1163.6,1363.82 1164.27,1359.65 1167.5,1356C 1173.34,1355.14 1177.17,1357.64 1179,1363.5C 1180.15,1367.83 1179.32,1371.66 1176.5,1375C 1174.76,1375.65 1173.1,1375.48 1171.5,1374.5C 1169.43,1379.21 1165.76,1381.37 1160.5,1381C 1161.42,1384.7 1160.08,1387.54 1156.5,1389.5C 1155.5,1389.17 1154.83,1388.5 1154.5,1387.5C 1157.83,1384.65 1158.33,1381.32 1156,1377.5C 1153.49,1380.66 1150.32,1382.66 1146.5,1383.5C 1146.35,1382.45 1146.52,1381.45 1147,1380.5C 1149.64,1379.02 1151.81,1377.02 1153.5,1374.5C 1151.96,1372.55 1149.96,1372.05 1147.5,1373C 1146.12,1374.93 1144.62,1376.76 1143,1378.5C 1141.45,1375.24 1142.28,1372.41 1145.5,1370C 1150.21,1367.67 1154.71,1365.17 1159,1362.5C 1161.25,1364.19 1163.09,1366.19 1164.5,1368.5 Z"/></g>
<g><path style="opacity:1" fill="#0e0e0e" d="M 1168.5,1358.5 C 1174.93,1359.33 1177.43,1363 1176,1369.5C 1174.08,1372.03 1172.08,1372.03 1170,1369.5C 1167.53,1366.04 1167.03,1362.37 1168.5,1358.5 Z"/></g>
<g><path style="opacity:1" fill="#414141" d="M 1260.5,1367.5 C 1259.83,1367.5 1259.5,1367.83 1259.5,1368.5C 1258.73,1367.83 1258.07,1366.99 1257.5,1366C 1259,1365.42 1260,1365.92 1260.5,1367.5 Z"/></g>
<g><path style="opacity:1" fill="#131313" d="M 1153.5,1368.5 C 1160.24,1367.41 1161.74,1369.41 1158,1374.5C 1155.87,1372.89 1154.37,1370.89 1153.5,1368.5 Z"/></g>
<g><path style="opacity:1" fill="#1c1c1c" d="M 1164.5,1368.5 C 1164.83,1368.5 1165.17,1368.5 1165.5,1368.5C 1166.93,1369.83 1168.27,1371.33 1169.5,1373C 1169.17,1373.17 1168.83,1373.33 1168.5,1373.5C 1166.93,1372.02 1165.6,1370.36 1164.5,1368.5 Z"/></g>
<g><path style="opacity:1" fill="#0f0f0f" d="M 1162.5,1371.5 C 1164.54,1372.91 1165.54,1374.91 1165.5,1377.5C 1164.17,1377.5 1162.83,1377.5 1161.5,1377.5C 1161.33,1375.38 1161.66,1373.38 1162.5,1371.5 Z"/></g>
<g><path style="opacity:1" fill="#c3c3c3" d="M 1241.5,1371.5 C 1244.32,1371.25 1246.99,1371.75 1249.5,1373C 1252.93,1376.04 1255.77,1379.54 1258,1383.5C 1258.03,1388.95 1255.2,1391.95 1249.5,1392.5C 1249.74,1390.03 1251.07,1388.36 1253.5,1387.5C 1254.9,1385.08 1254.4,1383.08 1252,1381.5C 1249.88,1382.62 1248.04,1384.12 1246.5,1386C 1245.06,1386.78 1243.72,1386.61 1242.5,1385.5C 1244.53,1382.81 1246.86,1380.47 1249.5,1378.5C 1248.46,1376.63 1246.96,1375.29 1245,1374.5C 1242.77,1375.7 1240.6,1377.03 1238.5,1378.5C 1237.42,1377.64 1237.25,1376.64 1238,1375.5C 1239.38,1374.29 1240.54,1372.96 1241.5,1371.5 Z"/></g>
<g><path style="opacity:1" fill="#cecece" d="M 1199.5,1366.5 C 1207.66,1367.17 1212,1371.67 1212.5,1380C 1211.61,1387.05 1207.61,1390.22 1200.5,1389.5C 1200.71,1391.14 1200.38,1392.64 1199.5,1394C 1188.35,1397.52 1184.68,1393.85 1188.5,1383C 1186.7,1382.76 1185.03,1383.26 1183.5,1384.5C 1185.62,1389.68 1186.79,1395.01 1187,1400.5C 1184.79,1401.75 1182.62,1401.58 1180.5,1400C 1175.73,1396.42 1172.39,1391.92 1170.5,1386.5C 1171.55,1386.35 1172.55,1386.52 1173.5,1387C 1175.37,1391.86 1178.04,1392.52 1181.5,1389C 1178.21,1381.92 1180.55,1378.59 1188.5,1379C 1186.96,1377.89 1186.3,1376.39 1186.5,1374.5C 1188.39,1374.3 1189.89,1374.96 1191,1376.5C 1193.25,1380.01 1195.25,1383.67 1197,1387.5C 1209.32,1386.92 1211.82,1381.42 1204.5,1371C 1203.5,1370.83 1202.5,1370.67 1201.5,1370.5C 1198.57,1371.46 1195.91,1372.79 1193.5,1374.5C 1193.64,1370.37 1195.64,1367.7 1199.5,1366.5 Z"/></g>
<g><path style="opacity:1" fill="#a5a5a5" d="M 1136.5,1379.5 C 1138.97,1380.75 1139.14,1382.42 1137,1384.5C 1135.21,1382.98 1135.04,1381.31 1136.5,1379.5 Z"/></g>
<g><path style="opacity:1" fill="#cecece" d="M 1230.5,1382.5 C 1232.93,1383.75 1235.27,1385.25 1237.5,1387C 1240.39,1391.13 1243.72,1394.79 1247.5,1398C 1243.96,1401.51 1239.96,1402.17 1235.5,1400C 1233.3,1397.24 1232.96,1394.24 1234.5,1391C 1228.52,1391.65 1222.52,1392.48 1216.5,1393.5C 1214.51,1392.71 1214.18,1391.54 1215.5,1390C 1220.98,1389.64 1226.31,1388.64 1231.5,1387C 1230.62,1385.64 1230.29,1384.14 1230.5,1382.5 Z"/></g>
<g><path style="opacity:1" fill="#c7c7c7" d="M 1131.5,1383.5 C 1132.5,1383.5 1133.5,1383.5 1134.5,1383.5C 1134.5,1384.5 1134.5,1385.5 1134.5,1386.5C 1133.5,1386.5 1132.5,1386.5 1131.5,1386.5C 1131.5,1385.5 1131.5,1384.5 1131.5,1383.5 Z"/></g>
<g><path style="opacity:1" fill="#161616" d="M 1190.5,1384.5 C 1193.65,1386.12 1195.32,1388.79 1195.5,1392.5C 1189.58,1392.79 1187.92,1390.12 1190.5,1384.5 Z"/></g>
<g><path style="opacity:1" fill="#a4a4a4" d="M 1127.5,1386.5 C 1131.34,1387.2 1131.5,1388.54 1128,1390.5C 1126.23,1389.32 1126.07,1387.98 1127.5,1386.5 Z"/></g>
<g><path style="opacity:1" fill="#c1c1c1" d="M 1173.5,1411.5 C 1171.83,1411.5 1170.17,1411.5 1168.5,1411.5C 1172.62,1407.54 1173.45,1402.87 1171,1397.5C 1169.91,1396.71 1168.75,1396.04 1167.5,1395.5C 1165.17,1396.22 1163,1397.22 1161,1398.5C 1159.94,1398.37 1159.11,1397.87 1158.5,1397C 1164.33,1390.84 1169.83,1391.01 1175,1397.5C 1176.78,1402.38 1176.28,1407.04 1173.5,1411.5 Z"/></g>
<g><path style="opacity:1" fill="#303030" d="M 1179.5,1393.5 C 1183.53,1393.26 1184.86,1394.92 1183.5,1398.5C 1181.39,1397.4 1180.06,1395.73 1179.5,1393.5 Z"/></g>
<g><path style="opacity:1" fill="#212121" d="M 1236.5,1392.5 C 1238.43,1393.76 1240.1,1395.43 1241.5,1397.5C 1237.07,1399.05 1235.4,1397.39 1236.5,1392.5 Z"/></g>
<g><path style="opacity:1" fill="#c7c7c7" d="M 1166.5,1411.5 C 1163.5,1411.5 1160.5,1411.5 1157.5,1411.5C 1153.63,1409.57 1149.29,1408.9 1144.5,1409.5C 1144.5,1408.5 1144.5,1407.5 1144.5,1406.5C 1149.14,1406.32 1153.8,1405.99 1158.5,1405.5C 1156.61,1403.05 1155.27,1400.38 1154.5,1397.5C 1155.82,1397.33 1156.99,1397.66 1158,1398.5C 1161.06,1402.72 1163.89,1407.05 1166.5,1411.5 Z"/></g>
</svg>
