<?xml version="1.0" encoding="UTF-8"?>
<!DOCTYPE svg PUBLIC "-//W3C//DTD SVG 1.1//EN" "http://www.w3.org/Graphics/SVG/1.1/DTD/svg11.dtd">
<svg xmlns="http://www.w3.org/2000/svg" version="1.1" width="1365px" height="1424px" style="shape-rendering:geometricPrecision; text-rendering:geometricPrecision; image-rendering:optimizeQuality; fill-rule:evenodd; clip-rule:evenodd" xmlns:xlink="http://www.w3.org/1999/xlink">
<g><path style="opacity:1" fill="#dcdcdc" d="M 755.5,79.5 C 753.473,79.3379 751.473,79.5045 749.5,80C 750.044,80.7172 750.711,81.2172 751.5,81.5C 758.701,87.5162 766.367,93.0162 774.5,98C 776.229,99.7889 776.896,101.956 776.5,104.5C 762.605,107.368 750.772,103.701 741,93.5C 740.517,94.448 740.351,95.448 740.5,96.5C 739.833,94.8333 739.167,93.1667 738.5,91.5C 737.952,89.6064 736.952,87.9397 735.5,86.5C 736.274,85.2888 737.107,85.2888 738,86.5C 741.342,83.6458 740.842,82.9791 736.5,84.5C 735.406,83.132 735.74,81.9653 737.5,81C 736.333,79.8333 735.167,78.6667 734,77.5C 728.689,83.0004 727.855,82.6671 731.5,76.5C 731.167,76.1667 730.833,75.8333 730.5,75.5C 728.506,77.9166 726.673,77.9166 725,75.5C 724.405,76.8989 724.572,78.2322 725.5,79.5C 724.132,80.5937 722.965,80.2603 722,78.5C 721.51,79.7932 721.343,81.1266 721.5,82.5C 720.5,82.5 719.5,82.5 718.5,82.5C 718.762,83.9778 718.429,85.3112 717.5,86.5C 715.678,85.5714 714.345,86.2381 713.5,88.5C 716.605,93.0472 715.938,94.0472 711.5,91.5C 710.5,91.8333 709.833,92.5 709.5,93.5C 713.545,98.6187 713.045,99.2854 708,95.5C 704.652,98.1541 704.818,100.654 708.5,103C 709.944,103.781 711.277,103.614 712.5,102.5C 715.333,97.5 718.167,92.5 721,87.5C 725.501,83.5004 726.334,84.167 723.5,89.5C 722.026,90.4363 721.026,91.7697 720.5,93.5C 715.268,106.776 705.602,114.276 691.5,116C 690.447,103.316 693.78,91.8156 701.5,81.5C 702.627,80.8783 703.627,80.045 704.5,79C 702.609,78.7973 700.943,79.2973 699.5,80.5C 692.184,83.6729 684.851,83.8396 677.5,81C 676.5,80 675.5,79 674.5,78C 675.025,77.3076 675.692,76.8076 676.5,76.5C 678.029,77.7629 679.695,78.7629 681.5,79.5C 682.568,80.4345 683.901,80.7678 685.5,80.5C 685.5,79.1667 685.5,77.8333 685.5,76.5C 683.833,76.5 682.167,76.5 680.5,76.5C 679.711,76.2172 679.044,75.7172 678.5,75C 683.947,68.4426 690.947,64.7759 699.5,64C 694.091,58.7818 690.757,52.4484 689.5,45C 701.986,41.7469 713.153,44.5802 723,53.5C 723.987,41.519 729.987,33.1857 741,28.5C 742.978,31.1245 743.812,34.1245 743.5,37.5C 743.269,43.4227 741.936,49.0894 739.5,54.5C 740.246,55.7362 740.579,57.0695 740.5,58.5C 750.54,56.7768 760.374,57.4435 770,60.5C 770.368,59.09 771.201,58.09 772.5,57.5C 774.203,58.8903 774.87,60.3903 774.5,62C 777.329,63.2467 779.995,64.7467 782.5,66.5C 784.149,65.3523 785.649,64.019 787,62.5C 787.333,62.8333 787.667,63.1667 788,63.5C 787.973,65.4174 787.139,67.084 785.5,68.5C 786.462,70.8833 785.462,71.8833 782.5,71.5C 782.119,76.0885 780.953,76.4218 779,72.5C 771.799,76.9559 763.966,79.2892 755.5,79.5 Z"/></g>
<g><path style="opacity:1" fill="#131313" d="M 732.5,37.5 C 735.124,39.1978 735.124,41.0312 732.5,43C 734.978,44.938 735.145,47.1047 733,49.5C 731.108,47.9458 729.608,46.1124 728.5,44C 729.25,41.4288 730.583,39.2622 732.5,37.5 Z"/></g>
<g><path style="opacity:1" fill="#000000" d="M 738.5,38.5 C 740.225,38.8425 740.725,39.8425 740,41.5C 738.961,40.7562 738.461,39.7562 738.5,38.5 Z"/></g>
<g><path style="opacity:1" fill="#2e2e2e" d="M 737.5,43.5 C 739.337,43.6395 739.67,44.3061 738.5,45.5C 737.702,45.0431 737.369,44.3764 737.5,43.5 Z"/></g>
<g><path style="opacity:1" fill="#171717" d="M 693.5,45.5 C 696.881,45.4595 700.214,45.7929 703.5,46.5C 703.853,48.6348 703.02,49.9681 701,50.5C 697.78,49.6589 695.28,47.9922 693.5,45.5 Z"/></g>
<g><path style="opacity:1" fill="#151515" d="M 727.5,48.5 C 729.175,50.002 731.008,51.3353 733,52.5C 733.781,53.9437 733.614,55.277 732.5,56.5C 730.329,54.8281 728.329,52.9948 726.5,51C 726.743,50.0979 727.077,49.2646 727.5,48.5 Z"/></g>
<g><path style="opacity:1" fill="#292929" d="M 736.5,47.5 C 737.497,47.4701 738.164,47.9701 738.5,49C 737.589,52.1451 736.755,55.3117 736,58.5C 735.938,54.8517 736.105,51.185 736.5,47.5 Z"/></g>
<g><path style="opacity:1" fill="#191919" d="M 706.5,47.5 C 710.26,48.2477 713.594,49.9143 716.5,52.5C 714.987,56.6501 712.654,57.3168 709.5,54.5C 710.167,53.5 710.833,52.5 711.5,51.5C 711,51.1667 710.5,50.8333 710,50.5C 704.852,54.5218 703.685,53.5218 706.5,47.5 Z"/></g>
<g><path style="opacity:1" fill="#171717" d="M 694.5,50.5 C 697.09,51.1283 699.423,52.295 701.5,54C 700.283,55.6477 699.45,57.481 699,59.5C 696.453,57.0273 694.953,54.0273 694.5,50.5 Z"/></g>
<g><path style="opacity:1" fill="#171717" d="M 718.5,53.5 C 723.225,55.3734 723.559,57.7067 719.5,60.5C 718.3,59.4688 716.966,58.6355 715.5,58C 716.883,56.7292 717.883,55.2292 718.5,53.5 Z"/></g>
<g><path style="opacity:1" fill="#1a1a1a" d="M 703.5,55.5 C 704.497,55.4701 705.164,55.9701 705.5,57C 704.72,62.7006 705.887,62.8673 709,57.5C 709.414,57.9574 709.914,58.2907 710.5,58.5C 711.231,60.4012 711.231,62.4012 710.5,64.5C 706.505,65.1173 703.172,63.9506 700.5,61C 701.639,59.2196 702.639,57.3863 703.5,55.5 Z"/></g>
<g><path style="opacity:1" fill="#373737" d="M 723.5,59.5 C 725.296,60.7927 726.963,62.2927 728.5,64C 726.744,64.1405 725.078,63.6405 723.5,62.5C 722.438,61.5754 722.438,60.5754 723.5,59.5 Z"/></g>
<g><path style="opacity:1" fill="#141414" d="M 746.5,60.5 C 751.511,60.3341 756.511,60.5007 761.5,61C 762.167,63.6667 762.833,66.3333 763.5,69C 761.866,69.4935 760.199,69.6602 758.5,69.5C 757.833,62.8333 757.167,62.8333 756.5,69.5C 755.5,69.5 754.5,69.5 753.5,69.5C 753.838,66.8431 753.171,64.5098 751.5,62.5C 750.534,64.396 750.201,66.396 750.5,68.5C 749.5,68.5 748.5,68.5 747.5,68.5C 747.326,66.139 746.993,63.8056 746.5,61.5C 746.5,61.1667 746.5,60.8333 746.5,60.5 Z"/></g>
<g><path style="opacity:1" fill="#1e1e1e" d="M 713.5,60.5 C 716.797,60.6317 718.463,62.2984 718.5,65.5C 713.536,66.5427 711.869,64.876 713.5,60.5 Z"/></g>
<g><path style="opacity:1" fill="#1c1c1c" d="M 726.5,55.5 C 730.667,57.0075 733,60.0075 733.5,64.5C 734.386,63.675 734.719,62.675 734.5,61.5C 735.833,61.5 737.167,61.5 738.5,61.5C 738.674,63.861 739.007,66.1944 739.5,68.5C 736.353,68.2634 733.353,67.4301 730.5,66C 730.957,65.586 731.291,65.086 731.5,64.5C 730.063,61.2843 728.396,58.2843 726.5,55.5 Z"/></g>
<g><path style="opacity:1" fill="#0b0b0b" d="M 744.5,64.5 C 744.5,65.8333 744.5,67.1667 744.5,68.5C 743.5,68.5 742.5,68.5 741.5,68.5C 741.5,66.8333 741.5,65.1667 741.5,63.5C 741.369,62.6236 741.702,61.9569 742.5,61.5C 743.176,62.6016 743.842,63.6016 744.5,64.5 Z"/></g>
<g><path style="opacity:1" fill="#777777" d="M 746.5,60.5 C 746.5,60.8333 746.5,61.1667 746.5,61.5C 744.952,61.8212 744.285,62.8212 744.5,64.5C 743.842,63.6016 743.176,62.6016 742.5,61.5C 741.702,61.9569 741.369,62.6236 741.5,63.5C 740.596,62.791 740.263,61.791 740.5,60.5C 742.5,60.5 744.5,60.5 746.5,60.5 Z"/></g>
<g><path style="opacity:1" fill="#0f0f0f" d="M 764.5,61.5 C 769.377,61.4178 771.71,63.7511 771.5,68.5C 769.5,68.8333 767.5,69.1667 765.5,69.5C 765.425,66.7938 765.092,64.1272 764.5,61.5 Z"/></g>
<g><path style="opacity:1" fill="#1d1d1d" d="M 726.5,67.5 C 724.666,68.494 722.999,68.494 721.5,67.5C 721.5,66.8333 721.167,66.5 720.5,66.5C 720.47,65.5028 720.97,64.8361 722,64.5C 723.981,64.8985 725.481,65.8985 726.5,67.5 Z"/></g>
<g><path style="opacity:1" fill="#2e2e2e" d="M 773.5,64.5 C 778.746,65.9285 779.413,68.2619 775.5,71.5C 775.167,71.1667 774.833,70.8333 774.5,70.5C 777.229,68.6329 776.896,67.6329 773.5,67.5C 773.5,66.5 773.5,65.5 773.5,64.5 Z"/></g>
<g><path style="opacity:1" fill="#191919" d="M 698.5,66.5 C 699.873,66.3433 701.207,66.51 702.5,67C 701.62,68.3561 701.286,69.8561 701.5,71.5C 699.833,71.5 698.167,71.5 696.5,71.5C 696.365,69.4458 697.032,67.7791 698.5,66.5 Z"/></g>
<g><path style="opacity:1" fill="#161616" d="M 704.5,67.5 C 705.5,67.5 706.5,67.5 707.5,67.5C 707.5,68.5 707.5,69.5 707.5,70.5C 706.127,70.6567 704.793,70.49 703.5,70C 704.252,69.3292 704.586,68.4959 704.5,67.5 Z"/></g>
<g><path style="opacity:1" fill="#7f7f7f" d="M 720.5,66.5 C 721.167,66.5 721.5,66.8333 721.5,67.5C 719.218,68.3897 716.885,68.5564 714.5,68C 716.518,67.4954 718.518,66.9954 720.5,66.5 Z"/></g>
<g><path style="opacity:1" fill="#181818" d="M 690.5,68.5 C 691.5,68.5 692.5,68.5 693.5,68.5C 693.5,70.1667 693.5,71.8333 693.5,73.5C 691.5,73.5 689.5,73.5 687.5,73.5C 687.31,71.0411 688.31,69.3745 690.5,68.5 Z"/></g>
<g><path style="opacity:1" fill="#252525" d="M 726.5,67.5 C 733.707,68.5629 734.207,70.8963 728,74.5C 727.349,72.765 727.515,71.0983 728.5,69.5C 727.757,68.8182 727.091,68.1515 726.5,67.5 Z"/></g>
<g><path style="opacity:1" fill="#1f1f1f" d="M 735.5,70.5 C 737.665,70.1159 739.332,70.7826 740.5,72.5C 739.137,73.8928 738.304,75.5595 738,77.5C 736.365,76.2744 734.865,74.941 733.5,73.5C 734.612,72.7348 735.279,71.7348 735.5,70.5 Z"/></g>
<g><path style="opacity:1" fill="#0d0d0d" d="M 722.5,71.5 C 724.337,71.6395 724.67,72.3061 723.5,73.5C 722.702,73.0431 722.369,72.3764 722.5,71.5 Z"/></g>
<g><path style="opacity:1" fill="#1b1b1b" d="M 742.5,71.5 C 743.5,71.5 744.5,71.5 745.5,71.5C 745.286,73.1439 745.62,74.6439 746.5,76C 743.07,76.6378 741.737,75.1378 742.5,71.5 Z"/></g>
<g><path style="opacity:1" fill="#0d0d0d" d="M 766.5,71.5 C 772.969,72.052 772.969,73.052 766.5,74.5C 766.5,73.5 766.5,72.5 766.5,71.5 Z"/></g>
<g><path style="opacity:1" fill="#151515" d="M 760.5,72.5 C 765.536,74.1616 765.536,75.495 760.5,76.5C 760.5,75.1667 760.5,73.8333 760.5,72.5 Z"/></g>
<g><path style="opacity:1" fill="#444444" d="M 684.5,72.5 C 685.043,72.56 685.376,72.8933 685.5,73.5C 684.635,74.5827 683.635,74.7494 682.5,74C 683.416,73.7216 684.082,73.2216 684.5,72.5 Z"/></g>
<g><path style="opacity:1" fill="#1b1b1b" d="M 704.5,72.5 C 712.219,72.3446 712.219,73.3446 704.5,75.5C 703.438,74.5754 703.438,73.5754 704.5,72.5 Z"/></g>
<g><path style="opacity:1" fill="#0e0e0e" d="M 696.5,74.5 C 697.833,74.5 699.167,74.5 700.5,74.5C 700.254,77.4701 698.588,78.8034 695.5,78.5C 695.433,77.0413 695.766,75.7079 696.5,74.5 Z"/></g>
<g><path style="opacity:1" fill="#1e1e1e" d="M 688.5,75.5 C 690.167,75.5 691.833,75.5 693.5,75.5C 693.33,76.8221 693.663,77.9887 694.5,79C 692.187,79.662 689.854,80.162 687.5,80.5C 687.366,78.7085 687.699,77.0418 688.5,75.5 Z"/></g>
<g><path style="opacity:1" fill="#262626" d="M 748.5,71.5 C 749.5,71.5 750.5,71.5 751.5,71.5C 751.116,73.6648 751.783,75.3315 753.5,76.5C 754.429,75.3112 754.762,73.9778 754.5,72.5C 757.47,72.7458 758.803,74.4124 758.5,77.5C 755.167,77.5 751.833,77.5 748.5,77.5C 748.5,75.5 748.5,73.5 748.5,71.5 Z"/></g>
<g><path style="opacity:1" fill="#828282" d="M 680.5,76.5 C 682.167,76.5 683.833,76.5 685.5,76.5C 685.5,77.8333 685.5,79.1667 685.5,80.5C 683.901,80.7678 682.568,80.4345 681.5,79.5C 682.675,79.719 683.675,79.3857 684.5,78.5C 683.051,77.8281 681.718,77.1614 680.5,76.5 Z"/></g>
<g><path style="opacity:1" fill="#080808" d="M 738.5,91.5 C 737.853,92.2739 737.52,93.2739 737.5,94.5C 738.398,99.155 739.231,103.822 740,108.5C 740.5,121.496 740.667,134.496 740.5,147.5C 737.5,147.5 734.5,147.5 731.5,147.5C 727.03,146.514 722.363,146.181 717.5,146.5C 717.5,145.5 717.5,144.5 717.5,143.5C 721.638,126.391 723.972,109.058 724.5,91.5C 724.167,90.8333 723.833,90.1667 723.5,89.5C 726.334,84.167 725.501,83.5004 721,87.5C 718.167,92.5 715.333,97.5 712.5,102.5C 711.277,103.614 709.944,103.781 708.5,103C 704.818,100.654 704.652,98.1541 708,95.5C 713.045,99.2854 713.545,98.6187 709.5,93.5C 709.833,92.5 710.5,91.8333 711.5,91.5C 715.938,94.0472 716.605,93.0472 713.5,88.5C 714.345,86.2381 715.678,85.5714 717.5,86.5C 718.429,85.3112 718.762,83.9778 718.5,82.5C 719.5,82.5 720.5,82.5 721.5,82.5C 721.343,81.1266 721.51,79.7932 722,78.5C 722.965,80.2603 724.132,80.5937 725.5,79.5C 724.572,78.2322 724.405,76.8989 725,75.5C 726.673,77.9166 728.506,77.9166 730.5,75.5C 730.833,75.8333 731.167,76.1667 731.5,76.5C 727.855,82.6671 728.689,83.0004 734,77.5C 735.167,78.6667 736.333,79.8333 737.5,81C 735.74,81.9653 735.406,83.132 736.5,84.5C 740.842,82.9791 741.342,83.6458 738,86.5C 737.107,85.2888 736.274,85.2888 735.5,86.5C 736.952,87.9397 737.952,89.6064 738.5,91.5 Z"/></g>
<g><path style="opacity:1" fill="#101010" d="M 741.5,78.5 C 744.401,79.1783 744.901,80.5116 743,82.5C 741.812,81.4366 741.312,80.1033 741.5,78.5 Z"/></g>
<g><path style="opacity:1" fill="#3e3e3e" d="M 755.5,79.5 C 754.167,80.1667 752.833,80.8333 751.5,81.5C 750.711,81.2172 750.044,80.7172 749.5,80C 751.473,79.5045 753.473,79.3379 755.5,79.5 Z"/></g>
<g><path style="opacity:1" fill="#505050" d="M 701.5,81.5 C 701.158,80.6618 700.492,80.3284 699.5,80.5C 700.943,79.2973 702.609,78.7973 704.5,79C 703.627,80.045 702.627,80.8783 701.5,81.5 Z"/></g>
<g><path style="opacity:1" fill="#111111" d="M 746.5,82.5 C 751.236,82.8853 751.569,84.2186 747.5,86.5C 745.358,85.5629 745.024,84.2296 746.5,82.5 Z"/></g>
<g><path style="opacity:1" fill="#131313" d="M 713.5,74.5 C 717.071,74.4077 718.238,76.0743 717,79.5C 716.492,77.0958 715.325,76.4291 713.5,77.5C 715.086,80.2163 714.753,82.5497 712.5,84.5C 711.852,82.8508 710.852,81.5175 709.5,80.5C 708.706,82.8558 709.039,85.1891 710.5,87.5C 708.334,91.1459 706.334,90.8125 704.5,86.5C 704.167,87 703.833,87.5 703.5,88C 705.896,90.9412 705.896,93.7745 703.5,96.5C 702.536,93.9167 701.202,93.4167 699.5,95C 702.21,98.5732 701.71,101.74 698,104.5C 696.787,102.87 695.954,101.036 695.5,99C 698.714,88.6425 704.714,80.4759 713.5,74.5 Z"/></g>
<g><path style="opacity:1" fill="#171717" d="M 740.5,86.5 C 743.5,86.1667 744.833,87.5 744.5,90.5C 749.727,90.2839 750.56,91.9506 747,95.5C 744.5,93 742,90.5 739.5,88C 740.056,87.6174 740.389,87.1174 740.5,86.5 Z"/></g>
<g><path style="opacity:1" fill="#131313" d="M 752.5,85.5 C 756.263,87.3164 756.263,88.9831 752.5,90.5C 750.07,88.9626 750.07,87.296 752.5,85.5 Z"/></g>
<g><path style="opacity:1" fill="#191919" d="M 756.5,90.5 C 760.999,90.9353 761.332,91.9353 757.5,93.5C 755.197,93.1237 754.863,92.1237 756.5,90.5 Z"/></g>
<g><path style="opacity:1" fill="#fefefe" d="M 724.5,91.5 C 723.972,109.058 721.638,126.391 717.5,143.5C 716.566,144.568 716.232,145.901 716.5,147.5C 721.5,147.5 726.5,147.5 731.5,147.5C 734.5,147.5 737.5,147.5 740.5,147.5C 740.667,134.496 740.5,121.496 740,108.5C 739.231,103.822 738.398,99.155 737.5,94.5C 737.52,93.2739 737.853,92.2739 738.5,91.5C 739.167,93.1667 739.833,94.8333 740.5,96.5C 743.164,113.376 744.164,130.376 743.5,147.5C 818.828,151.375 890.995,168.375 960,198.5C 960.464,197.906 960.631,197.239 960.5,196.5C 963.261,195.08 966.261,194.413 969.5,194.5C 971.502,195.907 973.502,197.407 975.5,199C 981.539,197.523 985.205,199.856 986.5,206C 986.245,207.326 985.578,208.326 984.5,209C 1017.53,225.244 1048.87,244.077 1078.5,265.5C 1078.78,266.289 1079.28,266.956 1080,267.5C 1080.49,266.207 1080.66,264.873 1080.5,263.5C 1080.82,261.952 1081.82,261.285 1083.5,261.5C 1083.5,262.5 1083.5,263.5 1083.5,264.5C 1086.98,264.184 1090.31,264.684 1093.5,266C 1096.4,269.671 1095.73,272.671 1091.5,275C 1096.17,278.667 1100.83,282.333 1105.5,286C 1107.77,284.79 1110.27,283.623 1113,282.5C 1117.81,284.301 1119.48,287.635 1118,292.5C 1117.25,293.126 1116.42,293.626 1115.5,294C 1152.53,326.029 1185.7,361.529 1215,400.5C 1222.63,396.014 1230.79,393.014 1239.5,391.5C 1239.5,392.5 1239.5,393.5 1239.5,394.5C 1238.45,394.351 1237.45,394.517 1236.5,395C 1241.57,396.406 1245.07,399.572 1247,404.5C 1250.33,414.491 1250.33,424.491 1247,434.5C 1246.11,437.133 1244.61,439.3 1242.5,441C 1246.62,448.732 1251.12,456.232 1256,463.5C 1265.33,454.669 1276.33,449.002 1289,446.5C 1290.62,447.536 1290.78,448.703 1289.5,450C 1276.82,452.004 1266.16,457.67 1257.5,467C 1261.55,474.277 1265.72,481.444 1270,488.5C 1274.56,486.47 1279.06,484.303 1283.5,482C 1289.06,477.986 1290.56,472.819 1288,466.5C 1284.89,462.301 1281.22,461.634 1277,464.5C 1275.82,466.86 1274.65,469.193 1273.5,471.5C 1272.17,471.5 1271.5,470.833 1271.5,469.5C 1274.07,459.881 1279.74,457.381 1288.5,462C 1293.6,468.37 1293.77,474.87 1289,481.5C 1283.91,485.298 1278.41,488.465 1272.5,491C 1271.98,491.561 1271.64,492.228 1271.5,493C 1276.47,503.774 1281.3,514.608 1286,525.5C 1287.48,519.841 1290.81,515.841 1296,513.5C 1298.68,514.686 1300.52,516.686 1301.5,519.5C 1300.64,520.583 1299.64,520.749 1298.5,520C 1296.5,515.84 1294.33,516.006 1292,520.5C 1291.02,521.759 1290.68,523.092 1291,524.5C 1296.27,522.981 1301.44,523.314 1306.5,525.5C 1307.58,526.665 1308.42,527.998 1309,529.5C 1308.19,539.449 1304.36,548.116 1297.5,555.5C 1311.24,592.46 1320.91,630.46 1326.5,669.5C 1334.75,667.651 1343.08,666.317 1351.5,665.5C 1354.17,665.5 1356.83,665.5 1359.5,665.5C 1359.5,666.5 1359.5,667.5 1359.5,668.5C 1360.69,674.576 1361.86,680.576 1363,686.5C 1361.42,688.041 1359.59,689.208 1357.5,690C 1348.72,692.527 1340.05,695.361 1331.5,698.5C 1343.4,832.554 1315.4,957.554 1247.5,1073.5C 1251.17,1078.83 1254.83,1084.17 1258.5,1089.5C 1257.97,1090.19 1257.31,1090.69 1256.5,1091C 1251.51,1091.5 1246.51,1091.67 1241.5,1091.5C 1239.26,1091.21 1237.26,1091.54 1235.5,1092.5C 1236.96,1092.43 1238.29,1092.77 1239.5,1093.5C 1243.1,1097.85 1246.1,1102.68 1248.5,1108C 1251.63,1108.39 1254.63,1109.23 1257.5,1110.5C 1258.75,1108.52 1260.25,1108.19 1262,1109.5C 1264.24,1112.88 1264.91,1116.55 1264,1120.5C 1259.36,1127.42 1253.19,1129.59 1245.5,1127C 1239.21,1121.01 1239.21,1115.18 1245.5,1109.5C 1245.04,1107.21 1243.71,1105.88 1241.5,1105.5C 1236.19,1106.47 1230.86,1107.31 1225.5,1108C 1224.38,1109.07 1223.38,1110.24 1222.5,1111.5C 1217.31,1107.98 1211.64,1106.81 1205.5,1108C 1190.39,1112.14 1177.56,1119.97 1167,1131.5C 1154.79,1144.25 1146.45,1159.25 1142,1176.5C 1141.05,1183.64 1141.55,1190.64 1143.5,1197.5C 1144.17,1198.83 1144.83,1200.17 1145.5,1201.5C 1134.5,1211.66 1123.34,1221.66 1112,1231.5C 1111.68,1232.91 1112.02,1234.24 1113,1235.5C 1118.33,1241.5 1123.67,1247.5 1129,1253.5C 1127.32,1248.29 1125.15,1243.12 1122.5,1238C 1123.5,1236.45 1124.5,1236.29 1125.5,1237.5C 1126.92,1239.31 1128.92,1239.97 1131.5,1239.5C 1139.42,1243.09 1145.42,1248.76 1149.5,1256.5C 1149.99,1257.47 1150.49,1258.47 1151,1259.5C 1151.65,1260.7 1152.15,1260.7 1152.5,1259.5C 1151.97,1257.66 1151.31,1256 1150.5,1254.5C 1149.66,1252.62 1149.33,1250.62 1149.5,1248.5C 1148.5,1248.5 1147.5,1248.5 1146.5,1248.5C 1147.97,1243.95 1149.14,1239.28 1150,1234.5C 1152.47,1228.42 1155.47,1228.08 1159,1233.5C 1161.92,1239.27 1164.26,1245.27 1166,1251.5C 1168.6,1245.64 1172.6,1240.97 1178,1237.5C 1178.48,1236.55 1178.65,1235.55 1178.5,1234.5C 1181.94,1235.37 1185.27,1235.37 1188.5,1234.5C 1188.5,1233.5 1188.5,1232.5 1188.5,1231.5C 1189.5,1231.5 1190.5,1231.5 1191.5,1231.5C 1192.61,1241.23 1189.94,1249.73 1183.5,1257C 1192.4,1256.3 1199.74,1259.3 1205.5,1266C 1204.16,1269.69 1201.49,1272.03 1197.5,1273C 1193.69,1274.77 1189.69,1275.61 1185.5,1275.5C 1181.15,1275.33 1176.82,1275.5 1172.5,1276C 1173.07,1276.99 1173.73,1277.83 1174.5,1278.5C 1177.59,1282.58 1179.42,1287.25 1180,1292.5C 1181,1299.82 1181.33,1307.15 1181,1314.5C 1180.02,1315.77 1179.19,1315.77 1178.5,1314.5C 1178.5,1312.5 1178.5,1310.5 1178.5,1308.5C 1178.9,1302.24 1178.23,1296.24 1176.5,1290.5C 1175.64,1284.95 1173.31,1280.12 1169.5,1276C 1167.42,1275.19 1165.42,1275.36 1163.5,1276.5C 1165.05,1277.45 1166.71,1277.79 1168.5,1277.5C 1168.67,1278.49 1168.34,1279.16 1167.5,1279.5C 1165.83,1279.5 1164.17,1279.5 1162.5,1279.5C 1163.26,1292.02 1168.09,1302.68 1177,1311.5C 1177.53,1312.82 1177.03,1313.48 1175.5,1313.5C 1168.58,1306.38 1163.41,1298.05 1160,1288.5C 1152.65,1299.76 1142.81,1308.09 1130.5,1313.5C 1128.89,1316.22 1128.06,1319.22 1128,1322.5C 1127.28,1323.45 1126.45,1323.62 1125.5,1323C 1125.5,1319.67 1125.5,1316.33 1125.5,1313C 1129.16,1303.18 1133.5,1293.68 1138.5,1284.5C 1140.55,1284.48 1141.22,1283.81 1140.5,1282.5C 1138.97,1282.99 1137.64,1283.66 1136.5,1284.5C 1129.4,1286.27 1122.57,1287.94 1116,1289.5C 1114.59,1291.65 1113.76,1293.98 1113.5,1296.5C 1112.5,1296.5 1111.5,1296.5 1110.5,1296.5C 1111.28,1293.43 1111.44,1290.43 1111,1287.5C 1114.5,1284.37 1117.66,1280.87 1120.5,1277C 1123.36,1274.64 1126.36,1272.47 1129.5,1270.5C 1116.81,1263.49 1104.81,1255.49 1093.5,1246.5C 996.118,1320.64 886.118,1362.98 763.5,1373.5C 755.314,1373.7 747.314,1374.37 739.5,1375.5C 735.833,1375.5 732.167,1375.5 728.5,1375.5C 722.158,1375.33 715.825,1375.5 709.5,1376C 710.527,1376.51 711.527,1377.01 712.5,1377.5C 714.968,1379.84 715.134,1382.51 713,1385.5C 711.442,1387.36 709.609,1388.86 707.5,1390C 703.044,1391.54 698.711,1393.37 694.5,1395.5C 689.478,1391.64 686.812,1386.47 686.5,1380C 686.439,1378.29 687.106,1376.96 688.5,1376C 676.747,1375.43 665.081,1374.77 653.5,1374C 655.869,1376.94 656.036,1380.1 654,1383.5C 647.867,1389.7 640.534,1393.7 632,1395.5C 627.785,1394.78 624.951,1392.45 623.5,1388.5C 623.664,1385.81 623.497,1383.15 623,1380.5C 622.283,1381.04 621.783,1381.71 621.5,1382.5C 617.951,1389.88 612.285,1395.04 604.5,1398C 598.289,1399.36 592.122,1400.86 586,1402.5C 578.833,1401.75 573.167,1398.42 569,1392.5C 565.922,1386.01 562.588,1379.68 559,1373.5C 556.102,1368.54 555.935,1363.54 558.5,1358.5C 555.46,1357.63 552.46,1356.63 549.5,1355.5C 548.345,1359.43 547.512,1363.43 547,1367.5C 545.703,1368.78 544.536,1368.62 543.5,1367C 544.43,1363.93 545.097,1360.76 545.5,1357.5C 545.36,1355.97 544.693,1354.97 543.5,1354.5C 539.664,1352.52 535.497,1351.18 531,1350.5C 528.942,1351.06 527.775,1352.39 527.5,1354.5C 529.159,1359.34 532.493,1361.5 537.5,1361C 539.155,1359.56 539.822,1357.72 539.5,1355.5C 540.5,1355.5 541.5,1355.5 542.5,1355.5C 542.286,1362.87 538.62,1365.37 531.5,1363C 525.18,1359.74 523.18,1355.07 525.5,1349C 517.847,1346.89 510.347,1344.39 503,1341.5C 502.468,1344.26 501.634,1346.93 500.5,1349.5C 501.247,1349.74 502.08,1350.07 503,1350.5C 503.667,1351.17 503.667,1351.83 503,1352.5C 498.286,1354.11 494.119,1356.61 490.5,1360C 488.559,1360.74 486.726,1360.58 485,1359.5C 475.162,1363.78 464.995,1364.95 454.5,1363C 448.257,1359.95 445.59,1354.95 446.5,1348C 447.122,1338.8 450.122,1330.47 455.5,1323C 418.1,1306.48 382.767,1286.64 349.5,1263.5C 347.906,1262.02 346.24,1260.52 344.5,1259C 343.833,1258.33 343.167,1258.33 342.5,1259C 344.37,1261.04 346.37,1262.87 348.5,1264.5C 350.795,1267.3 353.295,1269.96 356,1272.5C 357.301,1274.36 357.635,1276.36 357,1278.5C 345.651,1290.53 332.651,1300.2 318,1307.5C 315.181,1307.01 312.681,1305.84 310.5,1304C 305.265,1298.6 299.932,1293.43 294.5,1288.5C 289.591,1278.47 291.757,1270.14 301,1263.5C 301.167,1262.33 301.333,1261.17 301.5,1260C 299.578,1253.99 297.245,1248.16 294.5,1242.5C 294.837,1237.1 297.503,1233.77 302.5,1232.5C 304.527,1232.66 306.527,1232.5 308.5,1232C 307.956,1231.28 307.289,1230.78 306.5,1230.5C 288.633,1216.14 271.8,1200.47 256,1183.5C 249.588,1187.31 242.755,1190.14 235.5,1192C 223.587,1194.56 211.587,1196.56 199.5,1198C 206.955,1225.4 200.289,1248.74 179.5,1268C 167.467,1277.97 154.801,1278.97 141.5,1271C 134.863,1266.09 128.696,1260.59 123,1254.5C 114.686,1242.06 108.186,1228.73 103.5,1214.5C 100.055,1213.03 96.5552,1211.69 93,1210.5C 89.8948,1211.37 86.7281,1211.7 83.5,1211.5C 83.3234,1209.02 84.3234,1207.19 86.5,1206C 91.7617,1204.58 96.7617,1202.58 101.5,1200C 99.0708,1187.57 98.9041,1175.07 101,1162.5C 108.956,1137.27 125.456,1129.44 150.5,1139C 162.543,1143.69 172.876,1150.86 181.5,1160.5C 190.99,1150.17 200.324,1139.67 209.5,1129C 167.709,1073.6 135.709,1012.76 113.5,946.5C 111.802,941.329 111.469,941.329 112.5,946.5C 115.02,954.893 117.853,963.226 121,971.5C 122.154,975.447 122.987,979.447 123.5,983.5C 122.5,983.5 121.5,983.5 120.5,983.5C 120.279,980.608 119.446,977.941 118,975.5C 117.982,977.797 118.149,980.131 118.5,982.5C 117.5,982.5 116.5,982.5 115.5,982.5C 115.741,979.966 114.741,978.3 112.5,977.5C 111.325,977.281 110.325,977.614 109.5,978.5C 109.624,979.107 109.957,979.44 110.5,979.5C 111.371,982.112 112.037,984.779 112.5,987.5C 109.53,987.254 108.197,985.588 108.5,982.5C 108.108,980.821 107.608,979.154 107,977.5C 106.503,979.81 106.337,982.143 106.5,984.5C 106.5,986.5 106.5,988.5 106.5,990.5C 105.5,990.5 104.5,990.5 103.5,990.5C 103.71,985.802 103.876,981.136 104,976.5C 102.644,977.38 101.144,977.714 99.5,977.5C 99.6602,979.199 99.4935,980.866 99,982.5C 98.2825,983.451 97.4491,983.617 96.5,983C 96.421,980.695 96.2543,978.195 96,975.5C 94.2723,973.806 94.7723,972.639 97.5,972C 96.4272,970.687 95.7605,969.187 95.5,967.5C 96.4702,964.226 97.9702,961.226 100,958.5C 100.958,952.807 101.624,947.14 102,941.5C 100,945.5 98,949.5 96,953.5C 94.3712,964.902 92.3712,976.235 90,987.5C 89.2904,988.973 88.1238,989.64 86.5,989.5C 88.1334,982.842 89.3,976.175 90,969.5C 86.5653,972.295 84.8986,975.962 85,980.5C 83.4126,981.727 82.0793,981.394 81,979.5C 80.3162,978.216 80.4829,977.049 81.5,976C 80.5838,975.626 79.7504,975.126 79,974.5C 77.1753,980.061 77.342,985.561 79.5,991C 78.9747,991.692 78.3081,992.192 77.5,992.5C 75.8693,990.941 75.036,988.941 75,986.5C 74.2073,982.577 74.374,978.744 75.5,975C 74.5,974.167 73.5,973.333 72.5,972.5C 73.4328,971.015 73.0995,969.682 71.5,968.5C 71.1667,967.5 70.5,966.833 69.5,966.5C 68.1739,963.277 68.6739,960.277 71,957.5C 76.3947,952.893 81.2281,947.727 85.5,942C 84.5838,941.626 83.7504,941.126 83,940.5C 71.5443,952.459 62.7109,966.126 56.5,981.5C 55.675,982.386 54.675,982.719 53.5,982.5C 54.4764,978.073 56.1431,973.907 58.5,970C 55.3372,967.584 52.0039,965.418 48.5,963.5C 47.6919,963.808 47.0253,964.308 46.5,965C 52.2293,969.758 51.5626,973.424 44.5,976C 43.2068,976.49 41.8734,976.657 40.5,976.5C 38.3023,976.591 37.9689,975.925 39.5,974.5C 42.6901,974.11 45.3567,972.777 47.5,970.5C 47.1667,969.5 46.5,968.833 45.5,968.5C 44.658,971.558 42.658,973.225 39.5,973.5C 38.1667,974.167 37.1667,975.167 36.5,976.5C 34.8777,979.455 32.8777,982.122 30.5,984.5C 29.5,984.167 28.8333,983.5 28.5,982.5C 30.0486,979.897 31.7153,977.397 33.5,975C 32.0042,973.669 30.6709,972.169 29.5,970.5C 28.1667,971.833 26.8333,973.167 25.5,974.5C 24.5,974.167 23.8333,973.5 23.5,972.5C 27.5116,967.16 31.845,962.16 36.5,957.5C 42.238,952.42 48.238,947.754 54.5,943.5C 55.8149,942.524 57.1482,941.524 58.5,940.5C 56.518,939.784 54.8513,938.617 53.5,937C 52.1667,936.333 50.8333,936.333 49.5,937C 40.9947,942.087 32.328,946.92 23.5,951.5C 22.5,951.167 21.8333,950.5 21.5,949.5C 24.7089,947.735 27.7089,945.735 30.5,943.5C 23.8956,938.57 23.8956,933.737 30.5,929C 36.1021,928.265 38.9354,930.765 39,936.5C 39.6667,937.167 40.3333,937.833 41,938.5C 46.0898,935.706 50.9232,932.54 55.5,929C 57.3453,927.872 59.3453,927.372 61.5,927.5C 66.6372,927.506 71.6372,926.673 76.5,925C 71.4408,924.973 66.4408,925.473 61.5,926.5C 46.4979,927.813 31.4979,927.813 16.5,926.5C 16.5,925.5 16.5,924.5 16.5,923.5C 28.1502,924.269 39.8169,924.602 51.5,924.5C 58.651,924.633 58.9843,923.966 52.5,922.5C 46.4364,921.956 40.4364,921.79 34.5,922C 33.1667,921.333 33.1667,920.667 34.5,920C 35.7932,919.51 37.1266,919.343 38.5,919.5C 41.5184,919.665 44.5184,919.498 47.5,919C 45.8455,918.392 44.1789,917.892 42.5,917.5C 39.6592,917.44 36.9925,916.774 34.5,915.5C 34.4701,914.503 34.9701,913.836 36,913.5C 46.3957,916.724 56.8957,919.557 67.5,922C 72.5576,922.661 77.5576,922.328 82.5,921C 67.6073,917.402 52.7739,913.568 38,909.5C 35.7661,910.701 33.5994,912.035 31.5,913.5C 32.1272,914.417 32.4606,915.417 32.5,916.5C 31.9148,918.922 30.4148,920.589 28,921.5C 26.4542,920.497 26.2875,919.497 27.5,918.5C 28.7562,918.539 29.7562,918.039 30.5,917C 28.1902,916.503 25.8568,916.337 23.5,916.5C 20.018,916.932 17.6846,915.599 16.5,912.5C 18.2347,909.257 20.5681,906.423 23.5,904C 20.518,902.665 20.018,900.832 22,898.5C 23.724,901.73 25.724,902.064 28,899.5C 29.1882,900.563 29.6882,901.897 29.5,903.5C 33.6843,904.369 37.6843,905.702 41.5,907.5C 42.3864,908.776 43.3864,908.776 44.5,907.5C 44.3764,906.893 44.0431,906.56 43.5,906.5C 40.7139,904.887 38.0472,903.054 35.5,901C 33.9632,899.89 33.2965,898.39 33.5,896.5C 37.6823,898.491 41.5156,901.158 45,904.5C 46.7183,903.15 48.5516,901.983 50.5,901C 45.0319,896.533 39.8653,891.7 35,886.5C 34.3987,885.035 34.8987,884.035 36.5,883.5C 42.8882,889.892 49.5549,895.892 56.5,901.5C 59.1216,903.782 61.7883,906.115 64.5,908.5C 63.4682,905.461 61.1349,903.128 57.5,901.5C 54.477,898.474 51.8103,895.141 49.5,891.5C 50.365,890.417 51.365,890.251 52.5,891C 59.2111,898.518 66.5445,905.352 74.5,911.5C 77.6496,916.074 81.983,917.907 87.5,917C 87.1667,916.667 86.8333,916.333 86.5,916C 82.5901,914.947 78.9234,913.447 75.5,911.5C 75.2914,910.078 74.7914,908.745 74,907.5C 67.0934,901.264 60.9267,894.431 55.5,887C 45.7473,887.082 39.0806,882.582 35.5,873.5C 35.5288,871.971 36.1955,870.804 37.5,870C 43.9023,866.572 50.4023,866.072 57,868.5C 57.6667,869.5 57.6667,870.5 57,871.5C 55.2817,872.85 53.4484,874.017 51.5,875C 52.5234,877.897 54.3567,880.064 57,881.5C 57.4709,883.246 58.1376,884.913 59,886.5C 59.4828,885.552 59.6495,884.552 59.5,883.5C 62.0277,884.023 64.361,885.023 66.5,886.5C 67.1667,886.167 67.8333,885.833 68.5,885.5C 66.058,883.874 63.3914,882.541 60.5,881.5C 59.1974,879.243 59.864,877.41 62.5,876C 60.4407,874.815 60.274,873.648 62,872.5C 63.6303,873.713 65.4636,874.546 67.5,875C 71.0319,879.36 74.6986,883.527 78.5,887.5C 83.0179,895.165 88.5179,902.165 95,908.5C 95.1667,907.833 95.3333,907.167 95.5,906.5C 93.9373,903.043 92.104,899.71 90,896.5C 85.3801,894.045 81.5468,890.712 78.5,886.5C 78.1077,884.821 77.6077,883.154 77,881.5C 74.5503,879.427 72.717,876.927 71.5,874C 71.8499,872.743 72.5165,872.409 73.5,873C 75.7089,874.873 77.5422,877.04 79,879.5C 79.8699,878.892 80.3699,878.059 80.5,877C 78.2347,873.064 75.568,869.397 72.5,866C 73.2752,864.77 74.2752,864.437 75.5,865C 77.5486,867.593 79.7152,870.093 82,872.5C 82.9854,865.28 81.8187,858.447 78.5,852C 80.6512,849.979 82.1512,850.479 83,853.5C 84.4749,858.063 85.3083,862.73 85.5,867.5C 86.7082,868.782 88.0416,868.782 89.5,867.5C 89.3764,866.893 89.0431,866.56 88.5,866.5C 87.6571,864.164 87.1571,861.831 87,859.5C 87.8928,858.289 88.7261,858.289 89.5,859.5C 90.2458,860.736 90.5792,862.07 90.5,863.5C 92.9303,871.29 93.597,871.29 92.5,863.5C 93.0614,862.092 93.3948,860.592 93.5,859C 82.3617,790.039 83.0284,721.205 95.5,652.5C 92.8239,651.992 90.1572,651.825 87.5,652C 82.7959,656.367 79.2959,661.534 77,667.5C 75.3678,665.293 75.3678,662.96 77,660.5C 78.4669,657.734 80.3002,655.234 82.5,653C 80.0966,652.37 78.2633,653.203 77,655.5C 76.6667,655.167 76.3333,654.833 76,654.5C 73.525,657.495 70.6916,659.828 67.5,661.5C 67.5548,658.386 68.8881,656.052 71.5,654.5C 72.2891,654.217 72.9558,653.717 73.5,653C 71.9343,652.235 70.6009,652.402 69.5,653.5C 65.8184,654.662 65.1518,653.829 67.5,651C 72.4698,649.64 77.4698,648.473 82.5,647.5C 83.4734,647.013 84.4734,646.513 85.5,646C 82.9615,645.204 80.6282,645.371 78.5,646.5C 75.2139,647.207 71.8806,647.54 68.5,647.5C 68.5,646.5 68.5,645.5 68.5,644.5C 69.5,644.5 70.5,644.5 71.5,644.5C 76.8591,644.33 82.1924,643.83 87.5,643C 86.5704,642.009 85.4038,641.509 84,641.5C 81.2077,642.216 78.3743,642.549 75.5,642.5C 75.5774,641.25 76.244,640.417 77.5,640C 75.4233,639.808 73.4233,639.308 71.5,638.5C 71.6236,637.893 71.9569,637.56 72.5,637.5C 76.1817,637.665 79.8484,637.499 83.5,637C 82.7562,635.961 81.7562,635.461 80.5,635.5C 78.2075,635.756 76.0408,635.423 74,634.5C 73.4372,633.275 73.7705,632.275 75,631.5C 76.8138,632.76 78.6471,632.76 80.5,631.5C 79.2643,630.643 77.931,629.977 76.5,629.5C 75.6143,628.675 75.281,627.675 75.5,626.5C 77.9418,626.881 78.6085,626.214 77.5,624.5C 78,624.167 78.5,623.833 79,623.5C 80.5952,626.044 82.7619,628.044 85.5,629.5C 86.5268,630.848 87.8602,631.348 89.5,631C 88.6266,629.955 87.6266,629.122 86.5,628.5C 84.5121,626.535 83.0121,624.202 82,621.5C 81.2599,620.251 81.4265,619.251 82.5,618.5C 83.7281,619.306 84.7281,620.306 85.5,621.5C 85.405,619.214 84.7384,617.214 83.5,615.5C 82.701,612.57 82.3677,609.57 82.5,606.5C 83.5,606.5 84.5,606.5 85.5,606.5C 85.6159,609.86 85.9492,613.193 86.5,616.5C 87.675,616.281 88.675,616.614 89.5,617.5C 90.3482,619.409 90.6816,621.409 90.5,623.5C 93.5406,623.406 95.2072,624.906 95.5,628C 97.0249,629.009 98.6916,629.509 100.5,629.5C 133.216,487.935 207.049,371.268 322,279.5C 318.836,272.98 316.003,266.146 313.5,259C 316.346,253.146 320.346,248.146 325.5,244C 331.595,238.873 337.095,239.373 342,245.5C 346.825,242.662 351.991,241.495 357.5,242C 360.844,243.894 362.178,246.727 361.5,250.5C 359.934,250.976 359.6,251.643 360.5,252.5C 361.522,252.145 362.189,251.478 362.5,250.5C 460.997,185.893 569.33,151.56 687.5,147.5C 696.895,148.138 705.895,147.471 714.5,145.5C 717.699,130.975 720.032,116.308 721.5,101.5C 721.881,97.8812 722.881,94.5479 724.5,91.5 Z"/></g>
<g><path style="opacity:1" fill="#3f3f3f" d="M 723.5,89.5 C 723.833,90.1667 724.167,90.8333 724.5,91.5C 722.881,94.5479 721.881,97.8812 721.5,101.5C 721.806,98.6146 721.473,95.9479 720.5,93.5C 721.026,91.7697 722.026,90.4363 723.5,89.5 Z"/></g>
<g><path style="opacity:1" fill="#1c1c1c" d="M 750.5,94.5 C 751.833,94.5 753.167,94.5 754.5,94.5C 754.5,95.5 754.5,96.5 754.5,97.5C 757.09,97.3962 759.423,98.0629 761.5,99.5C 762.167,99.1667 762.833,98.8333 763.5,98.5C 758.2,95.9536 758.534,94.787 764.5,95C 765.5,95.8333 766.5,96.6667 767.5,97.5C 762.151,102.544 756.484,102.711 750.5,98C 749.316,96.8545 749.316,95.6879 750.5,94.5 Z"/></g>
<g><path style="opacity:1" fill="#252525" d="M 769.5,98.5 C 771.487,99.1642 773.154,100.331 774.5,102C 771.833,102.667 769.167,102.667 766.5,102C 767.71,100.961 768.71,99.7942 769.5,98.5 Z"/></g>
<g><path style="opacity:1" fill="#181818" d="M 702.5,101.5 C 704.298,103.112 706.298,104.612 708.5,106C 706.833,107.167 705.167,108.333 703.5,109.5C 702.319,108.485 701.319,107.319 700.5,106C 701.414,104.594 702.08,103.094 702.5,101.5 Z"/></g>
<g><path style="opacity:1" fill="#151515" d="M 693.5,104.5 C 694.922,104.75 695.922,105.583 696.5,107C 695.269,108.183 695.269,109.349 696.5,110.5C 697.884,107.867 699.218,107.867 700.5,110.5C 698.649,112.456 696.316,113.456 693.5,113.5C 693.5,110.5 693.5,107.5 693.5,104.5 Z"/></g>
<g><path style="opacity:1" fill="#6f6f6f" d="M 714.5,145.5 C 705.895,147.471 696.895,148.138 687.5,147.5C 696.401,146.808 705.401,146.141 714.5,145.5 Z"/></g>
<g><path style="opacity:1" fill="#5c5c5c" d="M 717.5,143.5 C 717.5,144.5 717.5,145.5 717.5,146.5C 722.363,146.181 727.03,146.514 731.5,147.5C 726.5,147.5 721.5,147.5 716.5,147.5C 716.232,145.901 716.566,144.568 717.5,143.5 Z"/></g>
<g><path style="opacity:1" fill="#b7b7b7" d="M 969.5,194.5 C 966.261,194.413 963.261,195.08 960.5,196.5C 960.238,195.022 960.571,193.689 961.5,192.5C 964.311,193.08 966.977,193.746 969.5,194.5 Z"/></g>
<g><path style="opacity:1" fill="#373737" d="M 961.5,199.5 C 963.264,198.288 964.93,198.621 966.5,200.5C 966.333,200.833 966.167,201.167 966,201.5C 964.67,200.418 963.17,199.751 961.5,199.5 Z"/></g>
<g><path style="opacity:1" fill="#6d6d6d" d="M 968.5,202.5 C 969.497,201.287 970.497,201.454 971.5,203C 970.423,203.47 969.423,203.303 968.5,202.5 Z"/></g>
<g><path style="opacity:1" fill="#191919" d="M 977.5,203.5 C 978.097,202.861 978.93,202.528 980,202.5C 983.478,202.761 983.978,203.761 981.5,205.5C 979.927,205.248 978.594,204.582 977.5,203.5 Z"/></g>
<g><path style="opacity:1" fill="#050505" d="M 330.5,243.5 C 332.527,243.338 334.527,243.505 336.5,244C 338.054,245.892 339.888,247.392 342,248.5C 346.478,245.67 351.311,244.504 356.5,245C 357.804,245.804 358.471,246.971 358.5,248.5C 356.393,251.782 354.06,254.949 351.5,258C 343.009,264.412 334.343,270.579 325.5,276.5C 321.75,271.338 318.75,265.671 316.5,259.5C 316.719,258.062 317.219,256.729 318,255.5C 322.062,251.269 326.229,247.269 330.5,243.5 Z"/></g>
<g><path style="opacity:1" fill="#555555" d="M 361.5,250.5 C 361.833,250.5 362.167,250.5 362.5,250.5C 362.189,251.478 361.522,252.145 360.5,252.5C 359.6,251.643 359.934,250.976 361.5,250.5 Z"/></g>
<g><path style="opacity:1" fill="#5e5e5e" d="M 1080.5,263.5 C 1080.66,264.873 1080.49,266.207 1080,267.5C 1079.28,266.956 1078.78,266.289 1078.5,265.5C 1079.17,264.833 1079.83,264.167 1080.5,263.5 Z"/></g>
<g><path style="opacity:1" fill="#1a1a1a" d="M 1085.5,266.5 C 1089.58,266.017 1091.91,267.684 1092.5,271.5C 1089.09,272.172 1086.43,271.172 1084.5,268.5C 1084.86,267.817 1085.2,267.15 1085.5,266.5 Z"/></g>
<g><path style="opacity:1" fill="#191919" d="M 1109.5,286.5 C 1113.94,285.425 1115.94,287.092 1115.5,291.5C 1112.24,291.236 1110.24,289.57 1109.5,286.5 Z"/></g>
<g><path style="opacity:1" fill="#0a0a0a" d="M 1232.5,397.5 C 1240.35,398.181 1244.85,402.514 1246,410.5C 1247.05,418.663 1246.38,426.663 1244,434.5C 1243.12,437.346 1241.45,438.013 1239,436.5C 1233.24,427.964 1227.74,419.297 1222.5,410.5C 1223.24,403.95 1226.58,399.617 1232.5,397.5 Z"/></g>
<g><path style="opacity:1" fill="#181818" d="M 1223.5,398.5 C 1224.24,398.369 1224.91,398.536 1225.5,399C 1223.03,401.441 1221.2,404.274 1220,407.5C 1218.65,406.315 1217.48,404.981 1216.5,403.5C 1218.72,401.566 1221.06,399.899 1223.5,398.5 Z"/></g>
<g><path style="opacity:1" fill="#727272" d="M 1271.5,469.5 C 1271.5,470.833 1272.17,471.5 1273.5,471.5C 1272.79,472.404 1271.79,472.737 1270.5,472.5C 1270.26,471.209 1270.6,470.209 1271.5,469.5 Z"/></g>
<g><path style="opacity:1" fill="#060606" d="M 1290.5,526.5 C 1295.7,526.014 1300.7,526.681 1305.5,528.5C 1305.62,537.273 1302.62,544.94 1296.5,551.5C 1292.93,543.696 1289.93,535.696 1287.5,527.5C 1288.79,527.737 1289.79,527.404 1290.5,526.5 Z"/></g>
<g><path style="opacity:1" fill="#4e4e4e" d="M 83.5,615.5 C 84.7384,617.214 85.405,619.214 85.5,621.5C 84.7281,620.306 83.7281,619.306 82.5,618.5C 83.1098,617.609 83.4431,616.609 83.5,615.5 Z"/></g>
<g><path style="opacity:1" fill="#595959" d="M 85.5,621.5 C 87.0847,622.002 87.5847,623.002 87,624.5C 85.9614,623.756 85.4614,622.756 85.5,621.5 Z"/></g>
<g><path style="opacity:1" fill="#3c3c3c" d="M 86.5,628.5 C 87.6266,629.122 88.6266,629.955 89.5,631C 87.8602,631.348 86.5268,630.848 85.5,629.5C 86.1667,629.5 86.5,629.167 86.5,628.5 Z"/></g>
<g><path style="opacity:1" fill="#545454" d="M 84.5,633.5 C 85.7211,632.535 87.0544,632.702 88.5,634C 87.0715,634.579 85.7382,634.412 84.5,633.5 Z"/></g>
<g><path style="opacity:1" fill="#2b2b2b" d="M 95.5,632.5 C 96.3132,631.347 97.3132,631.347 98.5,632.5C 99.5827,633.365 99.7494,634.365 99,635.5C 97.9609,634.29 96.7942,633.29 95.5,632.5 Z"/></g>
<g><path style="opacity:1" fill="#6c6c6c" d="M 80.5,635.5 C 81.7562,635.461 82.7562,635.961 83.5,637C 79.8484,637.499 76.1817,637.665 72.5,637.5C 75.1667,636.833 77.8333,636.167 80.5,635.5 Z"/></g>
<g><path style="opacity:1" fill="#0d0d0d" d="M 89.5,642.5 C 91.0894,641.379 92.7561,641.546 94.5,643C 92.735,643.64 91.0683,643.473 89.5,642.5 Z"/></g>
<g><path style="opacity:1" fill="#434343" d="M 71.5,644.5 C 72.8333,643.833 74.1667,643.167 75.5,642.5C 78.3743,642.549 81.2077,642.216 84,641.5C 85.4038,641.509 86.5704,642.009 87.5,643C 82.1924,643.83 76.8591,644.33 71.5,644.5 Z"/></g>
<g><path style="opacity:1" fill="#9e9e9e" d="M 78.5,646.5 C 80.6282,645.371 82.9615,645.204 85.5,646C 84.4734,646.513 83.4734,647.013 82.5,647.5C 81.4324,646.566 80.099,646.232 78.5,646.5 Z"/></g>
<g><path style="opacity:1" fill="#727272" d="M 92.5,649.5 C 93.7082,648.218 95.0416,648.218 96.5,649.5C 95.3002,650.292 93.9669,650.292 92.5,649.5 Z"/></g>
<g><path style="opacity:1" fill="#313131" d="M 69.5,653.5 C 70.6009,652.402 71.9343,652.235 73.5,653C 72.9558,653.717 72.2891,654.217 71.5,654.5C 71.1583,653.662 70.4916,653.328 69.5,653.5 Z"/></g>
<g><path style="opacity:1" fill="#979797" d="M 1351.5,665.5 C 1354.29,664.523 1357.29,664.19 1360.5,664.5C 1360.77,666.099 1360.43,667.432 1359.5,668.5C 1359.5,667.5 1359.5,666.5 1359.5,665.5C 1356.83,665.5 1354.17,665.5 1351.5,665.5 Z"/></g>
<g><path style="opacity:1" fill="#0e0e0e" d="M 1348.5,667.5 C 1351.5,667.5 1354.5,667.5 1357.5,667.5C 1357.16,673.596 1358.16,679.43 1360.5,685C 1350.35,688.956 1340.02,692.456 1329.5,695.5C 1329.61,691.452 1329.27,687.452 1328.5,683.5C 1333.71,681.865 1339.04,680.865 1344.5,680.5C 1344.5,679.5 1344.5,678.5 1344.5,677.5C 1339.29,678.052 1334.29,679.386 1329.5,681.5C 1328.17,680.833 1328.17,680.167 1329.5,679.5C 1333.44,677.478 1337.61,676.144 1342,675.5C 1343.81,674.24 1345.64,673.073 1347.5,672C 1346.74,671.056 1345.74,670.556 1344.5,670.5C 1338.85,672.309 1333.19,672.976 1327.5,672.5C 1334.59,670.686 1341.59,669.02 1348.5,667.5 Z"/></g>
<g><path style="opacity:1" fill="#6b6b6b" d="M 1328.5,675.5 C 1333.51,675.443 1333.67,676.11 1329,677.5C 1327.32,677.317 1327.15,676.65 1328.5,675.5 Z"/></g>
<g><path style="opacity:1" fill="#717171" d="M 88.5,866.5 C 89.0431,866.56 89.3764,866.893 89.5,867.5C 88.0416,868.782 86.7082,868.782 85.5,867.5C 86.791,867.737 87.791,867.404 88.5,866.5 Z"/></g>
<g><path style="opacity:1" fill="#4d4d4d" d="M 90.5,863.5 C 91.1667,863.5 91.8333,863.5 92.5,863.5C 93.597,871.29 92.9303,871.29 90.5,863.5 Z"/></g>
<g><path style="opacity:1" fill="#101010" d="M 48.5,869.5 C 50.5273,869.338 52.5273,869.505 54.5,870C 52.0301,872.014 50.0301,871.847 48.5,869.5 Z"/></g>
<g><path style="opacity:1" fill="#0d0d0d" d="M 41.5,870.5 C 42.8734,870.343 44.2068,870.51 45.5,871C 46.4367,873.707 47.7701,876.207 49.5,878.5C 44.3581,881.278 40.6915,879.778 38.5,874C 39.0707,872.401 40.0707,871.234 41.5,870.5 Z"/></g>
<g><path style="opacity:1" fill="#242424" d="M 88.5,871.5 C 89.5862,871.62 90.2528,872.287 90.5,873.5C 90,875.5 89.5,877.5 89,879.5C 88.4145,877.871 87.5812,876.371 86.5,875C 86.9783,873.697 87.645,872.531 88.5,871.5 Z"/></g>
<g><path style="opacity:1" fill="#636363" d="M 96.5,874.5 C 98.8971,883.989 100.73,893.656 102,903.5C 99.0536,894.047 97.2203,884.381 96.5,874.5 Z"/></g>
<g><path style="opacity:1" fill="#525252" d="M 81.5,880.5 C 83.3442,881.204 83.8442,882.537 83,884.5C 81.8118,883.437 81.3118,882.103 81.5,880.5 Z"/></g>
<g><path style="opacity:1" fill="#353535" d="M 60.5,881.5 C 63.3914,882.541 66.058,883.874 68.5,885.5C 67.8333,885.833 67.1667,886.167 66.5,886.5C 64.361,885.023 62.0277,884.023 59.5,883.5C 59.8333,882.833 60.1667,882.167 60.5,881.5 Z"/></g>
<g><path style="opacity:1" fill="#1a1a1a" d="M 61.5,888.5 C 62.9616,889.458 64.2949,890.624 65.5,892C 63.1589,892.168 61.8256,891.001 61.5,888.5 Z"/></g>
<g><path style="opacity:1" fill="#313131" d="M 66.5,888.5 C 69.7967,888.632 71.4633,890.298 71.5,893.5C 68.7361,893.001 67.0695,891.335 66.5,888.5 Z"/></g>
<g><path style="opacity:1" fill="#1b1b1b" d="M 78.5,886.5 C 81.5468,890.712 85.3801,894.045 90,896.5C 92.104,899.71 93.9373,903.043 95.5,906.5C 95.3333,907.167 95.1667,907.833 95,908.5C 88.5179,902.165 83.0179,895.165 78.5,887.5C 78.5,887.167 78.5,886.833 78.5,886.5 Z"/></g>
<g><path style="opacity:1" fill="#191919" d="M 73.5,893.5 C 75.977,896.438 77.977,899.771 79.5,903.5C 79.1667,904.5 78.5,905.167 77.5,905.5C 74.8125,902.638 72.4791,899.472 70.5,896C 71.9423,895.623 72.9423,894.79 73.5,893.5 Z"/></g>
<g><path style="opacity:1" fill="#3a3a3a" d="M 56.5,901.5 C 56.8333,901.5 57.1667,901.5 57.5,901.5C 61.1349,903.128 63.4682,905.461 64.5,908.5C 61.7883,906.115 59.1216,903.782 56.5,901.5 Z"/></g>
<g><path style="opacity:1" fill="#131313" d="M 27.5,910.5 C 26.0813,909.549 24.4147,909.216 22.5,909.5C 25.7381,904.59 29.4047,904.423 33.5,909C 31.6547,910.128 29.6547,910.628 27.5,910.5 Z"/></g>
<g><path style="opacity:1" fill="#0e0e0e" d="M 47.5,905.5 C 50.894,906.089 53.894,907.422 56.5,909.5C 52.6207,911.14 49.2874,910.474 46.5,907.5C 46.8627,906.817 47.1961,906.15 47.5,905.5 Z"/></g>
<g><path style="opacity:1" fill="#5c5c5c" d="M 43.5,906.5 C 44.0431,906.56 44.3764,906.893 44.5,907.5C 43.3864,908.776 42.3864,908.776 41.5,907.5C 42.4916,907.672 43.1583,907.338 43.5,906.5 Z"/></g>
<g><path style="opacity:1" fill="#474747" d="M 79.5,906.5 C 81.0847,907.002 81.5847,908.002 81,909.5C 79.9614,908.756 79.4614,907.756 79.5,906.5 Z"/></g>
<g><path style="opacity:1" fill="#242424" d="M 84.5,908.5 C 86.9337,909.354 86.767,910.354 84,911.5C 83.5304,910.423 83.6971,909.423 84.5,908.5 Z"/></g>
<g><path style="opacity:1" fill="#121212" d="M 34.5,915.5 C 33.8333,915.833 33.1667,916.167 32.5,916.5C 32.4606,915.417 32.1272,914.417 31.5,913.5C 33.5994,912.035 35.7661,910.701 38,909.5C 52.7739,913.568 67.6073,917.402 82.5,921C 77.5576,922.328 72.5576,922.661 67.5,922C 56.8957,919.557 46.3957,916.724 36,913.5C 34.9701,913.836 34.4701,914.503 34.5,915.5 Z"/></g>
<g><path style="opacity:1" fill="#262626" d="M 58.5,908.5 C 58.8966,907.475 59.5632,907.308 60.5,908C 63.1667,910 65.8333,912 68.5,914C 65.7929,914.328 63.1262,913.995 60.5,913C 59.9011,911.378 59.2344,909.878 58.5,908.5 Z"/></g>
<g><path style="opacity:1" fill="#363636" d="M 95.5,909.5 C 96.1174,909.611 96.6174,909.944 97,910.5C 97.4523,913.149 98.2857,915.649 99.5,918C 98.5509,918.617 97.7175,918.451 97,917.5C 95.9207,914.937 95.4207,912.271 95.5,909.5 Z"/></g>
<g><path style="opacity:1" fill="#626262" d="M 22.5,909.5 C 24.4147,909.216 26.0813,909.549 27.5,910.5C 25.8333,910.5 24.1667,910.5 22.5,910.5C 22.5,911.5 22.5,912.5 22.5,913.5C 21.5,913.5 20.5,913.5 19.5,913.5C 19.4677,911.381 20.4677,910.048 22.5,909.5 Z"/></g>
<g><path style="opacity:1" fill="#676767" d="M 99.5,910.5 C 101.3,911.895 101.634,913.561 100.5,915.5C 99.5481,913.955 99.2148,912.288 99.5,910.5 Z"/></g>
<g><path style="opacity:1" fill="#3d3d3d" d="M 103.5,912.5 C 105.273,913.314 105.773,914.648 105,916.5C 103.812,915.437 103.312,914.103 103.5,912.5 Z"/></g>
<g><path style="opacity:1" fill="#1c1c1c" d="M 74.5,911.5 C 74.8333,911.5 75.1667,911.5 75.5,911.5C 78.9234,913.447 82.5901,914.947 86.5,916C 86.8333,916.333 87.1667,916.667 87.5,917C 81.983,917.907 77.6496,916.074 74.5,911.5 Z"/></g>
<g><path style="opacity:1" fill="#878787" d="M 23.5,916.5 C 25.8568,916.337 28.1902,916.503 30.5,917C 29.7562,918.039 28.7562,918.539 27.5,918.5C 26.1667,917.833 24.8333,917.167 23.5,916.5 Z"/></g>
<g><path style="opacity:1" fill="#4b4b4b" d="M 42.5,917.5 C 44.1789,917.892 45.8455,918.392 47.5,919C 44.5184,919.498 41.5184,919.665 38.5,919.5C 39.8333,918.833 41.1667,918.167 42.5,917.5 Z"/></g>
<g><path style="opacity:1" fill="#4a4a4a" d="M 52.5,922.5 C 58.9843,923.966 58.651,924.633 51.5,924.5C 51.8333,923.833 52.1667,923.167 52.5,922.5 Z"/></g>
<g><path style="opacity:1" fill="#393939" d="M 61.5,927.5 C 61.5,927.167 61.5,926.833 61.5,926.5C 66.4408,925.473 71.4408,924.973 76.5,925C 71.6372,926.673 66.6372,927.506 61.5,927.5 Z"/></g>
<g><path style="opacity:1" fill="#161616" d="M 73.5,927.5 C 74.8734,927.343 76.2068,927.51 77.5,928C 74.5348,934.491 70.2015,935.657 64.5,931.5C 67.5917,930.145 70.5917,928.812 73.5,927.5 Z"/></g>
<g><path style="opacity:1" fill="#333333" d="M 89.5,927.5 C 91.3786,927.393 91.7119,927.893 90.5,929C 88.6297,930.366 86.6297,931.533 84.5,932.5C 84.1667,932.167 83.8333,931.833 83.5,931.5C 85.5654,930.143 87.5654,928.81 89.5,927.5 Z"/></g>
<g><path style="opacity:1" fill="#222222" d="M 94.5,928.5 C 95.3764,928.369 96.0431,928.702 96.5,929.5C 95.4981,931.51 94.4981,933.51 93.5,935.5C 91.9984,934.917 90.6651,934.084 89.5,933C 91.2395,931.483 92.9062,929.983 94.5,928.5 Z"/></g>
<g><path style="opacity:1" fill="#1d1d1d" d="M 29.5,931.5 C 37.3469,932.542 37.3469,933.876 29.5,935.5C 28.7084,934.3 28.7084,932.967 29.5,931.5 Z"/></g>
<g><path style="opacity:1" fill="#171717" d="M 75.5,934.5 C 77.4646,934.948 77.7979,935.948 76.5,937.5C 70.3211,941.757 64.3211,946.257 58.5,951C 50.9799,949.861 47.1466,953.028 47,960.5C 45.8333,961.667 44.6667,962.833 43.5,964C 40.9214,963.516 38.2548,962.849 35.5,962C 40.1667,958 44.8333,954 49.5,950C 58.4652,945.124 67.1319,939.957 75.5,934.5 Z"/></g>
<g><path style="opacity:1" fill="#202020" d="M 86.5,935.5 C 87.4778,935.811 88.1445,936.478 88.5,937.5C 84.5101,939.05 83.8434,938.383 86.5,935.5 Z"/></g>
<g><path style="opacity:1" fill="#303030" d="M 31.5,936.5 C 32.3164,938.144 33.6498,939.31 35.5,940C 33.1913,940.756 31.1913,940.256 29.5,938.5C 30.2427,937.818 30.9094,937.151 31.5,936.5 Z"/></g>
<g><path style="opacity:1" fill="#cbcbcb" d="M 53.5,942.5 C 47.0992,946.695 41.0992,951.361 35.5,956.5C 33.4535,958.279 31.2869,959.946 29,961.5C 27.7705,960.725 27.4372,959.725 28,958.5C 35.7652,951.399 44.0986,945.066 53,939.5C 54.5458,940.503 54.7125,941.503 53.5,942.5 Z"/></g>
<g><path style="opacity:1" fill="#616161" d="M 113.5,946.5 C 113.167,946.5 112.833,946.5 112.5,946.5C 111.469,941.329 111.802,941.329 113.5,946.5 Z"/></g>
<g><path style="opacity:1" fill="#1e1e1e" d="M 78.5,938.5 C 79.525,938.897 79.6917,939.563 79,940.5C 73.0422,944.789 67.3756,949.456 62,954.5C 61.3123,955.332 61.479,955.998 62.5,956.5C 65.0942,955.408 67.2609,953.741 69,951.5C 67.6376,955.191 65.4709,958.525 62.5,961.5C 61.7071,958.874 60.0405,957.04 57.5,956C 58.8333,954.333 60.1667,952.667 61.5,951C 67.2343,946.812 72.9009,942.646 78.5,938.5 Z"/></g>
<g><path style="opacity:1" fill="#1f1f1f" d="M 53.5,942.5 C 53.5,943.167 53.8333,943.5 54.5,943.5C 48.238,947.754 42.238,952.42 36.5,957.5C 36.5,956.833 36.1667,956.5 35.5,956.5C 41.0992,951.361 47.0992,946.695 53.5,942.5 Z"/></g>
<g><path style="opacity:1" fill="#898989" d="M 104.5,939.5 C 105.117,939.611 105.617,939.944 106,940.5C 106.667,945.833 106.667,951.167 106,956.5C 104.551,951.019 104.051,945.352 104.5,939.5 Z"/></g>
<g><path style="opacity:1" fill="#181818" d="M 90.5,943.5 C 91.0431,943.56 91.3764,943.893 91.5,944.5C 88.6778,952.127 86.0111,959.794 83.5,967.5C 82.1667,966.833 81.1667,965.833 80.5,964.5C 84.8202,962.042 86.1536,958.542 84.5,954C 86.3854,950.391 88.3854,946.891 90.5,943.5 Z"/></g>
<g><path style="opacity:1" fill="#313131" d="M 96.5,935.5 C 95.4274,944.598 92.9274,953.598 89,962.5C 88.3333,961.167 88.3333,959.833 89,958.5C 91.6068,950.847 94.1068,943.18 96.5,935.5 Z"/></g>
<g><path style="opacity:1" fill="#0f0f0f" d="M 108.5,948.5 C 110.557,950.857 110.89,953.524 109.5,956.5C 108.52,953.914 108.187,951.247 108.5,948.5 Z"/></g>
<g><path style="opacity:1" fill="#484848" d="M 85.5,945.5 C 86.0431,945.56 86.3764,945.893 86.5,946.5C 85.0787,949.009 83.4121,951.343 81.5,953.5C 81.1667,953.167 80.8333,952.833 80.5,952.5C 82.4216,950.313 84.0883,947.98 85.5,945.5 Z"/></g>
<g><path style="opacity:1" fill="#3f3f3f" d="M 52.5,953.5 C 53.2389,953.369 53.9056,953.536 54.5,954C 53.3147,955.353 51.9814,956.52 50.5,957.5C 50.1667,957.167 49.8333,956.833 49.5,956.5C 50.3398,955.265 51.3398,954.265 52.5,953.5 Z"/></g>
<g><path style="opacity:1" fill="#151515" d="M 78.5,955.5 C 79.3764,955.369 80.0431,955.702 80.5,956.5C 79.6561,959.678 77.9895,962.345 75.5,964.5C 76.6446,965.891 76.6446,967.224 75.5,968.5C 71.3922,966.402 70.5588,963.402 73,959.5C 75.4632,958.968 77.2965,957.634 78.5,955.5 Z"/></g>
<g><path style="opacity:1" fill="#262626" d="M 110.5,957.5 C 111.629,959.628 111.796,961.961 111,964.5C 109.933,963.057 108.766,961.724 107.5,960.5C 108.77,959.712 109.77,958.712 110.5,957.5 Z"/></g>
<g><path style="opacity:1" fill="#1f1f1f" d="M 101.5,962.5 C 102.5,962.5 103.5,962.5 104.5,962.5C 104.949,964.977 104.283,966.977 102.5,968.5C 101.534,966.604 101.201,964.604 101.5,962.5 Z"/></g>
<g><path style="opacity:1" fill="#222222" d="M 59.5,963.5 C 60.3764,963.369 61.0431,963.702 61.5,964.5C 59.9255,965.631 58.2588,965.798 56.5,965C 57.7375,964.768 58.7375,964.268 59.5,963.5 Z"/></g>
<g><path style="opacity:1" fill="#313131" d="M 33.5,964.5 C 38.7562,964.922 39.2562,965.922 35,967.5C 34.6829,972.534 33.5162,972.701 31.5,968C 31.9783,966.697 32.645,965.531 33.5,964.5 Z"/></g>
<g><path style="opacity:1" fill="#595959" d="M 114.5,964.5 C 116.273,965.314 116.773,966.648 116,968.5C 114.812,967.437 114.312,966.103 114.5,964.5 Z"/></g>
<g><path style="opacity:1" fill="#171717" d="M 111.5,966.5 C 114.339,969.94 114.005,972.94 110.5,975.5C 109.054,974.829 108.388,973.662 108.5,972C 108.863,969.808 109.863,967.974 111.5,966.5 Z"/></g>
<g><path style="opacity:1" fill="#222222" d="M 39.5,974.5 C 39.5,974.167 39.5,973.833 39.5,973.5C 42.658,973.225 44.658,971.558 45.5,968.5C 46.5,968.833 47.1667,969.5 47.5,970.5C 45.3567,972.777 42.6901,974.11 39.5,974.5 Z"/></g>
<g><path style="opacity:1" fill="#cbcbcb" d="M 69.5,967.5 C 69.5,968.833 69.5,970.167 69.5,971.5C 69.1655,976.177 68.6655,980.844 68,985.5C 67.3333,986.833 66.6667,986.833 66,985.5C 65.4488,980.455 65.7821,975.455 67,970.5C 67.2355,968.881 68.0689,967.881 69.5,967.5 Z"/></g>
<g><path style="opacity:1" fill="#3a3a3a" d="M 37.5,968.5 C 39.9752,968.747 39.9752,969.413 37.5,970.5C 36.537,970.03 36.537,969.363 37.5,968.5 Z"/></g>
<g><path style="opacity:1" fill="#5f5f5f" d="M 69.5,966.5 C 70.5,966.833 71.1667,967.5 71.5,968.5C 70.8333,969.5 70.1667,970.5 69.5,971.5C 69.5,970.167 69.5,968.833 69.5,967.5C 69.5,967.167 69.5,966.833 69.5,966.5 Z"/></g>
<g><path style="opacity:1" fill="#262626" d="M 81.5,969.5 C 82.4778,969.811 83.1445,970.478 83.5,971.5C 81.9255,972.631 80.2588,972.798 78.5,972C 79.9423,971.623 80.9423,970.79 81.5,969.5 Z"/></g>
<g><path style="opacity:1" fill="#9d9d9d" d="M 39.5,973.5 C 39.5,973.833 39.5,974.167 39.5,974.5C 37.9689,975.925 38.3023,976.591 40.5,976.5C 39.2946,977.686 37.9613,977.686 36.5,976.5C 37.1667,975.167 38.1667,974.167 39.5,973.5 Z"/></g>
<g><path style="opacity:1" fill="#4c4c4c" d="M 112.5,977.5 C 111.833,978.167 111.167,978.833 110.5,979.5C 109.957,979.44 109.624,979.107 109.5,978.5C 110.325,977.614 111.325,977.281 112.5,977.5 Z"/></g>
<g><path style="opacity:1" fill="#444444" d="M 108.5,982.5 C 107.833,983.167 107.167,983.833 106.5,984.5C 106.337,982.143 106.503,979.81 107,977.5C 107.608,979.154 108.108,980.821 108.5,982.5 Z"/></g>
<g><path style="opacity:1" fill="#131313" d="M 1243.5,1078.5 C 1246.83,1080.83 1249.5,1083.83 1251.5,1087.5C 1247.17,1088.83 1242.83,1088.83 1238.5,1087.5C 1240.44,1084.61 1242.11,1081.61 1243.5,1078.5 Z"/></g>
<g><path style="opacity:1" fill="#434343" d="M 1235.5,1092.5 C 1237.26,1091.54 1239.26,1091.21 1241.5,1091.5C 1240.83,1092.17 1240.17,1092.83 1239.5,1093.5C 1238.29,1092.77 1236.96,1092.43 1235.5,1092.5 Z"/></g>
<g><path style="opacity:1" fill="#1b1b1b" d="M 1235.5,1092.5 C 1237.49,1095.14 1239.49,1097.8 1241.5,1100.5C 1229.96,1103.67 1227.96,1101 1235.5,1092.5 Z"/></g>
<g><path style="opacity:1" fill="#626262" d="M 1228.5,1102.5 C 1230.93,1102.52 1233.26,1103.02 1235.5,1104C 1232.83,1104.67 1230.17,1104.67 1227.5,1104C 1228.06,1103.62 1228.39,1103.12 1228.5,1102.5 Z"/></g>
<g><path style="opacity:1" fill="#0b0b0b" d="M 1250.5,1111.5 C 1262.52,1113.61 1263.85,1118.11 1254.5,1125C 1246.5,1126.22 1243,1122.72 1244,1114.5C 1245.77,1111.96 1247.61,1111.96 1249.5,1114.5C 1250.39,1113.68 1250.72,1112.68 1250.5,1111.5 Z"/></g>
<g><path style="opacity:1" fill="#c6c6c6" d="M 1145.5,1201.5 C 1144.83,1200.17 1144.17,1198.83 1143.5,1197.5C 1145.07,1198.47 1146.73,1198.64 1148.5,1198C 1151,1194.83 1153.5,1191.67 1156,1188.5C 1158.12,1185.7 1160.79,1183.7 1164,1182.5C 1165.04,1175.96 1168.87,1172.3 1175.5,1171.5C 1175.99,1163.51 1180.15,1159.51 1188,1159.5C 1186.33,1150.81 1189.83,1146.48 1198.5,1146.5C 1196.84,1142.13 1197.5,1138.3 1200.5,1135C 1201.45,1134.52 1202.45,1134.35 1203.5,1134.5C 1205.17,1134.5 1206.83,1134.5 1208.5,1134.5C 1208.77,1132.9 1208.43,1131.57 1207.5,1130.5C 1207.66,1120.67 1212.66,1115.34 1222.5,1114.5C 1222.5,1115.5 1222.5,1116.5 1222.5,1117.5C 1212.76,1118.4 1209.1,1123.57 1211.5,1133C 1211.24,1134.26 1210.57,1135.26 1209.5,1136C 1206.88,1136.82 1204.22,1137.32 1201.5,1137.5C 1203.98,1146.17 1200.81,1150.83 1192,1151.5C 1191.84,1155.29 1191.17,1158.95 1190,1162.5C 1187.26,1163.28 1184.43,1163.78 1181.5,1164C 1180.26,1167.12 1179.09,1170.29 1178,1173.5C 1175.53,1175.44 1172.7,1176.6 1169.5,1177C 1168.11,1179.72 1166.94,1182.56 1166,1185.5C 1164.6,1186.23 1163.1,1186.73 1161.5,1187C 1157.74,1191.85 1153.74,1196.52 1149.5,1201C 1148.21,1201.49 1146.87,1201.66 1145.5,1201.5 Z"/></g>
<g><path style="opacity:1" fill="#030303" d="M 210.5,1131.5 C 224.358,1148.04 238.692,1164.37 253.5,1180.5C 253.023,1181.48 252.357,1182.31 251.5,1183C 234.593,1190.2 216.927,1194.04 198.5,1194.5C 195.493,1183.32 190.493,1173.15 183.5,1164C 192.321,1153.01 201.321,1142.18 210.5,1131.5 Z"/></g>
<g><path style="opacity:1" fill="#4e4e4e" d="M 1207.5,1130.5 C 1208.43,1131.57 1208.77,1132.9 1208.5,1134.5C 1206.83,1134.5 1205.17,1134.5 1203.5,1134.5C 1204.57,1133.57 1205.9,1133.23 1207.5,1133.5C 1207.5,1132.5 1207.5,1131.5 1207.5,1130.5 Z"/></g>
<g><path style="opacity:1" fill="#020202" d="M 123.5,1138.5 C 152.41,1138.04 173.91,1150.37 188,1175.5C 190.607,1180.38 192.94,1185.38 195,1190.5C 195.334,1192.85 195.167,1195.18 194.5,1197.5C 195.5,1197.5 196.5,1197.5 197.5,1197.5C 203.777,1224.24 197.111,1247.07 177.5,1266C 166.205,1274.94 154.538,1275.61 142.5,1268C 149.826,1267.45 156.492,1265.11 162.5,1261C 158.432,1261.35 154.432,1262.35 150.5,1264C 144.369,1265.27 138.702,1264.27 133.5,1261C 121.585,1248.85 113.252,1234.52 108.5,1218C 108.833,1217.5 109.167,1217 109.5,1216.5C 123.367,1222.4 137.534,1227.4 152,1231.5C 152.833,1231.17 153.667,1230.83 154.5,1230.5C 138.741,1225.3 123.074,1219.47 107.5,1213C 106.663,1211.99 106.33,1210.82 106.5,1209.5C 124.527,1208.67 142.527,1207.5 160.5,1206C 161.902,1204.66 161.569,1203.82 159.5,1203.5C 141.541,1205.27 123.541,1206.1 105.5,1206C 104.62,1204.64 104.286,1203.14 104.5,1201.5C 115.715,1196.56 126.715,1191.06 137.5,1185C 141.668,1182.91 146.002,1181.41 150.5,1180.5C 150.719,1179.32 150.386,1178.32 149.5,1177.5C 134.101,1184.03 119.101,1191.37 104.5,1199.5C 102.053,1186.87 101.886,1174.21 104,1161.5C 106.823,1150.53 113.323,1142.86 123.5,1138.5 Z"/></g>
<g><path style="opacity:1" fill="#181818" d="M 99.5,1203.5 C 100.5,1203.5 101.5,1203.5 102.5,1203.5C 102.5,1204.83 102.5,1206.17 102.5,1207.5C 99.1501,1207.67 95.8168,1207.5 92.5,1207C 95.0691,1206.1 97.4024,1204.93 99.5,1203.5 Z"/></g>
<g><path style="opacity:1" fill="#6a6a6a" d="M 99.5,1210.5 C 101.185,1209.16 102.852,1209.32 104.5,1211C 102.893,1210.98 101.226,1210.81 99.5,1210.5 Z"/></g>
<g><path style="opacity:1" fill="#363636" d="M 306.5,1230.5 C 307.289,1230.78 307.956,1231.28 308.5,1232C 306.527,1232.5 304.527,1232.66 302.5,1232.5C 303.833,1231.83 305.167,1231.17 306.5,1230.5 Z"/></g>
<g><path style="opacity:1" fill="#0a0a0a" d="M 1107.5,1234.5 C 1112.33,1238.41 1116.49,1243.08 1120,1248.5C 1124.87,1252.68 1128.87,1257.35 1132,1262.5C 1133.05,1261.48 1134.22,1261.32 1135.5,1262C 1136.75,1263.96 1138.41,1265.46 1140.5,1266.5C 1137.66,1268.1 1134.66,1268.6 1131.5,1268C 1119.49,1261.66 1108.15,1254.33 1097.5,1246C 1096.55,1245.28 1096.38,1244.45 1097,1243.5C 1100.66,1240.6 1104.16,1237.6 1107.5,1234.5 Z"/></g>
<g><path style="opacity:1" fill="#030303" d="M 301.5,1234.5 C 303.857,1234.34 306.19,1234.5 308.5,1235C 319.454,1240.62 329.288,1247.79 338,1256.5C 343.623,1262.93 349.123,1269.43 354.5,1276C 344.392,1286.77 333.058,1296.1 320.5,1304C 317.449,1304.86 314.783,1304.19 312.5,1302C 308.607,1298.61 305.273,1294.78 302.5,1290.5C 303.167,1289.83 303.833,1289.17 304.5,1288.5C 302.234,1287.69 299.9,1287.19 297.5,1287C 294.76,1283.28 293.926,1279.11 295,1274.5C 298,1270.83 301,1267.17 304,1263.5C 304.667,1260.83 304.667,1258.17 304,1255.5C 301.027,1251.22 298.86,1246.55 297.5,1241.5C 298.071,1238.69 299.404,1236.35 301.5,1234.5 Z"/></g>
<g><path style="opacity:1" fill="#757575" d="M 1125.5,1237.5 C 1127.63,1238.05 1129.63,1238.71 1131.5,1239.5C 1128.92,1239.97 1126.92,1239.31 1125.5,1237.5 Z"/></g>
<g><path style="opacity:1" fill="#141414" d="M 1153.5,1233.5 C 1155.26,1234.55 1155.92,1236.22 1155.5,1238.5C 1154.32,1238.28 1153.32,1238.61 1152.5,1239.5C 1153.52,1240.85 1154.85,1241.85 1156.5,1242.5C 1157.31,1244.07 1157.64,1245.74 1157.5,1247.5C 1155.5,1247.17 1153.5,1246.83 1151.5,1246.5C 1151.05,1241.93 1151.72,1237.6 1153.5,1233.5 Z"/></g>
<g><path style="opacity:1" fill="#191919" d="M 1181.5,1238.5 C 1184.18,1238.23 1185.68,1239.23 1186,1241.5C 1183.45,1244.01 1180.95,1243.84 1178.5,1241C 1179.57,1240.15 1180.57,1239.31 1181.5,1238.5 Z"/></g>
<g><path style="opacity:1" fill="#131313" d="M 1133.5,1243.5 C 1130.89,1245.32 1128.89,1244.82 1127.5,1242C 1129.77,1241.59 1131.77,1242.09 1133.5,1243.5 Z"/></g>
<g><path style="opacity:1" fill="#252525" d="M 1175.5,1242.5 C 1179.65,1243.12 1180.81,1245.12 1179,1248.5C 1177.5,1247 1176,1245.5 1174.5,1244C 1175.06,1243.62 1175.39,1243.12 1175.5,1242.5 Z"/></g>
<g><path style="opacity:1" fill="#1b1b1b" d="M 1133.5,1243.5 C 1139.72,1246.1 1139.72,1247.6 1133.5,1248C 1132.59,1246.59 1132.59,1245.09 1133.5,1243.5 Z"/></g>
<g><path style="opacity:1" fill="#232323" d="M 1185.5,1248.5 C 1184.03,1246.41 1184.53,1244.74 1187,1243.5C 1187.6,1245.53 1187.1,1247.2 1185.5,1248.5 Z"/></g>
<g><path style="opacity:1" fill="#151515" d="M 1168.5,1258.5 C 1167.83,1257.83 1167.17,1257.17 1166.5,1256.5C 1167.65,1254.19 1168.82,1251.86 1170,1249.5C 1173.94,1245.39 1175.77,1246.06 1175.5,1251.5C 1174.83,1251.17 1174.17,1250.83 1173.5,1250.5C 1172.27,1251.65 1172.27,1252.82 1173.5,1254C 1172.06,1254.22 1170.73,1254.72 1169.5,1255.5C 1171.09,1257.22 1170.76,1258.22 1168.5,1258.5 Z"/></g>
<g><path style="opacity:1" fill="#191919" d="M 1139.5,1248.5 C 1143.61,1251.75 1146.44,1255.75 1148,1260.5C 1144.8,1256.96 1141.3,1253.8 1137.5,1251C 1138.38,1250.29 1139.05,1249.46 1139.5,1248.5 Z"/></g>
<g><path style="opacity:1" fill="#272727" d="M 1185.5,1248.5 C 1184.85,1253.59 1183.18,1254.26 1180.5,1250.5C 1181.67,1248.78 1183.34,1248.12 1185.5,1248.5 Z"/></g>
<g><path style="opacity:1" fill="#2f2f2f" d="M 1159.5,1242.5 C 1161.74,1246.08 1163.07,1250.08 1163.5,1254.5C 1163.56,1256.48 1162.9,1258.15 1161.5,1259.5C 1160.25,1256.49 1160.25,1253.49 1161.5,1250.5C 1159.78,1248.13 1159.11,1245.47 1159.5,1242.5 Z"/></g>
<g><path style="opacity:1" fill="#050505" d="M 1157.5,1252.5 C 1157.5,1254.83 1157.5,1257.17 1157.5,1259.5C 1156.5,1259.5 1155.5,1259.5 1154.5,1259.5C 1154.01,1257.19 1153.67,1254.86 1153.5,1252.5C 1154.83,1252.5 1156.17,1252.5 1157.5,1252.5 Z"/></g>
<g><path style="opacity:1" fill="#2e2e2e" d="M 1134.5,1252.5 C 1136.46,1252.95 1136.8,1253.95 1135.5,1255.5C 1133.48,1254.87 1133.15,1253.87 1134.5,1252.5 Z"/></g>
<g><path style="opacity:1" fill="#0f0f0f" d="M 1138.5,1255.5 C 1141.14,1256.79 1141.14,1258.13 1138.5,1259.5C 1136.21,1258.37 1136.21,1257.04 1138.5,1255.5 Z"/></g>
<g><path style="opacity:1" fill="#414141" d="M 1150.5,1254.5 C 1151.31,1256 1151.97,1257.66 1152.5,1259.5C 1152.15,1260.7 1151.65,1260.7 1151,1259.5C 1150.49,1258.47 1149.99,1257.47 1149.5,1256.5C 1150.34,1256.16 1150.67,1255.49 1150.5,1254.5 Z"/></g>
<g><path style="opacity:1" fill="#2a2a2a" d="M 1178.5,1252.5 C 1182.55,1254.75 1182.39,1256.75 1178,1258.5C 1176.72,1258.39 1175.89,1257.72 1175.5,1256.5C 1176.69,1256.45 1178.02,1256.11 1179.5,1255.5C 1178.87,1254.58 1178.54,1253.58 1178.5,1252.5 Z"/></g>
<g><path style="opacity:1" fill="#888888" d="M 1157.5,1252.5 C 1158.47,1254.95 1158.81,1257.61 1158.5,1260.5C 1156.9,1260.77 1155.57,1260.43 1154.5,1259.5C 1155.5,1259.5 1156.5,1259.5 1157.5,1259.5C 1157.5,1257.17 1157.5,1254.83 1157.5,1252.5 Z"/></g>
<g><path style="opacity:1" fill="#2a2a2a" d="M 1172.5,1258.5 C 1176.3,1259.91 1176.3,1260.91 1172.5,1261.5C 1172.5,1260.5 1172.5,1259.5 1172.5,1258.5 Z"/></g>
<g><path style="opacity:1" fill="#151515" d="M 1142.5,1259.5 C 1145.96,1260.54 1146.29,1262.2 1143.5,1264.5C 1140.14,1263.21 1139.81,1261.54 1142.5,1259.5 Z"/></g>
<g><path style="opacity:1" fill="#747474" d="M 1166.5,1256.5 C 1167.17,1257.17 1167.83,1257.83 1168.5,1258.5C 1166.35,1258.39 1166.02,1259.06 1167.5,1260.5C 1167.19,1261.31 1166.69,1261.97 1166,1262.5C 1165.21,1260.29 1165.38,1258.29 1166.5,1256.5 Z"/></g>
<g><path style="opacity:1" fill="#171717" d="M 1200.5,1265.5 C 1197.42,1264.93 1194.42,1264.93 1191.5,1265.5C 1190.53,1261.01 1189.19,1260.68 1187.5,1264.5C 1182.3,1266.46 1181.3,1265.29 1184.5,1261C 1190.84,1259.44 1196.17,1260.94 1200.5,1265.5 Z"/></g>
<g><path style="opacity:1" fill="#545454" d="M 349.5,1263.5 C 348.833,1263.5 348.5,1263.83 348.5,1264.5C 346.37,1262.87 344.37,1261.04 342.5,1259C 343.167,1258.33 343.833,1258.33 344.5,1259C 346.24,1260.52 347.906,1262.02 349.5,1263.5 Z"/></g>
<g><path style="opacity:1" fill="#0f0f0f" d="M 1156.5,1262.5 C 1157.65,1262.79 1158.32,1263.62 1158.5,1265C 1158.33,1265.83 1158.17,1266.67 1158,1267.5C 1156.99,1265.98 1156.49,1264.31 1156.5,1262.5 Z"/></g>
<g><path style="opacity:1" fill="#353535" d="M 1179.5,1261.5 C 1180.38,1261.37 1181.04,1261.7 1181.5,1262.5C 1179.99,1266.35 1179.33,1266.02 1179.5,1261.5 Z"/></g>
<g><path style="opacity:1" fill="#020202" d="M 1147.5,1264.5 C 1150.14,1266.15 1149.8,1266.65 1146.5,1266C 1147.06,1265.62 1147.39,1265.12 1147.5,1264.5 Z"/></g>
<g><path style="opacity:1" fill="#9c9c9c" d="M 1168.5,1262.5 C 1169.55,1262.35 1170.55,1262.52 1171.5,1263C 1169.63,1264.6 1167.63,1265.6 1165.5,1266C 1166.71,1264.96 1167.71,1263.79 1168.5,1262.5 Z"/></g>
<g><path style="opacity:1" fill="#212121" d="M 1160.5,1267.5 C 1161.4,1268.21 1161.74,1269.21 1161.5,1270.5C 1158,1270.31 1157.66,1269.31 1160.5,1267.5 Z"/></g>
<g><path style="opacity:1" fill="#151515" d="M 1189.5,1267.5 C 1191.26,1268.55 1191.92,1270.22 1191.5,1272.5C 1184.86,1273.44 1178.19,1273.61 1171.5,1273C 1172.44,1269.75 1173.78,1269.25 1175.5,1271.5C 1179.2,1268.05 1183.2,1267.72 1187.5,1270.5C 1188.43,1269.64 1189.09,1268.64 1189.5,1267.5 Z"/></g>
<g><path style="opacity:1" fill="#252525" d="M 1200.5,1265.5 C 1202.23,1266.01 1202.57,1266.84 1201.5,1268C 1199.17,1269.17 1196.83,1270.33 1194.5,1271.5C 1193.41,1270.61 1193.41,1269.61 1194.5,1268.5C 1196.97,1268.04 1198.97,1267.04 1200.5,1265.5 Z"/></g>
<g><path style="opacity:1" fill="#282828" d="M 1152.5,1270.5 C 1154.26,1269.67 1155.93,1270.17 1157.5,1272C 1155.72,1272.12 1154.05,1271.62 1152.5,1270.5 Z"/></g>
<g><path style="opacity:1" fill="#414141" d="M 1168.5,1269.5 C 1170.34,1269.64 1170.67,1270.31 1169.5,1271.5C 1168.7,1271.04 1168.37,1270.38 1168.5,1269.5 Z"/></g>
<g><path style="opacity:1" fill="#3a3a3a" d="M 1143.5,1269.5 C 1144.97,1270.07 1146.31,1270.91 1147.5,1272C 1145.06,1272.91 1143.72,1272.08 1143.5,1269.5 Z"/></g>
<g><path style="opacity:1" fill="#1d1d1d" d="M 1133.5,1272.5 C 1133.56,1271.96 1133.89,1271.62 1134.5,1271.5C 1136.39,1272.61 1138.39,1273.44 1140.5,1274C 1139.07,1274.47 1137.9,1275.3 1137,1276.5C 1136.05,1274.91 1134.88,1273.57 1133.5,1272.5 Z"/></g>
<g><path style="opacity:1" fill="#1b1b1b" d="M 1129.5,1273.5 C 1131.73,1274.06 1133.4,1275.39 1134.5,1277.5C 1131.46,1280.17 1129.12,1279.5 1127.5,1275.5C 1128.24,1274.82 1128.91,1274.15 1129.5,1273.5 Z"/></g>
<g><path style="opacity:1" fill="#1a1a1a" d="M 1141.5,1275.5 C 1143.91,1275.69 1144.91,1277.03 1144.5,1279.5C 1138.44,1281.13 1137.44,1279.79 1141.5,1275.5 Z"/></g>
<g><path style="opacity:1" fill="#9c9c9c" d="M 1185.5,1275.5 C 1181.56,1275.87 1177.89,1276.87 1174.5,1278.5C 1173.73,1277.83 1173.07,1276.99 1172.5,1276C 1176.82,1275.5 1181.15,1275.33 1185.5,1275.5 Z"/></g>
<g><path style="opacity:1" fill="#393939" d="M 1146.5,1275.5 C 1149.8,1275.33 1150.13,1276 1147.5,1277.5C 1146.7,1277.04 1146.37,1276.38 1146.5,1275.5 Z"/></g>
<g><path style="opacity:1" fill="#181818" d="M 1158.5,1275.5 C 1160.03,1279.61 1159.37,1280.11 1156.5,1277C 1157.42,1276.72 1158.08,1276.22 1158.5,1275.5 Z"/></g>
<g><path style="opacity:1" fill="#282828" d="M 1176.5,1290.5 C 1176.5,1291.17 1176.17,1291.5 1175.5,1291.5C 1173.67,1286.52 1171.34,1281.85 1168.5,1277.5C 1166.71,1277.79 1165.05,1277.45 1163.5,1276.5C 1165.42,1275.36 1167.42,1275.19 1169.5,1276C 1173.31,1280.12 1175.64,1284.95 1176.5,1290.5 Z"/></g>
<g><path style="opacity:1" fill="#181818" d="M 1150.5,1278.5 C 1154.21,1279.55 1154.04,1280.88 1150,1282.5C 1148.94,1282.37 1148.11,1281.87 1147.5,1281C 1148.57,1280.15 1149.57,1279.31 1150.5,1278.5 Z"/></g>
<g><path style="opacity:1" fill="#181818" d="M 1167.5,1279.5 C 1167.96,1281.76 1168.96,1283.76 1170.5,1285.5C 1169.31,1286.43 1167.98,1286.76 1166.5,1286.5C 1166.28,1287.68 1166.61,1288.68 1167.5,1289.5C 1171.46,1287.82 1173.46,1289.15 1173.5,1293.5C 1166.32,1293.62 1165.99,1294.62 1172.5,1296.5C 1173.4,1295.49 1174.06,1295.49 1174.5,1296.5C 1169.39,1298.45 1169.72,1299.78 1175.5,1300.5C 1174.96,1303.7 1175.63,1306.36 1177.5,1308.5C 1177.83,1308.5 1178.17,1308.5 1178.5,1308.5C 1178.5,1310.5 1178.5,1312.5 1178.5,1314.5C 1177.21,1314.74 1176.21,1314.4 1175.5,1313.5C 1177.03,1313.48 1177.53,1312.82 1177,1311.5C 1168.09,1302.68 1163.26,1292.02 1162.5,1279.5C 1164.17,1279.5 1165.83,1279.5 1167.5,1279.5 Z"/></g>
<g><path style="opacity:1" fill="#e5e5e5" d="M 1168.5,1277.5 C 1171.34,1281.85 1173.67,1286.52 1175.5,1291.5C 1177.02,1297.05 1177.69,1302.71 1177.5,1308.5C 1175.63,1306.36 1174.96,1303.7 1175.5,1300.5C 1169.72,1299.78 1169.39,1298.45 1174.5,1296.5C 1174.06,1295.49 1173.4,1295.49 1172.5,1296.5C 1165.99,1294.62 1166.32,1293.62 1173.5,1293.5C 1173.46,1289.15 1171.46,1287.82 1167.5,1289.5C 1166.61,1288.68 1166.28,1287.68 1166.5,1286.5C 1167.98,1286.76 1169.31,1286.43 1170.5,1285.5C 1168.96,1283.76 1167.96,1281.76 1167.5,1279.5C 1168.34,1279.16 1168.67,1278.49 1168.5,1277.5 Z"/></g>
<g><path style="opacity:1" fill="#181818" d="M 1124.5,1277.5 C 1127,1277.83 1128.17,1279.16 1128,1281.5C 1125.07,1283.91 1121.91,1284.91 1118.5,1284.5C 1119.91,1281.79 1121.91,1280.79 1124.5,1281.5C 1123.19,1280.13 1123.19,1278.8 1124.5,1277.5 Z"/></g>
<g><path style="opacity:1" fill="#3d3d3d" d="M 1135.5,1279.5 C 1136.29,1279.78 1136.96,1280.28 1137.5,1281C 1135.96,1282.19 1134.29,1282.52 1132.5,1282C 1133.57,1281.15 1134.57,1280.31 1135.5,1279.5 Z"/></g>
<g><path style="opacity:1" fill="#333333" d="M 1138.5,1284.5 C 1137.83,1284.5 1137.17,1284.5 1136.5,1284.5C 1137.64,1283.66 1138.97,1282.99 1140.5,1282.5C 1141.22,1283.81 1140.55,1284.48 1138.5,1284.5 Z"/></g>
<g><path style="opacity:1" fill="#161616" d="M 1143.5,1283.5 C 1144.87,1283.34 1146.21,1283.51 1147.5,1284C 1148.83,1286.33 1148.17,1287.33 1145.5,1287C 1144.18,1286.18 1143.51,1285.02 1143.5,1283.5 Z"/></g>
<g><path style="opacity:1" fill="#171717" d="M 1155.5,1280.5 C 1157.91,1281.41 1158.75,1283.07 1158,1285.5C 1155.48,1291.03 1151.81,1295.69 1147,1299.5C 1145.83,1298.33 1144.67,1297.17 1143.5,1296C 1145.02,1294.65 1146.35,1293.15 1147.5,1291.5C 1151.5,1294.17 1152.17,1293.5 1149.5,1289.5C 1149.83,1288.5 1150.5,1287.83 1151.5,1287.5C 1154.41,1288.75 1155.08,1287.92 1153.5,1285C 1154.04,1283.42 1154.71,1281.92 1155.5,1280.5 Z"/></g>
<g><path style="opacity:1" fill="#1c1c1c" d="M 1140.5,1287.5 C 1146.7,1289.13 1146.7,1291.46 1140.5,1294.5C 1139.33,1294.08 1138.33,1293.41 1137.5,1292.5C 1138.76,1290.97 1139.76,1289.3 1140.5,1287.5 Z"/></g>
<g><path style="opacity:1" fill="#222222" d="M 1132.5,1303.5 C 1133.21,1301.07 1134.21,1298.74 1135.5,1296.5C 1136.96,1295.26 1138.29,1295.42 1139.5,1297C 1137.3,1299.37 1134.96,1301.54 1132.5,1303.5 Z"/></g>
<g><path style="opacity:1" fill="#c1c1c1" d="M 393.5,1295.5 C 394.873,1295.34 396.207,1295.51 397.5,1296C 401.331,1299.42 405.665,1302.09 410.5,1304C 416.22,1308.88 418.053,1315.05 416,1322.5C 414.133,1330.97 411.8,1339.3 409,1347.5C 407.817,1348.73 406.651,1348.73 405.5,1347.5C 408.62,1339.02 411.12,1330.35 413,1321.5C 413.854,1317.37 413.52,1313.37 412,1309.5C 406.414,1305.96 400.914,1302.29 395.5,1298.5C 394.416,1299.67 393.583,1301 393,1302.5C 389.449,1317.86 391.449,1332.52 399,1346.5C 402.491,1351.26 406.991,1352.59 412.5,1350.5C 413.731,1351.65 413.731,1352.82 412.5,1354C 405.42,1355.88 399.92,1353.71 396,1347.5C 388.199,1332.89 386.199,1317.56 390,1301.5C 390.564,1299.11 391.73,1297.11 393.5,1295.5 Z"/></g>
<g><path style="opacity:1" fill="#181818" d="M 1140.5,1298.5 C 1142.8,1298.52 1143.97,1299.52 1144,1301.5C 1140.4,1303.07 1139.24,1302.07 1140.5,1298.5 Z"/></g>
<g><path style="opacity:1" fill="#767676" d="M 1176.5,1290.5 C 1178.23,1296.24 1178.9,1302.24 1178.5,1308.5C 1178.17,1308.5 1177.83,1308.5 1177.5,1308.5C 1177.69,1302.71 1177.02,1297.05 1175.5,1291.5C 1176.17,1291.5 1176.5,1291.17 1176.5,1290.5 Z"/></g>
<g><path style="opacity:1" fill="#1f1f1f" d="M 1132.5,1303.5 C 1132.37,1304.38 1132.7,1305.04 1133.5,1305.5C 1135.28,1303.55 1137.28,1303.22 1139.5,1304.5C 1137.17,1306.67 1134.5,1308.33 1131.5,1309.5C 1130.56,1307.31 1130.89,1305.31 1132.5,1303.5 Z"/></g>
<g><path style="opacity:1" fill="#040404" d="M 457.5,1324.5 C 463.468,1329.01 470.134,1332.51 477.5,1335C 484.436,1335.66 491.103,1337.32 497.5,1340C 498.804,1340.8 499.471,1341.97 499.5,1343.5C 497.256,1353.1 491.59,1356.76 482.5,1354.5C 482.977,1355.48 483.643,1356.31 484.5,1357C 474.697,1360.81 464.697,1361.81 454.5,1360C 450.64,1356.95 448.64,1352.95 448.5,1348C 449.641,1339.4 452.641,1331.57 457.5,1324.5 Z"/></g>
<g><path style="opacity:1" fill="#101010" d="M 543.5,1354.5 C 542.833,1354.5 542.5,1354.83 542.5,1355.5C 541.5,1355.5 540.5,1355.5 539.5,1355.5C 539.822,1357.72 539.155,1359.56 537.5,1361C 532.493,1361.5 529.159,1359.34 527.5,1354.5C 527.775,1352.39 528.942,1351.06 531,1350.5C 535.497,1351.18 539.664,1352.52 543.5,1354.5 Z"/></g>
<g><path style="opacity:1" fill="#060606" d="M 561.5,1358.5 C 567.835,1360.04 574.168,1361.7 580.5,1363.5C 582.363,1367.53 585.363,1370.36 589.5,1372C 600.472,1371.11 611.472,1370.28 622.5,1369.5C 621.05,1381.73 614.717,1390.4 603.5,1395.5C 603.167,1395.17 602.833,1394.83 602.5,1394.5C 607.896,1389.57 609.896,1383.57 608.5,1376.5C 605.874,1391.98 596.874,1399.48 581.5,1399C 577.759,1397.26 574.592,1394.76 572,1391.5C 567.745,1383.99 563.745,1376.32 560,1368.5C 559.153,1364.93 559.653,1361.59 561.5,1358.5 Z"/></g>
<g><path style="opacity:1" fill="#141414" d="M 583.5,1364.5 C 583.735,1363.9 584.235,1363.57 585,1363.5C 592.085,1365.38 599.252,1366.88 606.5,1368C 601.614,1369.75 596.614,1370.41 591.5,1370C 588.424,1368.76 585.757,1366.92 583.5,1364.5 Z"/></g>
<g><path style="opacity:1" fill="#070707" d="M 625.5,1370.5 C 634.844,1370.43 643.678,1372.43 652,1376.5C 652.15,1382 649.65,1385.5 644.5,1387C 647.729,1384.08 648.062,1381.41 645.5,1379C 643.358,1387.49 638.025,1391.83 629.5,1392C 628.333,1390.83 627.167,1389.67 626,1388.5C 626.469,1382.47 626.302,1376.47 625.5,1370.5 Z"/></g>
<g><path style="opacity:1" fill="#585858" d="M 728.5,1375.5 C 723.167,1376.17 717.833,1376.83 712.5,1377.5C 711.527,1377.01 710.527,1376.51 709.5,1376C 715.825,1375.5 722.158,1375.33 728.5,1375.5 Z"/></g>
<g><path style="opacity:1" fill="#cbcbcb" d="M 763.5,1373.5 C 760.695,1374.32 757.695,1374.82 754.5,1375C 759.157,1375.82 760.49,1378.32 758.5,1382.5C 757.448,1382.35 756.448,1382.52 755.5,1383C 749.922,1389.1 743.756,1389.93 737,1385.5C 735.861,1381.58 736.695,1378.25 739.5,1375.5C 747.314,1374.37 755.314,1373.7 763.5,1373.5 Z"/></g>
<g><path style="opacity:1" fill="#060606" d="M 741.5,1377.5 C 745.5,1377.5 749.5,1377.5 753.5,1377.5C 753.076,1382.92 750.076,1385.58 744.5,1385.5C 739.07,1384.78 738.07,1382.11 741.5,1377.5 Z"/></g>
<g><path style="opacity:1" fill="#0d0d0d" d="M 699.5,1377.5 C 703.869,1376.92 707.869,1377.76 711.5,1380C 707.699,1382.75 704.033,1385.75 700.5,1389C 698.866,1389.49 697.199,1389.66 695.5,1389.5C 695.719,1390.68 695.386,1391.68 694.5,1392.5C 691.639,1388.25 689.972,1383.58 689.5,1378.5C 693.042,1378.81 696.375,1378.48 699.5,1377.5 Z"/></g>
<g><path style="opacity:1" fill="#636363" d="M 623.5,1388.5 C 622.833,1386.5 622.167,1384.5 621.5,1382.5C 621.783,1381.71 622.283,1381.04 623,1380.5C 623.497,1383.15 623.664,1385.81 623.5,1388.5 Z"/></g>
</svg>
