<?xml version="1.0" encoding="UTF-8"?>
<!DOCTYPE svg PUBLIC "-//W3C//DTD SVG 1.1//EN" "http://www.w3.org/Graphics/SVG/1.1/DTD/svg11.dtd">
<svg xmlns="http://www.w3.org/2000/svg" version="1.1" width="1468px" height="1404px" style="shape-rendering:geometricPrecision; text-rendering:geometricPrecision; image-rendering:optimizeQuality; fill-rule:evenodd; clip-rule:evenodd" xmlns:xlink="http://www.w3.org/1999/xlink">
<g><path style="opacity:1" fill="#d0d0d0" d="M 749.5,9.5 C 748.791,10.404 747.791,10.7373 746.5,10.5C 746.598,8.44708 745.931,6.78041 744.5,5.5C 743.15,2.89405 741.65,2.89405 740,5.5C 739.617,4.94404 739.117,4.61071 738.5,4.5C 739.406,2.08634 741.072,1.25301 743.5,2C 745.183,4.01356 747.183,5.68022 749.5,7C 748.402,7.76971 748.402,8.60305 749.5,9.5 Z"/></g>
<g><path style="opacity:1" fill="#707070" d="M 744.5,5.5 C 742.983,5.51056 741.816,6.17723 741,7.5C 740.617,6.94404 740.117,6.61071 739.5,6.5C 738.833,6.16667 738.167,5.83333 737.5,5.5C 737.5,4.83333 737.833,4.5 738.5,4.5C 739.117,4.61071 739.617,4.94404 740,5.5C 741.65,2.89405 743.15,2.89405 744.5,5.5 Z"/></g>
<g><path style="opacity:1" fill="#070707" d="M 744.5,5.5 C 745.931,6.78041 746.598,8.44708 746.5,10.5C 744.167,13.1667 741.833,13.1667 739.5,10.5C 739.5,9.16667 739.5,7.83333 739.5,6.5C 740.117,6.61071 740.617,6.94404 741,7.5C 741.816,6.17723 742.983,5.51056 744.5,5.5 Z"/></g>
<g><path style="opacity:1" fill="#cbcbcb" d="M 737.5,5.5 C 738.167,5.83333 738.833,6.16667 739.5,6.5C 739.5,7.83333 739.5,9.16667 739.5,10.5C 738.596,11.209 738.263,12.209 738.5,13.5C 737.778,13.9175 737.278,14.5842 737,15.5C 736.341,12.1119 736.508,8.77859 737.5,5.5 Z"/></g>
<g><path style="opacity:1" fill="#060606" d="M 754.5,25.5 C 752.461,26.911 751.461,28.911 751.5,31.5C 750.842,32.3984 750.176,33.3984 749.5,34.5C 748.818,33.7573 748.151,33.0906 747.5,32.5C 746.187,28.4432 745.187,24.2765 744.5,20C 744.862,18.5657 745.528,17.3991 746.5,16.5C 747.492,16.3284 748.158,16.6618 748.5,17.5C 748.062,17.4346 747.728,17.6012 747.5,18C 751.029,20.3793 753.529,19.5459 755,15.5C 755.659,18.8881 755.492,22.2214 754.5,25.5 Z"/></g>
<g><path style="opacity:1" fill="#7c7c7c" d="M 749.5,9.5 C 750.465,10.7211 750.298,12.0544 749,13.5C 746.95,11.1182 745.45,11.6182 744.5,15C 744.836,16.0299 745.503,16.5299 746.5,16.5C 745.528,17.3991 744.862,18.5657 744.5,20C 745.187,24.2765 746.187,28.4432 747.5,32.5C 744.417,27.1659 742.75,27.8326 742.5,34.5C 741.833,34.5 741.167,34.5 740.5,34.5C 741.794,30.9125 742.794,27.2458 743.5,23.5C 742.677,17.0873 741.177,17.0873 739,23.5C 738.5,23 738,22.5 737.5,22C 739.181,19.656 740.848,17.3227 742.5,15C 741.486,12.9709 740.153,12.4709 738.5,13.5C 738.263,12.209 738.596,11.209 739.5,10.5C 741.833,13.1667 744.167,13.1667 746.5,10.5C 747.791,10.7373 748.791,10.404 749.5,9.5 Z"/></g>
<g><path style="opacity:1" fill="#8d8d8d" d="M 773.5,35.5 C 767.833,35.5 762.167,35.5 756.5,35.5C 756.5,35.1667 756.5,34.8333 756.5,34.5C 758.199,34.6602 759.866,34.4935 761.5,34C 760.312,30.4565 758.478,27.2898 756,24.5C 755.617,25.056 755.117,25.3893 754.5,25.5C 755.492,22.2214 755.659,18.8881 755,15.5C 753.529,19.5459 751.029,20.3793 747.5,18C 747.728,17.6012 748.062,17.4346 748.5,17.5C 749.496,17.4142 750.329,17.7476 751,18.5C 752.141,16.3911 753.641,14.5578 755.5,13C 750.601,9.43861 750.435,5.93861 755,2.5C 759.586,3.40781 761.252,6.07448 760,10.5C 758.513,11.1552 757.347,12.1552 756.5,13.5C 758.65,15.1491 760.65,16.9824 762.5,19C 760.255,18.8047 758.422,17.6381 757,15.5C 757.438,18.0598 757.271,20.5598 756.5,23C 759.399,25.9619 761.399,29.4619 762.5,33.5C 766.313,34.1671 769.979,34.8337 773.5,35.5 Z"/></g>
<g><path style="opacity:1" fill="#020202" d="M 754.5,4.5 C 758.206,4.76975 759.539,6.60309 758.5,10C 753.728,10.8104 752.395,8.97711 754.5,4.5 Z"/></g>
<g><path style="opacity:1" fill="#050505" d="M 756.5,34.5 C 754.833,34.5 753.167,34.5 751.5,34.5C 751.5,33.5 751.5,32.5 751.5,31.5C 753.008,29.8185 754.008,27.8185 754.5,25.5C 755.117,25.3893 755.617,25.056 756,24.5C 758.478,27.2898 760.312,30.4565 761.5,34C 759.866,34.4935 758.199,34.6602 756.5,34.5 Z"/></g>
<g><path style="opacity:1" fill="#8c8c8c" d="M 754.5,25.5 C 754.008,27.8185 753.008,29.8185 751.5,31.5C 751.461,28.911 752.461,26.911 754.5,25.5 Z"/></g>
<g><path style="opacity:1" fill="#030303" d="M 747.5,32.5 C 746.448,34.256 744.781,34.9227 742.5,34.5C 742.75,27.8326 744.417,27.1659 747.5,32.5 Z"/></g>
<g><path style="opacity:1" fill="#b7b7b7" d="M 751.5,31.5 C 751.5,32.5 751.5,33.5 751.5,34.5C 753.167,34.5 754.833,34.5 756.5,34.5C 756.5,34.8333 756.5,35.1667 756.5,35.5C 741.167,35.5 725.833,35.5 710.5,35.5C 720.319,34.506 730.319,34.1726 740.5,34.5C 741.167,34.5 741.833,34.5 742.5,34.5C 744.781,34.9227 746.448,34.256 747.5,32.5C 748.151,33.0906 748.818,33.7573 749.5,34.5C 750.176,33.3984 750.842,32.3984 751.5,31.5 Z"/></g>
<g><path style="opacity:1" fill="#fefefe" d="M 710.5,35.5 C 725.833,35.5 741.167,35.5 756.5,35.5C 762.167,35.5 767.833,35.5 773.5,35.5C 883.914,40.2668 987.247,69.6002 1083.5,123.5C 1084.11,125.481 1085.11,125.815 1086.5,124.5C 1087.4,126.727 1089.07,127.727 1091.5,127.5C 1091.33,128.492 1091.66,129.158 1092.5,129.5C 1096.3,131.234 1099.97,133.234 1103.5,135.5C 1105.58,137.873 1108.25,139.206 1111.5,139.5C 1111.83,140.5 1112.5,141.167 1113.5,141.5C 1114.83,144.167 1116.17,144.167 1117.5,141.5C 1118.03,145.033 1120.03,147.367 1123.5,148.5C 1123.5,149.167 1123.83,149.5 1124.5,149.5C 1125.61,149.557 1126.61,149.89 1127.5,150.5C 1128.11,152.481 1129.11,152.815 1130.5,151.5C 1130.97,152.906 1131.97,153.573 1133.5,153.5C 1133.43,155.027 1134.09,156.027 1135.5,156.5C 1202.29,202.233 1258.95,258.233 1305.5,324.5C 1306.11,326.434 1307.11,328.101 1308.5,329.5C 1313.51,336.87 1318.51,344.204 1323.5,351.5C 1323.66,353.153 1324.33,354.486 1325.5,355.5C 1325.93,356.71 1326.6,357.71 1327.5,358.5C 1333.68,368.203 1339.35,378.203 1344.5,388.5C 1347.18,393.207 1349.85,397.873 1352.5,402.5C 1414.33,523.836 1437,652.169 1420.5,787.5C 1419.54,789.265 1419.21,791.265 1419.5,793.5C 1418.84,796.455 1418.51,799.455 1418.5,802.5C 1390.72,969.949 1312.39,1108.12 1183.5,1217C 1173.5,1225.33 1163.16,1233.16 1152.5,1240.5C 1150.04,1241.99 1147.71,1243.65 1145.5,1245.5C 1144.5,1245.83 1143.83,1246.5 1143.5,1247.5C 1141.97,1247.43 1140.97,1248.09 1140.5,1249.5C 1139.51,1249.33 1138.84,1249.66 1138.5,1250.5C 1093.25,1282.97 1044.25,1308.97 991.5,1328.5C 987.203,1329.65 983.203,1331.32 979.5,1333.5C 977.254,1334.46 974.921,1335.12 972.5,1335.5C 970.597,1335.8 968.93,1336.46 967.5,1337.5C 911.446,1356.98 853.779,1368.64 794.5,1372.5C 790.298,1372.18 786.298,1372.52 782.5,1373.5C 706.558,1378.11 631.892,1370.44 558.5,1350.5C 557.89,1349.61 557.557,1348.61 557.5,1347.5C 557.5,1347.17 557.5,1346.83 557.5,1346.5C 559.008,1344.83 559.341,1343 558.5,1341C 556.633,1340.29 555.133,1340.79 554,1342.5C 553.383,1341.55 553.549,1340.72 554.5,1340C 551.499,1337.8 549.833,1338.64 549.5,1342.5C 549.617,1344.48 548.95,1346.15 547.5,1347.5C 542.154,1345.83 536.821,1344.16 531.5,1342.5C 530.828,1341.73 529.995,1341.07 529,1340.5C 527.732,1340.62 526.398,1340.95 525,1341.5C 523.12,1339.14 520.62,1337.81 517.5,1337.5C 516.287,1337.75 515.62,1338.41 515.5,1339.5C 512.762,1340.04 510.928,1339.04 510,1336.5C 509.722,1337.42 509.222,1338.08 508.5,1338.5C 508.16,1336.32 507.16,1334.49 505.5,1333C 503.094,1332.69 500.927,1331.86 499,1330.5C 497.535,1331.33 496.035,1331.5 494.5,1331C 495.833,1330.33 495.833,1329.67 494.5,1329C 492.131,1328.69 489.964,1327.85 488,1326.5C 486.97,1326.84 486.47,1327.5 486.5,1328.5C 486.167,1328.5 485.833,1328.5 485.5,1328.5C 485.425,1324.37 484.091,1323.71 481.5,1326.5C 480.583,1326.51 480.083,1325.51 480,1323.5C 479,1326.17 478,1326.17 477,1323.5C 476.333,1327.5 475.667,1327.5 475,1323.5C 474.221,1326.1 473.721,1326.1 473.5,1323.5C 474.826,1321.44 474.159,1320.1 471.5,1319.5C 470.749,1320.38 470.249,1321.38 470,1322.5C 469.293,1320.92 468.46,1319.42 467.5,1318C 464.78,1317.2 462.28,1316.04 460,1314.5C 459.148,1315.57 458.315,1316.57 457.5,1317.5C 456.962,1315.88 456.629,1314.22 456.5,1312.5C 454.876,1312.36 453.71,1313.03 453,1314.5C 452.727,1312.67 451.893,1311.17 450.5,1310C 447.11,1308.88 443.943,1307.38 441,1305.5C 440.667,1305.83 440.333,1306.17 440,1306.5C 438.399,1304.28 436.233,1302.95 433.5,1302.5C 351.832,1262.21 280.999,1207.54 221,1138.5C 220.601,1138.73 220.435,1139.06 220.5,1139.5C 219.312,1138.95 218.145,1138.62 217,1138.5C 216.312,1137.67 216.479,1137 217.5,1136.5C 218.396,1137.51 219.062,1137.51 219.5,1136.5C 219.058,1135.26 218.391,1134.26 217.5,1133.5C 208.775,1124.44 200.775,1114.77 193.5,1104.5C 193.833,1103.83 194.167,1103.17 194.5,1102.5C 194.5,1100.5 194.5,1098.5 194.5,1096.5C 193.766,1095.29 193.433,1093.96 193.5,1092.5C 192.308,1090.89 191.308,1089.22 190.5,1087.5C 189.752,1085.67 188.752,1084 187.5,1082.5C 186.542,1081.04 185.376,1079.71 184,1078.5C 183.577,1079.96 182.744,1080.46 181.5,1080C 182.612,1077.89 181.946,1076.39 179.5,1075.5C 177.414,1073.98 175.748,1074.31 174.5,1076.5C 174.167,1076.5 173.833,1076.5 173.5,1076.5C 171.833,1073.83 170.167,1071.17 168.5,1068.5C 168.167,1067.5 167.5,1066.83 166.5,1066.5C 98.0704,960.84 62.0704,844.84 58.5,718.5C 56.1667,718.5 53.8333,718.5 51.5,718.5C 53.6074,717.532 55.9407,717.198 58.5,717.5C 58.5,715.5 58.5,713.5 58.5,711.5C 58.5,711.167 58.5,710.833 58.5,710.5C 57.8295,595.22 85.1629,487.22 140.5,386.5C 141.401,385.71 142.068,384.71 142.5,383.5C 143.028,382.279 143.695,381.113 144.5,380C 144.272,379.601 143.938,379.435 143.5,379.5C 143.5,379.167 143.5,378.833 143.5,378.5C 145.446,377.965 146.446,376.632 146.5,374.5C 147.167,375.167 147.833,375.833 148.5,376.5C 184.46,393.989 222.46,401.989 262.5,400.5C 262.833,400.5 263.167,400.5 263.5,400.5C 265.741,399.7 266.741,398.034 266.5,395.5C 267.451,396.919 267.784,398.585 267.5,400.5C 290.49,398.902 312.824,394.235 334.5,386.5C 336.411,385.925 338.078,384.925 339.5,383.5C 365.345,374.221 388.678,360.221 409.5,341.5C 411.647,339.263 413.98,337.263 416.5,335.5C 442.139,310.237 461.806,280.903 475.5,247.5C 475.833,246.833 476.167,246.167 476.5,245.5C 477.167,243.5 477.833,241.5 478.5,239.5C 479.338,239.158 479.672,238.492 479.5,237.5C 487.024,214.248 491.358,190.915 492.5,167.5C 493.482,164.038 493.815,160.371 493.5,156.5C 493.363,132.539 490.03,108.872 483.5,85.5C 483.5,85.1667 483.5,84.8333 483.5,84.5C 556.136,54.7706 631.803,38.4373 710.5,35.5 Z"/></g>
<g><path style="opacity:1" fill="#717171" d="M 412.5,98.5 C 412.167,98.5 411.833,98.5 411.5,98.5C 409.62,98.2291 408.287,98.8958 407.5,100.5C 407.368,103.007 406.368,103.674 404.5,102.5C 405.12,99.2127 407.12,97.2127 410.5,96.5C 411.522,96.8555 412.189,97.5222 412.5,98.5 Z"/></g>
<g><path style="opacity:1" fill="#131313" d="M 411.5,98.5 C 410.805,100.85 409.472,101.517 407.5,100.5C 408.287,98.8958 409.62,98.2291 411.5,98.5 Z"/></g>
<g><path style="opacity:1" fill="#6d6d6d" d="M 400.5,101.5 C 399.662,101.842 399.328,102.508 399.5,103.5C 398.167,103.5 397.5,104.167 397.5,105.5C 397.163,108.336 395.829,109.002 393.5,107.5C 395.039,104.681 395.706,101.848 395.5,99C 397.421,98.6397 399.088,97.8064 400.5,96.5C 402.93,98.0374 402.93,99.704 400.5,101.5 Z"/></g>
<g><path style="opacity:1" fill="#121212" d="M 412.5,101.5 C 413.815,102.895 413.481,103.895 411.5,104.5C 411.167,104.5 410.833,104.5 410.5,104.5C 410.427,102.973 411.094,101.973 412.5,101.5 Z"/></g>
<g><path style="opacity:1" fill="#171717" d="M 399.5,103.5 C 400.776,104.386 400.776,105.386 399.5,106.5C 398.817,106.137 398.15,105.804 397.5,105.5C 397.5,104.167 398.167,103.5 399.5,103.5 Z"/></g>
<g><path style="opacity:1" fill="#060606" d="M 412.5,107.5 C 412.5,107.167 412.5,106.833 412.5,106.5C 414.918,104.985 416.585,105.651 417.5,108.5C 417.167,109.5 416.5,110.167 415.5,110.5C 414.265,109.66 413.265,108.66 412.5,107.5 Z"/></g>
<g><path style="opacity:1" fill="#c5c5c5" d="M 411.5,98.5 C 411.833,98.5 412.167,98.5 412.5,98.5C 413.404,99.209 413.737,100.209 413.5,101.5C 413.167,101.5 412.833,101.5 412.5,101.5C 411.094,101.973 410.427,102.973 410.5,104.5C 410.833,104.5 411.167,104.5 411.5,104.5C 411.328,105.492 411.662,106.158 412.5,106.5C 412.5,106.833 412.5,107.167 412.5,107.5C 411.711,107.783 411.044,108.283 410.5,109C 412.654,111.456 413.987,114.289 414.5,117.5C 412.999,118.752 411.332,119.752 409.5,120.5C 409.795,118.265 409.461,116.265 408.5,114.5C 408.5,113.5 408.5,112.5 408.5,111.5C 408.771,109.62 408.104,108.287 406.5,107.5C 405.039,105.189 403.206,105.189 401,107.5C 400.517,108.448 400.351,109.448 400.5,110.5C 400.5,112.5 400.5,114.5 400.5,116.5C 400.5,116.833 400.5,117.167 400.5,117.5C 400.082,118.222 399.416,118.722 398.5,119C 399.424,119.85 399.424,120.85 398.5,122C 398.667,122.5 398.833,123 399,123.5C 401.988,122.817 401.822,123.484 398.5,125.5C 397.833,126.5 397.167,127.5 396.5,128.5C 396.672,127.508 396.338,126.842 395.5,126.5C 395.5,125.5 395.5,124.5 395.5,123.5C 395.435,123.062 395.601,122.728 396,122.5C 396.556,124.595 397.056,124.762 397.5,123C 396.115,121.403 395.449,119.57 395.5,117.5C 396.286,114.357 397.119,111.357 398,108.5C 396.846,109.743 395.512,110.743 394,111.5C 393.517,112.448 393.351,113.448 393.5,114.5C 393.167,114.5 392.833,114.5 392.5,114.5C 392.674,112.139 393.007,109.806 393.5,107.5C 395.829,109.002 397.163,108.336 397.5,105.5C 398.15,105.804 398.817,106.137 399.5,106.5C 400.776,105.386 400.776,104.386 399.5,103.5C 399.328,102.508 399.662,101.842 400.5,101.5C 401.616,104.648 402.949,104.982 404.5,102.5C 406.368,103.674 407.368,103.007 407.5,100.5C 409.472,101.517 410.805,100.85 411.5,98.5 Z"/></g>
<g><path style="opacity:1" fill="#0c0c0c" d="M 406.5,107.5 C 405.086,110.21 403.086,111.21 400.5,110.5C 400.351,109.448 400.517,108.448 401,107.5C 403.206,105.189 405.039,105.189 406.5,107.5 Z"/></g>
<g><path style="opacity:1" fill="#191919" d="M 410.5,104.5 C 409.881,107.595 408.881,107.929 407.5,105.5C 408.133,103.481 409.133,103.147 410.5,104.5 Z"/></g>
<g><path style="opacity:1" fill="#0f0f0f" d="M 395.5,117.5 C 394.094,117.027 393.427,116.027 393.5,114.5C 393.351,113.448 393.517,112.448 394,111.5C 395.512,110.743 396.846,109.743 398,108.5C 397.119,111.357 396.286,114.357 395.5,117.5 Z"/></g>
<g><path style="opacity:1" fill="#000000" d="M 408.5,111.5 C 408.5,112.5 408.5,113.5 408.5,114.5C 407.753,118.193 406.42,118.193 404.5,114.5C 405.467,113.016 406.8,112.016 408.5,111.5 Z"/></g>
<g><path style="opacity:1" fill="#050505" d="M 404.5,120.5 C 403.504,120.414 402.671,120.748 402,121.5C 401.79,119.942 401.29,118.609 400.5,117.5C 400.5,117.167 400.5,116.833 400.5,116.5C 404.167,115.5 405.5,116.833 404.5,120.5 Z"/></g>
<g><path style="opacity:1" fill="#7e7e7e" d="M 483.5,84.5 C 483.5,84.8333 483.5,85.1667 483.5,85.5C 481.87,87.0261 481.037,89.0261 481,91.5C 479.921,93.3937 478.587,93.727 477,92.5C 475.533,95.8015 473.033,97.8015 469.5,98.5C 467.575,98.4096 466.408,97.4096 466,95.5C 464.101,101.365 460.268,103.365 454.5,101.5C 452.797,107.944 448.797,110.278 442.5,108.5C 441.871,116.391 438.038,118.725 431,115.5C 429.883,116.949 429.216,118.616 429,120.5C 428.097,121.701 426.931,122.535 425.5,123C 426.517,124.049 426.684,125.216 426,126.5C 423.722,127.719 421.555,129.052 419.5,130.5C 412.418,136.873 404.085,140.873 394.5,142.5C 392.399,142.368 390.899,141.368 390,139.5C 389.938,144.885 387.438,148.552 382.5,150.5C 381.5,150 380.5,149.5 379.5,149C 385.546,148.763 388.212,145.597 387.5,139.5C 388.048,137.468 389.381,136.468 391.5,136.5C 390.737,135.732 389.737,135.232 388.5,135C 390.167,134.167 391.833,133.333 393.5,132.5C 394.521,131.998 394.688,131.332 394,130.5C 390.579,132.461 387.079,134.294 383.5,136C 384.756,136.417 385.423,137.25 385.5,138.5C 382.854,138.108 380.354,138.108 378,138.5C 377.167,131.848 378.667,125.848 382.5,120.5C 382.5,121.167 382.833,121.5 383.5,121.5C 380.879,125.86 379.379,130.527 379,135.5C 379.308,134.692 379.808,134.025 380.5,133.5C 380.833,134.167 381.167,134.833 381.5,135.5C 383.396,134.725 385.063,133.725 386.5,132.5C 385.532,129.974 386.366,129.308 389,130.5C 390.302,129.915 391.469,129.249 392.5,128.5C 391.833,126.833 391.167,125.167 390.5,123.5C 391.922,124.925 393.589,125.925 395.5,126.5C 396.338,126.842 396.672,127.508 396.5,128.5C 395.697,129.423 395.53,130.423 396,131.5C 403.503,127.083 410.836,122.416 418,117.5C 418.688,116.668 418.521,116.002 417.5,115.5C 416.482,116.193 415.482,116.859 414.5,117.5C 413.987,114.289 412.654,111.456 410.5,109C 411.044,108.283 411.711,107.783 412.5,107.5C 413.265,108.66 414.265,109.66 415.5,110.5C 416.5,110.167 417.167,109.5 417.5,108.5C 416.585,105.651 414.918,104.985 412.5,106.5C 411.662,106.158 411.328,105.492 411.5,104.5C 413.481,103.895 413.815,102.895 412.5,101.5C 412.833,101.5 413.167,101.5 413.5,101.5C 414.467,102.806 415.801,103.473 417.5,103.5C 417.62,105.199 417.954,106.865 418.5,108.5C 418.272,110.397 417.272,111.73 415.5,112.5C 417.332,113.248 418.999,114.248 420.5,115.5C 421.167,115.167 421.833,114.833 422.5,114.5C 424.086,116.173 424.753,118.173 424.5,120.5C 425.675,120.719 426.675,120.386 427.5,119.5C 427.912,117.113 428.912,115.113 430.5,113.5C 432.867,115.395 435.534,115.895 438.5,115C 440.375,112.057 441.875,108.89 443,105.5C 444.865,107.673 447.031,108.007 449.5,106.5C 450.959,104.417 452.292,102.25 453.5,100C 455.107,99.8849 456.607,100.385 458,101.5C 461.539,99.8001 464.206,97.1334 466,93.5C 470.345,97.8936 473.512,97.0602 475.5,91C 477.075,91.379 478.575,91.2123 480,90.5C 480.333,88.8333 480.667,87.1667 481,85.5C 481.671,84.7476 482.504,84.4142 483.5,84.5 Z"/></g>
<g><path style="opacity:1" fill="#080808" d="M 420.5,116.5 C 423.423,117.163 424.09,118.83 422.5,121.5C 420.323,120.185 419.656,118.519 420.5,116.5 Z"/></g>
<g><path style="opacity:1" fill="#0f0f0f" d="M 386.5,132.5 C 385.063,133.725 383.396,134.725 381.5,135.5C 381.167,134.833 380.833,134.167 380.5,133.5C 379.808,134.025 379.308,134.692 379,135.5C 379.379,130.527 380.879,125.86 383.5,121.5C 383.461,120.244 383.961,119.244 385,118.5C 385.667,122.167 385.667,125.833 385,129.5C 383.207,131.26 383.707,132.26 386.5,132.5 Z"/></g>
<g><path style="opacity:1" fill="#717171" d="M 406.5,107.5 C 408.104,108.287 408.771,109.62 408.5,111.5C 406.8,112.016 405.467,113.016 404.5,114.5C 406.42,118.193 407.753,118.193 408.5,114.5C 409.461,116.265 409.795,118.265 409.5,120.5C 408.514,122.408 406.848,123.408 404.5,123.5C 403.761,123.631 403.094,123.464 402.5,123C 403.381,122.292 404.047,121.458 404.5,120.5C 405.5,116.833 404.167,115.5 400.5,116.5C 400.5,114.5 400.5,112.5 400.5,110.5C 403.086,111.21 405.086,110.21 406.5,107.5 Z"/></g>
<g><path style="opacity:1" fill="#a0a0a0" d="M 392.5,114.5 C 392.833,114.5 393.167,114.5 393.5,114.5C 393.427,116.027 394.094,117.027 395.5,117.5C 395.449,119.57 396.115,121.403 397.5,123C 397.056,124.762 396.556,124.595 396,122.5C 395.601,122.728 395.435,123.062 395.5,123.5C 393.876,119.554 392.209,119.554 390.5,123.5C 387.916,124.048 386.916,125.715 387.5,128.5C 389.167,128.5 390.833,128.5 392.5,128.5C 391.469,129.249 390.302,129.915 389,130.5C 386.366,129.308 385.532,129.974 386.5,132.5C 383.707,132.26 383.207,131.26 385,129.5C 385.667,125.833 385.667,122.167 385,118.5C 383.961,119.244 383.461,120.244 383.5,121.5C 382.833,121.5 382.5,121.167 382.5,120.5C 383.323,117.539 383.99,114.539 384.5,111.5C 385.93,111.579 387.264,111.246 388.5,110.5C 389.84,111.867 391.173,113.2 392.5,114.5 Z"/></g>
<g><path style="opacity:1" fill="#090909" d="M 390.5,115.5 C 393.434,117.739 393.101,119.405 389.5,120.5C 388.5,120.167 387.833,119.5 387.5,118.5C 388.34,117.265 389.34,116.265 390.5,115.5 Z"/></g>
<g><path style="opacity:1" fill="#0e0e0e" d="M 386.5,112.5 C 388.355,112.272 389.188,112.939 389,114.5C 386.192,115.86 385.359,115.193 386.5,112.5 Z"/></g>
<g><path style="opacity:1" fill="#060606" d="M 395.5,123.5 C 395.5,124.5 395.5,125.5 395.5,126.5C 393.589,125.925 391.922,124.925 390.5,123.5C 392.209,119.554 393.876,119.554 395.5,123.5 Z"/></g>
<g><path style="opacity:1" fill="#9e9e9e" d="M 400.5,117.5 C 401.29,118.609 401.79,119.942 402,121.5C 402.671,120.748 403.504,120.414 404.5,120.5C 404.047,121.458 403.381,122.292 402.5,123C 403.094,123.464 403.761,123.631 404.5,123.5C 403,125.179 401.167,126.512 399,127.5C 398.536,126.906 398.369,126.239 398.5,125.5C 401.822,123.484 401.988,122.817 399,123.5C 398.833,123 398.667,122.5 398.5,122C 399.424,120.85 399.424,119.85 398.5,119C 399.416,118.722 400.082,118.222 400.5,117.5 Z"/></g>
<g><path style="opacity:1" fill="#111111" d="M 396.5,128.5 C 397.167,127.5 397.833,126.5 398.5,125.5C 398.369,126.239 398.536,126.906 399,127.5C 401.167,126.512 403,125.179 404.5,123.5C 406.848,123.408 408.514,122.408 409.5,120.5C 411.332,119.752 412.999,118.752 414.5,117.5C 415.482,116.859 416.482,116.193 417.5,115.5C 418.521,116.002 418.688,116.668 418,117.5C 410.836,122.416 403.503,127.083 396,131.5C 395.53,130.423 395.697,129.423 396.5,128.5 Z"/></g>
<g><path style="opacity:1" fill="#050505" d="M 421.5,122.5 C 422.5,122.5 423.5,122.5 424.5,122.5C 424.5,123.833 424.5,125.167 424.5,126.5C 423.5,126.5 422.5,126.5 421.5,126.5C 421.5,125.167 421.5,123.833 421.5,122.5 Z"/></g>
<g><path style="opacity:1" fill="#080808" d="M 390.5,123.5 C 391.167,125.167 391.833,126.833 392.5,128.5C 390.833,128.5 389.167,128.5 387.5,128.5C 386.916,125.715 387.916,124.048 390.5,123.5 Z"/></g>
<g><path style="opacity:1" fill="#0b0b0b" d="M 1091.5,127.5 C 1089.07,127.727 1087.4,126.727 1086.5,124.5C 1086.9,123.475 1087.56,123.308 1088.5,124C 1090.06,124.759 1091.06,125.926 1091.5,127.5 Z"/></g>
<g><path style="opacity:1" fill="#787878" d="M 1092.5,129.5 C 1091.66,129.158 1091.33,128.492 1091.5,127.5C 1091.06,125.926 1090.06,124.759 1088.5,124C 1087.56,123.308 1086.9,123.475 1086.5,124.5C 1085.11,125.815 1084.11,125.481 1083.5,123.5C 1086.34,121.182 1089.34,121.182 1092.5,123.5C 1092.92,125.326 1092.92,127.326 1092.5,129.5 Z"/></g>
<g><path style="opacity:1" fill="#151515" d="M 419.5,130.5 C 415.163,133.503 410.497,135.67 405.5,137C 409.61,132.891 414.277,129.557 419.5,127C 417.557,125.807 417.724,124.307 420,122.5C 420.602,125.221 420.435,127.887 419.5,130.5 Z"/></g>
<g><path style="opacity:1" fill="#121212" d="M 391.5,136.5 C 396.125,133.989 400.792,131.823 405.5,130C 401.3,133.6 396.633,136.433 391.5,138.5C 390.537,138.03 390.537,137.363 391.5,136.5 Z"/></g>
<g><path style="opacity:1" fill="#333333" d="M 391.5,136.5 C 389.381,136.468 388.048,137.468 387.5,139.5C 386.508,139.672 385.842,139.338 385.5,138.5C 385.423,137.25 384.756,136.417 383.5,136C 387.079,134.294 390.579,132.461 394,130.5C 394.688,131.332 394.521,131.998 393.5,132.5C 391.833,133.333 390.167,134.167 388.5,135C 389.737,135.232 390.737,135.732 391.5,136.5 Z"/></g>
<g><path style="opacity:1" fill="#020202" d="M 1113.5,141.5 C 1112.5,141.167 1111.83,140.5 1111.5,139.5C 1113.22,136.812 1114.56,137.145 1115.5,140.5C 1115.04,141.298 1114.38,141.631 1113.5,141.5 Z"/></g>
<g><path style="opacity:1" fill="#070707" d="M 1127.5,144.5 C 1125.83,145.5 1124.5,146.833 1123.5,148.5C 1120.03,147.367 1118.03,145.033 1117.5,141.5C 1118.81,140.524 1120.15,139.524 1121.5,138.5C 1122.83,139.833 1124.17,141.167 1125.5,142.5C 1127.21,141.391 1127.88,142.058 1127.5,144.5 Z"/></g>
<g><path style="opacity:1" fill="#7d7d7d" d="M 1127.5,144.5 C 1127.88,142.058 1127.21,141.391 1125.5,142.5C 1124.17,141.167 1122.83,139.833 1121.5,138.5C 1120.15,139.524 1118.81,140.524 1117.5,141.5C 1116.17,144.167 1114.83,144.167 1113.5,141.5C 1114.38,141.631 1115.04,141.298 1115.5,140.5C 1114.56,137.145 1113.22,136.812 1111.5,139.5C 1108.25,139.206 1105.58,137.873 1103.5,135.5C 1103.34,134.127 1103.51,132.793 1104,131.5C 1104.33,132.167 1104.67,132.833 1105,133.5C 1105.72,132.549 1106.55,132.383 1107.5,133C 1108.46,134.419 1109.29,135.919 1110,137.5C 1113.76,134.539 1116.1,135.539 1117,140.5C 1120.38,136.699 1123.88,136.699 1127.5,140.5C 1128.78,141.958 1128.78,143.292 1127.5,144.5 Z"/></g>
<g><path style="opacity:1" fill="#8d8d8d" d="M 1127.5,144.5 C 1126.92,146.411 1125.92,148.078 1124.5,149.5C 1123.83,149.5 1123.5,149.167 1123.5,148.5C 1124.5,146.833 1125.83,145.5 1127.5,144.5 Z"/></g>
<g><path style="opacity:1" fill="#060606" d="M 1133.5,153.5 C 1131.97,153.573 1130.97,152.906 1130.5,151.5C 1129.77,150.292 1129.43,148.959 1129.5,147.5C 1132.27,147.421 1134.94,147.921 1137.5,149C 1137.97,150.299 1137.97,151.799 1137.5,153.5C 1136.17,153.5 1134.83,153.5 1133.5,153.5 Z"/></g>
<g><path style="opacity:1" fill="#7e7e7e" d="M 1135.5,156.5 C 1134.09,156.027 1133.43,155.027 1133.5,153.5C 1134.83,153.5 1136.17,153.5 1137.5,153.5C 1137.97,151.799 1137.97,150.299 1137.5,149C 1134.94,147.921 1132.27,147.421 1129.5,147.5C 1129.43,148.959 1129.77,150.292 1130.5,151.5C 1129.11,152.815 1128.11,152.481 1127.5,150.5C 1127.33,149.178 1127.66,148.011 1128.5,147C 1132.95,145.886 1136.95,146.72 1140.5,149.5C 1139.26,152.196 1137.59,154.529 1135.5,156.5 Z"/></g>
<g><path style="opacity:1" fill="#a0a0a0" d="M 492.5,156.5 C 492.167,157.167 491.833,157.833 491.5,158.5C 490.5,159.167 489.5,159.833 488.5,160.5C 486.781,156.218 488.115,154.885 492.5,156.5 Z"/></g>
<g><path style="opacity:1" fill="#454545" d="M 491.5,158.5 C 491.932,161.877 491.265,164.877 489.5,167.5C 489.082,166.778 488.416,166.278 487.5,166C 488.167,165.667 488.833,165.333 489.5,165C 488.915,163.698 488.249,162.531 487.5,161.5C 487.5,160.833 487.833,160.5 488.5,160.5C 489.5,159.833 490.5,159.167 491.5,158.5 Z"/></g>
<g><path style="opacity:1" fill="#868686" d="M 487.5,161.5 C 488.249,162.531 488.915,163.698 489.5,165C 488.833,165.333 488.167,165.667 487.5,166C 488.416,166.278 489.082,166.778 489.5,167.5C 488.811,168.774 487.977,168.774 487,167.5C 486.322,165.402 486.489,163.402 487.5,161.5 Z"/></g>
<g><path style="opacity:1" fill="#484848" d="M 492.5,156.5 C 492.833,156.5 493.167,156.5 493.5,156.5C 493.815,160.371 493.482,164.038 492.5,167.5C 492.81,164.287 492.477,161.287 491.5,158.5C 491.833,157.833 492.167,157.167 492.5,156.5 Z"/></g>
<g><path style="opacity:1" fill="#848484" d="M 473.5,209.5 C 475.068,211.931 476.568,211.931 478,209.5C 477.852,210.825 478.018,211.992 478.5,213C 478.045,215.312 477.045,217.312 475.5,219C 476.804,219.804 477.471,220.971 477.5,222.5C 476.61,223.955 476.61,225.289 477.5,226.5C 476.509,227.665 475.509,228.832 474.5,230C 474.975,231.763 475.642,233.43 476.5,235C 475.437,236.188 474.103,236.688 472.5,236.5C 472.723,234.658 473.057,232.825 473.5,231C 471.934,228.351 471.267,225.684 471.5,223C 477.609,223.713 477.943,222.547 472.5,219.5C 473.025,218.808 473.692,218.308 474.5,218C 472.162,215.458 471.828,212.625 473.5,209.5 Z"/></g>
<g><path style="opacity:1" fill="#161616" d="M 473.5,213.5 C 474.5,213.5 475.5,213.5 476.5,213.5C 475.754,217.31 474.754,217.31 473.5,213.5 Z"/></g>
<g><path style="opacity:1" fill="#909090" d="M 479.5,237.5 C 479.672,238.492 479.338,239.158 478.5,239.5C 473.409,237.421 471.576,239.088 473,244.5C 474.011,245.337 475.178,245.67 476.5,245.5C 476.167,246.167 475.833,246.833 475.5,247.5C 470.807,246.465 469.473,243.799 471.5,239.5C 470.325,239.719 469.325,239.386 468.5,238.5C 468.833,238.167 469.167,237.833 469.5,237.5C 472.862,237.514 476.195,237.514 479.5,237.5 Z"/></g>
<g><path style="opacity:1" fill="#0f0f0f" d="M 478.5,239.5 C 477.833,241.5 477.167,243.5 476.5,245.5C 475.178,245.67 474.011,245.337 473,244.5C 471.576,239.088 473.409,237.421 478.5,239.5 Z"/></g>
<g><path style="opacity:1" fill="#878787" d="M 458.5,247.5 C 462.166,248.448 462.499,247.448 459.5,244.5C 458.818,245.243 458.151,245.909 457.5,246.5C 457.5,245.5 457.5,244.5 457.5,243.5C 461.079,243.234 461.413,241.901 458.5,239.5C 458.167,240.167 457.833,240.833 457.5,241.5C 456.058,239.684 455.558,237.684 456,235.5C 456.915,237.98 458.415,238.647 460.5,237.5C 462.401,241.866 462.734,246.2 461.5,250.5C 460.158,249.098 459.324,249.431 459,251.5C 458.51,250.207 458.343,248.873 458.5,247.5 Z"/></g>
<g><path style="opacity:1" fill="#171717" d="M 458.5,247.5 C 457.833,247.5 457.5,247.167 457.5,246.5C 458.151,245.909 458.818,245.243 459.5,244.5C 462.499,247.448 462.166,248.448 458.5,247.5 Z"/></g>
<g><path style="opacity:1" fill="#6d6d6d" d="M 468.5,244.5 C 469.774,245.189 469.774,246.023 468.5,247C 466.854,248.401 465.187,248.568 463.5,247.5C 465.544,246.935 467.21,245.935 468.5,244.5 Z"/></g>
<g><path style="opacity:1" fill="#737373" d="M 461.5,251.5 C 462.586,251.62 463.253,252.287 463.5,253.5C 462.323,255.975 460.323,256.975 457.5,256.5C 457.238,255.022 457.571,253.689 458.5,252.5C 459.922,253.777 460.922,253.443 461.5,251.5 Z"/></g>
<g><path style="opacity:1" fill="#7f7f7f" d="M 148.5,376.5 C 147.833,375.833 147.167,375.167 146.5,374.5C 146.798,370.725 148.798,368.558 152.5,368C 148.787,365.924 149.287,364.424 154,363.5C 155.261,363.759 156.261,364.426 157,365.5C 158.747,362.79 159.747,359.79 160,356.5C 161.974,356.374 164.141,356.208 166.5,356C 168.002,353.426 169.002,350.593 169.5,347.5C 171.224,348.661 172.89,348.495 174.5,347C 175.808,344.645 176.808,342.145 177.5,339.5C 179.755,341.688 181.922,341.354 184,338.5C 184.662,336.187 185.162,333.854 185.5,331.5C 190.906,332.265 192.906,329.931 191.5,324.5C 193.167,324.5 194.833,324.5 196.5,324.5C 196.755,321.984 197.589,319.65 199,317.5C 199.718,318.451 200.551,318.617 201.5,318C 202.627,316.247 203.627,314.413 204.5,312.5C 206.108,311.758 207.775,311.591 209.5,312C 211.95,308.874 214.95,306.541 218.5,305C 219.944,303.237 220.944,301.237 221.5,299C 223.207,298.805 224.874,298.805 226.5,299C 227.542,297.082 228.708,295.249 230,293.5C 233.895,295.148 236.395,293.815 237.5,289.5C 241.949,289.281 244.949,287.114 246.5,283C 248.167,282.667 249.833,282.333 251.5,282C 253.123,279.92 254.623,277.754 256,275.5C 256.718,276.451 257.551,276.617 258.5,276C 260.543,274.292 262.21,272.292 263.5,270C 264.448,269.517 265.448,269.351 266.5,269.5C 265.912,264.823 267.579,263.156 271.5,264.5C 271.5,263.167 271.5,261.833 271.5,260.5C 276.331,260.838 277.665,258.838 275.5,254.5C 277.167,254.5 278.833,254.5 280.5,254.5C 280.5,252.833 280.5,251.167 280.5,249.5C 283.997,249.005 284.997,247.172 283.5,244C 285.488,243.82 287.488,243.986 289.5,244.5C 289.007,242.194 288.674,239.861 288.5,237.5C 290.144,237.714 291.644,237.38 293,236.5C 293,234.5 293,232.5 293,230.5C 295.608,231.973 297.775,231.473 299.5,229C 299.241,227.739 298.574,226.739 297.5,226C 299.574,226.227 301.574,226.061 303.5,225.5C 304.331,223.527 304.498,221.527 304,219.5C 308.262,220.821 309.429,219.321 307.5,215C 309.321,215.021 311.155,214.188 313,212.5C 313.684,211.216 313.517,210.049 312.5,209C 314.509,209.594 316.509,209.427 318.5,208.5C 319.167,205.167 319.833,201.833 320.5,198.5C 322.412,200.156 324.412,200.489 326.5,199.5C 326.833,196.166 327.167,192.833 327.5,189.5C 330.58,191.105 333.08,190.438 335,187.5C 335.333,184.833 335.667,182.167 336,179.5C 339.159,182.341 341.492,181.674 343,177.5C 343.49,176.207 343.657,174.873 343.5,173.5C 345.752,174.333 347.919,174.333 350,173.5C 350.875,170.117 351.875,166.784 353,163.5C 354.808,165.396 356.975,165.896 359.5,165C 361.832,161.847 363.499,158.347 364.5,154.5C 366.26,157.021 368.593,157.854 371.5,157C 373.712,154.079 375.545,150.912 377,147.5C 377.216,150.853 376.216,153.853 374,156.5C 370.905,160.327 367.905,160.327 365,156.5C 364.938,162.387 362.105,166.054 356.5,167.5C 355.558,167.392 354.725,167.059 354,166.5C 352.878,169.076 351.878,171.743 351,174.5C 349,175.833 347,175.833 345,174.5C 345.207,179.113 343.207,182.113 339,183.5C 338.667,183.167 338.333,182.833 338,182.5C 337,185.167 336,187.833 335,190.5C 333.155,192.35 331.155,192.683 329,191.5C 328.667,194.5 328.333,197.5 328,200.5C 325.959,201.423 323.792,201.756 321.5,201.5C 321.708,203.92 321.374,206.253 320.5,208.5C 316.437,210.63 312.771,213.296 309.5,216.5C 310.833,219.496 309.833,221.163 306.5,221.5C 306.981,225.349 305.314,227.349 301.5,227.5C 300.91,231.316 298.577,232.983 294.5,232.5C 295.093,235.596 294.093,237.929 291.5,239.5C 290.833,241.5 290.167,243.5 289.5,245.5C 288.5,246.833 287.5,246.833 286.5,245.5C 285.719,246.729 285.219,248.062 285,249.5C 280.233,254.212 276.066,259.378 272.5,265C 271.207,265.49 269.873,265.657 268.5,265.5C 268.657,266.873 268.49,268.207 268,269.5C 264.535,271.963 261.369,274.796 258.5,278C 257.551,278.617 256.718,278.451 256,277.5C 254.911,281.92 252.077,284.087 247.5,284C 246.568,288.26 243.902,290.26 239.5,290C 238.102,292.985 235.936,295.152 233,296.5C 232.439,295.978 231.772,295.645 231,295.5C 229.389,297.21 227.889,299.043 226.5,301C 225.004,301.507 223.837,301.007 223,299.5C 222.484,302.034 221.317,304.2 219.5,306C 215.928,307.569 212.928,309.902 210.5,313C 208.833,313.333 207.167,313.667 205.5,314C 204.546,317.792 202.213,319.958 198.5,320.5C 198.697,324.806 196.697,326.806 192.5,326.5C 193.323,331.339 191.323,333.673 186.5,333.5C 186.506,339.673 183.673,342.34 178,341.5C 178.025,346.639 175.525,349.306 170.5,349.5C 170.414,355.76 167.414,358.594 161.5,358C 160.886,365.449 156.886,369.282 149.5,369.5C 149.007,371.806 148.674,374.139 148.5,376.5 Z"/></g>
<g><path style="opacity:1" fill="#0a0a0a" d="M 1331.5,339.5 C 1331.72,340.675 1331.39,341.675 1330.5,342.5C 1327.92,343.706 1325.42,345.039 1323,346.5C 1322.49,347.996 1322.99,349.163 1324.5,350C 1323.94,350.383 1323.61,350.883 1323.5,351.5C 1318.51,344.204 1313.51,336.87 1308.5,329.5C 1308.74,328.903 1309.24,328.57 1310,328.5C 1315.34,330.921 1320.84,332.921 1326.5,334.5C 1328.39,335.963 1330.06,337.63 1331.5,339.5 Z"/></g>
<g><path style="opacity:1" fill="#dddddd" d="M 411.5,333.5 C 411.008,335.819 410.008,337.819 408.5,339.5C 404.926,337.734 404.926,335.567 408.5,333C 409.749,332.26 410.749,332.427 411.5,333.5 Z"/></g>
<g><path style="opacity:1" fill="#afafaf" d="M 1305.5,324.5 C 1312.33,328.375 1319.67,330.709 1327.5,331.5C 1327.83,332.5 1328.5,333.167 1329.5,333.5C 1329.71,334.922 1330.21,336.255 1331,337.5C 1332.13,335.859 1333.63,334.859 1335.5,334.5C 1334.17,336.167 1332.83,337.833 1331.5,339.5C 1330.06,337.63 1328.39,335.963 1326.5,334.5C 1320.84,332.921 1315.34,330.921 1310,328.5C 1309.24,328.57 1308.74,328.903 1308.5,329.5C 1307.11,328.101 1306.11,326.434 1305.5,324.5 Z"/></g>
<g><path style="opacity:1" fill="#6a6a6a" d="M 1327.5,331.5 C 1335.07,331.157 1342.4,331.823 1349.5,333.5C 1345.11,333.457 1344.77,333.957 1348.5,335C 1345.98,336.341 1343.31,337.174 1340.5,337.5C 1341.57,336.115 1342.91,334.949 1344.5,334C 1343.18,333.805 1341.85,333.972 1340.5,334.5C 1339,333.506 1337.33,333.506 1335.5,334.5C 1333.74,333.539 1331.74,333.205 1329.5,333.5C 1328.5,333.167 1327.83,332.5 1327.5,331.5 Z"/></g>
<g><path style="opacity:1" fill="#020202" d="M 1329.5,333.5 C 1331.74,333.205 1333.74,333.539 1335.5,334.5C 1333.63,334.859 1332.13,335.859 1331,337.5C 1330.21,336.255 1329.71,334.922 1329.5,333.5 Z"/></g>
<g><path style="opacity:1" fill="#1b1b1b" d="M 1340.5,334.5 C 1338.46,335.031 1336.79,336.198 1335.5,338C 1336.09,338.464 1336.76,338.631 1337.5,338.5C 1337.19,339.478 1336.52,340.145 1335.5,340.5C 1334.14,340.212 1332.81,339.879 1331.5,339.5C 1332.83,337.833 1334.17,336.167 1335.5,334.5C 1337.33,333.506 1339,333.506 1340.5,334.5 Z"/></g>
<g><path style="opacity:1" fill="#121212" d="M 1340.5,337.5 C 1339.61,338.11 1338.61,338.443 1337.5,338.5C 1338.5,337.167 1339.5,335.833 1340.5,334.5C 1341.85,333.972 1343.18,333.805 1344.5,334C 1342.91,334.949 1341.57,336.115 1340.5,337.5 Z"/></g>
<g><path style="opacity:1" fill="#7c7c7c" d="M 1340.5,334.5 C 1339.5,335.833 1338.5,337.167 1337.5,338.5C 1336.76,338.631 1336.09,338.464 1335.5,338C 1336.79,336.198 1338.46,335.031 1340.5,334.5 Z"/></g>
<g><path style="opacity:1" fill="#555555" d="M 411.5,333.5 C 412.779,334.968 414.446,335.635 416.5,335.5C 413.98,337.263 411.647,339.263 409.5,341.5C 409.167,340.833 408.833,340.167 408.5,339.5C 410.008,337.819 411.008,335.819 411.5,333.5 Z"/></g>
<g><path style="opacity:1" fill="#c1c1c1" d="M 1352.5,335.5 C 1352.77,337.099 1352.43,338.432 1351.5,339.5C 1351.06,338.769 1350.89,337.769 1351,336.5C 1348.31,340.368 1344.81,344.035 1340.5,347.5C 1339.5,347.414 1338.67,347.748 1338,348.5C 1337.33,345.833 1336.67,345.833 1336,348.5C 1335.09,345.879 1334.59,346.046 1334.5,349C 1334.68,350.376 1335.35,351.209 1336.5,351.5C 1334.91,353.633 1332.91,355.299 1330.5,356.5C 1329.12,355.766 1327.62,355.099 1326,354.5C 1325.6,354.728 1325.43,355.062 1325.5,355.5C 1324.33,354.486 1323.66,353.153 1323.5,351.5C 1323.61,350.883 1323.94,350.383 1324.5,350C 1322.99,349.163 1322.49,347.996 1323,346.5C 1325.42,345.039 1327.92,343.706 1330.5,342.5C 1331.39,341.675 1331.72,340.675 1331.5,339.5C 1332.81,339.879 1334.14,340.212 1335.5,340.5C 1336.52,340.145 1337.19,339.478 1337.5,338.5C 1338.61,338.443 1339.61,338.11 1340.5,337.5C 1343.31,337.174 1345.98,336.341 1348.5,335C 1344.77,333.957 1345.11,333.457 1349.5,333.5C 1351.6,332.086 1352.6,332.752 1352.5,335.5 Z"/></g>
<g><path style="opacity:1" fill="#191919" d="M 1351.5,339.5 C 1351.49,341.017 1350.82,342.184 1349.5,343C 1350.45,343.617 1351.28,343.451 1352,342.5C 1352.17,343 1352.33,343.5 1352.5,344C 1350.79,345.509 1349.13,347.009 1347.5,348.5C 1345.6,348.738 1344.26,349.738 1343.5,351.5C 1342.03,352.292 1340.7,352.292 1339.5,351.5C 1340.98,350.52 1342.31,349.353 1343.5,348C 1342.23,348.109 1341.23,347.942 1340.5,347.5C 1344.81,344.035 1348.31,340.368 1351,336.5C 1350.89,337.769 1351.06,338.769 1351.5,339.5 Z"/></g>
<g><path style="opacity:1" fill="#898989" d="M 1347.5,348.5 C 1346.83,349.5 1346.17,350.5 1345.5,351.5C 1344.83,351.5 1344.17,351.5 1343.5,351.5C 1344.26,349.738 1345.6,348.738 1347.5,348.5 Z"/></g>
<g><path style="opacity:1" fill="#1d1d1d" d="M 1345.5,362.5 C 1345.57,360.973 1344.91,359.973 1343.5,359.5C 1343.61,358.883 1343.94,358.383 1344.5,358C 1343.04,357.577 1342.54,356.744 1343,355.5C 1345.35,353.97 1347.52,352.303 1349.5,350.5C 1348.17,350.833 1346.83,351.167 1345.5,351.5C 1346.17,350.5 1346.83,349.5 1347.5,348.5C 1349.26,348.123 1350.92,347.456 1352.5,346.5C 1353.69,348.742 1354.69,351.075 1355.5,353.5C 1353.83,354.667 1352.17,355.833 1350.5,357C 1351.83,357 1353.17,357 1354.5,357C 1351.83,359.526 1348.83,361.359 1345.5,362.5 Z"/></g>
<g><path style="opacity:1" fill="#939393" d="M 1349.5,350.5 C 1350,348.915 1351,348.415 1352.5,349C 1351.76,350.039 1350.76,350.539 1349.5,350.5 Z"/></g>
<g><path style="opacity:1" fill="#050505" d="M 1336.5,351.5 C 1339.29,353.72 1341.62,356.386 1343.5,359.5C 1343.43,361.027 1344.09,362.027 1345.5,362.5C 1345.75,364.674 1346.75,366.341 1348.5,367.5C 1348.43,369.027 1349.09,370.027 1350.5,370.5C 1350.33,371.492 1350.66,372.158 1351.5,372.5C 1351.43,374.027 1352.09,375.027 1353.5,375.5C 1353.75,377.674 1354.75,379.341 1356.5,380.5C 1356.3,382.39 1356.96,383.89 1358.5,385C 1354.97,387.181 1351.13,388.681 1347,389.5C 1346.1,389.257 1345.26,388.923 1344.5,388.5C 1339.35,378.203 1333.68,368.203 1327.5,358.5C 1328.46,356.014 1329.29,356.014 1330,358.5C 1330.46,357.906 1330.63,357.239 1330.5,356.5C 1332.91,355.299 1334.91,353.633 1336.5,351.5 Z"/></g>
<g><path style="opacity:1" fill="#7e7e7e" d="M 1340.5,347.5 C 1341.23,347.942 1342.23,348.109 1343.5,348C 1342.31,349.353 1340.98,350.52 1339.5,351.5C 1340.7,352.292 1342.03,352.292 1343.5,351.5C 1344.17,351.5 1344.83,351.5 1345.5,351.5C 1346.83,351.167 1348.17,350.833 1349.5,350.5C 1347.52,352.303 1345.35,353.97 1343,355.5C 1342.54,356.744 1343.04,357.577 1344.5,358C 1343.94,358.383 1343.61,358.883 1343.5,359.5C 1341.62,356.386 1339.29,353.72 1336.5,351.5C 1335.35,351.209 1334.68,350.376 1334.5,349C 1334.59,346.046 1335.09,345.879 1336,348.5C 1336.67,345.833 1337.33,345.833 1338,348.5C 1338.67,347.748 1339.5,347.414 1340.5,347.5 Z"/></g>
<g><path style="opacity:1" fill="#737373" d="M 1330.5,356.5 C 1330.63,357.239 1330.46,357.906 1330,358.5C 1329.29,356.014 1328.46,356.014 1327.5,358.5C 1326.6,357.71 1325.93,356.71 1325.5,355.5C 1325.43,355.062 1325.6,354.728 1326,354.5C 1327.62,355.099 1329.12,355.766 1330.5,356.5 Z"/></g>
<g><path style="opacity:1" fill="#8f8f8f" d="M 1343.5,359.5 C 1344.91,359.973 1345.57,360.973 1345.5,362.5C 1344.09,362.027 1343.43,361.027 1343.5,359.5 Z"/></g>
<g><path style="opacity:1" fill="#6c6c6c" d="M 138.5,372.5 C 137.89,371.609 137.557,370.609 137.5,369.5C 137.5,367.833 137.5,366.167 137.5,364.5C 136.167,364.5 134.833,364.5 133.5,364.5C 133.737,365.791 133.404,366.791 132.5,367.5C 132.5,366.833 132.5,366.167 132.5,365.5C 132.722,362.924 134.055,362.09 136.5,363C 137.939,363.991 138.939,365.324 139.5,367C 138.269,368.183 138.269,369.349 139.5,370.5C 141.098,369.515 142.765,369.349 144.5,370C 142.512,370.938 140.512,371.772 138.5,372.5 Z"/></g>
<g><path style="opacity:1" fill="#080808" d="M 137.5,369.5 C 134.774,371.301 133.108,370.634 132.5,367.5C 133.404,366.791 133.737,365.791 133.5,364.5C 134.833,364.5 136.167,364.5 137.5,364.5C 137.5,366.167 137.5,367.833 137.5,369.5 Z"/></g>
<g><path style="opacity:1" fill="#868686" d="M 1352.5,335.5 C 1353.7,352.236 1361.04,365.736 1374.5,376C 1375.86,375.857 1377.2,375.357 1378.5,374.5C 1379.87,376.477 1379.54,378.144 1377.5,379.5C 1375.18,379.992 1373.18,380.992 1371.5,382.5C 1370.83,382.5 1370.5,382.167 1370.5,381.5C 1371.77,380.521 1373.1,379.521 1374.5,378.5C 1374.17,377.5 1373.5,376.833 1372.5,376.5C 1370.92,377.456 1369.26,378.123 1367.5,378.5C 1368.97,377.416 1369.81,376.082 1370,374.5C 1368.16,375.833 1367.66,375.666 1368.5,374C 1366.7,373.683 1366.37,373.016 1367.5,372C 1367,371.5 1366.5,371 1366,370.5C 1364.67,371.582 1363.17,372.249 1361.5,372.5C 1362.23,371.288 1363.23,370.288 1364.5,369.5C 1362.89,368.758 1361.23,368.591 1359.5,369C 1360.33,368.085 1361.33,367.419 1362.5,367C 1360.79,366.805 1359.13,366.805 1357.5,367C 1361.24,365.332 1361.24,363.999 1357.5,363C 1358.73,361.817 1358.73,360.651 1357.5,359.5C 1353.81,361.527 1350.81,364.194 1348.5,367.5C 1346.75,366.341 1345.75,364.674 1345.5,362.5C 1348.83,361.359 1351.83,359.526 1354.5,357C 1353.17,357 1351.83,357 1350.5,357C 1352.17,355.833 1353.83,354.667 1355.5,353.5C 1354.69,351.075 1353.69,348.742 1352.5,346.5C 1350.92,347.456 1349.26,348.123 1347.5,348.5C 1349.13,347.009 1350.79,345.509 1352.5,344C 1352.33,343.5 1352.17,343 1352,342.5C 1351.28,343.451 1350.45,343.617 1349.5,343C 1350.82,342.184 1351.49,341.017 1351.5,339.5C 1352.43,338.432 1352.77,337.099 1352.5,335.5 Z"/></g>
<g><path style="opacity:1" fill="#8e8e8e" d="M 146.5,365.5 C 147.239,365.369 147.906,365.536 148.5,366C 147.421,366.956 146.255,367.789 145,368.5C 144.761,367.212 145.261,366.212 146.5,365.5 Z"/></g>
<g><path style="opacity:1" fill="#aeaeae" d="M 1348.5,367.5 C 1349.55,367.351 1350.55,367.517 1351.5,368C 1350.75,368.671 1350.41,369.504 1350.5,370.5C 1349.09,370.027 1348.43,369.027 1348.5,367.5 Z"/></g>
<g><path style="opacity:1" fill="#191919" d="M 1361.5,372.5 C 1359.97,372.427 1358.97,373.094 1358.5,374.5C 1356.88,375.038 1355.22,375.371 1353.5,375.5C 1353.5,374.833 1353.5,374.167 1353.5,373.5C 1352.83,373.167 1352.17,372.833 1351.5,372.5C 1355.71,369.766 1355.38,369.099 1350.5,370.5C 1350.41,369.504 1350.75,368.671 1351.5,368C 1350.55,367.517 1349.55,367.351 1348.5,367.5C 1350.81,364.194 1353.81,361.527 1357.5,359.5C 1358.73,360.651 1358.73,361.817 1357.5,363C 1361.24,363.999 1361.24,365.332 1357.5,367C 1359.13,366.805 1360.79,366.805 1362.5,367C 1361.33,367.419 1360.33,368.085 1359.5,369C 1361.23,368.591 1362.89,368.758 1364.5,369.5C 1363.23,370.288 1362.23,371.288 1361.5,372.5 Z"/></g>
<g><path style="opacity:1" fill="#a9a9a9" d="M 1351.5,372.5 C 1350.66,372.158 1350.33,371.492 1350.5,370.5C 1355.38,369.099 1355.71,369.766 1351.5,372.5 Z"/></g>
<g><path style="opacity:1" fill="#878787" d="M 1353.5,373.5 C 1354.25,371.554 1355.59,370.721 1357.5,371C 1356.53,372.481 1355.2,373.315 1353.5,373.5 Z"/></g>
<g><path style="opacity:1" fill="#848484" d="M 1361.5,372.5 C 1361.03,373.906 1360.03,374.573 1358.5,374.5C 1358.97,373.094 1359.97,372.427 1361.5,372.5 Z"/></g>
<g><path style="opacity:1" fill="#bababa" d="M 1351.5,372.5 C 1352.17,372.833 1352.83,373.167 1353.5,373.5C 1353.5,374.167 1353.5,374.833 1353.5,375.5C 1352.09,375.027 1351.43,374.027 1351.5,372.5 Z"/></g>
<g><path style="opacity:1" fill="#9b9b9b" d="M 1358.5,374.5 C 1357.77,375.712 1356.77,376.712 1355.5,377.5C 1356.13,378.417 1356.46,379.417 1356.5,380.5C 1354.75,379.341 1353.75,377.674 1353.5,375.5C 1355.22,375.371 1356.88,375.038 1358.5,374.5 Z"/></g>
<g><path style="opacity:1" fill="#262626" d="M 1367.5,378.5 C 1369.26,378.123 1370.92,377.456 1372.5,376.5C 1373.5,376.833 1374.17,377.5 1374.5,378.5C 1373.1,379.521 1371.77,380.521 1370.5,381.5C 1366.61,383.99 1362.61,384.49 1358.5,383C 1359.17,382.333 1359.83,381.667 1360.5,381C 1359.04,381.355 1357.71,381.189 1356.5,380.5C 1356.46,379.417 1356.13,378.417 1355.5,377.5C 1356.77,376.712 1357.77,375.712 1358.5,374.5C 1360.03,374.573 1361.03,373.906 1361.5,372.5C 1363.17,372.249 1364.67,371.582 1366,370.5C 1366.5,371 1367,371.5 1367.5,372C 1366.37,373.016 1366.7,373.683 1368.5,374C 1367.66,375.666 1368.16,375.833 1370,374.5C 1369.81,376.082 1368.97,377.416 1367.5,378.5 Z"/></g>
<g><path style="opacity:1" fill="#121212" d="M 143.5,379.5 C 143.938,379.435 144.272,379.601 144.5,380C 143.695,381.113 143.028,382.279 142.5,383.5C 140.228,382.203 139.395,380.203 140,377.5C 141.113,378.305 142.279,378.972 143.5,379.5 Z"/></g>
<g><path style="opacity:1" fill="#9b9b9b" d="M 132.5,365.5 C 132.5,366.167 132.5,366.833 132.5,367.5C 133.108,370.634 134.774,371.301 137.5,369.5C 137.557,370.609 137.89,371.609 138.5,372.5C 139.45,375.115 141.117,377.115 143.5,378.5C 143.5,378.833 143.5,379.167 143.5,379.5C 142.279,378.972 141.113,378.305 140,377.5C 139.395,380.203 140.228,382.203 142.5,383.5C 142.068,384.71 141.401,385.71 140.5,386.5C 139.241,382.952 138.407,379.285 138,375.5C 137.667,376.5 137.333,377.5 137,378.5C 135.212,376.667 135.046,374.667 136.5,372.5C 131.803,371.864 130.47,369.531 132.5,365.5 Z"/></g>
<g><path style="opacity:1" fill="#888888" d="M 1367.5,378.5 C 1366.75,380.446 1365.41,381.279 1363.5,381C 1364.47,379.519 1365.8,378.685 1367.5,378.5 Z"/></g>
<g><path style="opacity:1" fill="#181818" d="M 1377.5,379.5 C 1377.61,380.117 1377.94,380.617 1378.5,381C 1376.26,381.977 1373.93,382.477 1371.5,382.5C 1373.18,380.992 1375.18,379.992 1377.5,379.5 Z"/></g>
<g><path style="opacity:1" fill="#898989" d="M 1387.5,376.5 C 1391.44,378.409 1391.44,380.409 1387.5,382.5C 1386.48,382.145 1385.81,381.478 1385.5,380.5C 1388.48,380.206 1389.15,378.872 1387.5,376.5 Z"/></g>
<g><path style="opacity:1" fill="#7f7f7f" d="M 339.5,383.5 C 338.078,384.925 336.411,385.925 334.5,386.5C 333.909,385.849 333.243,385.182 332.5,384.5C 332.709,383.914 333.043,383.414 333.5,383C 335.712,382.211 337.712,382.378 339.5,383.5 Z"/></g>
<g><path style="opacity:1" fill="#141414" d="M 1376.5,384.5 C 1377.53,384.897 1377.69,385.563 1377,386.5C 1375.48,387.163 1374.31,388.163 1373.5,389.5C 1374.38,389.369 1375.04,389.702 1375.5,390.5C 1374.35,392.149 1373.02,393.649 1371.5,395C 1372.31,395.308 1372.97,395.808 1373.5,396.5C 1372.02,398.071 1370.36,399.405 1368.5,400.5C 1368.25,398.326 1367.25,396.659 1365.5,395.5C 1365.59,394.504 1365.25,393.671 1364.5,393C 1368.35,389.911 1372.35,387.078 1376.5,384.5 Z"/></g>
<g><path style="opacity:1" fill="#cacaca" d="M 1387.5,376.5 C 1389.15,378.872 1388.48,380.206 1385.5,380.5C 1384.18,381.942 1382.51,382.608 1380.5,382.5C 1378.52,382.157 1377.18,382.824 1376.5,384.5C 1372.35,387.078 1368.35,389.911 1364.5,393C 1365.25,393.671 1365.59,394.504 1365.5,395.5C 1364.54,395.047 1363.71,394.381 1363,393.5C 1359.34,396.399 1355.84,399.399 1352.5,402.5C 1349.85,397.873 1347.18,393.207 1344.5,388.5C 1345.26,388.923 1346.1,389.257 1347,389.5C 1351.13,388.681 1354.97,387.181 1358.5,385C 1356.96,383.89 1356.3,382.39 1356.5,380.5C 1357.71,381.189 1359.04,381.355 1360.5,381C 1359.83,381.667 1359.17,382.333 1358.5,383C 1362.61,384.49 1366.61,383.99 1370.5,381.5C 1370.5,382.167 1370.83,382.5 1371.5,382.5C 1373.93,382.477 1376.26,381.977 1378.5,381C 1377.94,380.617 1377.61,380.117 1377.5,379.5C 1379.54,378.144 1379.87,376.477 1378.5,374.5C 1382.18,371.571 1385.18,372.237 1387.5,376.5 Z"/></g>
<g><path style="opacity:1" fill="#727272" d="M 1373.5,389.5 C 1372.12,392.073 1370.12,393.573 1367.5,394C 1369.11,391.873 1371.11,390.373 1373.5,389.5 Z"/></g>
<g><path style="opacity:1" fill="#818181" d="M 266.5,395.5 C 264.621,395.393 264.288,395.893 265.5,397C 264.027,397.71 263.36,398.876 263.5,400.5C 263.167,400.5 262.833,400.5 262.5,400.5C 262.03,397.654 262.863,395.321 265,393.5C 265.717,394.044 266.217,394.711 266.5,395.5 Z"/></g>
<g><path style="opacity:1" fill="#898989" d="M 1365.5,395.5 C 1367.25,396.659 1368.25,398.326 1368.5,400.5C 1366.75,399.341 1365.75,397.674 1365.5,395.5 Z"/></g>
<g><path style="opacity:1" fill="#212121" d="M 266.5,395.5 C 266.741,398.034 265.741,399.7 263.5,400.5C 263.36,398.876 264.027,397.71 265.5,397C 264.288,395.893 264.621,395.393 266.5,395.5 Z"/></g>
<g><path style="opacity:1" fill="#828282" d="M 1380.5,382.5 C 1376.78,389.339 1374.28,396.672 1373,404.5C 1370.93,414.84 1370.1,425.173 1370.5,435.5C 1369.05,425.749 1369.38,416.083 1371.5,406.5C 1369.96,404.757 1368.96,402.757 1368.5,400.5C 1370.36,399.405 1372.02,398.071 1373.5,396.5C 1372.97,395.808 1372.31,395.308 1371.5,395C 1373.02,393.649 1374.35,392.149 1375.5,390.5C 1375.04,389.702 1374.38,389.369 1373.5,389.5C 1374.31,388.163 1375.48,387.163 1377,386.5C 1377.69,385.563 1377.53,384.897 1376.5,384.5C 1377.18,382.824 1378.52,382.157 1380.5,382.5 Z"/></g>
<g><path style="opacity:1" fill="#7b7b7b" d="M 1448.5,576.5 C 1437.63,577.883 1426.97,580.217 1416.5,583.5C 1416.17,583.167 1415.83,582.833 1415.5,582.5C 1428.54,578.24 1441.88,575.24 1455.5,573.5C 1456.21,578.971 1457.54,584.304 1459.5,589.5C 1445.9,594.318 1432.23,597.652 1418.5,599.5C 1419.38,598.749 1420.38,598.249 1421.5,598C 1420,596.663 1419,594.996 1418.5,593C 1420.78,592.014 1423.11,591.18 1425.5,590.5C 1426.95,591.655 1427.95,593.155 1428.5,595C 1427.11,595.889 1427.28,596.389 1429,596.5C 1436.23,594.902 1443.39,593.069 1450.5,591C 1447.11,589.435 1446.77,587.435 1449.5,585C 1451.26,584.202 1452.93,584.369 1454.5,585.5C 1455.71,586.72 1455.71,587.887 1454.5,589C 1455.45,589.483 1456.45,589.649 1457.5,589.5C 1456.09,584.922 1455.09,580.255 1454.5,575.5C 1452.26,575.205 1450.26,575.539 1448.5,576.5 Z"/></g>
<g><path style="opacity:1" fill="#717171" d="M 1448.5,576.5 C 1450.59,576.45 1451.92,577.45 1452.5,579.5C 1450.65,580.593 1448.98,581.926 1447.5,583.5C 1444.51,580.538 1444.84,578.205 1448.5,576.5 Z"/></g>
<g><path style="opacity:1" fill="#717171" d="M 1440.5,579.5 C 1441.5,579.5 1442.5,579.5 1443.5,579.5C 1443.83,582.524 1442.49,584.191 1439.5,584.5C 1435.66,582.286 1435.99,580.62 1440.5,579.5 Z"/></g>
<g><path style="opacity:1" fill="#191919" d="M 1431.5,582.5 C 1431.84,581.662 1432.51,581.328 1433.5,581.5C 1433.33,582.822 1433.66,583.989 1434.5,585C 1432.9,585.273 1431.4,585.773 1430,586.5C 1429.52,585.552 1429.35,584.552 1429.5,583.5C 1431.4,583.754 1432.07,583.42 1431.5,582.5 Z"/></g>
<g><path style="opacity:1" fill="#949494" d="M 1433.5,581.5 C 1434.93,582.78 1435.6,584.447 1435.5,586.5C 1433.13,586.851 1430.8,587.018 1428.5,587C 1426.84,583.85 1427.84,582.35 1431.5,582.5C 1432.07,583.42 1431.4,583.754 1429.5,583.5C 1429.35,584.552 1429.52,585.552 1430,586.5C 1431.4,585.773 1432.9,585.273 1434.5,585C 1433.66,583.989 1433.33,582.822 1433.5,581.5 Z"/></g>
<g><path style="opacity:1" fill="#6d6d6d" d="M 1441.5,585.5 C 1444.91,585.384 1446.24,587.05 1445.5,590.5C 1443.23,590.141 1441.4,590.808 1440,592.5C 1438.87,590.655 1438.37,588.655 1438.5,586.5C 1439.79,586.737 1440.79,586.404 1441.5,585.5 Z"/></g>
<g><path style="opacity:1" fill="#020202" d="M 1451.5,585.5 C 1453.05,585.821 1453.71,586.821 1453.5,588.5C 1448.44,588.528 1447.77,587.528 1451.5,585.5 Z"/></g>
<g><path style="opacity:1" fill="#969696" d="M 1420.5,584.5 C 1424.5,583.833 1426.17,585.5 1425.5,589.5C 1422.79,589.575 1420.13,589.908 1417.5,590.5C 1417.5,588.833 1417.5,587.167 1417.5,585.5C 1418.79,585.737 1419.79,585.404 1420.5,584.5 Z"/></g>
<g><path style="opacity:1" fill="#0c0c0c" d="M 1421.5,585.5 C 1423,585.415 1424,586.081 1424.5,587.5C 1422.5,588.833 1420.5,588.833 1418.5,587.5C 1419.6,586.824 1420.6,586.158 1421.5,585.5 Z"/></g>
<g><path style="opacity:1" fill="#858585" d="M 1432.5,588.5 C 1436.15,588.162 1437.82,589.828 1437.5,593.5C 1434.71,593.949 1432.04,593.949 1429.5,593.5C 1428.67,592.549 1428.51,591.549 1429,590.5C 1430.3,589.915 1431.47,589.249 1432.5,588.5 Z"/></g>
<g><path style="opacity:1" fill="#090909" d="M 1433.5,589.5 C 1435.03,589.517 1435.53,590.184 1435,591.5C 1432.13,593.891 1430.63,593.558 1430.5,590.5C 1431.79,590.737 1432.79,590.404 1433.5,589.5 Z"/></g>
<g><path style="opacity:1" fill="#0c0c0c" d="M 1422.5,592.5 C 1423.83,592.5 1425.17,592.5 1426.5,592.5C 1426.5,593.5 1426.5,594.5 1426.5,595.5C 1424.4,595.799 1422.4,595.466 1420.5,594.5C 1421.24,593.818 1421.91,593.151 1422.5,592.5 Z"/></g>
<g><path style="opacity:1" fill="#303030" d="M 13.5,703.5 C 16.3604,707.132 16.0271,707.799 12.5,705.5C 11.9569,705.44 11.6236,705.107 11.5,704.5C 12.2003,704.213 12.8669,703.88 13.5,703.5 Z"/></g>
<g><path style="opacity:1" fill="#838383" d="M 27.5,704.5 C 26.5084,704.328 25.8417,704.662 25.5,705.5C 24.027,707.395 22.3603,709.061 20.5,710.5C 19.9916,707.148 18.6582,704.148 16.5,701.5C 17.3554,700.707 18.1887,701.04 19,702.5C 19.6667,703.833 20.3333,705.167 21,706.5C 22.0674,705.809 23.2341,705.309 24.5,705C 21.7605,703.95 20.2605,702.117 20,699.5C 21.3513,701.019 22.8513,702.352 24.5,703.5C 25.2388,699.841 24.5721,696.341 22.5,693C 23.4835,692.409 24.1501,692.743 24.5,694C 25.8111,697.431 26.8111,700.931 27.5,704.5 Z"/></g>
<g><path style="opacity:1" fill="#0d0d0d" d="M 25.5,705.5 C 26.4614,707.265 26.7947,709.265 26.5,711.5C 23.5,711.5 20.5,711.5 17.5,711.5C 17.5,711.167 17.5,710.833 17.5,710.5C 18.5,710.5 19.5,710.5 20.5,710.5C 22.3603,709.061 24.027,707.395 25.5,705.5 Z"/></g>
<g><path style="opacity:1" fill="#6e6e6e" d="M 17.5,710.5 C 17.5,710.833 17.5,711.167 17.5,711.5C 15.3736,712.048 13.3736,712.715 11.5,713.5C 9.89674,713.688 8.56341,713.188 7.5,712C 9.96203,710.784 12.6287,710.118 15.5,710C 13.8588,708.871 12.8588,707.371 12.5,705.5C 16.0271,707.799 16.3604,707.132 13.5,703.5C 13.3932,701.621 13.8932,701.288 15,702.5C 16.3409,705.022 17.1743,707.689 17.5,710.5 Z"/></g>
<g><path style="opacity:1" fill="#0d0d0d" d="M 58.5,711.5 C 58.5,713.5 58.5,715.5 58.5,717.5C 55.9407,717.198 53.6074,717.532 51.5,718.5C 50.5084,718.672 49.8417,718.338 49.5,717.5C 41.6985,715.126 33.0318,713.626 23.5,713C 35.1565,712.204 46.8232,711.704 58.5,711.5 Z"/></g>
<g><path style="opacity:1" fill="#8d8d8d" d="M 58.5,710.5 C 58.5,710.833 58.5,711.167 58.5,711.5C 46.8232,711.704 35.1565,712.204 23.5,713C 33.0318,713.626 41.6985,715.126 49.5,717.5C 48.325,717.281 47.325,717.614 46.5,718.5C 47.5175,719.852 48.8508,720.852 50.5,721.5C 50.3333,721.833 50.1667,722.167 50,722.5C 46.0292,720.612 43.8625,721.946 43.5,726.5C 48.8221,732.18 48.1555,732.847 41.5,728.5C 42.7779,725.496 43.7779,722.329 44.5,719C 44.1667,718.167 43.8333,717.333 43.5,716.5C 41.1369,721.759 39.3035,727.092 38,732.5C 38.7083,731.619 39.5416,730.953 40.5,730.5C 40.4784,732.8 39.4784,733.967 37.5,734C 36.233,732.204 36.233,730.371 37.5,728.5C 35.939,727.653 34.439,727.986 33,729.5C 32.0793,728.292 31.5793,726.958 31.5,725.5C 29.5491,726.716 28.0491,728.382 27,730.5C 28.3142,726.858 29.9808,723.191 32,719.5C 32.49,718.207 32.6567,716.873 32.5,715.5C 31.1667,715.5 29.8333,715.5 28.5,715.5C 28.5,716.833 28.5,718.167 28.5,719.5C 27.5489,718.081 27.2155,716.415 27.5,714.5C 25.3352,714.116 23.6685,714.783 22.5,716.5C 23.6046,718.611 25.2712,719.945 27.5,720.5C 27.3015,722.96 26.6348,725.293 25.5,727.5C 25.1667,726.167 24.8333,724.833 24.5,723.5C 23.8333,725.167 23.1667,726.833 22.5,728.5C 21.7189,727.271 21.2189,725.938 21,724.5C 19.6667,727.167 18.3333,727.167 17,724.5C 16.4387,725.022 15.772,725.355 15,725.5C 10.7407,723.182 10.574,720.682 14.5,718C 13.1667,717.333 11.8333,716.667 10.5,716C 12.2852,714.837 14.2852,714.17 16.5,714C 14.8659,713.506 13.1992,713.34 11.5,713.5C 13.3736,712.715 15.3736,712.048 17.5,711.5C 20.5,711.5 23.5,711.5 26.5,711.5C 26.7947,709.265 26.4614,707.265 25.5,705.5C 25.8417,704.662 26.5084,704.328 27.5,704.5C 26.4251,708.938 28.0917,710.938 32.5,710.5C 31.3232,704.493 29.3232,698.826 26.5,693.5C 29.7731,695.061 33.1064,696.728 36.5,698.5C 36.8333,698.167 37.1667,697.833 37.5,697.5C 36.1667,696.5 34.8333,695.5 33.5,694.5C 37.1474,693.79 39.1474,695.457 39.5,699.5C 39.5654,699.938 39.3988,700.272 39,700.5C 35.892,699.181 32.7253,698.347 29.5,698C 30.3134,699.803 31.4801,701.303 33,702.5C 34.2613,702.241 35.2613,701.574 36,700.5C 35.8516,701.825 36.0183,702.992 36.5,704C 35.2624,703.923 34.2624,704.089 33.5,704.5C 35.396,705.466 37.396,705.799 39.5,705.5C 39.2322,703.901 39.5655,702.568 40.5,701.5C 41.8333,704.5 41.8333,707.5 40.5,710.5C 42.1667,710.5 43.8333,710.5 45.5,710.5C 44.6871,704.394 42.6871,698.727 39.5,693.5C 39.4528,692 40.1195,691 41.5,690.5C 42.0997,692.576 42.433,694.576 42.5,696.5C 45.2281,697.94 47.3948,697.274 49,694.5C 49.5,695.5 50,696.5 50.5,697.5C 48.4521,698.456 46.4521,699.456 44.5,700.5C 45.0983,701.795 45.5983,703.128 46,704.5C 46.2492,703.376 46.7492,702.376 47.5,701.5C 50.117,703.359 50.7837,705.692 49.5,708.5C 47.1625,706.989 46.4958,707.323 47.5,709.5C 51.1073,710.489 54.774,710.823 58.5,710.5 Z"/></g>
<g><path style="opacity:1" fill="#151515" d="M 28.5,719.5 C 28.5,720.167 28.1667,720.5 27.5,720.5C 25.2712,719.945 23.6046,718.611 22.5,716.5C 23.6685,714.783 25.3352,714.116 27.5,714.5C 27.2155,716.415 27.5489,718.081 28.5,719.5 Z"/></g>
<g><path style="opacity:1" fill="#0b0b0b" d="M 36.5,706.5 C 37.2216,706.918 37.7216,707.584 38,708.5C 38.3333,707.833 38.6667,707.167 39,706.5C 39.49,707.793 39.6567,709.127 39.5,710.5C 37.396,710.799 35.396,710.466 33.5,709.5C 33.8457,708.304 34.3457,708.304 35,709.5C 35.5133,708.473 36.0133,707.473 36.5,706.5 Z"/></g>
<g><path style="opacity:1" fill="#0f0f0f" d="M 39.5,699.5 C 40.3382,699.842 40.6716,700.508 40.5,701.5C 39.5655,702.568 39.2322,703.901 39.5,705.5C 37.396,705.799 35.396,705.466 33.5,704.5C 34.2624,704.089 35.2624,703.923 36.5,704C 36.0183,702.992 35.8516,701.825 36,700.5C 35.2613,701.574 34.2613,702.241 33,702.5C 31.4801,701.303 30.3134,699.803 29.5,698C 32.7253,698.347 35.892,699.181 39,700.5C 39.3988,700.272 39.5654,699.938 39.5,699.5 Z"/></g>
<g><path style="opacity:1" fill="#070707" d="M 33.5,720.5 C 33.7745,715.652 36.1079,714.319 40.5,716.5C 40.762,717.978 40.4287,719.311 39.5,720.5C 37.674,720.08 35.674,720.08 33.5,720.5 Z"/></g>
<g><path style="opacity:1" fill="#040404" d="M 17.5,713.5 C 21.8107,713.805 22.6441,715.805 20,719.5C 15.9475,723.824 14.6142,723.491 16,718.5C 17.3509,718.554 18.5176,718.054 19.5,717C 18.5705,715.923 17.9038,714.756 17.5,713.5 Z"/></g>
<g><path style="opacity:1" fill="#090909" d="M 33.5,720.5 C 35.0251,722.036 37.0251,723.036 39.5,723.5C 38.3504,726.32 37.1838,726.654 36,724.5C 35.6924,725.308 35.1924,725.975 34.5,726.5C 33.5832,725.873 32.5832,725.539 31.5,725.5C 31.4021,723.447 32.0687,721.78 33.5,720.5 Z"/></g>
<g><path style="opacity:1" fill="#1e1e1e" d="M 41.5,728.5 C 41.6716,729.492 41.3382,730.158 40.5,730.5C 39.5416,730.953 38.7083,731.619 38,732.5C 39.3035,727.092 41.1369,721.759 43.5,716.5C 43.8333,717.333 44.1667,718.167 44.5,719C 43.7779,722.329 42.7779,725.496 41.5,728.5 Z"/></g>
<g><path style="opacity:1" fill="#818181" d="M 1420.5,787.5 C 1420.03,790.358 1421.03,792.358 1423.5,793.5C 1422.17,793.5 1420.83,793.5 1419.5,793.5C 1419.21,791.265 1419.54,789.265 1420.5,787.5 Z"/></g>
<g><path style="opacity:1" fill="#0a0a0a" d="M 1419.5,793.5 C 1420.83,793.5 1422.17,793.5 1423.5,793.5C 1423.97,794.906 1424.97,795.573 1426.5,795.5C 1427.67,797.504 1429.34,799.004 1431.5,800C 1427.39,800.944 1423.39,801.778 1419.5,802.5C 1419.17,802.5 1418.83,802.5 1418.5,802.5C 1418.51,799.455 1418.84,796.455 1419.5,793.5 Z"/></g>
<g><path style="opacity:1" fill="#8a8a8a" d="M 1423.5,793.5 C 1425.03,793.427 1426.03,794.094 1426.5,795.5C 1424.97,795.573 1423.97,794.906 1423.5,793.5 Z"/></g>
<g><path style="opacity:1" fill="#7f7f7f" d="M 1453.5,800.5 C 1449.71,799.814 1446.55,800.814 1444,803.5C 1443.62,802.944 1443.12,802.611 1442.5,802.5C 1440.55,801.677 1438.55,801.51 1436.5,802C 1434.17,803.833 1431.83,805.667 1429.5,807.5C 1429.17,807.333 1428.83,807.167 1428.5,807C 1430.21,804.957 1432.21,803.29 1434.5,802C 1429.82,802.035 1425.15,802.535 1420.5,803.5C 1419.89,803.376 1419.56,803.043 1419.5,802.5C 1423.39,801.778 1427.39,800.944 1431.5,800C 1429.34,799.004 1427.67,797.504 1426.5,795.5C 1428.6,796.412 1430.6,797.579 1432.5,799C 1433.5,799.667 1434.5,799.667 1435.5,799C 1439.24,793.285 1442.9,787.619 1446.5,782C 1443.71,780.964 1443.21,779.464 1445,777.5C 1445.42,778.672 1446.09,779.672 1447,780.5C 1450.26,776.053 1454.42,773.053 1459.5,771.5C 1459.66,772.873 1459.49,774.207 1459,775.5C 1456.11,778.387 1453.28,781.221 1450.5,784C 1454.13,784.206 1454.46,785.373 1451.5,787.5C 1450.83,786.833 1450.17,786.167 1449.5,785.5C 1443.81,789.255 1439.81,794.255 1437.5,800.5C 1439.4,800.433 1441.23,800.767 1443,801.5C 1444.78,800.047 1446.78,799.047 1449,798.5C 1450.88,798.525 1452.38,799.191 1453.5,800.5 Z"/></g>
<g><path style="opacity:1" fill="#090909" d="M 1453.5,800.5 C 1453.48,802.6 1454.14,804.433 1455.5,806C 1455.01,807.138 1454.68,808.305 1454.5,809.5C 1448.54,811.984 1444.54,810.317 1442.5,804.5C 1442.5,803.833 1442.5,803.167 1442.5,802.5C 1443.12,802.611 1443.62,802.944 1444,803.5C 1446.55,800.814 1449.71,799.814 1453.5,800.5 Z"/></g>
<g><path style="opacity:1" fill="#acacac" d="M 1453.5,800.5 C 1455.74,801.286 1456.74,802.952 1456.5,805.5C 1456.66,807.355 1455.99,808.688 1454.5,809.5C 1454.68,808.305 1455.01,807.138 1455.5,806C 1454.14,804.433 1453.48,802.6 1453.5,800.5 Z"/></g>
<g><path style="opacity:1" fill="#7f7f7f" d="M 1442.5,804.5 C 1444.54,810.317 1448.54,811.984 1454.5,809.5C 1450.95,813.435 1447.29,813.435 1443.5,809.5C 1442.69,807.929 1442.36,806.262 1442.5,804.5 Z"/></g>
<g><path style="opacity:1" fill="#1b1b1b" d="M 168.5,1068.5 C 170.167,1071.17 171.833,1073.83 173.5,1076.5C 173.082,1077.22 172.416,1077.72 171.5,1078C 172.056,1078.38 172.389,1078.88 172.5,1079.5C 171.833,1079.5 171.167,1079.5 170.5,1079.5C 170.5,1078.5 170.5,1077.5 170.5,1076.5C 168.641,1076.54 167.308,1075.71 166.5,1074C 166.072,1071.98 166.739,1070.14 168.5,1068.5 Z"/></g>
<g><path style="opacity:1" fill="#161616" d="M 179.5,1075.5 C 179.631,1076.38 179.298,1077.04 178.5,1077.5C 177.264,1076.75 175.93,1076.42 174.5,1076.5C 175.748,1074.31 177.414,1073.98 179.5,1075.5 Z"/></g>
<g><path style="opacity:1" fill="#7d7d7d" d="M 166.5,1066.5 C 167.5,1066.83 168.167,1067.5 168.5,1068.5C 166.739,1070.14 166.072,1071.98 166.5,1074C 167.308,1075.71 168.641,1076.54 170.5,1076.5C 170.5,1077.5 170.5,1078.5 170.5,1079.5C 170.189,1080.48 169.522,1081.14 168.5,1081.5C 167.667,1079.5 166.833,1077.5 166,1075.5C 165.189,1081.82 162.689,1082.82 158.5,1078.5C 159.012,1075.65 160.679,1074.32 163.5,1074.5C 163.617,1072.52 162.95,1070.85 161.5,1069.5C 161.833,1069.17 162.167,1068.83 162.5,1068.5C 163.584,1069.67 164.417,1071 165,1072.5C 165.813,1070.56 166.313,1068.56 166.5,1066.5 Z"/></g>
<g><path style="opacity:1" fill="#000000" d="M 160.5,1076.5 C 161.978,1076.24 163.311,1076.57 164.5,1077.5C 163.68,1079.11 162.346,1079.78 160.5,1079.5C 160.5,1078.5 160.5,1077.5 160.5,1076.5 Z"/></g>
<g><path style="opacity:1" fill="#a4a4a4" d="M 179.5,1075.5 C 181.946,1076.39 182.612,1077.89 181.5,1080C 182.744,1080.46 183.577,1079.96 184,1078.5C 185.376,1079.71 186.542,1081.04 187.5,1082.5C 186.475,1082.9 186.308,1083.56 187,1084.5C 187.759,1086.06 188.926,1087.06 190.5,1087.5C 191.308,1089.22 192.308,1090.89 193.5,1092.5C 191.309,1091.71 189.309,1091.71 187.5,1092.5C 186.637,1091.54 185.97,1091.54 185.5,1092.5C 186.5,1093.83 187.5,1095.17 188.5,1096.5C 188.291,1097.09 187.957,1097.59 187.5,1098C 190.267,1099.04 192.601,1100.54 194.5,1102.5C 194.167,1103.17 193.833,1103.83 193.5,1104.5C 192.141,1102.18 190.141,1100.51 187.5,1099.5C 185.031,1095.55 183.031,1091.89 181.5,1088.5C 181.435,1088.06 181.601,1087.73 182,1087.5C 182.915,1088.33 183.581,1089.33 184,1090.5C 183.735,1087.18 182.069,1084.51 179,1082.5C 178.536,1083.09 178.369,1083.76 178.5,1084.5C 176.5,1082.83 174.5,1081.17 172.5,1079.5C 172.389,1078.88 172.056,1078.38 171.5,1078C 172.416,1077.72 173.082,1077.22 173.5,1076.5C 173.833,1076.5 174.167,1076.5 174.5,1076.5C 175.93,1076.42 177.264,1076.75 178.5,1077.5C 179.298,1077.04 179.631,1076.38 179.5,1075.5 Z"/></g>
<g><path style="opacity:1" fill="#3d3d3d" d="M 187.5,1082.5 C 188.752,1084 189.752,1085.67 190.5,1087.5C 188.926,1087.06 187.759,1086.06 187,1084.5C 186.308,1083.56 186.475,1082.9 187.5,1082.5 Z"/></g>
<g><path style="opacity:1" fill="#454545" d="M 181.5,1088.5 C 180.512,1087.2 179.512,1085.87 178.5,1084.5C 178.369,1083.76 178.536,1083.09 179,1082.5C 182.069,1084.51 183.735,1087.18 184,1090.5C 183.581,1089.33 182.915,1088.33 182,1087.5C 181.601,1087.73 181.435,1088.06 181.5,1088.5 Z"/></g>
<g><path style="opacity:1" fill="#090909" d="M 187.5,1092.5 C 189.036,1095.79 191.369,1097.12 194.5,1096.5C 194.5,1098.5 194.5,1100.5 194.5,1102.5C 192.601,1100.54 190.267,1099.04 187.5,1098C 187.957,1097.59 188.291,1097.09 188.5,1096.5C 187.5,1095.17 186.5,1093.83 185.5,1092.5C 185.97,1091.54 186.637,1091.54 187.5,1092.5 Z"/></g>
<g><path style="opacity:1" fill="#6a6a6a" d="M 193.5,1092.5 C 193.433,1093.96 193.766,1095.29 194.5,1096.5C 191.369,1097.12 189.036,1095.79 187.5,1092.5C 189.309,1091.71 191.309,1091.71 193.5,1092.5 Z"/></g>
<g><path style="opacity:1" fill="#a3a3a3" d="M 217.5,1133.5 C 218.391,1134.26 219.058,1135.26 219.5,1136.5C 219.062,1137.51 218.396,1137.51 217.5,1136.5C 216.479,1137 216.312,1137.67 217,1138.5C 218.145,1138.62 219.312,1138.95 220.5,1139.5C 220.66,1141.2 220.494,1142.87 220,1144.5C 213.763,1142.35 210.763,1138.01 211,1131.5C 212.897,1133.9 215.064,1134.57 217.5,1133.5 Z"/></g>
<g><path style="opacity:1" fill="#8b8b8b" d="M 1152.5,1240.5 C 1154.32,1244.51 1156.82,1248.18 1160,1251.5C 1162.43,1263.76 1158.27,1267.1 1147.5,1261.5C 1144.82,1257.5 1141.82,1253.83 1138.5,1250.5C 1138.84,1249.66 1139.51,1249.33 1140.5,1249.5C 1142.08,1252.05 1144.08,1254.05 1146.5,1255.5C 1147.35,1252.8 1146.02,1250.63 1142.5,1249C 1143.06,1248.62 1143.39,1248.12 1143.5,1247.5C 1145.84,1249 1147.67,1251 1149,1253.5C 1149.69,1252.97 1150.19,1252.31 1150.5,1251.5C 1149.29,1249.06 1147.62,1247.06 1145.5,1245.5C 1147.71,1243.65 1150.04,1241.99 1152.5,1240.5 Z"/></g>
<g><path style="opacity:1" fill="#121212" d="M 1145.5,1245.5 C 1147.62,1247.06 1149.29,1249.06 1150.5,1251.5C 1150.19,1252.31 1149.69,1252.97 1149,1253.5C 1147.67,1251 1145.84,1249 1143.5,1247.5C 1143.83,1246.5 1144.5,1245.83 1145.5,1245.5 Z"/></g>
<g><path style="opacity:1" fill="#4f4f4f" d="M 1152.5,1245.5 C 1153.32,1247.14 1154.65,1248.31 1156.5,1249C 1155.03,1249.64 1153.7,1250.47 1152.5,1251.5C 1152.76,1249.87 1151.76,1248.7 1149.5,1248C 1150.94,1247.62 1151.94,1246.79 1152.5,1245.5 Z"/></g>
<g><path style="opacity:1" fill="#505050" d="M 1143.5,1247.5 C 1143.39,1248.12 1143.06,1248.62 1142.5,1249C 1146.02,1250.63 1147.35,1252.8 1146.5,1255.5C 1144.08,1254.05 1142.08,1252.05 1140.5,1249.5C 1140.97,1248.09 1141.97,1247.43 1143.5,1247.5 Z"/></g>
<g><path style="opacity:1" fill="#151515" d="M 1146.5,1255.5 C 1148.65,1255.7 1148.81,1256.7 1147,1258.5C 1145.27,1257.65 1145.1,1256.65 1146.5,1255.5 Z"/></g>
<g><path style="opacity:1" fill="#8c8c8c" d="M 433.5,1302.5 C 436.233,1302.95 438.399,1304.28 440,1306.5C 440.333,1306.17 440.667,1305.83 441,1305.5C 443.943,1307.38 447.11,1308.88 450.5,1310C 451.893,1311.17 452.727,1312.67 453,1314.5C 453.71,1313.03 454.876,1312.36 456.5,1312.5C 456.629,1314.22 456.962,1315.88 457.5,1317.5C 454.453,1318.14 452.287,1317.14 451,1314.5C 450.586,1314.96 450.086,1315.29 449.5,1315.5C 448.416,1314.33 447.583,1313 447,1311.5C 446.026,1313.88 445.359,1313.54 445,1310.5C 444.667,1311.17 444.333,1311.83 444,1312.5C 442.988,1310.14 441.655,1308.8 440,1308.5C 437.61,1309.12 435.444,1309.12 433.5,1308.5C 432.481,1306.54 432.481,1304.54 433.5,1302.5 Z"/></g>
<g><path style="opacity:1" fill="#979797" d="M 473.5,1323.5 C 471.514,1324.76 469.681,1324.43 468,1322.5C 467.722,1323.42 467.222,1324.08 466.5,1324.5C 466.306,1322.09 464.973,1321.09 462.5,1321.5C 462.918,1320.78 463.584,1320.28 464.5,1320C 462.5,1319.67 460.5,1319.33 458.5,1319C 457.944,1318.62 457.611,1318.12 457.5,1317.5C 458.315,1316.57 459.148,1315.57 460,1314.5C 462.28,1316.04 464.78,1317.2 467.5,1318C 468.46,1319.42 469.293,1320.92 470,1322.5C 470.249,1321.38 470.749,1320.38 471.5,1319.5C 474.159,1320.1 474.826,1321.44 473.5,1323.5 Z"/></g>
<g><path style="opacity:1" fill="#dcdcdc" d="M 462.5,1321.5 C 464.973,1321.09 466.306,1322.09 466.5,1324.5C 466.53,1325.5 466.03,1326.16 465,1326.5C 462.786,1326.15 461.286,1324.99 460.5,1323C 460.836,1321.97 461.503,1321.47 462.5,1321.5 Z"/></g>
<g><path style="opacity:1" fill="#7f7f7f" d="M 485.5,1328.5 C 484.167,1327.83 482.833,1327.17 481.5,1326.5C 484.091,1323.71 485.425,1324.37 485.5,1328.5 Z"/></g>
<g><path style="opacity:1" fill="#979797" d="M 508.5,1338.5 C 501.425,1334.63 494.092,1331.3 486.5,1328.5C 486.47,1327.5 486.97,1326.84 488,1326.5C 489.964,1327.85 492.131,1328.69 494.5,1329C 495.833,1329.67 495.833,1330.33 494.5,1331C 496.035,1331.5 497.535,1331.33 499,1330.5C 500.927,1331.86 503.094,1332.69 505.5,1333C 507.16,1334.49 508.16,1336.32 508.5,1338.5 Z"/></g>
<g><path style="opacity:1" fill="#828282" d="M 991.5,1328.5 C 992.141,1329.48 992.807,1330.48 993.5,1331.5C 992.087,1334.66 990.42,1337.66 988.5,1340.5C 984.642,1342.07 981.642,1341.07 979.5,1337.5C 978.314,1336.29 978.314,1334.96 979.5,1333.5C 983.203,1331.32 987.203,1329.65 991.5,1328.5 Z"/></g>
<g><path style="opacity:1" fill="#050505" d="M 979.5,1337.5 C 980.359,1334.55 982.359,1332.71 985.5,1332C 987.579,1331.19 989.579,1331.36 991.5,1332.5C 990.397,1335.72 988.563,1338.39 986,1340.5C 983.721,1339.61 981.554,1338.61 979.5,1337.5 Z"/></g>
<g><path style="opacity:1" fill="#7d7d7d" d="M 972.5,1335.5 C 975.114,1337.59 975.114,1339.76 972.5,1342C 968.857,1342.83 967.19,1341.33 967.5,1337.5C 968.93,1336.46 970.597,1335.8 972.5,1335.5 Z"/></g>
<g><path style="opacity:1" fill="#030303" d="M 969.5,1337.5 C 974.467,1337.58 974.8,1338.92 970.5,1341.5C 969.571,1340.31 969.238,1338.98 969.5,1337.5 Z"/></g>
<g><path style="opacity:1" fill="#9b9b9b" d="M 531.5,1342.5 C 530.417,1342.54 529.417,1342.87 528.5,1343.5C 523.974,1342.41 519.641,1341.07 515.5,1339.5C 515.62,1338.41 516.287,1337.75 517.5,1337.5C 520.62,1337.81 523.12,1339.14 525,1341.5C 526.398,1340.95 527.732,1340.62 529,1340.5C 529.995,1341.07 530.828,1341.73 531.5,1342.5 Z"/></g>
<g><path style="opacity:1" fill="#7c7c7c" d="M 557.5,1346.5 C 554.318,1346.05 551.651,1344.72 549.5,1342.5C 549.833,1338.64 551.499,1337.8 554.5,1340C 553.549,1340.72 553.383,1341.55 554,1342.5C 555.133,1340.79 556.633,1340.29 558.5,1341C 559.341,1343 559.008,1344.83 557.5,1346.5 Z"/></g>
<g><path style="opacity:1" fill="#484848" d="M 557.5,1347.5 C 557.557,1348.61 557.89,1349.61 558.5,1350.5C 556.448,1349.95 556.115,1348.95 557.5,1347.5 Z"/></g>
<g><path style="opacity:1" fill="#939393" d="M 782.5,1373.5 C 786.298,1372.52 790.298,1372.18 794.5,1372.5C 792.354,1374.08 792.188,1376.08 794,1378.5C 795.88,1377.07 797.38,1377.4 798.5,1379.5C 797.487,1381.53 796.487,1383.53 795.5,1385.5C 794.25,1385.42 793.417,1384.76 793,1383.5C 792.667,1384.17 792.333,1384.83 792,1385.5C 791.722,1384.58 791.222,1383.92 790.5,1383.5C 790.261,1385.47 790.594,1387.3 791.5,1389C 790.833,1389.67 790.167,1389.67 789.5,1389C 786.491,1384.19 785.491,1384.35 786.5,1389.5C 785.325,1389.28 784.325,1389.61 783.5,1390.5C 784.641,1391.43 784.641,1392.26 783.5,1393C 784.167,1393.33 784.833,1393.67 785.5,1394C 784.235,1395.34 783.735,1396.84 784,1398.5C 784.915,1397.67 785.581,1396.67 786,1395.5C 786.483,1396.45 786.649,1397.45 786.5,1398.5C 784.825,1400 782.992,1401.34 781,1402.5C 780.242,1400.23 780.409,1398.06 781.5,1396C 779.837,1395.74 778.337,1396.24 777,1397.5C 776.94,1394.35 778.44,1392.02 781.5,1390.5C 781.376,1389.89 781.043,1389.56 780.5,1389.5C 781.091,1388.85 781.757,1388.18 782.5,1387.5C 780.712,1386.72 779.712,1385.38 779.5,1383.5C 781.674,1383.92 783.674,1383.92 785.5,1383.5C 784.885,1381.88 783.885,1380.55 782.5,1379.5C 784.259,1378.25 785.759,1378.58 787,1380.5C 788.713,1375.8 787.213,1373.47 782.5,1373.5 Z"/></g>
<g><path style="opacity:1" fill="#030303" d="M 790.5,1383.5 C 789.419,1380.37 788.753,1377.04 788.5,1373.5C 789.5,1373.5 790.5,1373.5 791.5,1373.5C 791.747,1376.94 791.414,1380.27 790.5,1383.5 Z"/></g>
<g><path style="opacity:1" fill="#616161" d="M 779.5,1383.5 C 779.712,1385.38 780.712,1386.72 782.5,1387.5C 781.757,1388.18 781.091,1388.85 780.5,1389.5C 779.067,1388.17 777.733,1386.67 776.5,1385C 777.244,1383.96 778.244,1383.46 779.5,1383.5 Z"/></g>
<g><path style="opacity:1" fill="#9a9a9a" d="M 796.5,1385.5 C 798.75,1385.18 800.75,1385.68 802.5,1387C 800.112,1388.86 797.446,1390.19 794.5,1391C 798.033,1392.97 799.366,1395.81 798.5,1399.5C 796.247,1398.75 794.413,1397.41 793,1395.5C 792.617,1396.06 792.117,1396.39 791.5,1396.5C 788.689,1393.75 789.023,1392.59 792.5,1393C 791.833,1392.33 791.167,1391.67 790.5,1391C 791.849,1390.23 792.682,1389.06 793,1387.5C 793.333,1388.17 793.667,1388.83 794,1389.5C 794.48,1387.87 795.313,1386.53 796.5,1385.5 Z"/></g>
<g><path style="opacity:1" fill="#d7d7d7" d="M 790.5,1383.5 C 791.222,1383.92 791.722,1384.58 792,1385.5C 792.333,1384.83 792.667,1384.17 793,1383.5C 793.417,1384.76 794.25,1385.42 795.5,1385.5C 795.833,1385.5 796.167,1385.5 796.5,1385.5C 795.313,1386.53 794.48,1387.87 794,1389.5C 793.667,1388.83 793.333,1388.17 793,1387.5C 792.682,1389.06 791.849,1390.23 790.5,1391C 791.167,1391.67 791.833,1392.33 792.5,1393C 789.023,1392.59 788.689,1393.75 791.5,1396.5C 787.107,1396.46 786.774,1396.96 790.5,1398C 789.207,1398.49 787.873,1398.66 786.5,1398.5C 786.649,1397.45 786.483,1396.45 786,1395.5C 785.581,1396.67 784.915,1397.67 784,1398.5C 783.735,1396.84 784.235,1395.34 785.5,1394C 784.833,1393.67 784.167,1393.33 783.5,1393C 784.641,1392.26 784.641,1391.43 783.5,1390.5C 784.325,1389.61 785.325,1389.28 786.5,1389.5C 785.491,1384.35 786.491,1384.19 789.5,1389C 790.167,1389.67 790.833,1389.67 791.5,1389C 790.594,1387.3 790.261,1385.47 790.5,1383.5 Z"/></g>
<g><path style="opacity:1" fill="#818181" d="M 791.5,1396.5 C 791.405,1399.27 790.071,1401.27 787.5,1402.5C 786.571,1401.31 786.238,1399.98 786.5,1398.5C 787.873,1398.66 789.207,1398.49 790.5,1398C 786.774,1396.96 787.107,1396.46 791.5,1396.5 Z"/></g>
</svg>
