<?xml version="1.0" encoding="UTF-8" standalone="no"?>
<!DOCTYPE svg PUBLIC "-//W3C//DTD SVG 1.1//EN" "http://www.w3.org/Graphics/SVG/1.1/DTD/svg11.dtd">
<!-- Created with Vectornator (http://vectornator.io/) -->
<svg height="100%" stroke-miterlimit="10" style="fill-rule:nonzero;clip-rule:evenodd;stroke-linecap:round;stroke-linejoin:round;" version="1.1" viewBox="460.451 -22.9186 1872.42 2261.31" width="100%" xml:space="preserve" xmlns="http://www.w3.org/2000/svg" xmlns:vectornator="http://vectornator.io" xmlns:xlink="http://www.w3.org/1999/xlink">
<defs/>
<g id="Layer-2" vectornator:layerName="Layer 2">
<path d="M938.452 282.041C937.14 280.668 936.311 279.902 935.342 277.847C934.33 275.699 938.622 281.282 940.262 282.999C943.435 286.321 946.939 289.053 950.123 292.387C959.664 302.378 969.205 312.37 978.747 322.361C1002.72 347.464 1021.02 376.948 1044.71 401.748" fill="none" opacity="1" stroke="#ffffff" stroke-linecap="round" stroke-linejoin="round" stroke-width="10" vectornator:layerName="Curve 25"/>
<path d="M703.355 267.463C713.799 285.816 720.041 299.002 735.688 315.386C754.494 335.079 783.599 364.442 812.374 366.622C833.273 368.205 852.005 350.267 865.728 337.162C898.636 305.737 931.494 274 963.207 241.388C990.208 213.62 1020.15 188.133 1046.17 159.478C1056.37 148.245 1069.53 139.881 1064.41 123.255C1057.33 100.262 1035.26 80.1199 1020.47 62.2396C995.275 31.7817 965.131-6.51284 925.655-17.3538C910.456-21.5279 897.182-1.44206 887.099 6.0339C852.488 31.6959 819.45 69.0868 790.556 100.914C760.202 134.35 723.683 162.607 696.697 198.604C689.361 208.39 673.881 228.918 679.204 242.173C685.434 257.687 706.823 272.032 718.093 283.834" fill="none" opacity="1" stroke="#ffffff" stroke-linecap="round" stroke-linejoin="round" stroke-width="10" vectornator:layerName="Curve 26"/>
<g fill="#ffffff" opacity="1" stroke="none" vectornator:layerName="Text 1">
<path d="M704.486 227.153C705.604 225.999 706.313 224.947 706.614 223.995C707.086 222.5 706.667 221.118 705.357 219.849C704.038 218.572 702.631 218.247 701.135 218.875C700.293 219.231 699.296 220.005 698.142 221.195L693.419 226.072L699.67 232.127L704.486 227.153ZM714.692 235.254C716.316 233.578 716.988 231.913 716.709 230.258C716.53 229.215 716.005 228.272 715.135 227.43C713.67 226.01 712.037 225.698 710.238 226.493C709.28 226.914 708.246 227.697 707.137 228.842L701.881 234.269L708.984 241.148L714.692 235.254ZM688.544 226.542L696.94 217.874C699.228 215.511 701.561 214.513 703.939 214.881C705.34 215.102 706.585 215.74 707.675 216.796C708.948 218.029 709.642 219.402 709.756 220.915C709.823 221.708 709.694 222.629 709.368 223.68C710.764 223.027 711.958 222.683 712.949 222.649C714.706 222.594 716.359 223.316 717.907 224.815C719.207 226.075 719.99 227.622 720.253 229.458C720.649 232.202 719.56 234.902 716.988 237.558L708.725 246.089L688.544 226.542Z"/>
<path d="M725.12 207.279C726.362 205.997 727.088 204.734 727.298 203.491C727.508 202.248 726.944 200.979 725.607 199.684C724.169 198.291 722.684 197.864 721.15 198.403C720.334 198.695 719.474 199.308 718.569 200.243L712.103 206.919L718.999 213.599L725.12 207.279ZM707.105 207.378L716.153 198.036C717.644 196.497 719.097 195.446 720.512 194.883C723.21 193.821 725.717 194.412 728.034 196.656C729.243 197.827 729.99 199.034 730.276 200.279C730.562 201.523 730.504 202.82 730.102 204.17C731.185 203.693 732.181 203.508 733.089 203.615C733.996 203.722 735.059 204.321 736.275 205.41L739.075 207.936C739.871 208.653 740.505 209.144 740.979 209.406C741.779 209.863 742.475 209.969 743.067 209.725L743.52 210.164L740.273 213.516C740.011 213.439 739.715 213.295 739.387 213.084C739.059 212.873 738.484 212.404 737.661 211.678L734.135 208.583C732.754 207.369 731.396 207.003 730.06 207.485C729.307 207.767 728.389 208.467 727.307 209.584L721.28 215.808L729.935 224.19L727.287 226.924L707.105 207.378Z"/>
<path d="M748.409 188.567L736.526 182.995L742.288 194.886L748.409 188.567ZM732.147 181.523L735.141 178.432L762.414 190.656L759.514 193.651L751.486 189.843L743.756 197.825L747.685 205.864L744.97 208.666L732.147 181.523Z"/>
<path d="M745.24 168.005L747.915 165.243L768.096 184.79L765.421 187.551L745.24 168.005Z"/>
<path d="M752.213 160.806L755.339 157.577L781.561 163.218L765.212 147.384L767.727 144.787L787.908 164.334L784.941 167.397L758.587 161.921L774.922 177.742L772.394 180.352L752.213 160.806Z"/>
<path d="M782.02 152.187L788.7 145.291L791.241 147.752L784.562 154.649L782.02 152.187Z"/>
<path d="M806.317 140.654C807.213 139.729 807.853 138.876 808.237 138.094C808.909 136.686 809.065 135.15 808.705 133.488C808.413 132.158 807.746 130.758 806.703 129.287C806.076 128.413 805.438 127.661 804.787 127.031C802.287 124.61 799.864 123.226 797.519 122.88C795.173 122.534 792.932 123.465 790.794 125.672L786.097 130.522L801.593 145.531L806.317 140.654ZM781.086 130.994L789.003 122.82C791.691 120.045 794.76 118.846 798.211 119.224C801.309 119.58 804.246 121.102 807.021 123.79C809.164 125.866 810.711 128.145 811.662 130.627C813.346 135.01 812.511 138.932 809.158 142.394L801.268 150.541L781.086 130.994Z"/>
<path d="M818.98 110.371C820.222 109.089 820.948 107.826 821.158 106.583C821.368 105.34 820.804 104.071 819.467 102.776C818.029 101.383 816.544 100.956 815.01 101.494C814.194 101.787 813.334 102.4 812.429 103.334L805.963 110.011L812.859 116.691L818.98 110.371ZM800.965 110.47L810.013 101.128C811.504 99.5891 812.957 98.5379 814.372 97.9743C817.07 96.9123 819.577 97.5034 821.894 99.7477C823.103 100.919 823.85 102.126 824.136 103.37C824.422 104.615 824.364 105.912 823.962 107.262C825.045 106.785 826.041 106.6 826.949 106.707C827.856 106.814 828.919 107.413 830.135 108.502L832.935 111.027C833.731 111.745 834.365 112.235 834.839 112.498C835.639 112.954 836.335 113.06 836.927 112.817L837.38 113.256L834.133 116.608C833.871 116.531 833.575 116.387 833.247 116.176C832.919 115.964 832.344 115.496 831.521 114.769L827.995 111.674C826.614 110.461 825.256 110.095 823.92 110.576C823.167 110.859 822.249 111.559 821.167 112.676L815.14 118.899L823.795 127.282L821.147 130.016L800.965 110.47Z"/>
<path d="M842.269 91.6585L830.386 86.0865L836.148 97.978L842.269 91.6585ZM826.007 84.6146L829.001 81.5235L856.274 93.7476L853.374 96.7425L845.346 92.9348L837.616 100.917L841.545 108.956L838.83 111.758L826.007 84.6146Z"/>
<path d="M839.1 71.0964L841.775 68.335L861.956 87.8814L859.281 90.6428L839.1 71.0964Z"/>
<path d="M846.073 63.8976L849.199 60.6692L875.421 66.3096L859.072 50.4755L861.587 47.879L881.768 67.4254L878.801 70.489L852.447 65.013L868.782 80.8338L866.254 83.444L846.073 63.8976Z"/>
<path d="M866.351 42.9608L869.025 40.1995L889.206 59.7459L886.532 62.5072L866.351 42.9608Z"/>
<path d="M873.323 35.7621L876.45 32.5336L902.671 38.174L886.323 22.34L888.838 19.7435L909.019 39.2899L906.052 42.3535L879.698 36.8775L896.032 52.6982L893.504 55.3085L873.323 35.7621Z"/>
<path d="M900.93 6.21419C902.766 4.31834 904.72 3.03375 906.792 2.36044C909.788 1.3748 912.822 1.93497 915.895 4.04093L913.273 6.74733C911.48 5.64887 909.745 5.29111 908.069 5.67406C906.394 6.057 904.793 7.03612 903.267 8.61142C901.458 10.4798 900.635 12.7314 900.799 15.3662C900.963 18.0011 902.432 20.6624 905.207 23.3502C907.607 25.6743 910.07 27.0393 912.597 27.4453C915.123 27.8513 917.54 26.8636 919.846 24.4824C921.611 22.6598 922.544 20.6386 922.644 18.4188C922.744 16.1991 921.625 13.9311 919.289 11.615L913.168 17.9346L910.901 15.7391L919.484 6.87803L930.282 17.3365L928.579 19.095L925.344 17.2396C925.464 19.1492 925.376 20.652 925.077 21.7478C924.593 23.604 923.455 25.4571 921.663 27.3072C919.348 29.6976 916.583 31.0042 913.367 31.2269C909.607 31.2239 906.033 29.5813 902.644 26.2991C899.264 23.0259 897.463 19.5065 897.241 15.7409C897.021 12.1557 898.251 8.98012 900.93 6.21419Z"/>
<path d="M720.966 257.812L723.614 255.078L741.391 272.296L751.291 262.075L753.695 264.403L741.147 277.358L720.966 257.812Z"/>
<path d="M758.065 243.342L746.182 237.77L751.944 249.662L758.065 243.342ZM741.803 236.298L744.797 233.207L772.07 245.431L769.17 248.426L761.142 244.618L753.411 252.6L757.341 260.639L754.626 263.442L741.803 236.298Z"/>
<path d="M770.174 224.078C771.291 222.924 772 221.871 772.301 220.919C772.773 219.424 772.354 218.042 771.044 216.774C769.725 215.496 768.318 215.171 766.822 215.8C765.98 216.156 764.983 216.929 763.83 218.12L759.106 222.997L765.357 229.051L770.174 224.078ZM780.38 232.179C782.003 230.503 782.675 228.837 782.396 227.183C782.217 226.139 781.693 225.197 780.823 224.354C779.357 222.935 777.725 222.622 775.925 223.418C774.967 223.839 773.933 224.622 772.825 225.767L767.569 231.193L774.671 238.072L780.38 232.179ZM754.231 223.467L762.627 214.798C764.916 212.435 767.249 211.438 769.626 211.805C771.027 212.026 772.273 212.665 773.362 213.72C774.636 214.953 775.329 216.326 775.444 217.839C775.51 218.632 775.381 219.554 775.055 220.605C776.451 219.951 777.645 219.608 778.636 219.574C780.394 219.519 782.046 220.241 783.594 221.74C784.895 222.999 785.677 224.547 785.941 226.382C786.336 229.126 785.248 231.826 782.675 234.482L774.412 243.013L754.231 223.467Z"/>
<path d="M770.956 206.198L774.043 203.011L789.358 206.607L785.274 191.416L788.374 188.215L793.037 207.509L801.17 215.386L798.522 218.12L790.39 210.243L770.956 206.198Z"/>
<path d="M808.983 185.438C810.225 184.155 810.951 182.893 811.161 181.649C811.371 180.406 810.807 179.137 809.47 177.842C808.032 176.449 806.547 176.022 805.013 176.561C804.197 176.853 803.337 177.467 802.432 178.401L795.966 185.077L802.862 191.757L808.983 185.438ZM790.969 185.536L800.017 176.194C801.507 174.655 802.96 173.604 804.376 173.041C807.073 171.979 809.58 172.57 811.897 174.814C813.106 175.985 813.853 177.193 814.139 178.437C814.425 179.681 814.367 180.978 813.965 182.328C815.048 181.851 816.044 181.666 816.952 181.773C817.86 181.88 818.922 182.479 820.139 183.569L822.938 186.094C823.734 186.811 824.369 187.302 824.842 187.565C825.642 188.021 826.338 188.127 826.93 187.883L827.383 188.322L824.136 191.674C823.874 191.597 823.578 191.453 823.25 191.242C822.922 191.031 822.347 190.562 821.524 189.836L817.998 186.741C816.617 185.527 815.259 185.161 813.923 185.643C813.17 185.925 812.252 186.625 811.17 187.742L805.143 193.966L813.798 202.349L811.15 205.082L790.969 185.536Z"/>
<path d="M810.927 164.929L813.602 162.168L833.783 181.714L831.109 184.475L810.927 164.929Z"/>
<path d="M817.9 157.73L821.027 154.502L847.248 160.142L830.9 144.308L833.414 141.712L853.596 161.258L850.628 164.322L824.275 158.846L840.609 174.666L838.081 177.277L817.9 157.73Z"/>
<path d="M851.803 122.726L854.207 125.054L847.621 131.854L865.398 149.072L862.71 151.847L844.933 134.63L838.347 141.43L835.943 139.101L851.803 122.726Z"/>
<path d="M854.291 120.157L856.966 117.395L865.305 125.472L875.471 114.976L867.132 106.899L869.806 104.138L889.987 123.684L887.313 126.446L877.875 117.305L867.709 127.8L877.147 136.942L874.473 139.703L854.291 120.157Z"/>
</g>
<path d="M817.324 1981.06C840.887 1964.5 867.164 1952.16 891.561 1936.86C913.198 1923.29 933.587 1906.76 954.541 1892.03" fill="none" opacity="1" stroke="#ffffff" stroke-linecap="round" stroke-linejoin="round" stroke-width="10" vectornator:layerName="Curve 27"/>
<path d="M798.757 1945.73C805.56 1943.69 811.913 1945.48 819.085 1942.26C851.996 1927.46 880.285 1901.53 909.694 1880.86" fill="none" opacity="1" stroke="#ffffff" stroke-linecap="round" stroke-linejoin="round" stroke-width="10" vectornator:layerName="Curve 28"/>
<path d="M721.764 2193.35C750.58 2198.38 781.59 2173.72 806.092 2160.27C834.509 2144.68 872.43 2134.24 887.897 2103.35C900.22 2078.75 876.462 2051.15 862.553 2034.08C821.455 1983.66 776.952 1936.05 734.899 1886.44C716.552 1864.8 664.764 1787.58 629.449 1801.18C607.303 1809.71 588.052 1824.25 568.054 1836.92C533.674 1858.72 478.194 1879.52 466.426 1923.14C460.142 1946.43 485.882 1975.16 496.96 1993.32C505.064 2006.6 512.955 2020.01 521.068 2033.29C555.307 2089.34 600.253 2136.22 641.368 2186.67C651.506 2199.1 670.596 2230.21 688.379 2233.32C693.799 2234.26 702.677 2226.14 707.399 2223.93C729.767 2213.46 748.667 2197.34 771.08 2186.58" fill="none" opacity="1" stroke="#ffffff" stroke-linecap="round" stroke-linejoin="round" stroke-width="10" vectornator:layerName="Curve 29"/>
<g fill="#ffffff" opacity="1" stroke="none" vectornator:layerName="Text 2">
<path d="M683.553 2219.73L705.126 2193.72L673.392 2206.38L669.788 2201.64L690.444 2174.43L659.628 2188.29L655.991 2183.51L694.631 2167.47L698.118 2172.05L677.076 2199.8L709.464 2186.95L712.951 2191.53L687.157 2224.46L683.553 2219.73Z"/>
<path d="M652.837 2179.37L649.484 2174.96L662.789 2164.84L650.043 2148.09L636.737 2158.22L633.384 2153.81L665.584 2129.3L668.938 2133.71L653.879 2145.17L666.625 2161.92L681.684 2150.46L685.038 2154.86L652.837 2179.37Z"/>
<path d="M630.147 2149.56L626.276 2144.47L634.711 2123.44L612.195 2125.97L608.307 2120.87L636.791 2118.4L649.768 2108.52L653.088 2112.88L640.111 2122.76L630.147 2149.56Z"/>
<path d="M735.179 2180.43L756.752 2154.42L725.018 2167.08L721.415 2162.35L742.07 2135.13L711.254 2149L707.617 2144.22L746.258 2128.17L749.745 2132.75L728.702 2160.5L761.09 2147.66L764.577 2152.24L738.783 2185.17L735.179 2180.43Z"/>
<path d="M693.093 2126.96C688.766 2121.27 687.389 2115.67 688.963 2110.16C690.188 2105.86 693.022 2102.01 697.465 2098.63C702.273 2094.97 707.198 2093.15 712.241 2093.17C718.162 2093.18 723.142 2095.84 727.179 2101.15C730.95 2106.1 732.277 2111.24 731.162 2116.57C729.93 2121.5 726.902 2125.8 722.08 2129.47C717.725 2132.79 713.175 2134.54 708.431 2134.74C702.343 2134.99 697.23 2132.39 693.093 2126.96ZM722.877 2103.59C719.952 2099.75 716.458 2098.02 712.397 2098.4C708.335 2098.78 704.514 2100.33 700.934 2103.05C697.149 2105.93 694.856 2109.24 694.054 2112.98C693.252 2116.72 694.158 2120.3 696.772 2123.74C699.308 2127.07 702.52 2128.92 706.409 2129.28C710.298 2129.65 714.471 2128.13 718.928 2124.74C722.494 2122.03 724.813 2118.83 725.888 2115.17C726.962 2111.5 725.958 2107.64 722.877 2103.59Z"/>
<path d="M674.365 2100.53L694.269 2085.38C696.607 2083.6 698.217 2081.69 699.099 2079.63C700.447 2076.55 699.948 2073.47 697.601 2070.38C694.787 2066.69 691.609 2065.14 688.069 2065.73C686.15 2066.06 684.029 2067.11 681.706 2068.88L661.802 2084.03L658.432 2079.6L676.516 2065.83C680.477 2062.82 683.929 2061.03 686.875 2060.48C692.253 2059.48 697.01 2061.69 701.148 2067.13C705.286 2072.57 706.15 2077.74 703.743 2082.64C702.421 2085.33 699.78 2088.18 695.82 2091.2L677.736 2104.96L674.365 2100.53Z"/>
<path d="M653.293 2072.85L649.973 2068.48L678.338 2046.9L665.925 2030.59L669.761 2027.67L685.494 2048.34L653.293 2072.85Z"/>
<path d="M653.355 2013.84C652.231 2012.37 651.155 2011.27 650.125 2010.56C648.265 2009.29 646.112 2008.74 643.667 2008.89C641.71 2009.02 639.571 2009.67 637.251 2010.83C635.871 2011.54 634.662 2012.28 633.625 2013.07C629.635 2016.11 627.141 2019.26 626.141 2022.53C625.141 2025.79 625.981 2029.19 628.662 2032.71L634.552 2040.45L659.278 2021.63L653.355 2013.84ZM634.14 2047.68L624.213 2034.64C620.843 2030.21 619.8 2025.58 621.084 2020.75C622.262 2016.41 625.065 2012.56 629.493 2009.19C632.912 2006.59 636.492 2004.88 640.233 2004.06C646.838 2002.61 652.243 2004.65 656.447 2010.17L666.341 2023.17L634.14 2047.68Z"/>
<path d="M794.849 2112.27L784.343 2127.99L802.523 2122.35L794.849 2112.27ZM781.3 2133.9L777.546 2128.97L800.854 2092.78L804.491 2097.56L797.332 2108.16L807.026 2120.9L819.323 2117.04L822.727 2121.52L781.3 2133.9Z"/>
<path d="M765.633 2113.32L761.713 2108.17L775.418 2072.05L749.333 2091.9L746.18 2087.76L778.38 2063.25L782.101 2068.14L768.601 2104.48L794.664 2084.65L797.834 2088.81L765.633 2113.32Z"/>
<path d="M742.859 2083.4L738.989 2078.31L747.424 2057.28L724.907 2059.81L721.02 2054.7L749.504 2052.24L762.48 2042.36L765.801 2046.72L752.824 2056.6L742.859 2083.4Z"/>
<path d="M706.712 2037.73C702.386 2032.04 701.009 2026.44 702.582 2020.93C703.808 2016.63 706.642 2012.79 711.085 2009.4C715.893 2005.74 720.818 2003.92 725.861 2003.94C731.782 2003.96 736.762 2006.62 740.799 2011.92C744.57 2016.87 745.897 2022.01 744.782 2027.34C743.55 2032.27 740.522 2036.57 735.7 2040.24C731.345 2043.56 726.795 2045.31 722.051 2045.51C715.963 2045.76 710.85 2043.16 706.712 2037.73ZM736.497 2014.36C733.572 2010.52 730.078 2008.79 726.017 2009.17C721.955 2009.55 718.134 2011.1 714.554 2013.83C710.769 2016.71 708.476 2020.02 707.674 2023.75C706.872 2027.49 707.778 2031.08 710.392 2034.51C712.928 2037.84 716.14 2039.69 720.029 2040.05C723.918 2040.42 728.091 2038.9 732.548 2035.51C736.113 2032.8 738.433 2029.61 739.507 2025.94C740.582 2022.27 739.578 2018.41 736.497 2014.36Z"/>
<path d="M691.589 2016.04L687.668 2010.89L701.374 1974.77L675.289 1994.62L672.135 1990.48L704.336 1965.97L708.057 1970.86L694.557 2007.2L720.62 1987.36L723.79 1991.53L691.589 2016.04Z"/>
<path d="M666.596 1983.2L648.728 1959.72L652.673 1956.72L667.305 1975.95L677.082 1968.5L663.551 1950.73L667.277 1947.89L680.808 1965.67L691.724 1957.36L676.842 1937.81L680.678 1934.89L698.797 1958.69L666.596 1983.2Z"/>
<path d="M623.202 1927.92C620.9 1924.89 619.493 1921.83 618.983 1918.73C618.228 1914.26 619.682 1910.06 623.345 1906.14L626.632 1910.45C624.68 1912.77 623.795 1915.16 623.978 1917.63C624.161 1920.1 625.209 1922.59 627.122 1925.11C629.391 1928.09 632.419 1929.75 636.206 1930.08C639.994 1930.42 644.102 1928.9 648.529 1925.53C652.358 1922.62 654.835 1919.41 655.96 1915.9C657.084 1912.39 656.201 1908.73 653.309 1904.93C651.096 1902.02 648.419 1900.26 645.28 1899.64C642.14 1899.01 638.669 1900.12 634.865 1902.94L642.54 1913.03L638.923 1915.78L628.162 1901.64L645.391 1888.53L647.527 1891.33L644.185 1895.54C646.93 1895.78 649.051 1896.23 650.547 1896.89C653.085 1897.98 655.478 1900 657.725 1902.96C660.628 1906.77 661.89 1910.99 661.511 1915.62C660.694 1920.97 657.581 1925.71 652.174 1929.82C646.782 1933.93 641.38 1935.73 635.97 1935.23C630.817 1934.77 626.561 1932.33 623.202 1927.92Z"/>
<path d="M596.597 1893.05C592.27 1887.37 590.894 1881.77 592.467 1876.26C593.693 1871.95 596.527 1868.11 600.969 1864.73C605.777 1861.07 610.703 1859.25 615.746 1859.27C621.667 1859.28 626.646 1861.94 630.684 1867.25C634.455 1872.2 635.782 1877.34 634.667 1882.67C633.434 1887.6 630.407 1891.9 625.584 1895.57C621.23 1898.88 616.68 1900.64 611.936 1900.83C605.848 1901.08 600.735 1898.49 596.597 1893.05ZM626.382 1869.69C623.457 1865.85 619.963 1864.12 615.902 1864.5C611.84 1864.88 608.019 1866.43 604.439 1869.15C600.654 1872.03 598.361 1875.34 597.559 1879.08C596.757 1882.82 597.663 1886.4 600.277 1889.84C602.813 1893.17 606.025 1895.02 609.914 1895.38C613.803 1895.74 617.975 1894.23 622.433 1890.84C625.998 1888.12 628.318 1884.93 629.392 1881.26C630.466 1877.6 629.463 1873.74 626.382 1869.69Z"/>
<path d="M839.299 2102.98L835.946 2098.58L868.147 2074.07L871.5 2078.47L839.299 2102.98Z"/>
<path d="M830.557 2091.5L826.636 2086.34L840.342 2050.23L814.257 2070.08L811.103 2065.94L843.304 2041.43L847.025 2046.32L833.525 2082.66L859.588 2062.82L862.758 2066.99L830.557 2091.5Z"/>
<path d="M827.9 2030.65L824.58 2026.29L829.139 2022.82L832.459 2027.18L827.9 2030.65ZM815.964 2051.4C812.808 2053.8 809.59 2054.84 806.312 2054.52C803.033 2054.2 800.209 2052.49 797.84 2049.37C795.649 2046.5 794.716 2043.57 795.042 2040.58C795.368 2037.6 796.81 2035.13 799.367 2033.19C800.916 2032.01 802.415 2031.37 803.863 2031.27C805.311 2031.17 807.705 2031.38 811.044 2031.88C813.471 2032.25 815.314 2032.28 816.573 2031.98C817.833 2031.68 819.383 2030.83 821.225 2029.43L824.194 2033.33C822.105 2034.92 820.231 2035.96 818.575 2036.43C816.918 2036.91 814.624 2036.93 811.694 2036.51L808.627 2036.08C807.73 2035.93 806.889 2035.9 806.103 2035.99C804.708 2036.13 803.5 2036.59 802.477 2037.36C801.044 2038.45 800.128 2039.83 799.726 2041.48C799.325 2043.14 799.875 2044.95 801.376 2046.93C803.234 2049.37 805.425 2050.36 807.948 2049.92C809.357 2049.68 811.039 2048.87 812.995 2047.5L815.964 2051.4Z"/>
<path d="M760.217 1999.08L768.507 1986.37L754.01 1990.93L750.573 1986.41L766.465 1974.31L768.684 1977.23L755.861 1986.99L772.038 1981.64L773.973 1984.18L764.52 1998.37L777.343 1988.61L779.562 1991.52L763.67 2003.62L760.217 1999.08ZM778.686 2017.84L776.033 2019.86L765.722 2006.31L768.375 2004.29L772.329 2009.49L785.569 1999.41L787.971 2002.57L774.731 2012.65L778.686 2017.84Z"/>
</g>
<g fill="#ffffff" opacity="1" stroke="none" vectornator:layerName="Text 3">
<path d="M776.766 299.467L790.903 285.6L793.233 287.976L781.658 299.331L787.432 305.217L798.137 294.717L800.338 296.961L789.633 307.461L796.081 314.034L807.855 302.485L810.121 304.795L795.786 318.856L776.766 299.467Z"/>
<path d="M794.546 282.026L797.647 278.984L822.849 285.083L807.441 269.376L809.936 266.929L828.956 286.319L826.012 289.206L800.679 283.262L816.073 298.956L813.566 301.416L794.546 282.026Z"/>
<path d="M828.177 249.036L830.443 251.346L823.909 257.755L840.663 274.834L837.997 277.45L821.243 260.37L814.709 266.779L812.444 264.469L828.177 249.036Z"/>
<path d="M830.83 246.433L844.966 232.567L847.297 234.942L835.721 246.297L841.496 252.184L852.2 241.684L854.401 243.928L843.697 254.428L850.145 261.001L861.918 249.452L864.184 251.762L849.85 265.823L830.83 246.433Z"/>
<path d="M866.338 229.033C867.57 227.824 868.303 226.622 868.537 225.426C868.77 224.23 868.257 222.989 866.997 221.704C865.642 220.323 864.217 219.873 862.721 220.356C861.926 220.618 861.079 221.19 860.182 222.07L853.767 228.363L860.266 234.989L866.338 229.033ZM848.926 228.682L857.902 219.878C859.38 218.428 860.81 217.448 862.192 216.938C864.825 215.979 867.233 216.612 869.417 218.838C870.557 220 871.249 221.185 871.494 222.395C871.74 223.604 871.652 224.857 871.23 226.151C872.288 225.717 873.255 225.563 874.13 225.689C875.005 225.815 876.017 226.42 877.165 227.503L879.809 230.012C880.56 230.726 881.161 231.215 881.612 231.481C882.374 231.942 883.044 232.061 883.622 231.84L884.049 232.276L880.828 235.435C880.576 235.354 880.295 235.208 879.983 234.995C879.671 234.783 879.126 234.316 878.349 233.594L875.018 230.515C873.714 229.309 872.41 228.921 871.107 229.353C870.373 229.608 869.469 230.261 868.395 231.315L862.416 237.18L870.573 245.495L867.946 248.072L848.926 228.682Z"/>
<path d="M895.341 205.608L883.994 199.929L889.269 211.564L895.341 205.608ZM879.799 198.398L882.769 195.485L908.824 207.973L905.946 210.796L898.283 206.917L890.614 214.44L894.212 222.306L891.52 224.947L879.799 198.398Z"/>
<path d="M904.31 174.354L906.576 176.664L900.042 183.073L916.796 200.153L914.13 202.768L897.376 185.689L890.842 192.098L888.576 189.788L904.31 174.354Z"/>
<path d="M921.598 156.36C925.021 153.002 928.634 151.616 932.437 152.202C935.405 152.658 938.201 154.223 940.825 156.898C943.665 159.793 945.291 162.921 945.703 166.28C946.188 170.225 944.834 173.764 941.639 176.897C938.656 179.823 935.345 181.138 931.704 180.841C928.317 180.434 925.2 178.778 922.351 175.875C919.779 173.252 918.229 170.37 917.701 167.227C917.025 163.193 918.324 159.571 921.598 156.36ZM939.651 174.237C941.966 171.967 942.826 169.495 942.233 166.822C941.64 164.149 940.286 161.735 938.171 159.579C935.936 157.3 933.54 156.05 930.984 155.829C928.428 155.609 926.116 156.513 924.048 158.541C922.041 160.509 921.08 162.803 921.164 165.423C921.248 168.043 922.606 170.695 925.238 173.379C927.345 175.526 929.664 176.804 932.197 177.211C934.729 177.619 937.214 176.628 939.651 174.237Z"/>
<path d="M936.054 143.215L955.182 155.402L944.092 135.33L946.943 132.534L966.798 144.008L954.981 124.649L957.859 121.826L971.784 146.213L969.025 148.919L948.781 137.232L960.05 157.724L957.291 160.43L933.203 146.012L936.054 143.215Z"/>
<path d="M960.287 119.444L963.389 116.401L988.591 122.501L973.183 106.794L975.678 104.347L994.698 123.736L991.754 126.624L966.421 120.679L981.815 136.373L979.307 138.833L960.287 119.444Z"/>
<path d="M824.738 330.839C825.97 329.631 826.703 328.428 826.937 327.232C827.171 326.036 826.657 324.795 825.397 323.511C824.042 322.129 822.617 321.68 821.122 322.162C820.326 322.425 819.479 322.996 818.582 323.876L812.167 330.169L818.667 336.795L824.738 330.839ZM807.326 330.488L816.302 321.684C817.78 320.234 819.21 319.254 820.592 318.744C823.225 317.785 825.634 318.418 827.817 320.644C828.957 321.806 829.649 322.991 829.895 324.201C830.14 325.411 830.052 326.663 829.63 327.957C830.689 327.523 831.655 327.369 832.53 327.495C833.405 327.621 834.417 328.226 835.566 329.309L838.209 331.819C838.96 332.532 839.561 333.021 840.012 333.287C840.775 333.748 841.445 333.868 842.022 333.646L842.449 334.082L839.229 337.241C838.977 337.16 838.695 337.014 838.383 336.802C838.071 336.589 837.527 336.122 836.749 335.4L833.419 332.322C832.114 331.115 830.81 330.728 829.507 331.16C828.773 331.414 827.869 332.068 826.795 333.121L820.816 338.986L828.973 347.301L826.346 349.878L807.326 330.488Z"/>
<path d="M827.125 311.067L829.778 308.465L848.798 327.854L846.145 330.457L827.125 311.067Z"/>
<path d="M848.64 315.733C849.781 316.772 850.916 317.411 852.047 317.648C854.179 318.078 856.344 317.214 858.544 315.056C859.53 314.09 860.289 313.069 860.822 311.993C861.854 309.911 861.679 308.166 860.298 306.758C859.262 305.702 858.194 305.273 857.094 305.472C855.993 305.688 854.571 306.332 852.826 307.405L849.616 309.388C847.521 310.684 845.888 311.448 844.718 311.681C842.692 312.08 840.889 311.474 839.309 309.864C837.6 308.122 836.8 306.1 836.909 303.8C837.019 301.5 838.178 299.267 840.386 297.1C842.419 295.106 844.627 293.903 847.011 293.49C849.394 293.077 851.643 293.949 853.758 296.105L851.29 298.526C850.139 297.617 849.077 297.097 848.102 296.965C846.308 296.739 844.452 297.567 842.534 299.448C840.985 300.967 840.192 302.385 840.153 303.701C840.114 305.017 840.518 306.106 841.364 306.968C842.296 307.918 843.374 308.225 844.597 307.888C845.393 307.66 846.913 306.86 849.157 305.487L852.485 303.44C854.089 302.453 855.503 301.87 856.725 301.69C858.846 301.388 860.752 302.099 862.444 303.824C864.55 305.971 865.275 308.272 864.62 310.728C863.964 313.185 862.602 315.427 860.535 317.455C858.124 319.82 855.632 321.056 853.059 321.162C850.496 321.277 848.2 320.274 846.172 318.154L848.64 315.733Z"/>
<path d="M852.072 286.596L854.632 284.084L863.903 293.535L864.083 274.814L867.713 271.253L867.313 286.978L886.957 290.423L883.538 293.776L867.212 290.704L867.023 296.716L873.652 303.474L871.092 305.986L852.072 286.596Z"/>
</g>
<path d="M867.429 23.8137C881.593-2.73951 919.55-18.4156 949.23-8.41814C956.735-5.89028 960.39 1.0916 967.133 4.68849C971.762 7.15823 978.668 6.72787 982.667 10.0119C988.133 14.4991 984.52 30.076 986.418 36.3145" fill="none" opacity="1" stroke="#ffffff" stroke-linecap="round" stroke-linejoin="round" stroke-width="10" vectornator:layerName="Curve 30"/>
<path d="M995.001 39.1147C991.076 46.4717 989.206 19.3299 989.312 15.3345C989.394 12.2045 977.21 7.47032 974.331 6.75027C946.919-0.105544 925.325-1.54576 896.994 2.83618C886.958 4.38842 871.506 3.94732 865.799 14.6462" fill="none" opacity="1" stroke="#ffffff" stroke-linecap="round" stroke-linejoin="round" stroke-width="10" vectornator:layerName="Curve 31"/>
<path d="M597.368 1165.53C597.368 684.631 984.754 294.787 1462.62 294.787C1940.48 294.787 2327.87 684.631 2327.87 1165.53C2327.87 1646.42 1940.48 2036.27 1462.62 2036.27C984.754 2036.27 597.368 1646.42 597.368 1165.53Z" fill="#ffffff" fill-opacity="0" fill-rule="nonzero" opacity="1" stroke="#ffffff" stroke-linecap="butt" stroke-linejoin="round" stroke-width="10" vectornator:layerName="Oval 1"/>
<path d="M944.066 476.237C944.219 477.806 944.67 479.182 945.463 480.512C947.279 483.559 949.003 486.661 950.889 489.665C953.387 493.642 956.71 497.247 959.586 500.949C970.18 514.587 979.359 529.871 988.59 544.568C991.736 549.579 994.741 554.363 997.873 559.35C999.085 561.28 1001.39 563.906 998.609 565.65" fill="none" opacity="1" stroke="#ffffff" stroke-linecap="round" stroke-linejoin="round" stroke-width="10" vectornator:layerName="Curve 32"/>
<path d="M993.124 542.025C996.637 544.011 999.383 549.688 1001.14 553.162C1006.6 563.958 1009.7 575.857 1014.97 586.739C1018.38 593.776 1024.01 599.719 1027.43 606.77C1030.05 612.186 1033.57 617.206 1036.06 622.659C1037.46 625.739 1039.54 629.613 1041.93 632.141C1046.25 636.703 1049.52 642.646 1053.06 647.899C1054.88 650.607 1057.46 653.472 1058.8 656.431C1062.8 665.203 1066.34 673.999 1070.34 682.768C1071.33 684.949 1073.37 686.653 1074.41 688.811C1080.91 702.23 1091.74 713.871 1086.13 730.006C1084.55 734.571 1082.71 738.72 1077.86 740.743C1075.18 741.861 1072.45 741.547 1070.15 743.87C1068.25 745.788 1067.32 748.761 1065.43 750.668C1062.65 753.474 1057.96 753.986 1055.23 757.016C1051.07 761.639 1046.24 765.138 1040.91 768.733C1038.59 770.292 1035.39 771.789 1033.44 773.761C1029.54 777.695 1025.51 781.405 1021.61 785.348C1018.4 788.586 1016.15 792.887 1012.74 795.969C1008.53 799.775 1003.09 804.385 999.965 809.224C994.395 817.852 988.856 826.794 982.85 835.219C976.34 844.351 969.279 853.045 962.767 862.179C956.428 871.072 950.429 880.113 945.065 889.604C943.54 892.302 941.926 895.158 940.349 897.947C940.249 898.123 938.386 901.937 938.347 901.879C938.121 901.544 938.501 901.086 938.579 900.689" fill="none" opacity="1" stroke="#ffffff" stroke-linecap="round" stroke-linejoin="round" stroke-width="10" vectornator:layerName="Curve 33"/>
<path d="M953.685 884.298C952.795 889.506 949.935 893.315 949.313 898.755C948.849 902.812 948.946 908.315 947.778 912.177C944.339 923.547 937.067 935.069 933.464 946.98C929.765 959.209 928.634 972.124 925.915 984.46C924.999 988.613 922.404 992.853 921.489 997.007C919.642 1005.39 918.413 1014.39 917.437 1022.92C916.806 1028.44 918.698 1033.79 918.848 1039.13C919.023 1045.38 918.849 1052.92 918.455 1059.21C917.767 1070.18 918.36 1080.81 917.456 1091.72C917.105 1095.97 916.052 1096.33 916.742 1100.34C919.904 1118.77 927.993 1136.59 931.663 1155.35C940.211 1199.05 952.95 1243.18 972.517 1283.21C974.383 1287.03 974.449 1291.49 975.73 1295.54C978.345 1303.81 982.63 1312.09 985.975 1320.1C988.644 1326.5 990.359 1333.77 993.221 1339.97C1008.19 1372.35 1029.85 1400.77 1048.34 1431.11C1051.08 1435.62 1052.58 1440.81 1055.42 1445.25C1069.63 1467.5 1083.55 1489.46 1099.31 1510.91C1103.5 1516.62 1107.39 1523.64 1112.23 1528.71C1125.65 1542.73 1139.37 1556.23 1153.51 1569.59C1160.23 1575.95 1166.75 1583.52 1174.13 1589.08C1193.38 1603.62 1213.7 1617 1234.51 1629.44C1239.84 1632.63 1245.64 1634.39 1250.98 1637.57C1264.21 1645.49 1277.83 1651.01 1291.67 1657.46C1295.93 1659.44 1299.84 1662.23 1304.27 1663.79C1338.64 1675.92 1374.36 1681.48 1410.06 1687.58C1430.54 1691.09 1450.74 1695.61 1471.49 1697.33C1474.72 1697.6 1477.84 1699.06 1481.09 1698.97C1489.24 1698.74 1497.76 1698.5 1505.92 1698.27C1510.64 1698.14 1515.59 1700.44 1520.32 1700.74C1535.06 1701.66 1549.67 1704.31 1564.4 1705.23C1589.85 1706.83 1615.77 1705.7 1640.84 1705C1660.92 1704.44 1680.08 1704.08 1699.94 1699.52C1702.75 1698.88 1705.8 1699.31 1708.5 1698.33C1710.25 1697.69 1711.49 1696.06 1713.2 1695.33C1719.05 1692.79 1726.19 1693.16 1732.19 1690.97C1748.65 1684.97 1765.33 1679.8 1781.36 1672.39C1786.46 1670.03 1792.34 1669.38 1797.46 1667.16C1813 1660.43 1827.64 1649.72 1843.63 1643.89C1852.34 1640.71 1859.67 1635.4 1868.13 1631.73C1869.62 1631.09 1871.48 1631.47 1872.88 1630.65C1874.43 1629.73 1875.18 1627.84 1876.59 1626.72C1879.88 1624.1 1884.6 1623.28 1887.89 1620.67C1906.03 1606.26 1924.52 1588.72 1938.06 1569.57C1951.72 1550.25 1959.85 1528.42 1970.72 1507.5C1982.57 1484.69 1994.8 1461.28 2002.19 1436.85C2005.65 1425.41 2012.45 1413.79 2017.48 1402.98C2021 1395.41 2023.01 1386.8 2025.41 1378.87C2029.04 1366.86 2034.16 1355.28 2036.83 1343.19C2038.65 1334.93 2044.44 1326 2047.59 1318.04C2049.71 1312.7 2052.52 1305.35 2053.76 1299.71C2054.25 1297.51 2053.7 1295.1 2054.53 1293C2063.96 1269.17 2071.81 1245.25 2081.2 1221.54C2090 1199.3 2099.97 1178.36 2105.13 1154.93C2107.18 1145.61 2111.86 1136.5 2112.95 1127C2113.66 1120.74 2111.69 1114.17 2112.41 1107.9C2115.67 1079.37 2113.69 1051.44 2112.89 1022.84C2112.76 1018.07 2107.85 1013.43 2107.72 1008.65C2107.61 1004.83 2107.5 1001.01 2107.39 997.195C2107.32 994.396 2104.76 991.453 2104.29 988.681C2103.51 984.165 2105.02 983.37 2106.91 980.007C2110.07 974.403 2111.29 965.625 2111.12 959.822C2111.03 956.454 2106.39 952.119 2105.07 948.524C2100.71 936.552 2095.02 926.26 2090.74 914.525C2083.7 895.22 2077.97 875.981 2070.97 856.787C2068.51 850.048 2066.81 839.907 2062.69 834.085C2057.85 827.25 2053.22 820.491 2048.73 813.453C2045.36 808.184 2043.97 801.742 2040.61 796.48C2039.4 794.583 2037 793.678 2035.7 791.84C2029.53 783.119 2030.49 769.346 2024.31 760.625C2021.59 756.776 2018.88 753.343 2016.35 749.381C2015.14 747.483 2012.74 746.578 2011.44 744.74C2003 732.807 1994.06 721.104 1985.6 709.152C1976.93 696.899 1960.9 689.851 1952.22 677.598C1949.8 674.17 1948.58 669.7 1946.17 666.3C1943.37 662.336 1938.18 660.056 1935.38 656.091C1932.06 651.413 1930.95 646.436 1925.45 642.991C1921.87 640.747 1916.86 640.92 1912.96 640.475C1907.79 639.884 1902.74 637.675 1897.58 637.084C1892.24 636.474 1886.43 636.237 1881.26 634.675C1869.51 631.121 1858.94 625.841 1847.44 621.289C1836.52 616.966 1822.97 613.375 1811.87 613.686C1808.05 613.793 1804.12 610.081 1800.31 610.188C1788.06 610.532 1774.25 607.096 1762 607.44C1753.54 607.677 1744.47 605.065 1736.14 605.298C1734.13 605.355 1732.37 603.493 1730.36 603.549C1716.06 603.95 1702.16 604.34 1688.35 604.728C1686.33 604.784 1684.56 603.207 1682.56 602.978C1676.34 602.266 1670.33 602.366 1664.4 602.532C1659.3 602.675 1653.92 599.004 1649.01 599.141C1641.98 599.339 1634.23 596.689 1626.97 596.893C1617.43 597.16 1606.42 599.38 1596.47 599.659C1593.53 599.742 1589.8 597.935 1586.86 598.017C1569.79 598.496 1552.17 599.946 1534.37 600.445C1532.36 600.502 1530.61 598.64 1528.59 598.696C1518.54 598.978 1509.22 599.744 1498.97 598.571C1492.88 597.875 1486.64 599.873 1480.85 600.035C1473.92 600.229 1466.64 600.434 1459.84 600.624C1456.09 600.729 1452.03 597.555 1448.28 597.126C1442.22 596.433 1436.87 599.357 1431.14 599.518C1427.87 599.609 1425.17 599.173 1421.6 599.786C1416.71 600.623 1412.29 604.124 1407.41 604.961C1403.15 605.692 1398.03 605.224 1394.04 605.336C1391.17 605.417 1388.23 602.632 1385.36 602.713C1378.44 602.907 1371.15 603.111 1364.36 603.302C1356.43 603.524 1348.1 597.172 1342.1 593.414C1338.25 591.002 1333.46 589.563 1329.5 587.079C1326.62 585.274 1322.82 585.529 1319.85 583.527C1313.29 579.117 1306.12 575.858 1299.45 571.676C1294.52 568.587 1289.94 562.689 1285.7 558.683C1283.37 556.474 1279.59 553.981 1277.85 551.259C1271.35 541.088 1262.6 518.737 1262.27 506.782C1262.06 499.224 1262.93 489.861 1261.57 481.956C1260.1 473.36 1259.32 463.789 1262.73 455.167C1265.09 449.204 1278.63 434.498 1284.02 430.68C1287.84 427.979 1292.26 426.689 1296.3 425.558C1302.31 423.877 1307.95 419.447 1314.26 418.365C1319.29 417.501 1324.38 416.739 1329.48 416.027C1335.76 415.15 1341.21 411.62 1347.49 410.744C1358.97 409.141 1370.41 407.908 1381.76 405.96C1395.17 403.658 1408.5 406.701 1421.86 404.836C1428.14 403.959 1434.52 405.405 1440.96 404.3C1448.99 402.922 1457.49 401.925 1465.73 401.694C1470.37 401.564 1475.63 403.01 1480.08 402.247C1498.32 399.118 1516.74 401.219 1535.46 400.694C1544.62 400.437 1554.33 399.209 1563.13 398.963C1568.38 398.815 1574.19 401.519 1579.44 401.372C1595.9 400.91 1613.57 405.193 1630.18 404.727C1632.98 404.648 1636.06 407.031 1638.85 407.351C1643.37 407.866 1647.76 408.369 1652.28 408.885C1658.18 409.561 1663.72 413.457 1669.62 414.132C1677.1 414.987 1684.25 417.436 1691.72 418.291C1694.51 418.61 1697.59 420.993 1700.39 420.914C1708.63 420.683 1716.44 423.021 1725.33 424.037C1741.35 425.87 1757.83 429.45 1773.39 434.157C1785.09 437.696 1799.29 440.458 1810.05 446.507C1819.02 451.552 1828.95 455.279 1838.14 460.053C1848.93 465.656 1858.73 472.389 1869.23 478.293C1873.25 480.555 1877.94 481.776 1881.83 484.629C1900.66 498.442 1921.83 509.759 1942.1 521.163C1944.07 522.267 1945.1 524.607 1947.01 525.803C1958.49 532.996 1968.19 542.104 1978.32 551.682C1981.93 555.096 1985.87 560.167 1990.1 562.819C2002.28 570.459 2011.45 582.539 2023.37 590.554C2032.55 596.735 2043.65 605.634 2050.8 614.63C2059.43 625.487 2067 636.55 2075.61 647.381C2077.25 649.449 2078.04 652.803 2079.64 654.912C2090.32 669.008 2099.32 683.378 2108.59 699.014C2110.44 702.144 2114.1 706.158 2115.57 709.33C2120.71 720.467 2124.67 732.525 2128.97 744.311C2130.43 748.311 2133.5 752.306 2134.09 756.59C2135.25 764.882 2137.19 773.025 2138.61 781.309C2139.33 785.499 2142.69 790.383 2142.8 794.57C2143 801.48 2147.01 808.402 2147.21 815.47C2147.41 822.701 2149.58 830.801 2151.67 838.279C2158.96 864.295 2166.51 889.593 2171.06 916.095C2171.7 919.823 2170.74 923.825 2171.38 927.553C2173.44 939.583 2174.13 951.562 2176.22 963.73C2177.92 973.674 2175.68 984.287 2177.07 994.285C2178.93 1007.58 2180.77 1023.77 2179.23 1037.23C2178.38 1044.67 2178.69 1051.92 2178.89 1059.21C2178.96 1061.47 2177.74 1063.71 2178.13 1065.93C2180.4 1079.16 2178.87 1092.6 2179.25 1106.03C2179.79 1125.34 2181.52 1145.11 2179.93 1164.3C2179.3 1171.87 2181.2 1179.65 2180.57 1187.22C2177.63 1222.78 2176.17 1259.03 2172.11 1294.48C2170.75 1306.37 2167.41 1318.08 2166.42 1330C2165.57 1340.22 2164.74 1351.63 2162.53 1361.64C2158.67 1379.14 2153.54 1397.03 2149.68 1414.56C2147.96 1422.34 2143.7 1430.35 2140.77 1437.75C2137.76 1445.35 2136.85 1454.75 2132.85 1461.86C2124.19 1477.26 2116.2 1492.97 2106.42 1507.51C2101.09 1515.43 2094.01 1521.82 2088.89 1529.98C2086.31 1534.1 2081.26 1536.67 2078.68 1540.78C2057.42 1574.7 2025 1603.46 1997.17 1632.89C1974.44 1656.94 1954.1 1686.41 1927.57 1706.52C1922.96 1710 1920.1 1715.79 1915.5 1719.28C1912.67 1721.42 1909.07 1722.92 1906.11 1725.27C1903.8 1727.11 1902.12 1730.54 1899.62 1732.15C1884.6 1741.74 1871.35 1754.33 1854.59 1762.08C1841.81 1767.98 1827.89 1772.48 1814.91 1778.48C1801.85 1784.52 1787.57 1790.95 1773.33 1794.93C1759.45 1798.82 1743.83 1799.45 1729.57 1801.9C1720.32 1803.48 1710.45 1808.16 1701.08 1808.43C1683.1 1808.93 1664.88 1814.12 1646.84 1816.64C1640.98 1817.46 1635.29 1816.96 1629.65 1817.12C1626.71 1817.2 1623.1 1819.21 1620.16 1819.3C1609.29 1819.6 1598.32 1819.91 1587.69 1820.21C1575.39 1820.55 1562.07 1823.36 1549.61 1825.1C1541.38 1826.25 1530.71 1826.74 1522.87 1825.85C1520.63 1825.59 1518.46 1826.93 1516.21 1826.99C1509.6 1827.18 1501.82 1827.39 1495.21 1827.58C1492.27 1827.66 1488.65 1829.67 1485.71 1829.76C1470.48 1830.18 1455.68 1832.35 1439.88 1831.04C1429.96 1830.22 1420.05 1828.23 1410.15 1827.1C1405.66 1826.59 1401.2 1824.03 1396.67 1823.65C1372.9 1821.69 1349.98 1814.55 1326.51 1809.38C1305.85 1804.82 1283.26 1803.85 1263.99 1794.88C1255.86 1791.1 1247.91 1786.93 1239.77 1783.14C1233.83 1780.37 1226.97 1778.55 1221.39 1775.06C1205.2 1764.91 1187.65 1755.57 1171.81 1744.91C1161.26 1737.81 1151.25 1729.53 1140.61 1722.85C1137.24 1720.74 1135.08 1716.72 1131.77 1714.5C1114.4 1702.81 1099.17 1687.39 1083.78 1672.84C1064.34 1654.46 1045.19 1635.96 1028.65 1615.14C1025.89 1611.67 1021.39 1609.47 1018.83 1605.86C1015.42 1601.03 1011.6 1596.45 1007.93 1591.83C1005.48 1588.75 1001.38 1586.7 999.094 1583.48C992.743 1574.51 985.876 1566.03 979.248 1557.28C976.328 1553.43 974.695 1547.42 972.162 1543.14C964.599 1530.39 958.675 1517.79 952.922 1504.5C948.788 1494.96 942.887 1485.79 938.751 1476.23C932.102 1460.88 926.933 1444.47 920.225 1428.97C908.231 1401.27 898.95 1372.07 890.097 1342.86C885.928 1329.1 880.68 1315.83 876.533 1302.15C874.749 1296.26 875.233 1289.77 873.159 1284.09C871.915 1280.68 870.43 1277.27 870 1273.66C869.419 1268.79 870.724 1270.36 868.804 1265.1C862.323 1247.33 859.337 1227.8 856.721 1209.06C854.673 1194.39 851.513 1179.99 849.76 1165.29C848.583 1155.42 850.159 1145.45 849.885 1135.67C848.869 1099.45 852.486 1063.35 855.453 1027.53C856.981 1009.08 863.361 991.661 865.411 973.734C866.445 964.697 871.552 955.816 872.3 946.784C872.458 944.88 871.689 942.911 872.14 941.055C872.812 938.287 875.132 936.09 875.745 933.309C881.018 909.386 881.785 883.28 890.897 860.258C900.31 836.473 916.612 814.542 929.126 792.294C936.542 779.11 947 767.773 954.844 755.26C959.874 747.237 967.76 740.986 972.371 732.789C978.701 721.536 995.233 713.544 999.178 700.503C1003.73 685.457 991.7 665.639 983.543 654.117C979.217 648.006 977.783 639.562 973.405 633.378C972.241 631.734 972.498 629.346 971.335 627.702C967.56 622.371 963.484 620.278 957.753 620.439C944.517 620.81 934.737 647.675 929.143 656.598C924.563 663.903 922.762 672.762 918.327 679.836C912.756 688.724 906.078 696.935 900.908 706.126C897.723 711.788 895.348 717.988 891.842 723.581C886.805 731.614 880.338 738.939 875.297 746.979C874.228 748.685 874.535 751.007 873.548 752.762C870.646 757.921 867.383 763.053 864.428 768.307C862.997 770.852 863.354 774.51 861.805 776.981C846.282 801.741 838.495 830.45 823.897 856.403C820.197 862.981 817.642 870.197 813.956 876.75C812.968 878.505 813.276 880.826 812.207 882.533C806.21 892.098 797.955 900.278 791.95 909.857C790.88 911.564 791.188 913.885 790.201 915.64C784.855 925.143 780.198 939.497 777.797 950.39C773.038 971.982 770.749 995.379 768.213 1017.55C767.206 1026.36 768.057 1035.56 767.053 1044.34C766.726 1047.2 768.168 1050.02 768.249 1052.91C768.507 1062.1 768.795 1072.36 769.052 1081.55C769.647 1102.75 769.157 1125.3 772.783 1146.43C776.106 1165.8 773.03 1186.21 776.353 1205.58C778.397 1217.49 779.144 1229.83 781.19 1241.75C782.043 1246.72 780.765 1252.06 781.618 1257.03C784.06 1271.26 785.595 1285.52 787.598 1299.86C788.533 1306.56 792.809 1315.31 792.988 1321.69C793.016 1322.7 791.943 1323.59 792.113 1324.58C792.354 1325.99 793.812 1326.96 794.13 1328.35C795.462 1334.16 796.49 1340.5 797.503 1346.41C798.303 1351.07 802.547 1355.9 802.679 1360.6C802.827 1365.86 804.113 1371.58 805.999 1376.75C806.635 1378.5 808.497 1379.66 808.998 1381.45C810.245 1385.9 811.232 1390.47 813.192 1394.71C818.241 1405.63 822.369 1417.17 825.614 1428.76C827.468 1435.38 831.7 1441.86 832.86 1448.62C834.18 1456.31 837.918 1463.72 839.232 1471.38C843.379 1495.55 851.931 1519.19 862.22 1541.45C867.85 1553.63 869.753 1571.53 870.109 1584.23C870.211 1587.84 868.821 1586.52 867.379 1589.09C865.582 1592.28 869.136 1605.43 862.024 1602.61C857.568 1600.85 856.091 1597.64 852.262 1595.24C840.352 1587.78 832.603 1576.64 824.669 1565.44C823.268 1563.46 823.081 1560.77 821.617 1558.83C813.221 1547.75 809.295 1535.76 803.412 1523.03C798.532 1512.47 795.639 1501.5 791.044 1490.89C789.734 1487.86 787.531 1484.8 786.956 1481.45C784.166 1465.18 779.488 1448.76 775.087 1433.04C773.414 1427.07 773.7 1420.17 772.642 1414C772.045 1410.52 770.08 1407.06 769.483 1403.58C769.052 1401.07 769.956 1398.39 769.269 1395.94C761.14 1366.91 756.578 1336.36 751.474 1306.61C748.634 1290.06 743.387 1273.86 740.533 1257.23C739.655 1252.11 737.01 1247.25 736.285 1242.06C734.385 1228.44 732.676 1214.63 730.359 1201.13C729.763 1197.65 727.797 1194.19 727.2 1190.71C725.415 1180.3 725.234 1169.67 723.452 1159.28C721.311 1146.8 717.982 1134.6 717.634 1122.17C717.3 1110.26 713.685 1098.27 714.706 1085.94C717.379 1053.67 723.643 1022.06 727.306 990.03C727.808 985.644 731.222 981.947 731.732 977.483C734.262 955.358 745.518 933.992 751.9 912.892C757.885 893.103 758.54 872.157 764.535 852.335C771.776 828.394 782.34 806.975 795.179 786.494C798.941 780.494 800.117 773.186 804.192 767.13C810.23 758.155 818.223 750.205 823.521 740.786C825.234 737.741 829.088 735.897 830.946 732.933C841.332 716.366 852.829 701.102 861.09 683.352C865.222 674.474 872.482 662.206 873.601 652.422C874.149 647.628 874.641 642.724 876.064 638.019C876.947 635.098 881.614 626.535 879.508 624.544C872.526 617.943 855.789 635.268 851.238 638.715C840.102 647.151 832.051 661.062 820.558 669.199C811.45 675.647 804.12 684.619 796.374 692.812C794.407 694.893 791.369 697.306 789.878 699.683C777.247 719.832 765.049 741.151 753.398 761.865C750.339 767.302 749.524 774.38 747.223 780.194C742.553 791.993 738.48 803.714 735.8 815.872C733.632 825.709 730.2 835.9 728.037 845.713C726.897 850.885 725.877 847.951 725.36 852.478C724.097 863.518 721.769 874.783 718.631 885.157C716.837 891.09 718.36 888.432 717.918 893.777C716.985 905.038 714.631 918.376 712.224 929.294C711.309 933.447 708.714 937.688 707.798 941.841C703.825 959.868 699.015 978.463 695.002 996.669C690.601 1016.64 687.713 1038.35 683.348 1058.15C679.876 1073.91 673.189 1089.92 671.319 1106.27C669.626 1121.08 664.703 1135.59 663.002 1150.46C662.406 1155.68 662.539 1159.02 661.467 1163.88C660.689 1167.42 662.088 1171.73 661.789 1175.34C661.207 1182.37 661.047 1189.41 660.468 1196.4C659.256 1211.04 658.445 1226.51 658.862 1241.36C659.228 1254.43 662.459 1267.41 662.824 1280.43C663.303 1297.51 664.232 1315.79 667.162 1332.87C668.92 1343.12 672.005 1353.1 673.748 1363.26C674.836 1369.6 675.301 1375.91 676.193 1382.3C676.705 1385.97 679.243 1388.82 679.352 1392.73C679.38 1393.73 678.325 1394.62 678.478 1395.62C680.683 1409.98 687.228 1423.43 691.114 1437.31C696.022 1454.84 702.262 1472.19 709.747 1488.39C712.353 1494.03 713.012 1500.86 715.03 1506.4C716.418 1510.2 719.953 1513.67 721.081 1517.7C729.684 1548.42 744.448 1577.76 762.667 1603.49C769.677 1613.39 783.922 1623.59 793.097 1632.26C799.974 1638.76 806.858 1647.41 814.693 1652.68C821.087 1656.98 828.742 1659.87 835.093 1664.53C841.041 1668.89 846.633 1673.16 852.655 1677.41C855.892 1679.7 860.003 1679.68 863.292 1681.89C865.565 1683.42 867.563 1685.47 870.11 1686.48C877.265 1689.31 886.975 1688.87 894.062 1688.68C900.551 1688.49 909.05 1682.93 913.873 1679.52C921.611 1674.04 933.108 1672.26 936.307 1661.69C938.339 1654.97 939.957 1638.01 946.034 1633.7C949.605 1631.18 953.582 1636.45 956.671 1638.18C963.52 1642.04 978.79 1654.55 983.121 1661.33C992.318 1675.73 997.291 1694.09 987.352 1709.95C980.731 1720.51 970.94 1729.27 962.347 1738.36C958.47 1742.46 940.86 1755.89 941.002 1760.94C941.103 1764.55 942.417 1763.16 944 1765.63C945.859 1768.54 946 1772.13 948.087 1775.08C952.353 1781.1 957.037 1786.65 961.009 1792.87C965.31 1799.6 975.253 1806.49 981.57 1810.45C989.452 1815.39 999.843 1820.97 1009.61 1822.09C1014.35 1822.63 1018.27 1820.21 1021.94 1818.87C1023.14 1818.44 1024.51 1818.98 1025.76 1818.77C1034.65 1817.24 1043.33 1810.02 1049.23 1803.77C1053.1 1799.68 1059.48 1794.91 1062.22 1790.03C1065.52 1784.17 1069.4 1778.51 1074.18 1773.45C1076.33 1771.18 1079.02 1766.63 1082.59 1766.53C1085.75 1766.44 1090.74 1769.45 1093.22 1771.01C1095.51 1772.44 1096.82 1775.14 1099.11 1776.57C1107.45 1781.8 1120.55 1791.21 1120.87 1802.72C1121.21 1814.87 1118.59 1827.41 1117.14 1840.09C1114.84 1860.22 1131.7 1898.31 1148.7 1908.97C1152.29 1911.22 1157.29 1911.83 1161.24 1913.39C1187.21 1923.67 1214.57 1921.4 1241.83 1924.51C1249.53 1925.39 1256.98 1928.94 1264.9 1929.6C1275.68 1930.49 1285.89 1934.51 1296.6 1935.4C1309.04 1936.43 1321.44 1938.09 1333.97 1939.13C1340.71 1939.69 1348.47 1942.54 1355.09 1942.36C1364.03 1942.11 1372.72 1943.78 1381.88 1943.52C1393.28 1943.2 1405.56 1941.9 1417.18 1941.57C1420.06 1941.49 1422.94 1942.63 1425.8 1942.29C1430.75 1941.7 1436.07 1940.09 1441.02 1939.95C1459.36 1939.43 1479.59 1936.96 1498.26 1936.43C1500.27 1936.38 1501.92 1934.42 1503.94 1934.36C1510.58 1934.18 1518.08 1932.05 1524.89 1931.86C1542.93 1931.36 1562.89 1928.63 1581.09 1925.51C1592.11 1923.62 1603.22 1919.79 1614.32 1917.89C1618.81 1917.12 1615.83 1916.26 1620.93 1914.84C1631.56 1911.86 1643.34 1910.99 1654.21 1909.12C1658.16 1908.45 1661.86 1905.83 1665.56 1904.98C1669.13 1904.17 1674.42 1904.97 1677.95 1903.68C1678.8 1903.37 1678.96 1902.03 1679.81 1901.72C1683.43 1900.4 1689.18 1900.34 1693.12 1899.43C1703.2 1897.12 1712.46 1895.24 1722.59 1893.83C1733.81 1892.26 1744.78 1888.43 1755.87 1888.12C1762.96 1887.92 1781.53 1878.75 1788.02 1875.75C1795.68 1872.21 1804.7 1870.31 1812.63 1867.41C1820.44 1864.56 1827.13 1859.61 1834.3 1856.29C1838.81 1854.21 1843.96 1853.54 1848.48 1851.12C1862.13 1843.81 1875.23 1835.2 1887.95 1827.08C1889.64 1825.99 1891.92 1826.09 1893.62 1825.01C1901.3 1820.1 1908.37 1814.03 1916.11 1809.09C1918.51 1807.55 1921.41 1806.82 1923.64 1805.05C1930.91 1799.27 1938.66 1794.42 1946.13 1789.13C1949.68 1786.62 1952.71 1782.6 1956.39 1780.24C1964.39 1775.13 1971.91 1768.93 1979.81 1763.34C1984.74 1759.85 1990.49 1757.44 1995.8 1754.29C1999.31 1752.21 2001.88 1748.85 2005.13 1746.39C2009.85 1742.81 2015.3 1740.26 2020.14 1736.41C2024.82 1732.69 2028.41 1728.2 2033.19 1724.58C2042.65 1717.41 2050.85 1707.87 2059.23 1699C2061.08 1697.04 2063.47 1695.47 2064.8 1693.11C2068.1 1687.25 2071.91 1683.06 2075.83 1677.51C2083.55 1666.59 2089.42 1654.01 2095.87 1642.55C2097.32 1639.98 2097.05 1636.44 2098.49 1633.87C2102.05 1627.55 2105.77 1620.93 2109.42 1614.46C2114.15 1606.05 2114.94 1595.66 2120.12 1587.4C2126.62 1577.04 2135.19 1567.96 2141.26 1557.18C2142.7 1554.61 2142.43 1551.08 2143.88 1548.51C2148.05 1541.1 2150.52 1532.69 2154.69 1525.27C2160.82 1514.39 2173.05 1507.46 2179.7 1496.86C2190.23 1480.06 2203.18 1463.89 2213.66 1447.17C2217.52 1441.01 2221.65 1427.24 2222.46 1420.17C2222.98 1415.64 2224 1418.57 2225.14 1413.4C2228.5 1398.16 2230.65 1381.82 2232.42 1366.37C2233.1 1360.47 2236.99 1354.93 2237.67 1349.02C2238.35 1343.06 2239.23 1335.51 2240.95 1329.82C2241.21 1328.96 2242.55 1328.72 2242.81 1327.86C2245.09 1320.29 2244.11 1311.71 2245 1303.91C2245.48 1299.73 2247.04 1295.6 2247.52 1291.41C2249.96 1270.09 2246.3 1247.96 2245.7 1226.48C2245.11 1205.37 2247.4 1185.05 2246.82 1164.34C2246.63 1157.49 2248.22 1147.39 2249.02 1140.39C2250.81 1124.7 2244.93 1109.55 2246.75 1093.62C2249.97 1065.47 2248 1035.85 2247.23 1008.56C2247.12 1004.46 2249.13 996.675 2249.64 992.25C2249.9 990.013 2248.56 987.843 2248.5 985.593C2248.29 978.207 2250.95 970.937 2250.75 963.551C2250.55 956.619 2249.37 948.669 2249.18 941.616C2248.83 929.102 2250.28 916.089 2248.11 903.422C2245.92 890.713 2240.06 878.243 2234.65 866.531C2231.85 860.478 2231.14 853.563 2228.38 847.595C2221.9 833.575 2216.88 818.512 2208.11 806.117C2207.2 804.832 2206.2 799.298 2205.98 798.532C2204.93 794.766 2202.54 791.67 2200.92 788.162C2199.37 784.816 2199.3 781.085 2197.76 777.739C2186.72 753.872 2177.82 728.699 2161.4 708.044C2159.89 706.146 2159.75 703.42 2158.35 701.441C2154.68 696.255 2149.39 692.56 2145.53 687.466C2143.4 684.648 2141.76 681.019 2139.54 678.078C2137.9 675.925 2135.21 674.715 2133.65 672.51C2126.86 662.917 2119.26 653.796 2111.84 644.453C2109.37 641.345 2105.29 639.338 2103 636.101C2092.9 621.826 2077.66 602.46 2062.59 592.321C2056.88 588.475 2050.8 585.19 2045.09 581.345C2037.91 576.517 2031.85 570.231 2024.58 565.674C2017.46 561.211 2011.02 552.853 2004.95 547.113C1991.2 534.12 1977.46 521.127 1963.72 508.134C1958.45 503.152 1953.05 496.406 1947.03 492.357C1927.98 479.538 1906.23 471.481 1885.01 461.606C1875.52 457.187 1867.44 451.528 1858.77 446.096C1852.49 442.156 1844.68 440.365 1838.43 436.155C1828.53 429.499 1816.78 424.351 1805.48 419.878C1784.37 411.524 1761.9 409.324 1740.07 404.512C1735.88 403.588 1731.94 400.592 1727.52 400.086C1721.25 399.369 1714.45 398.154 1708.32 396.802C1704.75 396.015 1701.25 393.109 1697.68 392.322C1681.22 388.695 1662.63 383.848 1646.62 377.509C1629.66 370.799 1612.2 362.968 1593.59 360.84C1578.15 359.074 1561.68 358.868 1546.72 359.287C1538.66 359.513 1529.73 361.675 1521.95 361.893C1519.94 361.95 1518.29 363.907 1516.28 363.964C1504.62 364.291 1491.74 366.563 1480.04 366.891C1475.89 367.008 1470.89 369.059 1466.73 369.176C1455.27 369.497 1443 370.797 1431.43 371.121C1426.65 371.255 1421.87 369.746 1417.08 370.568C1411.72 371.487 1405.33 372.809 1399.94 372.96C1390.19 373.233 1379.99 373.095 1370.37 374.745C1366.64 375.384 1362.64 374.426 1358.91 375.066C1346.31 377.228 1333.42 377.796 1320.83 379.957C1302.98 383.018 1286.29 390.83 1268.71 395.752C1258.96 398.483 1247.64 401.258 1239.41 407.086C1233.98 410.924 1229.09 416.397 1223.52 419.954C1218.71 423.025 1212.77 427.631 1209.55 432.769C1204.09 441.466 1205.64 450.245 1204.57 459.665C1202.65 476.419 1203.31 500.289 1209.01 515.921C1210 518.63 1209.72 521.646 1210.21 524.488C1211.77 533.615 1214.77 544.531 1218.65 552.919C1227.64 572.368 1239.96 593.55 1253.7 610.228C1257.61 614.972 1262.98 619.201 1266.52 624.202C1288.87 655.779 1327 677.478 1365.57 680.672C1385.29 682.305 1406.35 680.484 1425.75 679.939C1432.17 679.76 1439.06 677.866 1445.78 678.422C1457.13 679.362 1469.52 678.712 1481.14 678.386C1489.44 678.153 1497.56 679.131 1505.96 677.69C1519.36 675.391 1533.63 677.877 1546.99 675.584C1551.18 674.865 1555.53 676.3 1559.43 676.19C1578.07 675.668 1597.28 676.085 1615.8 675.565C1631.78 675.117 1648.47 673.693 1664.47 673.245C1667.93 673.148 1672.44 674.54 1675.98 674.833C1682.07 675.337 1688.13 674.591 1694.15 675.279C1705.5 676.578 1717.25 674.93 1728.58 676.225C1763.16 680.18 1794.93 686.299 1827.65 699.248C1830.4 700.337 1832.95 703.195 1835.45 704.763C1844.28 710.301 1853.21 715.595 1861.74 722.182C1864.94 724.659 1867.21 728.272 1870.57 730.534C1885.28 740.426 1905.21 756 1916.6 770.334C1919.96 774.561 1922.91 779.264 1926.52 783.435C1938.59 797.36 1948.75 812.187 1958.37 828.41C1960.03 831.211 1960.58 835.209 1962.45 837.852C1976.43 857.595 1985.67 882.11 1993.95 904.816C2004.89 934.797 2018 964.425 2025.17 995.678C2036.29 1044.17 2038.05 1095.33 2031.26 1144.58C2030.71 1148.57 2028.55 1152.2 2027.76 1156.15C2024.99 1169.89 2021.48 1183.16 2017.43 1196.57C2004.97 1237.75 1977.98 1272.84 1952.66 1306.37C1943.41 1318.63 1932.14 1329.23 1923.07 1341.6C1918.57 1347.73 1911.93 1352.28 1907.29 1358.29C1898.85 1369.21 1889.94 1380.58 1880.48 1390.58C1872.31 1399.22 1862.59 1407.59 1855.42 1417.08C1842.77 1433.84 1827.31 1448.78 1812.79 1464.15C1799.54 1478.16 1786.7 1493.23 1771.9 1505.43C1769.03 1507.79 1765.42 1509.11 1762.51 1511.42C1756.15 1516.48 1750.2 1522.18 1743.84 1527.24C1740.21 1530.13 1735.32 1531.33 1731.62 1534.27C1723.2 1540.96 1714.41 1545.69 1704.33 1549.37C1697.15 1551.99 1690.83 1556.86 1683.59 1559.51C1653.95 1570.32 1621.82 1577.5 1590.55 1581.23C1587.06 1581.64 1583.53 1580.47 1580.02 1580.57C1571.47 1580.81 1562.97 1580.76 1554.21 1580.34C1532.6 1579.28 1512.97 1576.7 1491.85 1571.57C1470.96 1566.5 1449.24 1563.58 1429.28 1555.17C1413.9 1548.7 1398.37 1541.98 1382.85 1535.45C1377.41 1533.16 1372.45 1529.22 1367.31 1526.33C1347.43 1515.15 1327.85 1502.64 1309.88 1488.76C1306.31 1486.01 1303.62 1482.23 1300.06 1479.48C1277.9 1462.36 1257.82 1443.26 1237.34 1423.9C1217.89 1405.52 1198.71 1387.31 1181.28 1367.18C1171.57 1355.97 1160.48 1345.83 1150.74 1334.59C1109.41 1286.87 1072.49 1232.89 1050.65 1173.04C1029.73 1115.67 1026.01 1051.01 1039.84 991.776C1041.93 982.809 1043.09 973.833 1044.82 964.88C1046 958.722 1049.59 953.279 1051.97 947.479C1056.46 936.565 1059.26 924.753 1063.45 913.711C1065.58 908.093 1069.53 903.347 1072.57 898.165C1077.08 890.483 1079.94 881.712 1084.31 873.946C1092.9 858.68 1104.88 846.411 1115.65 832.932C1122.65 824.172 1129.41 815.038 1137.87 807.463C1177.55 771.932 1231.07 749.102 1283.1 738.409C1299.79 734.979 1316.75 733.438 1333.52 730.306C1354.52 726.384 1376.04 725.46 1397.36 723.738C1409.72 722.739 1422.12 720.176 1434.52 719.829C1440.57 719.659 1446.65 720.763 1452.69 720.275C1458.73 719.787 1464.75 718.693 1470.8 718.811C1568.53 720.722 1674.98 743.88 1752.3 806.477C1757.25 810.484 1762.97 813.473 1767.9 817.507C1795.96 840.487 1824.09 864.625 1848.34 891.699C1855.27 899.441 1860.2 908.168 1865.29 917.025C1867.58 921.005 1870.86 924.347 1873.25 928.269C1879.74 938.92 1883.36 950.703 1887.58 962.268C1889.45 967.38 1892.27 972.146 1893.74 977.385C1895.78 984.674 1896.09 991.928 1897.22 999.267C1898.06 1004.7 1900.1 1009.94 1900.54 1015.42C1903.61 1053.46 1899.44 1092.1 1888.42 1128.52C1878.11 1162.62 1864.97 1197.42 1846.3 1228.13C1827.4 1259.22 1804.8 1285.79 1779.86 1312.17C1771.19 1321.34 1762.74 1332.7 1752.94 1340.64C1739.81 1351.28 1725.3 1360.91 1710.75 1369.54C1694.55 1379.14 1676.32 1389.32 1657.92 1393.95C1603.73 1407.6 1555.2 1405.52 1500.34 1397.42C1494.29 1396.52 1488.09 1396.45 1482.12 1395.06C1476.24 1393.69 1470.66 1391.19 1464.77 1389.81C1453.07 1387.08 1440.69 1385.68 1429.2 1382.21C1403.37 1374.39 1376.98 1364.04 1353.76 1349.92C1345.04 1344.62 1338.08 1337.9 1330.31 1331.47C1319.48 1322.51 1307.01 1313.73 1297.97 1302.75C1283.27 1284.9 1271.61 1264.45 1260.02 1244.57C1220.77 1177.17 1195.23 1094.96 1211.58 1016.58C1220.26 975.028 1241.72 932.064 1268.5 899.36C1274.99 891.431 1282.81 884.228 1289.85 876.782C1299.8 866.255 1309.61 855.652 1321.51 847.226C1359.81 820.108 1403.78 799.835 1449.87 790.113C1458.84 788.219 1462.58 789.17 1471.8 788.542C1520.2 785.245 1568.69 790.399 1613.82 809.405C1637.77 819.495 1662.27 836.843 1681.94 853.363C1717.21 882.989 1746.28 915.623 1768.91 956.04C1780.75 977.169 1788.33 1001.34 1795.67 1024.09C1807.21 1059.9 1807.97 1098.87 1801.67 1135.73C1793.39 1184.13 1768.92 1227.38 1735.47 1262.77C1721.01 1278.07 1706.69 1293.21 1687.87 1303.29C1622.22 1338.45 1536.05 1340.87 1470.06 1305.57C1460.52 1300.47 1450.36 1296.6 1440.98 1291.1C1426.31 1282.49 1413.19 1270.4 1400.9 1258.78C1396.64 1254.75 1391.67 1251.38 1388.14 1246.71C1340.06 1183.25 1328.57 1097.1 1341.66 1020.58C1342.68 1014.63 1345.16 1009.02 1346.91 1003.23C1357.74 967.416 1376.52 934.272 1404.46 908.925C1414.98 899.385 1428.43 893.485 1441.14 887.829C1490.18 866.008 1549.96 866.325 1597.08 893.967C1634.05 915.662 1662.34 949.805 1678.1 989.166C1681.94 998.748 1686.91 1008.42 1689.44 1018.47C1690.14 1021.27 1689.82 1024.27 1690.63 1027.04C1691.6 1030.33 1693.95 1033.14 1694.72 1036.48C1695.43 1039.58 1694.58 1042.87 1694.99 1046.03C1696.26 1055.93 1699.78 1065.46 1700.59 1075.5C1702.27 1096.27 1702.56 1119.99 1698.59 1140.53C1694.91 1159.62 1688.65 1182.83 1678.27 1199.39C1655.18 1236.23 1605.7 1252.49 1563.83 1241.78C1550.31 1238.33 1537.37 1232.2 1525.15 1225.67C1517.22 1221.42 1510.67 1214.58 1503.66 1209.07C1477.15 1188.21 1460.52 1166.11 1447.12 1135.16C1442.78 1125.13 1437.97 1113.92 1436.66 1102.96C1435.62 1094.22 1435.36 1085.1 1435.91 1076.23C1436.12 1072.99 1437.65 1069.87 1437.55 1066.63C1437.51 1065 1436.19 1063.48 1436.47 1061.88C1436.78 1060.05 1438.56 1058.77 1439.2 1057.02C1440.87 1052.47 1440.66 1047.15 1441.66 1042.62C1443.19 1035.67 1449.23 1027.64 1452.53 1021.29C1456.81 1013.04 1461.94 1007.33 1467.22 999.859C1471.34 994.029 1475.93 986.551 1482.01 982.243C1489.24 977.127 1497.81 972.527 1506.52 970.088C1512.82 968.325 1520.9 967.045 1527.47 967.59C1541.19 968.726 1556.69 975.263 1565.27 986.597C1570.46 993.451 1576.06 1006.32 1577.53 1014.92C1578.22 1018.95 1578.44 1024.45 1579.82 1028.24C1580.13 1029.08 1581.47 1029.25 1581.78 1030.09C1582.65 1032.48 1581.31 1035.28 1582 1037.73C1583.29 1042.36 1583.96 1047.32 1585.26 1051.97C1591.39 1073.86 1591.06 1095.61 1586.15 1117.88C1585.46 1121.02 1585.24 1125.53 1583.58 1128.47C1578.56 1137.4 1572.35 1152.87 1560.44 1154.92C1553.87 1156.04 1551.73 1152.28 1546.91 1149.56C1541.25 1146.38 1536.84 1142 1531.31 1138.53C1523.37 1133.56 1512.47 1129.73 1506.93 1121.06C1500.91 1111.64 1500.41 1104.15 1512.07 1099.89" fill="none" opacity="1" stroke="#ffffff" stroke-linecap="round" stroke-linejoin="round" stroke-width="10" vectornator:layerName="Curve 34"/>
</g>
</svg>
