<?xml version="1.0" encoding="UTF-8" standalone="no"?>
<!DOCTYPE svg PUBLIC "-//W3C//DTD SVG 1.1//EN" "http://www.w3.org/Graphics/SVG/1.1/DTD/svg11.dtd">
<!-- Created with Vectornator (http://vectornator.io/) -->
<svg height="100%" stroke-miterlimit="10" style="fill-rule:nonzero;clip-rule:evenodd;stroke-linecap:round;stroke-linejoin:round;" version="1.1" viewBox="936.96 672.84 1961.09 1092.46" width="100%" xml:space="preserve" xmlns="http://www.w3.org/2000/svg" xmlns:vectornator="http://vectornator.io" xmlns:xlink="http://www.w3.org/1999/xlink">
<defs/>
<g id="Layer-2" vectornator:layerName="Layer 2">
<path d="M956.894 808.267C955.117 806.134 953.942 803.296 951.561 801.867C950.646 801.318 951.352 804.021 951.561 805.067C951.99 807.213 953.945 809.428 954.761 811.467C957.331 817.893 961.598 823.153 964.362 829.602C971.962 847.336 972.948 872.444 971.829 891.472C970.928 906.781 968.58 922.066 967.562 937.341C965.315 971.046 968.82 1004.87 976.096 1037.61C977.853 1045.52 979.879 1053.33 981.429 1061.08C981.741 1062.64 983.251 1063.79 983.563 1065.35C983.961 1067.34 984.402 1075.9 986.763 1077.08C987.474 1077.44 987.267 1075.51 987.829 1074.95C988.896 1073.88 989.963 1072.82 991.03 1071.75C993.908 1068.87 1002.07 1067.71 1005.96 1066.41C1028.45 1058.92 1051.49 1053.42 1074.23 1047.21C1078.41 1046.08 1082.82 1046.05 1087.04 1045.08C1117.3 1038.1 1147.75 1032.36 1178.77 1030.15C1205.84 1028.21 1233.76 1030.15 1260.91 1030.15C1279.83 1030.15 1298.52 1029.08 1317.45 1029.08C1389.04 1029.08 1460.23 1031.21 1531.86 1031.21C1548.19 1031.21 1564.47 1032.28 1580.93 1032.28C1582.56 1032.28 1595.36 1031.67 1595.86 1030.15C1596.47 1028.33 1594.05 1026.7 1593.73 1024.81C1593.24 1021.89 1593.23 1019.09 1592.66 1016.28C1591.39 1009.92 1592.68 1001.26 1593.73 994.944C1595.93 981.758 1598.44 966.924 1596.93 953.342C1595.55 940.93 1593.73 929.734 1593.73 917.073C1593.73 893.502 1598 871.127 1598 847.736C1598 836.245 1596.93 824.758 1596.93 813.601C1596.93 806.777 1598.05 798.992 1596.93 792.266C1596.09 787.217 1594.99 781.527 1595.86 776.265C1596.76 770.894 1598.17 765.631 1599.06 760.264C1599.52 757.515 1598.52 754.463 1599.06 751.731C1599.31 750.522 1606.36 745.629 1602.26 744.263C1600.76 743.761 1599.56 746.085 1598 746.397C1595.88 746.821 1593.73 747.108 1591.6 747.464C1580.58 749.3 1569.38 750.988 1558.53 752.797C1552.64 753.778 1546.32 752.057 1540.39 752.797C1522.71 755.008 1505.11 754.931 1487.06 754.931C1479.61 754.931 1470.91 753.711 1463.59 754.931C1449.89 757.215 1436.67 762.262 1423.05 764.531C1412.56 766.28 1400.17 764.095 1389.99 762.398C1379.18 760.597 1367.74 762.877 1356.92 761.331C1345.78 759.74 1334.72 756.743 1323.85 754.931C1315.15 753.482 1305.42 755.692 1297.18 757.064C1289.26 758.385 1280.78 758.131 1272.65 758.131C1255.43 758.131 1238.22 756.66 1221.44 753.864C1217.64 753.23 1213.51 754.498 1209.71 753.864C1204.86 753.055 1199.84 752.164 1194.77 752.797C1174.86 755.286 1156.12 763.805 1136.1 766.665C1127.74 767.86 1118.89 765.616 1110.5 766.665C1096.44 768.423 1082.06 767.731 1067.83 767.731C1060.67 767.731 1052.52 768.744 1045.43 767.731C1039.05 766.82 1032.59 764.525 1026.23 763.465C1008.2 760.459 984.203 762.056 966.495 765.598C960.724 766.752 957.227 782.402 955.828 787.999C954.455 793.489 951.765 798.492 950.494 804C947.107 818.677 943.625 833.816 941.96 848.803" fill="none" opacity="1" stroke="#ffffff" stroke-linecap="round" stroke-linejoin="round" stroke-width="10" vectornator:layerName="Curve 1"/>
<path d="M2001.22 725.596C2001.22 730.909 1999.35 736.536 2000.15 742.13C2002.78 760.53 2004.53 778.742 2003.35 797.6C2001.69 824.158 1993.82 849.646 1995.89 876.538C1998.24 907.184 2002.71 937.716 2005.49 968.276C2006 973.966 2006.04 979.656 2006.55 985.344C2007.89 1000.06 2010.3 1025.36 2021.49 1036.55C2024.32 1039.38 2028.83 1046.34 2033.22 1047.21C2040.66 1048.7 2049.01 1034.58 2054.56 1030.15C2069.44 1018.24 2091.68 1013.21 2110.03 1009.88C2131.54 1005.97 2153.35 1003.96 2175.1 1002.41C2192.2 1001.19 2209.16 998.086 2226.3 997.078C2264.67 994.821 2303 993.878 2341.51 993.878C2374.22 993.878 2406.93 993.878 2439.64 993.878C2459.51 993.878 2479.65 994.605 2499.38 992.811C2518.28 991.092 2537.36 987.37 2555.92 984.277C2563.56 983.003 2570.77 978.698 2578.32 976.81C2583.59 975.492 2589.05 974.928 2594.32 973.61C2599.82 972.234 2607.88 973.61 2613.52 973.61C2620.41 973.61 2628.06 974.581 2634.86 973.61C2639.98 972.878 2645.36 971.994 2650.86 972.543C2655.39 972.996 2659.24 974.676 2663.66 974.676C2669.5 974.676 2675.04 975.863 2680.72 976.81C2692.83 978.828 2705.95 974.792 2718.06 976.81C2723.96 977.793 2728.99 978.943 2735.13 978.943C2739.1 978.943 2756.59 977.375 2757.53 973.61C2758.62 969.251 2757.53 963.184 2757.53 958.676C2757.53 944.501 2755.54 930.767 2753.26 917.073C2752.39 911.831 2749.67 906.45 2749 901.072C2747.8 891.489 2748.88 880.677 2750.06 871.204C2751.89 856.563 2746.58 841.969 2749 827.468C2750.01 821.401 2752.38 815.479 2753.26 809.334C2754.48 800.837 2755.05 792.2 2756.46 783.732C2757.85 775.429 2755.08 766.434 2756.46 758.131C2757.21 753.669 2758.6 748.881 2758.6 744.263C2758.6 734.859 2761.69 725.904 2762.86 716.529C2763.79 709.084 2763.93 701.76 2763.93 694.127C2763.93 691.119 2765.61 679.955 2762.86 678.126C2760.83 676.774 2756.13 680.607 2754.33 681.327C2747.95 683.879 2739.59 685.561 2732.99 686.66C2705.51 691.24 2678.19 692.844 2650.86 696.261C2631.79 698.645 2612.72 698.394 2593.25 698.394C2584.69 698.394 2575 699.797 2566.59 698.394C2553.19 696.162 2538.68 697.328 2524.98 697.328C2518.53 697.328 2511.05 696.272 2504.71 697.328C2451.49 706.198 2397.3 705.861 2342.57 705.861C2320.55 705.861 2299.19 705.372 2277.5 702.661C2265.49 701.16 2253.22 702.24 2241.23 700.528C2227.7 698.594 2213.45 699.461 2199.63 699.461C2193.16 699.461 2185.74 698.399 2179.36 699.461C2167.72 701.402 2155.91 702.049 2144.16 703.728C2131.41 705.549 2118.64 709.585 2105.76 711.195C2082.11 714.151 2059.29 721.862 2035.36 721.862C2025.75 721.862 2016.15 721.862 2006.55 721.862C2004.78 721.862 2003 721.862 2001.22 721.862C1999.09 721.862 1993.87 719.954 1994.82 721.862C1996.54 725.302 2001.22 725.062 2001.22 725.596Z" fill="none" opacity="1" stroke="#ffffff" stroke-linecap="round" stroke-linejoin="round" stroke-width="10" vectornator:layerName="Curve 2"/>
<path d="M1003.73 1429.27C1000.77 1427.81 998.257 1423.66 995.053 1424.47C992.598 1425.1 993.277 1429.37 993.44 1431.9C993.587 1434.18 995.38 1436.07 995.945 1438.28C997.906 1445.96 996.574 1454.49 998.535 1462.18C999.1 1464.39 1000.61 1466.31 1001.04 1468.55C1005.44 1491.31 1003.34 1514.21 1003.64 1537.18C1004.03 1566.82 1002.07 1596.38 999.953 1625.83C999.108 1637.56 1001.61 1649.47 1001.98 1661.28C1002.27 1670.47 1002.05 1679.52 1001.91 1688.49C1001.86 1691.32 1004.06 1693.89 1004.01 1696.72C1003.89 1704.05 1003.7 1711.55 1007 1718.76C1009.19 1723.54 1013.54 1726.44 1016.13 1730.47C1018.31 1733.86 1019.36 1737.97 1021.54 1741.36C1025.61 1747.69 1028.39 1741.75 1031.63 1739.67C1034.02 1738.13 1037.18 1738.47 1039.87 1737.56C1047.78 1734.89 1053.88 1732.26 1061.26 1728.6C1065.67 1726.41 1066.3 1728.61 1071.35 1726.9C1076.86 1725.03 1082.57 1723.06 1088.23 1720.84C1101.93 1715.46 1117.41 1712.51 1131.66 1708.88C1141.27 1706.43 1151.93 1708.09 1161.53 1705.64C1211.08 1693 1262.26 1685.76 1313.31 1678.31C1328.42 1676.1 1343.81 1676.78 1358.85 1674.58C1374.88 1672.24 1391.04 1669.88 1407.05 1667.54C1412.22 1666.79 1417.54 1667.81 1422.71 1667.06C1433.36 1665.5 1443.98 1663.07 1454.84 1662.36C1495.5 1659.74 1536.31 1660.18 1576.84 1655.79C1585.04 1654.9 1592.34 1654.93 1600.33 1655.06C1613.39 1655.27 1627.19 1649.91 1640.3 1650.12C1645.74 1650.21 1651.01 1647.69 1656.36 1647.78C1658.26 1647.81 1660.74 1650.47 1661.93 1648.99C1663.06 1647.59 1659.77 1646.09 1659.03 1644.46C1658.44 1643.18 1658.02 1641.76 1657.98 1640.35C1657.68 1630.88 1653.98 1624.68 1651.67 1615.64C1648.85 1604.6 1643.81 1593.93 1639.15 1583.75C1633.55 1571.53 1631.65 1551.93 1629.45 1538.87C1627.86 1529.41 1623.79 1519.9 1623.95 1510.45C1624.23 1493.39 1626.08 1475.29 1625.55 1458.29C1625.21 1447.41 1621.92 1437.59 1622.71 1426.56C1623.64 1413.69 1629.32 1401.83 1628.92 1389.02C1628.67 1380.92 1624.73 1372.85 1624.47 1364.72C1624.39 1362.02 1625.99 1355.03 1623.18 1352.77C1616.36 1347.28 1602.82 1357.09 1596.62 1358.67C1591.37 1360.01 1585.8 1359.67 1580.55 1361.01C1575.75 1362.24 1572.25 1364.51 1567.8 1366.02C1558.95 1369.02 1548.46 1369.2 1539.38 1371.52C1533.17 1373.1 1526.92 1375.96 1520.65 1377.18C1514.29 1378.41 1507.33 1377.47 1500.87 1378.72C1485.43 1381.7 1469.79 1383.21 1454.53 1386.16C1445 1388 1434.54 1385.7 1425.06 1387.54C1422.81 1387.97 1420.92 1389.61 1418.68 1390.04C1413.55 1391.04 1408.14 1389.54 1403.02 1390.53C1400.77 1390.97 1398.9 1392.71 1396.64 1393.04C1393.44 1393.5 1390.15 1392.41 1386.95 1392.88C1375.63 1394.53 1363.2 1398.06 1352.15 1400.88C1326.9 1407.33 1300.25 1408.86 1275.13 1415.27C1263.7 1418.19 1249.32 1417.46 1237.83 1416.9C1225.32 1416.29 1212.56 1420.99 1200.13 1420.38C1188.58 1419.82 1176.67 1421.11 1165.09 1420.55C1152.12 1419.92 1139.64 1418.27 1126.74 1418.06C1115.7 1417.88 1103.72 1420.5 1092.75 1422.35C1089.56 1422.88 1086.29 1422.09 1083.06 1422.19C1080.23 1422.28 1077.64 1423.98 1074.82 1424.29C1064.3 1425.43 1053.58 1425.36 1043.09 1427.12C1036.33 1428.26 1018.66 1433.49 1012.82 1432.22C1007.83 1431.14 1004.37 1429.59 1003.73 1429.27Z" fill="none" opacity="1" stroke="#ffffff" stroke-linecap="round" stroke-linejoin="round" stroke-width="10" vectornator:layerName="Curve 3"/>
<path d="M2065.71 1347.72C2057.27 1361.94 2052.99 1380.64 2051.11 1397.05C2050.01 1406.64 2051.73 1416.54 2050.63 1426.12C2049.18 1438.77 2047.73 1451.42 2046.28 1464.07C2042.02 1501.23 2030.53 1538.07 2029.92 1575.25C2029.71 1588.25 2036.3 1604.25 2040.43 1616.42C2043.47 1625.41 2041.97 1638.69 2047.38 1647.1C2049.32 1650.12 2051.79 1650.65 2054.81 1648.72C2058.2 1646.53 2059.41 1640.96 2062.8 1638.78C2063.99 1638.02 2065.72 1638.5 2066.92 1637.73C2069.3 1636.2 2069.86 1632.64 2072.24 1631.11C2075.59 1628.96 2081.62 1625.97 2085.4 1624.24C2089.17 1622.51 2091.34 1623.6 2095.49 1622.55C2105.02 1620.11 2114.21 1618.92 2123.91 1617.05C2143.17 1613.32 2163.05 1608.57 2182.61 1606.45C2214.89 1602.95 2248.21 1605.99 2280.7 1602.47C2304.06 1599.94 2327.75 1596.34 2350.94 1592.44C2360.44 1590.84 2358.84 1589.19 2369.27 1588.64C2373.12 1588.44 2376.97 1589.4 2380.81 1589.2C2397.73 1588.31 2414.56 1582.52 2431.27 1580.71C2444.36 1579.29 2457.7 1579.84 2470.83 1577.63C2484.92 1575.26 2498.93 1572.77 2513.06 1571.24C2527.02 1569.73 2540.92 1568.75 2554.88 1566.71C2563.21 1565.49 2571.97 1567.98 2580.23 1566.38C2600 1562.56 2621.21 1561.18 2641.43 1562.16C2653.32 1562.74 2665.04 1559.56 2676.87 1560.14C2682.21 1560.4 2687.75 1558.66 2692.94 1557.79C2704.28 1555.88 2715.12 1556.1 2726.53 1555.36C2729.93 1555.14 2733.21 1553.6 2736.62 1553.66C2746.15 1553.82 2756.14 1553.98 2765.68 1554.14C2768.52 1554.18 2771.09 1552.12 2773.92 1552.04C2780.35 1551.83 2786.87 1552.55 2793.3 1552.35C2796.71 1552.25 2799.98 1550.49 2803.39 1550.65C2809.33 1550.94 2819.03 1554.97 2824.62 1551.38C2830.02 1547.9 2828.8 1539.69 2828.25 1534.66C2826.49 1518.4 2823.85 1501.98 2825.33 1485.41C2826.55 1471.79 2827.68 1456.96 2826.77 1442.94C2825.62 1425.14 2822.51 1407.13 2822.8 1389.58C2823.09 1371.97 2808.7 1352.17 2805.43 1335.24C2802.48 1319.99 2805.17 1305.54 2805.42 1290.51C2805.52 1284.39 2803.53 1275.26 2806.14 1269.28C2809.2 1262.24 2818.69 1255.16 2825.43 1252.08C2828 1250.9 2831.89 1252.18 2833.66 1249.98C2834.62 1248.79 2837.53 1236.76 2836.89 1235.12C2834.65 1229.41 2825.34 1237.32 2820.82 1237.47C2802.98 1238.02 2783.91 1239.47 2766 1239.18C2762.83 1239.12 2759.88 1237.06 2756.72 1237.16C2719.52 1238.32 2682.32 1242.99 2646.51 1252.13C2640.07 1253.77 2633.17 1252.02 2626.73 1253.67C2608.6 1258.29 2589.96 1261.54 2571.75 1265.07C2549.48 1269.37 2528.2 1277.56 2505.87 1281.88C2491.23 1284.71 2477.11 1291.7 2462.44 1293.84C2444.45 1296.46 2425.86 1299.9 2407.86 1303.38C2395.71 1305.73 2383.93 1310.16 2371.21 1310.98C2350.68 1312.31 2330.57 1313.87 2310.01 1315.2C2303.65 1315.61 2296.56 1317.19 2290.23 1316.73C2281.86 1316.13 2273.64 1315.61 2265.28 1315.21C2259.41 1314.92 2253.05 1317.24 2247.36 1317.15C2233.24 1316.92 2218.82 1316.39 2204.89 1315.71C2194.46 1315.2 2183.59 1319.05 2173.16 1318.54C2171.26 1318.45 2169.48 1317.13 2167.59 1317.33C2165.32 1317.58 2163.48 1319.59 2161.21 1319.84C2155.13 1320.5 2148.39 1318.42 2141.83 1319.52C2130.09 1321.5 2117.48 1324.89 2105.58 1325.26C2098 1325.5 2089.7 1325.76 2082.09 1326C2079.56 1326.08 2077.19 1324.3 2074.66 1324.38C2071.83 1324.47 2069.26 1326.53 2066.43 1326.49C2055.08 1326.3 2042.49 1325.58 2030.98 1328.51C2027.05 1329.52 2024.01 1332.92 2020.08 1333.93C2013.39 1335.63 2014.21 1332.91 2007.73 1337.08C2005.81 1338.31 2004.83 1340.79 2002.81 1341.84C1996.75 1345 1991.5 1345.92 1985.53 1349.76" fill="none" opacity="1" stroke="#ffffff" stroke-linecap="round" stroke-linejoin="round" stroke-width="10" vectornator:layerName="Curve 4"/>
<path d="M1588.58 894.1C1585.53 892.29 1579.92 889.175 1580.1 888.37C1580.53 886.367 1602.72 886.522 1605.85 886.183C1615.52 885.135 1623.53 885.57 1633.06 886.256C1648.56 887.372 1664.06 885.034 1679.65 886.647C1692.87 888.015 1705.78 886.109 1718.81 885.425C1726.5 885.021 1734.2 886.953 1741.9 886.549C1753.2 885.956 1764.49 882.617 1775.89 882.261C1808.61 881.24 1841.46 876.581 1874.39 876.421C1894.1 876.324 1911.9 877.19 1931.07 875.113C1940.97 874.04 1948.55 874.713 1958.27 875.186C1959.69 875.255 1962.69 872.751 1962.39 874.136C1961.98 876.049 1950.89 879.936 1949.23 881.002" fill="none" opacity="1" stroke="#ffffff" stroke-linecap="round" stroke-linejoin="round" stroke-width="10" vectornator:layerName="Curve 5"/>
<path d="M1653.66 1516.9C1651.67 1517.41 1640.25 1515.98 1639.86 1517.79C1639.17 1520.95 1645.58 1520.98 1648.74 1521.66C1656.54 1523.36 1663.63 1524.08 1671.43 1524.65C1676.03 1524.98 1680.63 1523.42 1685.23 1523.75C1713.45 1525.79 1742.35 1525.15 1770.57 1524.78C1806.13 1524.32 1841.83 1519.13 1877.31 1516.84C1898.25 1515.48 1919.11 1515.98 1939.96 1514.88C1947.36 1514.49 1954.59 1512.12 1962 1511.89C1984.71 1511.18 2023.7 1510.07 2043.47 1521.8" fill="none" opacity="1" stroke="#ffffff" stroke-linecap="round" stroke-linejoin="round" stroke-width="10" vectornator:layerName="Curve 6"/>
<path d="M1670.39 1144.25C1668.17 1147.01 1678.08 1147.41 1678.67 1150.9C1679.72 1157.15 1675.5 1163.2 1674.64 1169.48C1674.09 1173.44 1674.94 1177.54 1675.93 1181.42C1683.85 1212.43 1708.88 1240.65 1708.34 1274.02C1708.14 1285.76 1701.52 1312.11 1716.18 1318.51C1727.71 1323.53 1739 1319.81 1748.31 1313.82C1752.82 1310.91 1755.5 1305.09 1760.42 1302.83C1762.24 1302 1764.45 1302.68 1766.4 1302.18C1772.21 1300.7 1777.27 1297.13 1783.27 1296.12C1792.66 1294.54 1802.5 1292.97 1811.69 1290.63C1822.1 1287.97 1831.52 1284.85 1842.36 1283.67C1863.8 1281.35 1886.54 1276.2 1908.08 1276.55C1914.49 1276.66 1926.36 1281.18 1930.12 1273.56C1932.36 1269.03 1927.71 1267.55 1926.57 1263.06C1924.17 1253.66 1919.35 1245.1 1916.95 1235.7C1909.09 1204.86 1915.89 1173.64 1905.79 1143.82C1903.41 1136.8 1903.34 1119.99 1896.17 1116.45C1887 1111.92 1875 1120.8 1867.35 1123.81C1857.53 1127.66 1843.09 1130.27 1832.55 1131.81C1811.66 1134.86 1790.75 1135.52 1769.5 1135.62C1758.01 1135.68 1745.9 1136.98 1734.46 1135.79C1728.75 1135.2 1723.08 1133.99 1717.34 1134.02C1705 1134.08 1693.31 1138.44 1681.09 1139.76C1673.71 1140.56 1677.06 1139.91 1671 1141.46C1669.63 1141.81 1665.5 1142.21 1666.88 1142.51C1671.26 1143.46 1673.86 1139.94 1670.39 1144.25Z" fill="none" opacity="1" stroke="#ffffff" stroke-linecap="round" stroke-linejoin="round" stroke-width="10" vectornator:layerName="Curve 7"/>
<path d="M1784.77 886.134C1770.25 895.477 1770.91 930.744 1771.87 945.561C1773.22 966.539 1774.5 988.22 1777.54 1009.02C1781.44 1035.72 1786.83 1064.73 1781.03 1091.45" fill="none" opacity="1" stroke="#ffffff" stroke-linecap="round" stroke-linejoin="round" stroke-width="10" vectornator:layerName="Curve 8"/>
<path d="M1838.58 1310.08C1841.2 1320.35 1829.73 1340.31 1829.3 1352.79C1828.54 1375.26 1831.27 1397.69 1834.17 1419.96C1837.18 1443.13 1835.3 1466.79 1834.51 1490.04C1833.78 1511.4 1829.83 1532.05 1830.49 1553.34C1830.6 1556.76 1830.19 1561.81 1831.78 1565.29C1833.65 1569.37 1836.63 1572.83 1839.05 1576.59" fill="none" opacity="1" stroke="#ffffff" stroke-linecap="round" stroke-linejoin="round" stroke-width="10" vectornator:layerName="Curve 9"/>
<path d="M993.048 887.32C1003.68 880.484 1014.85 885.441 1026.23 886.746C1047.07 889.134 1067.72 886.308 1088.48 886.648C1098.17 886.807 1107.87 887.578 1117.55 887.125C1186.91 883.875 1257.93 890.654 1326.42 901.358C1349.58 904.978 1373.43 906.434 1396.75 908.847C1418.18 911.066 1439.97 914.284 1461.5 915.127C1467.34 915.355 1473.2 914.568 1479.02 915.042C1482.81 915.35 1486.37 917.228 1490.16 917.461C1503.56 918.281 1517.21 917.522 1530.78 918.499" fill="none" opacity="1" stroke="#ffffff" stroke-linecap="round" stroke-linejoin="round" stroke-width="10" vectornator:layerName="Curve 10"/>
<path d="M2066.71 877.337C2069.98 862.239 2092.69 865.71 2104.57 864.166C2150.28 858.225 2196.93 854.828 2243.03 853.389C2258.08 852.92 2273.11 851.524 2288.17 851.52C2295.87 851.518 2303.56 852.963 2311.26 852.644C2318.66 852.337 2325.91 850.255 2333.3 849.651C2357.12 847.701 2382.17 846.742 2406.04 845.997C2413.12 845.777 2420.2 847.09 2427.28 846.718C2434.68 846.329 2441.92 844.244 2449.32 843.725C2474.44 841.963 2500.59 841.664 2525.78 840.878C2576.28 839.302 2627.01 840.332 2677.48 840.756C2687.33 840.838 2707.67 839.317 2718.5 839.937C2730.04 840.598 2741.58 841.983 2753.14 841.623" fill="none" opacity="1" stroke="#ffffff" stroke-linecap="round" stroke-linejoin="round" stroke-width="10" vectornator:layerName="Curve 11"/>
<path d="M2063.97 1499.02C2095.28 1478.88 2130.96 1478.47 2166.5 1474.61C2215.46 1469.31 2264.11 1464.91 2313.2 1461.73C2332.39 1460.49 2351.49 1457.95 2370.68 1456.71C2429.52 1452.91 2488.69 1451.99 2547.5 1448.43C2578.07 1446.58 2608.37 1440.97 2638.97 1439.12C2723.47 1434.01 2808.35 1424.69 2893.05 1424.27" fill="none" opacity="1" stroke="#ffffff" stroke-linecap="round" stroke-linejoin="round" stroke-width="10" vectornator:layerName="Curve 12"/>
<path d="M1059.84 1564.94C1081.34 1557.66 1103.61 1557.58 1125.97 1555.96C1173.08 1552.55 1220.23 1547.61 1267.09 1541.87C1354.35 1531.19 1440.46 1512.59 1528.76 1518.95" fill="none" opacity="1" stroke="#ffffff" stroke-linecap="round" stroke-linejoin="round" stroke-width="10" vectornator:layerName="Curve 13"/>
<path d="M1009.65 783.97C1014.7 760.723 1021.45 790.295 1022.49 796.481C1025.72 815.686 1026.1 838.268 1026.71 857.68C1027.6 886.404 1028.15 915.122 1029.4 943.827C1030.43 967.574 1038.69 990.48 1039.43 1014.07" fill="none" opacity="1" stroke="#ffffff" stroke-linecap="round" stroke-linejoin="round" stroke-width="10" vectornator:layerName="Curve 14"/>
<path d="M1121.55 779.095C1113 818.51 1111.8 854.329 1114.08 894.15C1115.5 918.981 1116.03 944.05 1117.33 968.751C1118.18 985.002 1123.53 1001.35 1126.22 1017.35" fill="none" opacity="1" stroke="#ffffff" stroke-linecap="round" stroke-linejoin="round" stroke-width="10" vectornator:layerName="Curve 15"/>
<path d="M1211.66 785.045C1208.51 787.603 1205.05 789.813 1202.22 792.718C1196.01 799.086 1196.09 809.53 1194.71 818.314C1193.52 825.928 1194.14 833.719 1193.59 841.406C1190.09 890.04 1187.55 944.907 1199.69 992.466" fill="none" opacity="1" stroke="#ffffff" stroke-linecap="round" stroke-linejoin="round" stroke-width="10" vectornator:layerName="Curve 16"/>
<path d="M1280.69 780.586C1278.57 790.349 1280.97 795.431 1283.28 804.484C1284.97 811.094 1284.99 818.057 1286.68 824.667C1289.13 834.274 1292.39 843.711 1294.03 853.489C1300.82 893.812 1301.27 934.792 1300.61 975.483" fill="none" opacity="1" stroke="#ffffff" stroke-linecap="round" stroke-linejoin="round" stroke-width="10" vectornator:layerName="Curve 17"/>
<path d="M1388.88 774.904C1370.15 786.948 1367.33 816.01 1365.88 836.03C1363.75 865.657 1364.99 895.896 1365.91 925.488C1366.41 941.582 1362.76 957.629 1363.26 973.528" fill="none" opacity="1" stroke="#ffffff" stroke-linecap="round" stroke-linejoin="round" stroke-width="10" vectornator:layerName="Curve 18"/>
<path d="M1447.82 772.143C1439.81 788.35 1441.55 803.57 1441.05 821.234C1440.72 832.789 1438.86 844.323 1439.36 855.871C1439.62 861.875 1441.04 867.791 1441.3 873.795C1441.81 885.464 1440.63 897.185 1441.48 908.835C1442.2 918.825 1444.19 928.705 1444.71 938.707C1445.41 951.919 1444.75 966.193 1449.65 978.672" fill="none" opacity="1" stroke="#ffffff" stroke-linecap="round" stroke-linejoin="round" stroke-width="10" vectornator:layerName="Curve 19"/>
<path d="M1539.54 770.664C1533.53 778.134 1532.27 788.46 1529.77 797.714C1527.15 807.416 1525.57 817.822 1525.18 827.831C1523.57 869.079 1529.19 909.411 1533.61 950.229" fill="none" opacity="1" stroke="#ffffff" stroke-linecap="round" stroke-linejoin="round" stroke-width="10" vectornator:layerName="Curve 20"/>
<path d="M2125.86 792.949C2107.08 805.033 2099.49 824.879 2094.79 846.487C2084.57 893.576 2097.13 944.51 2123.09 984.865" fill="none" opacity="1" stroke="#ffffff" stroke-linecap="round" stroke-linejoin="round" stroke-width="10" vectornator:layerName="Curve 21"/>
<path d="M2171.55 734.804C2155.04 755.323 2154.33 777.821 2154.77 803.114C2155.46 842.608 2162.01 881.076 2166.27 920.343C2167.2 928.909 2167.14 937.583 2168.46 946.098C2170.23 957.565 2173.69 968.802 2174.6 980.491C2175.02 985.887 2174.97 991.519 2176.95 996.557" fill="none" opacity="1" stroke="#ffffff" stroke-linecap="round" stroke-linejoin="round" stroke-width="10" vectornator:layerName="Curve 22"/>
<path d="M2283.69 737.761C2264.68 742.613 2261.56 780.892 2261.1 797.029C2260.61 814.519 2261.47 832.092 2261.36 849.59C2261.11 888.621 2260.58 940.287 2282.79 974.809" fill="none" opacity="1" stroke="#ffffff" stroke-linecap="round" stroke-linejoin="round" stroke-width="10" vectornator:layerName="Curve 23"/>
<path d="M2344.24 727.571C2353.61 751.414 2355.15 778.924 2356.78 804.188C2359.31 843.359 2356.84 881.818 2356.73 920.856C2356.68 938.407 2357.75 954.333 2359.25 971.962C2359.89 979.57 2361.06 984.331 2367.17 989.238" fill="none" opacity="1" stroke="#ffffff" stroke-linecap="round" stroke-linejoin="round" stroke-width="10" vectornator:layerName="Curve 24"/>
<path d="M2448.16 732.629C2430.12 750.08 2426.75 777.467 2421.69 800.78C2411.72 846.699 2407.11 894.911 2408.57 941.833C2408.77 948.29 2407.56 954.788 2408.25 961.211C2408.86 966.844 2411.64 972.074 2412.46 977.68C2414.06 988.667 2415.1 999.179 2421.27 1008.76" fill="none" opacity="1" stroke="#ffffff" stroke-linecap="round" stroke-linejoin="round" stroke-width="10" vectornator:layerName="Curve 25"/>
<path d="M2481.1 724.223C2478.7 726.296 2475.53 727.718 2473.91 730.442C2472.29 733.166 2472.57 736.632 2471.9 739.727C2467.01 762.219 2473.03 785.685 2474.5 808.355C2477.98 862.186 2479.49 916.719 2486.01 970.313C2487.24 980.49 2489.98 990.272 2491.1 1000.59" fill="none" opacity="1" stroke="#ffffff" stroke-linecap="round" stroke-linejoin="round" stroke-width="10" vectornator:layerName="Curve 26"/>
<path d="M2623.63 829.063C2613.32 876.563 2590.93 926.549 2607.44 975.285" fill="none" opacity="1" stroke="#ffffff" stroke-linecap="round" stroke-linejoin="round" stroke-width="10" vectornator:layerName="Curve 27"/>
<path d="M1115.12 1444.71C1112.55 1456.54 1113.71 1466.09 1115.69 1477.89C1118.35 1493.69 1119.15 1509.79 1120.87 1525.68C1126.76 1580.01 1136.35 1634.15 1143.93 1688.21C1147.25 1711.91 1153.95 1736.25 1153.55 1760.3" fill="none" opacity="1" stroke="#ffffff" stroke-linecap="round" stroke-linejoin="round" stroke-width="10" vectornator:layerName="Curve 28"/>
<path d="M1245.27 1463.24C1241.29 1481.6 1236.02 1500.33 1233.18 1518.95C1230.74 1534.93 1232.3 1551.31 1232.38 1567.4C1232.47 1585.47 1231.67 1603.77 1232.24 1621.81C1232.72 1637.23 1236.16 1652.42 1237.82 1667.75C1238.86 1677.33 1238.73 1688.52 1241.06 1697.62" fill="none" opacity="1" stroke="#ffffff" stroke-linecap="round" stroke-linejoin="round" stroke-width="10" vectornator:layerName="Curve 29"/>
<path d="M1311.15 1446.43C1303.48 1459.36 1307.99 1467.43 1309.46 1481.07C1310.48 1490.43 1311.74 1499.76 1313.11 1509.08C1315.82 1527.65 1317.28 1546.67 1320.39 1565.11C1325.8 1597.28 1334.21 1629.58 1342.29 1661.26" fill="none" opacity="1" stroke="#ffffff" stroke-linecap="round" stroke-linejoin="round" stroke-width="10" vectornator:layerName="Curve 30"/>
<path d="M1404.8 1418.14C1377.05 1421.15 1372.33 1451.98 1369.21 1474.59C1367.3 1488.42 1370.82 1500.62 1372.29 1514.15C1373.97 1529.64 1374.88 1544.65 1377.87 1560.09C1381.55 1579.12 1389.78 1596.84 1392.98 1615.88" fill="none" opacity="1" stroke="#ffffff" stroke-linecap="round" stroke-linejoin="round" stroke-width="10" vectornator:layerName="Curve 31"/>
<path d="M1487.64 1412.79C1483.04 1420.54 1477.44 1428.61 1474.56 1437.18C1468.43 1455.42 1469.97 1473.77 1470.3 1492.65C1470.68 1514.4 1473.69 1535.14 1477.82 1556.51C1482.21 1579.17 1485.72 1602.57 1494.23 1624.24" fill="none" opacity="1" stroke="#ffffff" stroke-linecap="round" stroke-linejoin="round" stroke-width="10" vectornator:layerName="Curve 32"/>
<path d="M1527.86 1460.42C1524.74 1474.77 1525.3 1492.18 1527.47 1507C1528.99 1517.41 1533.28 1527.15 1534.42 1537.68" fill="none" opacity="1" stroke="#ffffff" stroke-linecap="round" stroke-linejoin="round" stroke-width="10" vectornator:layerName="Curve 33"/>
<path d="M1607.78 1450.54C1605.1 1462.93 1601.84 1475.2 1599.72 1487.69C1597.71 1499.55 1600.34 1513.15 1601.35 1524.99C1603.83 1554.29 1607.52 1584.26 1623.81 1609.6" fill="none" opacity="1" stroke="#ffffff" stroke-linecap="round" stroke-linejoin="round" stroke-width="10" vectornator:layerName="Curve 34"/>
<path d="M2115.93 1376.13C2110.19 1402.59 2103 1429.66 2102.31 1456.79C2101.69 1480.91 2103.83 1505.6 2105.96 1529.53C2106.78 1538.72 2106.34 1548.03 2107.75 1557.14C2109.95 1571.4 2114.71 1584.44 2118.25 1598.32" fill="none" opacity="1" stroke="#ffffff" stroke-linecap="round" stroke-linejoin="round" stroke-width="10" vectornator:layerName="Curve 35"/>
<path d="M2238.33 1367.7C2232.37 1377.74 2225.32 1387.87 2221.79 1399.11C2212.51 1428.62 2215.1 1461.17 2217.29 1491.47C2219.34 1519.84 2222.63 1550.11 2233.79 1576.73C2238.01 1586.8 2244.43 1595.4 2248.97 1605.31" fill="none" opacity="1" stroke="#ffffff" stroke-linecap="round" stroke-linejoin="round" stroke-width="10" vectornator:layerName="Curve 36"/>
<path d="M2374.45 1340.85C2371.25 1344.83 2366.51 1347.68 2364.2 1352.24C2347.37 1385.45 2341.94 1417.01 2338.31 1453.57C2335.53 1481.54 2332.51 1512.23 2335.02 1540.37C2335.88 1549.98 2338.78 1559.3 2340.52 1568.79C2342.7 1580.71 2344.07 1592.24 2348.52 1603.58" fill="none" opacity="1" stroke="#ffffff" stroke-linecap="round" stroke-linejoin="round" stroke-width="10" vectornator:layerName="Curve 37"/>
<path d="M2465.68 1323.71C2464.44 1323.44 2462.87 1322.02 2461.96 1322.9C2460.6 1324.23 2461.42 1326.69 2460.75 1328.48C2459.84 1330.92 2458.09 1333.02 2457.28 1335.5C2456.11 1339.12 2455.67 1342.93 2454.86 1346.64C2453.79 1351.6 2452.34 1356.48 2451.64 1361.5C2448.82 1381.66 2446.81 1401.93 2444.31 1422.14C2441.55 1444.39 2442.5 1465.33 2441.74 1487.7C2440.75 1516.88 2438.16 1553.77 2450.65 1581.03" fill="none" opacity="1" stroke="#ffffff" stroke-linecap="round" stroke-linejoin="round" stroke-width="10" vectornator:layerName="Curve 38"/>
<path d="M2542.31 1355.9C2513.34 1391.92 2508.83 1442.36 2508.11 1486.55C2507.97 1495.37 2510.29 1504.08 2512.15 1512.71C2515.35 1527.48 2524.77 1539.76 2532.75 1552.18" fill="none" opacity="1" stroke="#ffffff" stroke-linecap="round" stroke-linejoin="round" stroke-width="10" vectornator:layerName="Curve 39"/>
<path d="M2591.14 1310.11C2585.9 1320.72 2579.14 1330.6 2574.6 1341.52C2570.95 1350.3 2570.57 1360.1 2568.55 1369.38C2560.54 1406.27 2567.41 1439.32 2585.13 1472.16" fill="none" opacity="1" stroke="#ffffff" stroke-linecap="round" stroke-linejoin="round" stroke-width="10" vectornator:layerName="Curve 40"/>
<path d="M2707.09 1331.4C2698.59 1352.73 2690.58 1374.18 2687 1397.04C2684.55 1412.7 2685.01 1427.53 2684.75 1443.22C2684.33 1469.31 2684.84 1495.12 2691.31 1520.49" fill="none" opacity="1" stroke="#ffffff" stroke-linecap="round" stroke-linejoin="round" stroke-width="10" vectornator:layerName="Curve 41"/>
<path d="M1599.54 931.17C1597.45 930.089 1587.56 924.311 1586.76 925.852C1586.04 927.256 1589.8 926.791 1591.38 926.944C1597.15 927.506 1602.46 929.407 1608.31 929.233C1620.23 928.879 1632.37 930.615 1644.3 929.728C1679.35 927.119 1714.27 921.782 1749.33 919.345C1759.19 918.659 1768.87 916.315 1778.69 915.121C1801.72 912.32 1825.11 911.142 1848.19 908.363C1884.42 904.002 1920.37 897.581 1956.39 891.854C1985.11 887.289 2014.43 885.376 2042.94 879.675" fill="none" opacity="1" stroke="#ffffff" stroke-linecap="round" stroke-linejoin="round" stroke-width="10" vectornator:layerName="Curve 42"/>
<path d="M1626.81 1491.46C1628.18 1488.82 1629.86 1482.81 1633.11 1481.78C1636.04 1480.85 1635.29 1482.29 1637.72 1482.87C1639.76 1483.35 1642.54 1482.31 1644.41 1482.45C1648.04 1482.71 1651.55 1484.09 1655.19 1484.14C1672.66 1484.38 1690.12 1482.56 1707.65 1482.8C1712.28 1482.87 1716.9 1483.7 1721.52 1483.51C1726.2 1483.31 1730.76 1481.9 1735.43 1481.64C1750.91 1480.77 1766.7 1481.83 1782.22 1481.26C1832.89 1479.38 1883.36 1475.63 1934.01 1473.06C1970.51 1471.21 2008.58 1464.86 2045.14 1468.41" fill="none" opacity="1" stroke="#ffffff" stroke-linecap="round" stroke-linejoin="round" stroke-width="10" vectornator:layerName="Curve 43"/>
<path d="M1785.79 1296.72C1781.98 1294.75 1778.6 1291.94 1775.61 1288.87C1775.02 1288.26 1776.62 1290.26 1777.13 1290.95C1777.63 1291.64 1778.27 1292.25 1778.64 1293.03C1780.26 1296.37 1779.24 1296.41 1780.08 1300.24C1781.98 1308.83 1784.21 1317.15 1784.87 1326.02C1786.44 1347.16 1784.91 1367.67 1783.5 1388.73C1781.53 1417.96 1776.06 1446.73 1770.99 1475.45C1769.37 1484.63 1769.29 1494.4 1768.03 1503.68C1766.42 1515.61 1761.64 1529.18 1765.46 1541.18" fill="none" opacity="1" stroke="#ffffff" stroke-linecap="round" stroke-linejoin="round" stroke-width="10" vectornator:layerName="Curve 44"/>
<path d="M1863.81 1306.02C1863.84 1304.31 1864.22 1302.56 1863.88 1300.88C1863.56 1299.29 1861.66 1297.68 1862.4 1296.23C1863.04 1295.01 1863.85 1298.6 1864.41 1299.86C1865.41 1302.1 1866.45 1304.32 1867.4 1306.58C1869.53 1311.63 1869.79 1317.25 1870.78 1322.57C1873.43 1336.84 1875.58 1351.14 1878.42 1365.35C1886.94 1407.94 1894.37 1450.58 1902.89 1493.2" fill="none" opacity="1" stroke="#ffffff" stroke-linecap="round" stroke-linejoin="round" stroke-width="10" vectornator:layerName="Curve 45"/>
<path d="M1744.36 906.423C1727.53 911.778 1733.67 948.812 1733.83 961.807C1734.31 999.956 1738.07 1037.3 1733.3 1075.43C1731.9 1086.58 1731.35 1097.66 1730.27 1108.81C1730.13 1110.28 1729.18 1118.22 1729.6 1120.11C1730.66 1124.92 1734.37 1128.67 1737.66 1132.05" fill="none" opacity="1" stroke="#ffffff" stroke-linecap="round" stroke-linejoin="round" stroke-width="10" vectornator:layerName="Curve 46"/>
<path d="M1833.3 907.131C1833.46 906.143 1834.75 901.407 1832.88 900.441C1832.12 900.047 1832.93 902.158 1832.84 903.011C1832.73 904.217 1832.23 905.392 1832.28 906.602C1832.36 908.517 1833.11 910.359 1833.23 912.271C1833.55 917.402 1833.09 922.552 1833.02 927.693C1832.79 944.58 1832.29 961.725 1831.29 978.571C1829.82 1003.39 1826 1028.18 1825.13 1053.04C1824.01 1084.95 1825.28 1116.79 1824.84 1148.67" fill="none" opacity="1" stroke="#ffffff" stroke-linecap="round" stroke-linejoin="round" stroke-width="10" vectornator:layerName="Curve 47"/>
<path d="M1659 1131.48C1654.26 1140.64 1658.24 1147.34 1658.65 1157.18C1659.06 1166.85 1659.07 1176.32 1659.28 1185.98C1659.51 1196.27 1659.47 1206.57 1658.86 1216.83C1658.23 1227.55 1658.06 1238.04 1657.91 1248.69C1657.7 1263.92 1653.89 1279.03 1653.68 1294.39C1653.64 1297.25 1652.57 1300.31 1653.05 1303.13C1653.95 1308.48 1657.38 1311.04 1659.56 1315.55C1661.87 1320.33 1661.76 1325.69 1666.57 1329.53C1668.36 1330.97 1670.9 1331.27 1672.69 1332.7C1675.94 1335.3 1677.44 1338.6 1681.85 1340.03C1692.64 1343.51 1709.74 1336.27 1720.51 1332.85C1735.65 1328.03 1750.78 1323.9 1766.42 1321.65C1775.45 1320.35 1783.86 1317.26 1793.22 1317.39C1797.22 1317.45 1801.02 1319.32 1805.01 1319.61C1813.25 1320.21 1821.42 1321.41 1829.66 1322C1847.47 1323.3 1865.33 1318.38 1883.18 1318.63C1893.69 1318.77 1904.34 1322 1915.01 1322.15C1923.35 1322.26 1931.06 1321.79 1939.2 1320.42C1944.37 1319.56 1948.62 1324.16 1953.1 1318.56C1956.66 1314.12 1953.53 1311.86 1952.22 1307.75C1949.77 1300.05 1946.55 1292.29 1947.93 1283.53C1948.88 1277.46 1951.64 1271.42 1953.32 1265.6C1954.81 1260.43 1955.11 1254.47 1956.63 1249.2C1958.38 1243.11 1958.34 1235.95 1958.95 1229.69C1960.74 1211.29 1962.28 1193.2 1960.22 1174.69C1959.17 1165.22 1957.3 1154.79 1954.45 1145.82C1952.47 1139.6 1948.85 1133.38 1947.51 1126.7C1945.66 1117.46 1946.27 1108.19 1944.8 1099.41C1943.71 1092.89 1935.15 1093.26 1934.17 1087.44C1932.89 1079.84 1944.58 1074.76 1949.8 1072.23C1950.72 1071.79 1952.87 1069.13 1954.45 1070.75C1955.3 1071.62 1953.02 1073.57 1951.85 1073.29C1949.98 1072.85 1948.58 1071.18 1946.74 1070.65C1943.12 1069.61 1940.03 1069.76 1936.49 1067.94C1927.64 1063.36 1917.04 1063.83 1907.23 1064.45C1904.3 1064.64 1901.4 1063.33 1898.5 1063.82C1887.82 1065.61 1876.77 1066.23 1865.55 1067.48C1861.76 1067.9 1856.81 1067.7 1853.19 1068.85C1836.86 1074.04 1817.75 1075.99 1800.62 1077.9C1793.91 1078.64 1787.27 1081.31 1780.51 1081.73C1761.16 1082.95 1741.43 1084.28 1722.38 1084.02C1705.58 1083.79 1688.61 1078.49 1672.03 1081.27C1663.2 1082.75 1655.36 1082.69 1647.28 1086.59C1645.14 1087.62 1640.28 1087.6 1639.01 1090.07C1636.64 1094.64 1650.97 1094.7 1652.21 1102.08C1653.21 1108.05 1652.54 1115.78 1652.46 1121.62C1652.27 1135.39 1654.65 1149.05 1654.46 1162.78C1654.22 1180.57 1651.95 1198.41 1652.7 1216.23C1652.93 1221.74 1654.18 1227.2 1654.53 1232.71C1654.65 1234.58 1658.5 1250.62 1659.42 1250.77C1661.73 1251.13 1662.54 1247.24 1663.61 1245.17C1666.8 1239.02 1667.66 1231.49 1669.04 1224.68C1674.18 1199.2 1683.23 1174.34 1688.58 1149.37C1689.76 1143.85 1692.64 1139.46 1693.93 1134.02C1696.18 1124.52 1696.24 1116.08 1696.36 1106.8C1696.38 1105.91 1699.48 1103.24 1695.91 1102.68C1693.59 1102.32 1691.68 1112.7 1691.12 1114.44C1687.19 1126.62 1684.27 1139.2 1679.81 1151.3C1677.95 1156.36 1675.94 1161.3 1673.44 1166.13C1672.56 1167.83 1671.68 1169.53 1670.8 1171.23C1670.45 1171.91 1669.01 1173.51 1669.74 1173.27C1672.97 1172.25 1680.89 1155.86 1682.88 1152.89C1692.43 1138.56 1701.73 1123.95 1709.71 1108.52C1710.38 1107.22 1718.76 1091.26 1718.69 1091.17C1716.76 1088.52 1711.49 1096.14 1710.38 1097.22C1703.83 1103.59 1697.81 1110.4 1692.1 1117.54C1682.26 1129.84 1673.11 1141.74 1665.87 1155.74C1665.56 1156.34 1660.04 1166.94 1660.06 1166.97C1660.82 1168.02 1664.77 1164.81 1665.24 1164.47C1670.54 1160.61 1676.17 1155.28 1680.34 1150.28C1693.89 1134.07 1711.07 1119.8 1726.71 1105.67C1727.85 1104.64 1737.52 1095.73 1738.16 1096.06C1740.76 1097.41 1737.59 1104.63 1737.52 1104.79C1734.17 1113.25 1729.09 1122.61 1724.32 1130.32C1709.31 1154.57 1687.23 1173.92 1670.45 1196.93C1668.39 1199.75 1655.18 1216.1 1657.28 1219.89C1658.83 1222.7 1665.36 1218.12 1666.57 1216.93C1668.41 1215.14 1670.82 1214.02 1672.8 1212.39C1677.28 1208.71 1679.89 1202.9 1683.79 1198.66C1700.42 1180.58 1715.77 1161.01 1730.34 1141.2C1736.41 1132.95 1743.31 1125.69 1749.18 1117.29C1753.51 1111.1 1758.59 1105.89 1763.3 1100.01C1765.04 1097.83 1766.78 1095.56 1769.04 1093.91C1769.73 1093.41 1770.85 1091.58 1771.11 1092.4C1771.5 1093.63 1767.01 1100.33 1766.36 1101.59C1762.08 1109.86 1755.95 1116.89 1750.62 1124.51C1731.6 1151.73 1712.9 1179.97 1690.9 1204.93C1682.15 1214.86 1673.33 1224.97 1665.8 1235.95C1665.15 1236.89 1658.74 1247.16 1662.56 1247.21C1666.66 1247.27 1673.57 1239.58 1675.55 1237.11C1681.98 1229.07 1689.06 1221.87 1695.41 1213.73C1717.56 1185.35 1741.66 1157.87 1765.44 1130.88C1773.9 1121.29 1782.19 1111.05 1792.56 1103.49C1793.25 1102.99 1793.99 1102.54 1794.63 1101.98C1795.55 1101.19 1796.53 1098.46 1797.24 1099.44C1799.4 1102.42 1791.68 1108.62 1790.41 1110.15C1783.79 1118.07 1776.17 1125.05 1769.53 1133C1759.84 1144.59 1749.12 1155.05 1739.25 1166.52C1723.35 1184.96 1707.91 1203.82 1692.2 1222.43C1684.15 1231.98 1677.16 1242.37 1669.18 1251.93C1667.92 1253.44 1662.85 1258.67 1665.48 1259.08C1668.33 1259.53 1673.52 1252.64 1674.84 1250.98C1681.45 1242.72 1687.21 1234 1694.21 1226.05C1704.32 1214.58 1713.13 1202.13 1722.98 1190.46C1746.16 1162.99 1769.42 1135.82 1793.51 1109.16C1801.79 1099.99 1809.93 1091.52 1819.56 1083.81C1820.66 1082.93 1827.04 1076.65 1828.89 1078.28C1831.58 1080.65 1826.78 1087.83 1825.65 1089.55C1819.54 1098.94 1811.93 1107.57 1805.23 1116.52C1795.35 1129.72 1784.12 1141.83 1773.86 1154.65C1750.98 1183.24 1728 1211.93 1705.83 1241.12C1696.66 1253.2 1687.58 1266.4 1680.62 1279.85C1679.39 1282.24 1678.15 1284.62 1676.92 1287C1676.39 1288.02 1674.31 1289.54 1675.34 1290.06C1676.84 1290.84 1684.57 1279.44 1685.27 1278.37C1686.54 1276.42 1688.06 1274.64 1689.46 1272.78C1701.81 1256.27 1714.66 1240.22 1726.64 1223.41C1734.67 1212.15 1744.45 1202.49 1753.29 1191.9C1772.61 1168.78 1792.58 1148.53 1816.36 1130.04C1828.49 1120.6 1839.61 1110.22 1851.22 1100.19C1852.2 1099.34 1861.43 1090.63 1863.64 1093.67C1863.89 1094.01 1856.79 1102.76 1855.79 1103.85C1846.93 1113.48 1838.28 1123.37 1829.17 1132.79C1793.66 1169.5 1760.75 1208.87 1726.32 1246.55C1716.36 1257.45 1706.81 1270.32 1698.57 1282.67C1696.87 1285.22 1695.76 1288.12 1694.35 1290.84C1694 1291.52 1692.76 1292.33 1693.29 1292.88C1696.78 1296.46 1701.08 1288.95 1702.62 1287.35C1712.01 1277.65 1721.14 1267.82 1729.77 1257.39C1755.28 1226.57 1781.86 1196.46 1807.13 1165.39C1815.3 1155.35 1822.89 1146 1832.2 1136.94C1843.46 1125.99 1854.4 1115.55 1866.57 1105.54C1866.98 1105.2 1872.62 1100.42 1873.29 1102.55C1873.55 1103.36 1871.83 1103.46 1871.21 1104.06C1870.08 1105.16 1869.09 1106.4 1868.08 1107.62C1866.83 1109.11 1865.82 1110.83 1864.42 1112.19C1854.64 1121.7 1845.19 1131.69 1835.23 1141.1C1797.18 1177.02 1762.21 1216.14 1723.68 1251.65C1715.08 1259.58 1706.29 1267.56 1698.15 1275.98C1697.53 1276.63 1690.99 1285.22 1691.85 1285.66C1695.45 1287.52 1707.3 1276.12 1709.49 1274.08C1724.4 1260.18 1739.5 1246.54 1754.28 1232.53C1778 1210.04 1800.91 1186.64 1824.63 1164.09C1834.73 1154.49 1845.74 1145.8 1855.86 1136.24C1865.94 1126.72 1875.81 1118.03 1886.57 1109.41C1890.17 1106.52 1893.98 1103.84 1897.48 1100.82C1899.04 1099.47 1902.16 1096.77 1902.16 1096.77C1902.16 1096.77 1897.94 1099.71 1895.93 1101.31C1892.59 1103.99 1888.93 1106.25 1885.54 1108.88C1874.24 1117.67 1862.45 1126.26 1851.25 1135.15C1810.33 1167.61 1767.94 1202.41 1740.19 1247.25C1737.87 1251.01 1721.44 1275.27 1724.31 1280.45C1727.1 1285.5 1734.98 1279.53 1737.2 1278.06C1748.88 1270.3 1759.2 1261.39 1769.95 1252.29C1791.31 1234.19 1813.62 1216.46 1834.45 1197.64C1847.58 1185.79 1859.37 1173.01 1873.5 1162.19C1882.41 1155.36 1891.3 1147.59 1901.53 1143.04C1902.79 1142.48 1903.77 1141.01 1905.15 1141.03C1906.51 1141.05 1902.02 1145.13 1901.49 1145.61C1897.34 1149.36 1895.39 1150.91 1890.58 1154.2C1879.09 1162.05 1867.75 1170.77 1856.81 1179.44C1825.02 1204.66 1795.14 1232.18 1764.21 1258.38C1756.63 1264.8 1748.96 1270.62 1742.34 1278.13C1741.3 1279.32 1738.28 1280.41 1739.21 1281.69C1740.47 1283.41 1750.01 1275.23 1750.61 1274.64C1760.63 1264.9 1770.47 1254.68 1780.33 1244.72C1813.34 1211.37 1848.99 1178.73 1888.54 1153.14C1898.36 1146.78 1908.79 1140.14 1919.63 1135.57C1921.62 1134.73 1923.9 1132.61 1925.82 1133.6C1928.5 1134.99 1922.05 1141.26 1921.6 1141.77C1914.54 1149.78 1906.77 1156.56 1898.68 1163.56C1890.95 1170.24 1883.93 1177.59 1876.28 1184.34C1851.91 1205.82 1825.71 1225.73 1800.37 1246.02C1792.49 1252.33 1784.61 1258.78 1776.46 1264.72C1774.38 1266.23 1772.3 1267.74 1770.23 1269.26C1769.53 1269.76 1767.39 1270.38 1768.15 1270.77C1772.31 1272.92 1790.72 1256.11 1793.57 1254.15C1820.49 1235.76 1844.46 1213.51 1872.51 1196.63C1875.28 1194.96 1896.61 1181.77 1899.41 1184.65C1901.68 1186.99 1896.19 1191.69 1895.19 1192.82C1888.91 1199.95 1882.79 1207.12 1876.39 1214.16C1857.5 1234.92 1837.69 1254.62 1817.97 1274.54C1815.75 1276.79 1813.87 1279.35 1811.7 1281.65C1809.51 1283.99 1798.69 1294.45 1799.13 1298.45C1799.55 1302.21 1809.39 1295.38 1809.98 1295C1817.86 1289.9 1824.78 1284.06 1831.81 1277.82C1853.04 1258.96 1874.32 1238.59 1897.86 1222.68C1903 1219.21 1907.41 1216.28 1912.9 1213.63C1913.42 1213.38 1917.23 1209.98 1918.07 1211.13C1919.67 1213.32 1912.91 1216.16 1912.86 1216.2C1908.37 1219.9 1904 1223.66 1899.34 1227.33C1879.27 1243.13 1859.29 1259.11 1839.55 1275.35C1833.36 1280.45 1826.37 1284.77 1820.33 1290C1818.5 1291.58 1816.72 1293.25 1815.12 1295.07C1814.61 1295.64 1813.3 1296.99 1814.06 1297.11C1819.83 1298.02 1828.42 1288.6 1832.72 1286.06C1845.44 1278.52 1859.01 1267.43 1873.64 1264.51C1876.18 1264 1878.05 1262.5 1880.86 1263.07C1885.8 1264.06 1889.38 1270.25 1888.92 1275C1888.81 1276.15 1887.65 1276.96 1887.33 1278.07C1886.38 1281.37 1886.73 1285.46 1885.64 1288.84C1883.73 1294.77 1880.67 1302.29 1881.77 1308.84C1882.63 1313.97 1887.25 1317.64 1891.91 1319.26C1895.39 1320.47 1898.82 1318.77 1901.7 1317.85C1902.51 1317.59 1904.27 1317.89 1904.27 1317.89C1904.27 1317.89 1899.1 1319.53 1896.52 1320.35C1891.03 1322.1 1886.14 1324.37 1882.01 1328.38" fill="none" opacity="1" stroke="#ffffff" stroke-linecap="round" stroke-linejoin="round" stroke-width="10" vectornator:layerName="Curve 48"/>
</g>
</svg>
