<?xml version="1.0" encoding="UTF-8" standalone="no"?>
<!DOCTYPE svg PUBLIC "-//W3C//DTD SVG 1.1//EN" "http://www.w3.org/Graphics/SVG/1.1/DTD/svg11.dtd">
<!-- Created with Vectornator (http://vectornator.io/) -->
<svg height="100%" stroke-miterlimit="10" style="fill-rule:nonzero;clip-rule:evenodd;stroke-linecap:round;stroke-linejoin:round;" version="1.1" viewBox="1194.08 784.106 758.971 315.673" width="100%" xml:space="preserve" xmlns="http://www.w3.org/2000/svg" xmlns:vectornator="http://vectornator.io" xmlns:xlink="http://www.w3.org/1999/xlink">
<defs/>
<g id="Layer-2" vectornator:layerName="Layer 2">
<path d="M1391.07 997.576C1390.63 998.74 1389.86 1002.02 1388.01 1001.8C1383.67 1001.27 1373.51 993.163 1369.99 990.423C1353.54 977.62 1336.77 964.642 1319.4 953.145C1305.1 943.69 1290.67 934.41 1276.37 924.953C1270.26 920.909 1264.65 916.112 1258.54 912.07C1246.44 904.062 1234.11 896.55 1223.32 886.867C1217.49 881.634 1210.56 877.577 1205.23 871.91C1203.27 869.828 1199.34 866.632 1199.1 863.51C1198.78 859.308 1202.52 858.856 1205.81 858.71C1213.9 858.351 1222.19 859.142 1230.38 858.12C1244.68 856.336 1257.5 849.717 1271.19 845.721C1289.8 840.288 1309.07 835.945 1328.02 831.693C1347.81 827.25 1366.8 822.636 1385.27 814.145C1388.98 812.439 1392.3 810.515 1395.68 808.264C1400.03 805.364 1401.33 800.783 1406.72 801.437" fill="none" opacity="1" stroke="#ffffff" stroke-linecap="round" stroke-linejoin="round" stroke-width="10" vectornator:layerName="Curve 1"/>
<path d="M1396.13 1006.36C1396.04 1007.12 1394.91 1008.61 1395.26 1009.31C1395.88 1010.53 1407.3 1012.67 1408.6 1012.97C1420.18 1015.7 1431.73 1018.16 1443.44 1020.27C1456.26 1022.57 1469.06 1024.84 1482.05 1025.98C1501.69 1027.7 1521.4 1027.25 1541.07 1027.53C1563.1 1027.84 1585.07 1030.21 1607.07 1030.44" fill="none" opacity="1" stroke="#ffffff" stroke-linecap="round" stroke-linejoin="round" stroke-width="10" vectornator:layerName="Curve 2"/>
<path d="M1410.26 789.106C1408.87 800.572 1430.96 803.333 1438.41 805.284C1440.21 805.757 1442.05 806.081 1443.88 806.459C1446.04 806.905 1448.21 807.259 1450.36 807.756C1452.85 808.333 1455.32 808.97 1457.78 809.678C1481.62 816.553 1505.92 821.388 1530.36 825.636C1555.19 829.95 1580.88 833.085 1606.12 832.281" fill="none" opacity="1" stroke="#ffffff" stroke-linecap="round" stroke-linejoin="round" stroke-width="10" vectornator:layerName="Curve 3"/>
<path d="M1618.96 999.724C1623.95 982.781 1628.34 965.094 1629.9 947.459C1630.87 936.608 1629.91 925.708 1630.29 914.84C1631.03 894 1632.77 873.37 1635.29 852.666" fill="none" opacity="1" stroke="#ffffff" stroke-linecap="round" stroke-linejoin="round" stroke-width="10" vectornator:layerName="Curve 4"/>
<path d="M1381.18 919.303C1382.34 925.001 1388.67 924.806 1393.21 925.357C1403.15 926.564 1413.17 926.249 1423.07 927.451C1440.27 929.54 1456.46 934.819 1473.2 939.152C1485.19 942.258 1497.63 944.727 1506.93 934.57C1509.23 932.056 1510.19 927.536 1511.23 924.374C1512.44 920.71 1513.12 916.243 1513.2 912.363C1513.4 902.961 1511.93 893.741 1510.46 884.469C1509.97 881.367 1509.2 875.894 1507.22 873.356C1502.53 867.372 1494.33 864.562 1487.07 862.743C1470.64 858.633 1454.21 857.617 1437.27 856.697C1419.33 855.723 1400.2 851.151 1384.94 863.104C1379.79 867.14 1377.37 870.785 1376.57 877.4" fill="none" opacity="1" stroke="#ffffff" stroke-linecap="round" stroke-linejoin="round" stroke-width="10" vectornator:layerName="Curve 5"/>
<path d="M1876.21 1051.82C1877.39 1052.81 1877.98 1054.39 1879.16 1055.38C1883.32 1058.88 1890.14 1061.85 1895.18 1063.98C1906.94 1068.96 1919.56 1075.29 1929.48 1083.63C1933.64 1087.13 1937.89 1090.22 1942.36 1093.39C1942.92 1093.78 1943.36 1095.08 1943.95 1094.72C1945.97 1093.47 1943.43 1087.6 1943.19 1085.97C1942.11 1078.56 1942.41 1066.7 1942.94 1059.27C1943.78 1047.3 1944.91 1035.03 1945.06 1022.66C1945.16 1014.27 1943.92 1005.92 1943.48 997.542C1942.45 977.938 1942.08 958.694 1942.25 939.201C1942.31 932.48 1941.23 925.729 1941.39 919.01C1941.66 907.861 1941.34 896.239 1942.87 885.107C1943.95 877.17 1946.58 869.449 1947.58 861.497C1948.91 850.882 1947.06 840.413 1946.61 829.861C1946.32 823.061 1948.14 807.35 1943.66 802.508C1943.24 802.055 1942.38 801.753 1941.86 802.076C1940.77 802.74 1941.18 804.794 1940.09 805.459C1937.74 806.898 1934.78 807.946 1932.5 809.346C1925.42 813.684 1916.87 815.411 1909.25 818.992C1903.1 821.881 1898.74 826.968 1893.2 830.365C1886.77 834.305 1877.27 829.115 1872.11 831.013C1870.02 831.78 1871.76 833.784 1868.76 833.064C1865.75 832.342 1862.81 827.502 1859.08 829.789C1855.73 831.841 1855.59 847.256 1855.91 850.916C1857.67 871.253 1855.35 891.704 1856.49 911.956C1858.11 940.904 1859.1 970.855 1856.42 999.486C1855.44 1009.84 1857.99 1020.03 1857.6 1030.22C1857.51 1032.55 1858.95 1034.96 1858.79 1037.17C1858.55 1040.61 1857.01 1044.6 1856.2 1047.97" fill="none" opacity="1" stroke="#ffffff" stroke-linecap="round" stroke-linejoin="round" stroke-width="10" vectornator:layerName="Curve 6"/>
<path d="M1635.14 1025.36C1633.67 1025.71 1626.82 1027.26 1627.55 1029.25C1628.72 1032.43 1647.74 1032.83 1650.48 1032.85C1673.02 1033.05 1695.53 1034.83 1718.07 1036.7C1755.34 1039.8 1792.05 1046.44 1829.49 1048.22C1846.52 1049.02 1863.31 1047.22 1880.21 1047.07" fill="none" opacity="1" stroke="#ffffff" stroke-linecap="round" stroke-linejoin="round" stroke-width="10" vectornator:layerName="Curve 7"/>
<path d="M1625.21 947.803C1636.5 953.023 1647.8 958.628 1660.12 960.94C1699.13 968.263 1738.93 962.145 1778.21 964.539C1804.57 966.146 1830.23 973.237 1856.42 975.696" fill="none" opacity="1" stroke="#ffffff" stroke-linecap="round" stroke-linejoin="round" stroke-width="10" vectornator:layerName="Curve 8"/>
<path d="M1643.35 896.013C1666.27 907.96 1690.67 905.676 1715.69 903.858C1746.9 901.591 1778.31 900.502 1809.45 897.812C1822.16 896.713 1834.51 893.459 1847.09 891.621" fill="none" opacity="1" stroke="#ffffff" stroke-linecap="round" stroke-linejoin="round" stroke-width="10" vectornator:layerName="Curve 9"/>
<path d="M1631.04 828.35C1639.98 830.495 1648.34 835.144 1657.6 836.628C1680.39 840.277 1704.23 837.331 1727.21 840.011C1743.44 841.904 1759.62 845.273 1775.76 847.857C1811.83 853.632 1847.9 859.392 1884.09 864.34" fill="none" opacity="1" stroke="#ffffff" stroke-linecap="round" stroke-linejoin="round" stroke-width="10" vectornator:layerName="Curve 10"/>
<path d="M1631.58 1028.31C1633.55 1025.97 1635.95 1025.64 1638.28 1024.21C1641.38 1022.31 1644.6 1019.14 1647.63 1016.94C1651.63 1014.05 1654.51 1010.04 1658.54 1007.19C1668.07 1000.44 1676.64 992.671 1685.71 985.162" fill="none" opacity="1" stroke="#ffffff" stroke-linecap="round" stroke-linejoin="round" stroke-width="10" vectornator:layerName="Curve 11"/>
<path d="M1679.74 1017.99C1685.43 1019.35 1691.15 1021.44 1697.05 1021.19C1709.19 1020.67 1720.37 1012.3 1728.76 1004.06C1732.51 1000.37 1734.52 995.57 1738.29 992.072" fill="none" opacity="1" stroke="#ffffff" stroke-linecap="round" stroke-linejoin="round" stroke-width="10" vectornator:layerName="Curve 12"/>
<path d="M1727.35 1021.8C1733.08 1014.99 1739.48 1009.69 1746.72 1004.56C1762.35 993.483 1777.34 981.954 1793.54 972.025" fill="none" opacity="1" stroke="#ffffff" stroke-linecap="round" stroke-linejoin="round" stroke-width="10" vectornator:layerName="Curve 13"/>
<path d="M1796.74 1026.08C1815.77 1024.44 1831.59 1011.65 1843.6 997.362" fill="none" opacity="1" stroke="#ffffff" stroke-linecap="round" stroke-linejoin="round" stroke-width="10" vectornator:layerName="Curve 14"/>
<path d="M1773.38 976.704C1780.84 982.976 1786.8 991.277 1795.34 996.247C1812.32 1006.13 1834.34 1011.32 1853.43 1015.9" fill="none" opacity="1" stroke="#ffffff" stroke-linecap="round" stroke-linejoin="round" stroke-width="10" vectornator:layerName="Curve 15"/>
<path d="M1729.12 970.837C1734.12 975.049 1736.24 981.825 1741.82 985.306C1755.23 993.659 1770.32 998.968 1784.43 1006C1795.31 1011.42 1805.34 1019.06 1816.25 1024.1" fill="none" opacity="1" stroke="#ffffff" stroke-linecap="round" stroke-linejoin="round" stroke-width="10" vectornator:layerName="Curve 16"/>
<path d="M1684.38 986.745C1691.77 991.35 1695.06 999.878 1703.17 1003.63C1711.02 1007.26 1718.55 1010.33 1726.6 1013.05C1737.07 1016.6 1748.09 1018.69 1756.79 1026.01" fill="none" opacity="1" stroke="#ffffff" stroke-linecap="round" stroke-linejoin="round" stroke-width="10" vectornator:layerName="Curve 17"/>
<path d="M1655.3 973.105C1660.44 979.316 1663.36 987.45 1669.62 992.72C1677.78 999.58 1694.58 1005.37 1705 1007.87" fill="none" opacity="1" stroke="#ffffff" stroke-linecap="round" stroke-linejoin="round" stroke-width="10" vectornator:layerName="Curve 18"/>
<path d="M1612.9 975.3C1617.74 978.317 1617.76 977.601 1620.82 981.959C1623.96 986.424 1626.52 991.3 1629.93 995.563C1636.13 1003.32 1654.72 1008.92 1664.37 1006.68" fill="none" opacity="1" stroke="#ffffff" stroke-linecap="round" stroke-linejoin="round" stroke-width="10" vectornator:layerName="Curve 19"/>
<path d="M1779.65 879.241C1796.3 872.044 1808.15 861.638 1821.79 850.34" fill="none" opacity="1" stroke="#ffffff" stroke-linecap="round" stroke-linejoin="round" stroke-width="10" vectornator:layerName="Curve 20"/>
<path d="M1711.52 889.534C1716.13 884.046 1725.74 881.413 1732.28 878.341C1747.34 871.266 1765.71 862.642 1775.54 848.756" fill="none" opacity="1" stroke="#ffffff" stroke-linecap="round" stroke-linejoin="round" stroke-width="10" vectornator:layerName="Curve 21"/>
<path d="M1692.4 862.109C1709.6 859.599 1727.41 860.163 1740.74 847.065C1744.09 843.77 1745.82 839.466 1748.26 835.548" fill="none" opacity="1" stroke="#ffffff" stroke-linecap="round" stroke-linejoin="round" stroke-width="10" vectornator:layerName="Curve 22"/>
<path d="M1640.4 868.66C1644.14 866.369 1648.39 865.028 1652.24 862.937C1655.76 861.027 1659.43 857.272 1662.71 854.983C1671.81 848.643 1680.75 842.492 1688.55 834.54" fill="none" opacity="1" stroke="#ffffff" stroke-linecap="round" stroke-linejoin="round" stroke-width="10" vectornator:layerName="Curve 23"/>
<path d="M1664.76 858.33C1672.54 867.714 1675.15 881.661 1684.81 889.786C1696.23 899.389 1718.86 907.419 1733.9 907.277" fill="none" opacity="1" stroke="#ffffff" stroke-linecap="round" stroke-linejoin="round" stroke-width="10" vectornator:layerName="Curve 24"/>
<path d="M1709.36 850.952C1724.28 868.971 1746.88 880.893 1769.39 886.295C1775.52 887.767 1785.34 892.793 1789.36 886.331" fill="none" opacity="1" stroke="#ffffff" stroke-linecap="round" stroke-linejoin="round" stroke-width="10" vectornator:layerName="Curve 25"/>
<path d="M1775.08 846.741C1782.66 854.178 1788.43 863.238 1795.95 870.783C1812.96 887.854 1835.4 901.184 1858.68 906.773" fill="none" opacity="1" stroke="#ffffff" stroke-linecap="round" stroke-linejoin="round" stroke-width="10" vectornator:layerName="Curve 26"/>
</g>
</svg>
