<?xml version="1.0" encoding="UTF-8" standalone="no"?>
<!DOCTYPE svg PUBLIC "-//W3C//DTD SVG 1.1//EN" "http://www.w3.org/Graphics/SVG/1.1/DTD/svg11.dtd">
<!-- Created with Vectornator (http://vectornator.io/) -->
<svg height="100%" stroke-miterlimit="10" style="fill-rule:nonzero;clip-rule:evenodd;stroke-linecap:round;stroke-linejoin:round;" version="1.1" viewBox="420.619 444.438 2347.94 1480.88" width="100%" xml:space="preserve" xmlns="http://www.w3.org/2000/svg" xmlns:vectornator="http://vectornator.io" xmlns:xlink="http://www.w3.org/1999/xlink">
<defs/>
<g id="Layer-2" vectornator:layerName="Layer 2">
<path d="M1500.33 657.085C1487.22 655.212 1471.33 651.942 1458.05 654.598C1447.3 656.748 1436.48 663.958 1425.73 667.031C1394.68 675.902 1363.14 686.748 1333.72 699.358C1306.8 710.893 1277.39 716.983 1251.66 731.685C1235.11 741.144 1222.3 753.011 1206.9 764.012C1199.09 769.589 1189.58 772.641 1182.03 778.932C1174.5 785.209 1168.32 791.385 1159.65 796.339C1148.83 802.523 1137 808.165 1127.32 816.232C1101.46 837.789 1076.64 859.763 1050.24 880.886C1032.91 894.744 1002.33 916.455 990.556 935.593C978.486 955.207 967.252 975.324 955.743 995.273C953.89 998.484 951.941 1001.7 950.769 1005.22C939.246 1039.79 950.86 1073 955.743 1107.17C959.857 1135.98 961.025 1165.6 968.176 1194.21C981.886 1249.05 1017.16 1299.31 1050.24 1343.41C1057.66 1353.31 1068.85 1362.02 1077.59 1370.76C1128.84 1422.01 1190.6 1448.17 1259.12 1467.74C1288.9 1476.25 1318.86 1484.1 1348.64 1492.61C1366.11 1497.6 1385.1 1506.39 1403.35 1507.53C1438.96 1509.76 1474.62 1510.99 1510.27 1512.5C1526.14 1513.18 1544.24 1515.13 1560.01 1512.5C1598.47 1506.09 1638.09 1503.12 1676.88 1497.58C1720.45 1491.36 1765.98 1484.92 1808.67 1472.72C1824.68 1468.14 1840.15 1460.57 1855.92 1455.31C1883.11 1446.25 1910.01 1438.21 1935.5 1425.47C1957.28 1414.58 1978.82 1405.33 2000.15 1393.14C2008.23 1388.53 2018.41 1384.82 2025.02 1378.22C2037.61 1365.63 2029.94 1346 2037.45 1330.98C2049.89 1306.09 2073.4 1285.29 2082.21 1258.86C2091.54 1230.87 2082.49 1202.5 2087.18 1174.31C2092.83 1140.44 2102.23 1105.58 2097.13 1069.87C2094.16 1049.11 2089.97 1029.54 2092.16 1007.71C2094.38 985.473 2103.42 963.389 2099.62 940.566C2096.78 923.575 2083.86 908.776 2077.24 893.319C2069.73 875.8 2064.92 859.269 2052.37 843.586C2039.27 827.212 2013.35 817.861 1995.18 808.772C1939.49 780.93 1885.74 763.51 1826.08 751.579C1811.19 748.6 1796.07 742.096 1781.32 739.145C1776.44 738.17 1771.31 739.963 1766.4 739.145C1744.28 735.459 1722.01 734.172 1699.26 734.172C1667.12 734.172 1632.99 734.388 1602.28 726.712C1595.35 724.978 1586.93 727.883 1579.9 726.712C1567.85 724.703 1555 723.51 1542.6 721.738C1526.55 719.445 1511.96 712.87 1497.84 706.818C1489.81 703.376 1481.04 704.149 1472.97 701.845C1466.04 699.865 1419.05 693.415 1413.29 696.872C1408.24 699.902 1406.96 709.749 1405.83 714.278" fill="none" opacity="1" stroke="#ffffff" stroke-linecap="round" stroke-linejoin="round" stroke-width="10" vectornator:layerName="Curve 1"/>
<path d="M1149.7 808.772C1142.26 793.89 1126.58 788.713 1117.38 776.445C1077.78 723.65 1007.14 722.342 945.796 716.765C920.872 714.499 896.041 711.789 871.195 709.305C855.193 707.705 839.896 701.13 823.948 699.358C797.441 696.413 770.894 697.037 744.375 694.385C707.019 690.649 666.623 690.199 629.987 699.358C616.663 702.689 603.205 703.102 590.2 706.818C545.963 719.457 496.529 738.323 463.379 771.472C454.68 780.171 447.579 789.759 438.513 798.825C435.582 801.756 433.539 805.457 431.053 808.772C429.646 810.648 423.982 812.697 426.079 813.746C428.912 815.162 461.101 801.025 465.866 798.825C474.96 794.628 484.014 790.337 493.22 786.392C510.058 779.176 527.646 776.183 545.44 773.959C551.428 773.21 556.873 769.839 562.847 768.985C592.587 764.737 622.632 762.755 652.367 759.039C664.609 757.508 677.425 760.569 689.668 759.039C795.641 745.792 902.254 766.986 1000.5 806.286C1027.35 817.026 1045.47 838.714 1070.13 851.046" fill="none" opacity="1" stroke="#ffffff" stroke-linecap="round" stroke-linejoin="round" stroke-width="10" vectornator:layerName="Curve 2"/>
<path d="M978.123 945.54C978.123 926.496 962.051 928.667 948.282 923.16C920.04 911.863 888.716 906.77 858.762 900.779C836.623 896.352 815.559 883.762 794.108 878.399C766.697 871.546 738.831 865.966 709.561 865.966C692.986 865.966 676.971 866.098 662.314 873.426C652.774 878.196 648.011 889.748 639.934 895.806C613.081 915.946 591.098 942.156 567.82 965.433C550.065 983.188 530.65 1000.12 513.113 1017.65C510.492 1020.27 505.788 1020.01 503.166 1022.63C498.548 1027.25 495.482 1035.28 490.733 1040.03C489.201 1041.57 473.172 1059.77 475.813 1062.41C478.568 1065.17 492.775 1062.13 495.706 1059.93C512.91 1047.02 532.12 1033.6 550.413 1022.63C593.846 996.567 640.633 988.526 689.668 980.353C710.794 976.832 732.064 984.518 751.835 987.813C780.636 992.614 810.504 985.696 838.868 992.787C847.592 994.968 855.093 1000.26 863.735 1002.73C876.829 1006.47 890.303 1009.38 903.522 1012.68C925.228 1018.11 971.662 1023.61 950.769 1054.95" fill="none" opacity="1" stroke="#ffffff" stroke-linecap="round" stroke-linejoin="round" stroke-width="10" vectornator:layerName="Curve 3"/>
<path d="M958.229 1129.55C955.548 1125.53 954.187 1120.54 950.769 1117.12C945.277 1111.63 935.058 1115.75 928.389 1114.63C910.098 1111.59 891.602 1110.16 873.682 1107.17C806.969 1096.06 731.509 1108.07 669.774 1134.53C664.896 1136.62 661.892 1141.74 657.341 1144.47C648.137 1150 639.327 1156.28 629.987 1161.88C621.859 1166.76 612.567 1170.84 605.12 1176.8C582.513 1194.89 576.539 1222.76 567.82 1248.91C566.351 1253.32 560.658 1286.22 557.873 1286.22C555.907 1286.22 559.518 1270.49 560.36 1268.81C566.068 1257.39 579.152 1250.57 590.2 1243.94C616.214 1228.33 641.69 1217.88 669.774 1206.64C677.243 1203.65 686.778 1197.82 694.641 1196.69C729.098 1191.77 770.969 1186.64 806.542 1191.72C853.909 1198.49 905.512 1200.18 953.256 1194.21C974.157 1191.6 1001.68 1187.48 1022.88 1191.72C1028.02 1192.75 1032.61 1195.95 1037.8 1196.69C1047.91 1198.14 1060.33 1199.33 1067.64 1206.64" fill="none" opacity="1" stroke="#ffffff" stroke-linecap="round" stroke-linejoin="round" stroke-width="10" vectornator:layerName="Curve 4"/>
<path d="M1055.21 1385.68C1055.21 1372.04 1038.07 1364.71 1025.37 1363.3C994.718 1359.9 961.774 1358.89 930.876 1363.3C914.822 1365.6 899.801 1373.43 883.629 1375.74C864.043 1378.53 844.98 1385.72 826.435 1393.14C814.403 1397.96 800.622 1400.98 789.135 1405.58C767.093 1414.39 738.505 1436.61 724.481 1455.31C721.982 1458.64 720.941 1464.16 719.508 1467.74C716.942 1474.16 710.91 1480.89 709.561 1487.64C705.104 1509.92 702.101 1531.49 702.101 1554.78C702.101 1577.81 700.172 1602.33 704.588 1624.4C705.709 1630.01 702.64 1632.4 707.074 1636.84C708.385 1638.15 710.289 1639.91 712.048 1639.32C714.022 1638.67 718.484 1626.45 719.508 1624.4C725.641 1612.14 735.555 1600.17 744.375 1589.59C765.809 1563.87 794.56 1546.64 821.462 1527.42C838.268 1515.42 857.615 1505.53 876.169 1497.58C887.581 1492.69 897.17 1482.54 908.496 1477.69C923.326 1471.33 938.135 1464.28 953.256 1457.8C1006.07 1435.16 1063.62 1435.42 1119.86 1435.42" fill="none" opacity="1" stroke="#ffffff" stroke-linecap="round" stroke-linejoin="round" stroke-width="10" vectornator:layerName="Curve 5"/>
<path d="M2054.86 821.206C2031.25 809.402 2076.69 796.854 2084.7 793.852C2121.54 780.034 2157.78 766.715 2194.11 751.579C2230.24 736.523 2269.01 714.946 2308.5 709.305C2318.25 707.912 2328.56 710.527 2338.34 709.305C2365.12 705.958 2388.74 709.123 2415.43 711.792C2446.92 714.941 2479.88 717.934 2509.92 729.198C2523.97 734.469 2553.2 747.031 2564.63 756.552C2566.92 758.465 2567.49 761.899 2569.6 764.012C2582.99 777.403 2597.12 789.074 2609.39 803.799C2625.52 823.16 2646.47 838.4 2664.09 856.019C2672.83 864.751 2679.44 872.723 2688.96 880.886C2693.88 885.099 2696.82 891.228 2701.39 895.806C2710.66 905.075 2723.13 912.35 2731.23 923.16C2737.23 931.159 2744.12 941.018 2751.13 948.026C2753.7 950.598 2763.56 960.692 2763.56 950.513C2763.56 936.494 2738.66 924.136 2728.75 918.186C2716.12 910.609 2701.88 907.237 2688.96 900.779C2657.87 885.235 2625.03 874.495 2591.98 863.479C2510.58 836.346 2422.86 830.705 2338.34 846.072C2323.79 848.718 2307.49 850.8 2293.58 856.019C2261.71 867.969 2236.26 888.789 2209.03 908.239C2197.18 916.704 2187.76 926.375 2176.7 935.593C2161.33 948.407 2143.57 960.39 2136.92 980.353" fill="none" opacity="1" stroke="#ffffff" stroke-linecap="round" stroke-linejoin="round" stroke-width="10" vectornator:layerName="Curve 6"/>
<path d="M2114.54 1077.33C2113.34 1077.33 2098.03 1078.71 2099.62 1072.36C2100.66 1068.19 2126.49 1063.97 2131.94 1062.41C2161.75 1053.9 2191.48 1047.53 2221.46 1040.03C2282.49 1024.78 2342.63 1017.65 2405.48 1017.65C2433.82 1017.65 2468.79 1016.98 2495 1030.09C2512.57 1038.87 2530.62 1047.48 2547.22 1057.44C2579.18 1076.62 2595.18 1122.8 2599.44 1156.91C2601.89 1176.54 2611.4 1197.54 2616.85 1216.59C2625.28 1246.12 2627.93 1278.54 2641.71 1306.11C2643.96 1310.59 2651.03 1327.56 2659.12 1323.52C2662.44 1321.86 2654.87 1317.2 2654.15 1313.57C2652.65 1306.1 2652.02 1303.28 2649.17 1296.16C2638.86 1270.39 2613.85 1251.14 2589.49 1238.97C2557.77 1223.11 2519.99 1212.47 2485.05 1206.64C2454.74 1201.59 2426 1186.13 2395.53 1181.77C2353.97 1175.84 2311.12 1176.8 2268.71 1176.8C2251.83 1176.8 2235.36 1176.56 2218.98 1179.29C2210.71 1180.67 2204.47 1187.66 2196.6 1189.23C2180.68 1192.42 2162.53 1199.44 2156.81 1216.59" fill="none" opacity="1" stroke="#ffffff" stroke-linecap="round" stroke-linejoin="round" stroke-width="10" vectornator:layerName="Curve 7"/>
<path d="M2092.16 1363.3C2093.68 1360.25 2092.75 1356.2 2094.64 1353.36C2098.39 1347.73 2117.21 1350.87 2122 1350.87C2139.42 1350.87 2154.59 1354.28 2171.73 1355.84C2220.28 1360.26 2270.16 1354.78 2318.44 1360.82C2329.53 1362.2 2340.1 1367.71 2350.77 1370.76C2398.45 1384.38 2449.04 1390.68 2492.51 1415.52C2497.06 1418.12 2505.88 1421.43 2509.92 1425.47C2531.91 1447.46 2536.81 1474.81 2547.22 1502.56C2558.62 1532.95 2568.49 1564.71 2572.09 1597.05C2575.49 1627.7 2572.09 1660.67 2572.09 1691.54C2572.09 1711.44 2572.09 1731.33 2572.09 1751.22C2572.09 1756.27 2576.17 1761.36 2574.57 1766.14C2574.05 1767.72 2570.98 1767.06 2569.6 1766.14C2566.51 1764.09 2566.53 1759.38 2564.63 1756.2C2563.09 1753.64 2561.31 1751.22 2559.65 1748.74C2551.21 1736.08 2545.09 1721.98 2537.27 1708.95C2512.28 1667.3 2485.37 1624.72 2450.24 1589.59C2418.68 1558.03 2385.11 1528.97 2345.8 1507.53C2320.89 1493.94 2293.97 1485.34 2268.71 1472.72C2207.29 1442.01 2130.35 1426.78 2062.32 1440.39" fill="none" opacity="1" stroke="#ffffff" stroke-linecap="round" stroke-linejoin="round" stroke-width="10" vectornator:layerName="Curve 8"/>
<path d="M1952.9 1477.69C1969.15 1469.57 1993.13 1475.5 2007.61 1485.15C2013 1488.74 2016.74 1494.69 2022.53 1497.58C2036.95 1504.79 2048.48 1513.8 2062.32 1522.45C2117.49 1556.94 2180.94 1584.17 2223.95 1634.35C2230.66 1642.18 2240.35 1648.35 2246.33 1656.73C2268.43 1687.66 2281.27 1721.68 2296.06 1756.2C2311.55 1792.33 2315.96 1824.4 2315.96 1863.13C2315.96 1878.52 2315.93 1893.15 2313.47 1907.89C2312.78 1912.05 2310.98 1920.32 2310.98 1920.32C2310.98 1920.32 2312.62 1900.29 2310.98 1890.48C2309.23 1879.93 2302.58 1868.24 2298.55 1858.15C2294.44 1847.87 2280.96 1839.9 2273.68 1830.8C2264.49 1819.3 2252.78 1810.48 2241.36 1800.96C2233.29 1794.23 2227.05 1785.3 2218.98 1778.58C2195.95 1759.39 2169.62 1743.38 2146.86 1723.87C2126.65 1706.55 2104.95 1688.35 2082.21 1674.14C2058.62 1659.39 2033.75 1646.65 2010.1 1631.86C1978.39 1612.05 1949.28 1588.01 1918.09 1567.21C1876.33 1539.37 1827.33 1499.91 1773.86 1519.96C1762.61 1524.18 1753.49 1532.76 1744.02 1539.86" fill="none" opacity="1" stroke="#ffffff" stroke-linecap="round" stroke-linejoin="round" stroke-width="10" vectornator:layerName="Curve 9"/>
<path d="M1331.23 694.385C1323.58 696.935 1313.11 700.48 1306.36 704.332C1304.33 705.495 1303.74 709.305 1301.39 709.305C1297.68 709.305 1304.71 702.674 1306.36 699.358C1309.77 692.551 1314.83 684.364 1316.31 676.978C1322.16 647.741 1329.18 618.491 1338.69 589.944C1345.17 570.503 1347.35 551.702 1361.07 535.237C1369.23 525.45 1377.97 519.828 1388.43 512.857C1426.34 487.58 1460.82 469.533 1505.3 460.637C1514.35 458.827 1523.69 454.97 1532.65 453.177C1543.01 451.104 1554.55 454.915 1564.98 453.177C1570.57 452.245 1570.26 447.112 1577.41 450.69C1584.14 454.056 1578.57 463.423 1574.93 465.61C1549.59 480.811 1532.22 492.363 1515.25 517.83C1494.24 549.334 1486.98 590.734 1482.92 627.244C1481.27 642.059 1478.62 654.482 1482.92 669.518C1485.17 677.403 1496.92 686.004 1500.33 689.411" fill="none" opacity="1" stroke="#ffffff" stroke-linecap="round" stroke-linejoin="round" stroke-width="10" vectornator:layerName="Curve 10"/>
<path d="M1880.79 515.344C1906.48 515.344 1909.9 548.568 1915.6 567.564C1922.82 591.614 1923.06 612.041 1923.06 637.191C1923.06 645.627 1924.5 654.204 1920.58 662.058C1915.07 673.073 1906.91 681.512 1900.68 691.898C1894.05 702.958 1871.39 724.499 1890.74 734.172" fill="none" opacity="1" stroke="#ffffff" stroke-linecap="round" stroke-linejoin="round" stroke-width="10" vectornator:layerName="Curve 11"/>
<path d="M1890.74 535.237C1916.25 509.72 1988.03 543.321 2002.64 572.537C2027.62 622.503 2004.44 682.658 2000.15 734.172C1997.99 760.083 2000.06 785.958 2005.12 811.259" fill="none" opacity="1" stroke="#ffffff" stroke-linecap="round" stroke-linejoin="round" stroke-width="10" vectornator:layerName="Curve 12"/>
</g>
</svg>
