<?xml version="1.0" encoding="UTF-8" standalone="no"?>
<!DOCTYPE svg PUBLIC "-//W3C//DTD SVG 1.1//EN" "http://www.w3.org/Graphics/SVG/1.1/DTD/svg11.dtd">
<!-- Created with Vectornator (http://vectornator.io/) -->
<svg height="100%" stroke-miterlimit="10" style="fill-rule:nonzero;clip-rule:evenodd;stroke-linecap:round;stroke-linejoin:round;" version="1.1" viewBox="873.653 292.297 1934.26 1578.14" width="100%" xml:space="preserve" xmlns="http://www.w3.org/2000/svg" xmlns:vectornator="http://vectornator.io" xmlns:xlink="http://www.w3.org/1999/xlink">
<defs/>
<g id="Layer-1" vectornator:layerName="Layer 1">
<path d="M2208.34 1240.87C2206.25 1242.55 2198.73 1241.54 2195.99 1241.54C2189.41 1241.54 2183.19 1242.56 2178.01 1246.7" fill="none" opacity="1" stroke="#ffffff" stroke-linecap="round" stroke-linejoin="round" stroke-width="10" vectornator:layerName="Curve 115"/>
<path d="M1395.99 426.487C1393.44 426.487 1401.08 427.355 1403.62 427.074C1405.35 426.88 1400.67 424.727 1398.92 424.727C1398.05 424.727 1397.19 425.282 1396.58 425.9C1394.15 428.327 1393.23 432.765 1390.71 435.288C1389.54 436.461 1387.8 437.267 1387.19 438.808C1384.5 445.535 1379.13 451.146 1375.45 457.583C1370.97 465.421 1366.56 473.025 1362.55 481.052C1360.72 484.695 1357.69 488.725 1356.68 492.786C1356.11 495.063 1356.68 497.48 1356.68 499.827C1356.68 514.969 1387.51 494.09 1375.45 489.266C1369.37 486.833 1365.13 495.204 1362.55 498.654C1356.45 506.776 1352.48 517.97 1350.81 527.99C1350.3 531.076 1351.2 534.272 1350.81 537.377C1350.3 541.497 1348.99 543.432 1349.64 547.938C1350.16 551.57 1352.21 558.025 1355.51 559.673C1362.22 563.031 1367.55 554.425 1371.93 563.193C1376.82 572.957 1377.11 607.176 1391.88 610.131C1398.24 611.402 1402.04 600.937 1405.96 601.917C1409.64 602.836 1407.99 606.741 1408.31 608.957C1409.21 615.247 1410.95 625.898 1416.52 630.079C1423.97 635.66 1426.33 625.386 1432.95 625.386C1436.88 625.386 1437.05 631.234 1437.65 633.6C1438.32 636.291 1449.5 654.722 1451.73 654.722C1457.53 654.722 1462.83 637.12 1470.5 637.12C1474.11 637.12 1474.27 643.023 1475.2 645.334C1478.42 653.391 1482.95 665.14 1493.97 662.936C1499.66 661.799 1503.84 653.512 1505.71 648.854C1506.9 645.882 1508.86 644.386 1510.4 641.814C1515.81 632.798 1518 622.478 1525.65 614.825C1533.62 606.856 1536.12 620.056 1542.08 623.039C1547.74 625.865 1557.61 623.945 1562.03 619.518C1569.84 611.71 1573.54 598.846 1578.46 589.009C1579.89 586.158 1583.15 580.514 1583.15 577.274C1583.15 569.857 1564.62 570.2 1566.73 559.673C1567.46 555.991 1570.65 552.942 1571.42 549.112C1572.58 543.311 1572.6 537.357 1573.77 531.51C1574.59 527.382 1576.31 522.841 1573.77 518.602C1568.4 509.653 1556.87 517.665 1550.3 512.735C1546.21 509.667 1548.3 507.154 1546.78 503.347C1544.94 498.766 1540.33 493.382 1538.56 488.093C1536.65 482.343 1536.18 473.973 1531.52 469.317C1530.13 467.924 1518.67 462.51 1518.61 462.277C1517.82 459.096 1522.06 456.147 1523.31 454.063C1526.08 449.44 1525.31 442.067 1520.96 438.808C1518.63 437.057 1515.35 436.591 1512.75 435.288C1506.58 432.203 1502.2 427.955 1495.15 427.074C1488.51 426.244 1481.57 428.448 1475.2 425.9C1471.07 424.248 1466.5 420.726 1463.46 417.686C1460.81 415.039 1459.63 411.521 1455.25 410.645C1451.42 409.879 1448.13 414.666 1445.86 417.686C1444.89 418.976 1444.69 422.38 1444.69 422.38C1444.69 422.38 1444.84 420.8 1444.69 420.033C1444.05 416.847 1442.19 413.725 1441.17 410.645C1439.02 404.199 1435.42 397.996 1428.26 396.564C1416.31 394.174 1403.61 400.09 1395.4 408.298C1394.64 409.059 1386.24 417.978 1387.19 418.859C1392.6 423.881 1399.71 426.487 1395.99 426.487Z" fill="none" opacity="1" stroke="#ffffff" stroke-linecap="round" stroke-linejoin="round" stroke-width="10" vectornator:layerName="Curve 148"/>
<path d="M1946.92 635.947C1939.31 635.947 1930.65 637.653 1923.45 634.773C1913.26 630.697 1909.58 622.92 1903.5 614.825C1895.12 603.648 1882.86 594.943 1871.82 586.662C1865.77 582.126 1859.24 575.475 1855.39 569.06C1854.54 567.64 1848.71 560.846 1847.18 560.846C1846.3 560.846 1847.73 562.575 1848.35 563.193C1848.97 563.811 1849.92 563.975 1850.7 564.366C1852.26 565.149 1853.83 565.931 1855.39 566.713C1859.97 569.002 1865.62 572.916 1870.65 573.754C1882.65 575.755 1903.11 578.527 1915.24 576.101C1919.52 575.245 1923.6 573.149 1928.15 572.581C1933.11 571.96 1937.65 572.006 1936.36 578.448C1935.38 583.351 1925.33 579.783 1923.45 577.274C1921.49 574.653 1921.12 570.859 1919.93 567.887C1917.71 562.331 1914.01 558.428 1910.54 553.805C1904.77 546.107 1900.75 535.03 1889.42 535.03C1888.64 535.03 1890.99 535.03 1891.77 535.03C1893.33 535.03 1894.91 535.252 1896.46 535.03C1897.69 534.855 1898.76 534.032 1899.98 533.857C1904.66 533.189 1909.31 532.104 1914.06 531.51C1928.53 529.702 1942.89 528.437 1957.48 526.816C1961.19 526.404 1970.97 527.725 1972.74 523.296C1974.76 518.234 1968.71 516.892 1965.7 515.082C1957.83 510.361 1945.65 510.388 1936.36 510.388C1932.45 510.388 1924.63 510.388 1924.63 510.388C1924.63 510.388 1930.16 509.885 1932.84 509.215C1936.62 508.269 1939.91 508.262 1943.4 506.868C1954.4 502.467 1966.19 500.052 1977.43 496.307C1979.24 495.702 1986.25 494.488 1986.82 492.786C1987.85 489.706 1980.35 489.616 1978.6 489.266C1974.46 488.438 1969.85 488.785 1965.7 488.093C1961.87 487.456 1957.76 485.331 1953.96 484.572C1952.66 484.313 1945.94 484.978 1946.92 481.052C1947.95 476.93 1954.54 475.778 1957.48 474.011C1966.18 468.793 1975.73 465.177 1984.47 459.93C1985.68 459.204 1986.73 458.214 1987.99 457.583C1988.41 457.375 1996.21 455.05 1996.21 454.063C1996.21 451.28 1987.35 453.954 1986.82 452.889C1986.12 451.494 1999.47 445.388 2000.9 444.675C2007.54 441.352 2015.16 440.378 2022.02 437.635C2024.32 436.716 2027.96 437.5 2029.06 435.288C2030 433.404 2025.27 433.287 2023.19 432.941C2020.93 432.563 2006.63 432.038 2009.11 427.074C2010.36 424.575 2013.86 423.525 2016.15 422.38C2024.02 418.446 2033.88 416.01 2036.1 407.125C2036.82 404.267 2040.03 399.323 2037.28 396.564C2036.72 396.011 2037.09 398.152 2037.28 398.911C2037.49 399.759 2038.06 400.475 2038.45 401.258C2038.84 402.04 2039.23 402.822 2039.62 403.605C2040.93 406.211 2041.39 409.484 2043.14 411.819C2046.04 415.678 2050.42 417.926 2053.7 421.206C2058.05 425.556 2061.01 430.755 2066.61 434.114C2068.11 435.014 2069.74 435.679 2071.31 436.461C2086.81 444.214 2051.36 441.054 2051.36 447.022C2051.36 454.03 2082.54 457.855 2074.83 468.144C2071.93 472.011 2066.29 476.521 2061.92 478.705C2061.44 478.946 2054.43 481.774 2056.05 483.399C2057.24 484.585 2067.96 482.864 2066.61 486.919C2066.34 487.749 2064.88 487.474 2064.27 488.093C2059.92 492.443 2050.92 497.652 2052.53 505.694C2054.07 513.371 2066.89 515.917 2067.79 518.602C2068.79 521.626 2061.02 522.883 2059.57 523.296C2056.23 524.252 2037.28 528.067 2037.28 532.683C2037.28 537.601 2057.8 542.039 2058.4 544.418C2059.66 549.471 2050.59 548.653 2047.84 549.112C2045.11 549.566 2021.46 556.665 2020.85 558.499C2019.84 561.538 2028.79 563.884 2030.24 564.366C2039.22 567.36 2058.42 571.822 2064.27 579.621C2072.72 590.892 2047.22 587.835 2043.14 587.835C2042.67 587.835 2036.33 586.885 2039.62 590.182C2041.55 592.114 2047.54 593.818 2050.18 594.876C2056.05 597.222 2061.24 601.041 2066.61 604.264C2068 605.094 2075.55 609.122 2074.83 611.304C2074.11 613.444 2062.42 613.651 2060.75 613.651C2055.94 613.651 2051.43 615.317 2046.66 615.998C2042.54 616.588 2036.36 615.285 2032.58 617.171C2031.8 617.563 2031.62 618.67 2031.41 619.518C2030.22 624.26 2050.7 634.276 2054.88 635.947C2057.28 636.906 2059.61 638.311 2061.92 639.467C2062.7 639.858 2064.88 640.022 2064.27 640.64C2063.7 641.208 2055.75 640.64 2054.88 640.64C2045.73 640.64 2036.77 640.334 2027.89 641.814C2026.36 642.068 2023.28 641.099 2022.02 642.987C2020.02 645.989 2032.65 650.632 2034.93 651.201C2036.49 651.592 2041.24 652.375 2039.62 652.375C2035.56 652.375 2031.6 648.917 2027.89 647.681C2015.39 643.515 2003.54 637.597 1990.34 635.947C1967.3 633.067 1942.8 636.237 1919.93 632.426C1916.04 631.777 1913.1 628.976 1909.37 627.732" fill="none" opacity="1" stroke="#ffffff" stroke-linecap="round" stroke-linejoin="round" stroke-width="10" vectornator:layerName="Curve 149"/>
<path d="M2206.33 1288.14C2200.54 1280.89 2195.63 1272.2 2190.35 1264.45" fill="none" opacity="1" stroke="#ffffff" stroke-linecap="round" stroke-linejoin="round" stroke-width="10" vectornator:layerName="Curve 116"/>
<path d="M2199.44 1316.84C2197.59 1304.96 2190.51 1290.03 2178.89 1284.66C2173.87 1282.34 2166.89 1278.41 2163.65 1285.42" fill="none" opacity="1" stroke="#ffffff" stroke-linecap="round" stroke-linejoin="round" stroke-width="10" vectornator:layerName="Curve 117"/>
<path d="M2186.35 1349.77C2187.12 1342.87 2170.96 1327.82 2164.25 1333.17" fill="none" opacity="1" stroke="#ffffff" stroke-linecap="round" stroke-linejoin="round" stroke-width="10" vectornator:layerName="Curve 118"/>
<path d="M2171.1 1378.15C2169.37 1381.89 2164.69 1380.24 2161.39 1380.75C2153.82 1381.93 2145.12 1383.19 2138.57 1387.21" fill="none" opacity="1" stroke="#ffffff" stroke-linecap="round" stroke-linejoin="round" stroke-width="10" vectornator:layerName="Curve 119"/>
<path d="M2164.71 1395.04C2157.2 1385.65 2143.45 1387.26 2133 1383.92" fill="none" opacity="1" stroke="#ffffff" stroke-linecap="round" stroke-linejoin="round" stroke-width="10" vectornator:layerName="Curve 120"/>
<path d="M2181.14 1348.77C2179.06 1350.99 2177.81 1350 2175.16 1350.97C2168.01 1353.6 2160.64 1357.9 2153.59 1360.84" fill="none" opacity="1" stroke="#ffffff" stroke-linecap="round" stroke-linejoin="round" stroke-width="10" vectornator:layerName="Curve 121"/>
<path d="M2164.9 1373.16C2166.75 1356.66 2162.4 1345.9 2149.65 1335.64" fill="none" opacity="1" stroke="#ffffff" stroke-linecap="round" stroke-linejoin="round" stroke-width="10" vectornator:layerName="Curve 122"/>
<path d="M2193.83 1312.12C2195.05 1309.47 2195.52 1306.32 2195 1303.45C2194.52 1300.78 2183.85 1294.02 2181.17 1293.51C2177.27 1292.77 2173.03 1294.98 2169.76 1296.74" fill="none" opacity="1" stroke="#ffffff" stroke-linecap="round" stroke-linejoin="round" stroke-width="10" vectornator:layerName="Curve 123"/>
<path d="M2143.26 1427.65C2142.41 1425.35 2142.69 1422.69 2141.6 1420.5C2138.17 1413.64 2130.36 1404.58 2122.34 1402.38C2120.25 1401.81 2118.14 1402.53 2116 1402.29" fill="none" opacity="1" stroke="#ffffff" stroke-linecap="round" stroke-linejoin="round" stroke-width="10" vectornator:layerName="Curve 124"/>
<path d="M2047.19 1514.34C2042.4 1509.84 2035.64 1507.58 2029.63 1504.81" fill="none" opacity="1" stroke="#ffffff" stroke-linecap="round" stroke-linejoin="round" stroke-width="10" vectornator:layerName="Curve 125"/>
<path d="M2051.22 1542.42C2056.2 1540.59 2049 1533.08 2047.41 1530.74C2042.38 1523.36 2036.31 1516.77 2030.93 1509.66C2028.78 1506.82 2025.99 1501.7 2022.58 1500.13" fill="none" opacity="1" stroke="#ffffff" stroke-linecap="round" stroke-linejoin="round" stroke-width="10" vectornator:layerName="Curve 126"/>
<path d="M2021.46 1566.94C2021.21 1558.83 2020.25 1551.12 2019 1543.12C2017.47 1533.29 2017.02 1525.54 2011.88 1517.15" fill="none" opacity="1" stroke="#ffffff" stroke-linecap="round" stroke-linejoin="round" stroke-width="10" vectornator:layerName="Curve 127"/>
<path d="M2008.21 1566.48C2010.4 1554.97 2014.11 1530.09 1993.98 1534.39" fill="none" opacity="1" stroke="#ffffff" stroke-linecap="round" stroke-linejoin="round" stroke-width="10" vectornator:layerName="Curve 128"/>
<path d="M1982.72 1589.42C1983.48 1585.44 1985.37 1581.96 1985.24 1577.83C1984.98 1569.41 1979.11 1548.78 1970.71 1544.89" fill="none" opacity="1" stroke="#ffffff" stroke-linecap="round" stroke-linejoin="round" stroke-width="10" vectornator:layerName="Curve 129"/>
<path d="M1956.66 1593.67C1950.47 1587.86 1951.45 1575.68 1942.74 1571.65" fill="none" opacity="1" stroke="#ffffff" stroke-linecap="round" stroke-linejoin="round" stroke-width="10" vectornator:layerName="Curve 130"/>
<path d="M1938.13 1618.42C1939.98 1614.42 1942.57 1610.14 1942.63 1605.62C1942.73 1598.91 1942.41 1592.13 1943.45 1585.44" fill="none" opacity="1" stroke="#ffffff" stroke-linecap="round" stroke-linejoin="round" stroke-width="10" vectornator:layerName="Curve 131"/>
<path d="M2091.06 1480.76C2074.31 1473.02 2056.92 1479.39 2039.26 1480.91" fill="none" opacity="1" stroke="#ffffff" stroke-linecap="round" stroke-linejoin="round" stroke-width="10" vectornator:layerName="Curve 132"/>
<path d="M2090.29 1493.16C2087.77 1495.18 2080.49 1492.33 2077.31 1492.12C2064.85 1491.3 2052.84 1491.88 2040.51 1493.54" fill="none" opacity="1" stroke="#ffffff" stroke-linecap="round" stroke-linejoin="round" stroke-width="10" vectornator:layerName="Curve 133"/>
<path d="M1179.32 1444.97C1201.19 1427.97 1212.56 1404.59 1231.63 1385.32C1243.04 1373.79 1256.6 1362.61 1271.59 1356.15C1275.47 1354.47 1280.15 1353.46 1284.2 1352.03" fill="none" opacity="1" stroke="#ffffff" stroke-linecap="round" stroke-linejoin="round" stroke-width="10" vectornator:layerName="Curve 134"/>
<path d="M1160.09 1450.75C1160.35 1451.09 1159.57 1449.19 1159.52 1449.61C1159.45 1450.14 1160.36 1451.52 1160.04 1451.1C1159.32 1450.17 1158.81 1449.11 1160.09 1450.75Z" fill="none" opacity="1" stroke="#ffffff" stroke-linecap="round" stroke-linejoin="round" stroke-width="10" vectornator:layerName="Curve 135"/>
<path d="M1176.24 1486.59C1183.1 1487.45 1189.71 1488.26 1196.66 1488.43C1199.02 1488.49 1201.39 1488.7 1203.75 1488.61C1204.28 1488.59 1205.57 1488.5 1205.24 1488.08C1204.52 1487.15 1202.91 1487.79 1201.74 1487.64" fill="none" opacity="1" stroke="#ffffff" stroke-linecap="round" stroke-linejoin="round" stroke-width="10" vectornator:layerName="Curve 136"/>
<path d="M1186.06 1465.04C1192.65 1457.41 1198.53 1450.69 1199.82 1440.42" fill="none" opacity="1" stroke="#ffffff" stroke-linecap="round" stroke-linejoin="round" stroke-width="10" vectornator:layerName="Curve 137"/>
<path d="M1173.8 1454.96C1182.69 1451.82 1184.51 1433.75 1179.41 1427.19" fill="none" opacity="1" stroke="#ffffff" stroke-linecap="round" stroke-linejoin="round" stroke-width="10" vectornator:layerName="Curve 138"/>
<path d="M1162.85 1434.37C1163.9 1425.92 1167.72 1419.02 1159.08 1413.25" fill="none" opacity="1" stroke="#ffffff" stroke-linecap="round" stroke-linejoin="round" stroke-width="10" vectornator:layerName="Curve 139"/>
<path d="M1139.36 1451.36C1139.89 1450.95 1140.42 1450.54 1140.94 1450.14" fill="none" opacity="1" stroke="#ffffff" stroke-linecap="round" stroke-linejoin="round" stroke-width="10" vectornator:layerName="Curve 140"/>
<path d="M1132.88 1457.67C1137.45 1456.76 1142.21 1456.21 1146.72 1455.13C1150.51 1454.23 1153.65 1452.02 1157.24 1450.75C1160.37 1449.65 1164.75 1447.64 1164.16 1452.33" fill="none" opacity="1" stroke="#ffffff" stroke-linecap="round" stroke-linejoin="round" stroke-width="10" vectornator:layerName="Curve 141"/>
<path d="M1146.98 1475.81C1157.01 1477.06 1170.09 1473.19 1171.52 1461.79" fill="none" opacity="1" stroke="#ffffff" stroke-linecap="round" stroke-linejoin="round" stroke-width="10" vectornator:layerName="Curve 142"/>
<path d="M1149.26 1486.06C1158.29 1487.19 1167.74 1484.97 1175.02 1479.32" fill="none" opacity="1" stroke="#ffffff" stroke-linecap="round" stroke-linejoin="round" stroke-width="10" vectornator:layerName="Curve 143"/>
<path d="M1148.29 1505.16C1148 1505.6 1146.94 1506.25 1147.42 1506.47C1148.76 1507.11 1161.4 1502.06 1163.01 1501.31C1169.11 1498.48 1190.77 1485.99 1187.99 1478.09" fill="none" opacity="1" stroke="#ffffff" stroke-linecap="round" stroke-linejoin="round" stroke-width="10" vectornator:layerName="Curve 144"/>
<path d="M1137.79 1463.98C1150.56 1457.59 1153.97 1448.07 1142.52 1437.52" fill="none" opacity="1" stroke="#ffffff" stroke-linecap="round" stroke-linejoin="round" stroke-width="10" vectornator:layerName="Curve 145"/>
<path d="M1145.59 1430.07C1151.99 1426.87 1173.97 1419.43 1174.94 1411.68" fill="none" opacity="1" stroke="#ffffff" stroke-linecap="round" stroke-linejoin="round" stroke-width="10" vectornator:layerName="Curve 146"/>
<path d="M1129.02 1465.73C1137.57 1460.08 1148.14 1455.22 1149.53 1444.09" fill="none" opacity="1" stroke="#ffffff" stroke-linecap="round" stroke-linejoin="round" stroke-width="10" vectornator:layerName="Curve 147"/>
<path d="M1773.72 1830.31C1773.75 1832.5 1770.2 1841.95 1771.1 1843.69C1772.45 1846.32 1781.15 1842.15 1782.75 1841.33C1791.28 1836.94 1805.48 1830.8 1807.53 1819.9C1807.99 1817.46 1806.82 1814.99 1806.33 1812.69C1805.56 1809.02 1806.04 1805.19 1805.09 1801.58C1803.7 1796.27 1807.25 1788.93 1808.22 1783.74C1809.66 1776.09 1805.36 1768.27 1806.84 1760.4C1807.71 1755.77 1812.91 1749 1811.66 1744.21C1810.71 1740.59 1804.59 1740.34 1803.78 1736.51C1802.74 1731.62 1810.87 1724.63 1810.8 1718.63C1810.75 1714.28 1802.51 1713.09 1801.81 1710.4C1800.07 1703.78 1805.86 1696.14 1803.24 1689.8C1801.28 1685.06 1794.08 1684.95 1792 1679.92C1790.54 1676.39 1793.09 1669.99 1790.18 1667.15C1787.3 1664.33 1778.76 1664.23 1774.54 1661.76C1770.51 1659.41 1767.23 1655.84 1762.77 1654.11C1757.28 1651.99 1749.66 1650.59 1744.89 1647.09C1739.06 1642.82 1732.05 1636.6 1724.73 1635.65C1713.45 1634.17 1702.43 1639.97 1691.39 1638.26C1680.04 1636.5 1668.01 1638.35 1656.93 1640.33C1651.14 1641.36 1643.58 1641.75 1638.63 1645.55C1634.62 1648.63 1630.13 1651.94 1625.95 1655.15C1624.08 1656.59 1621 1659.44 1621.03 1661.88C1621.06 1664.53 1627.74 1664.95 1625.57 1670.17C1622.73 1677.04 1609.41 1681.6 1607.98 1687.62C1606.67 1693.1 1617.61 1691.62 1615.32 1697.55C1612.64 1704.49 1600.59 1707.08 1602.19 1716.06C1603.22 1721.83 1612.55 1722.05 1614 1727.6C1616 1735.21 1600.32 1743.12 1605.37 1750.5C1608.76 1755.46 1621.03 1754.83 1623.27 1759.2C1624.86 1762.28 1620.72 1765.75 1618.92 1767.59C1614.15 1772.47 1608.8 1776.82 1604.07 1781.67C1602.53 1783.24 1598.54 1786.69 1599.71 1789.51C1601.96 1794.96 1618.08 1795.8 1623.15 1796.46C1625.81 1796.81 1630.38 1796.39 1631.53 1799.7C1634.88 1809.38 1617.3 1820.69 1621.32 1830.42C1624.17 1837.3 1637.07 1841.14 1643.71 1842.39C1645.58 1842.74 1647.8 1843.09 1649.29 1844.55C1654.64 1849.77 1642.97 1857.61 1646.71 1861.27C1649.48 1863.97 1655.45 1862.83 1658.96 1862.79C1667.92 1862.69 1676.62 1861.48 1685.64 1861.37C1691.03 1861.31 1688.03 1862.81 1691.8 1864.64C1693.62 1865.52 1698.76 1865.67 1700.71 1865.09C1706.86 1863.25 1712.87 1859.79 1718.41 1856.54C1720.29 1855.43 1724.88 1850.76 1726.12 1850.33C1727.07 1850 1728.89 1852.23 1729.48 1852.52C1732.72 1854.09 1737.3 1853.67 1740.61 1852.39C1749.19 1849.05 1756.78 1842.28 1763.78 1836.54C1776.88 1825.82 1788.44 1814.35 1796.72 1799.45" fill="none" opacity="1" stroke="#ffffff" stroke-linecap="round" stroke-linejoin="round" stroke-width="10" vectornator:layerName="Curve 1"/>
<path d="M1711.38 1635.25C1717.74 1628.74 1719.29 1619.52 1719.99 1610.67C1720.37 1605.86 1718.73 1600.17 1720.93 1595.64" fill="none" opacity="1" stroke="#ffffff" stroke-linecap="round" stroke-linejoin="round" stroke-width="10" vectornator:layerName="Curve 2"/>
<path d="M1698.41 1619.82C1699.34 1620.18 1700.23 1620.67 1701.2 1620.9C1707.05 1622.29 1701.44 1620.9 1698.98 1620.93C1698.61 1620.93 1697.86 1620.57 1697.86 1620.94C1697.88 1622.47 1700.82 1621.72 1702.33 1622C1706.23 1622.74 1710.61 1623.02 1714.57 1622.97C1715.52 1622.96 1717.35 1622.55 1717.36 1623.49C1717.4 1626.76 1704.64 1635.44 1701.95 1637.58C1701.61 1637.85 1697.53 1641.52 1696.99 1641.53C1696.06 1641.54 1696.68 1639.63 1696.96 1638.75" fill="none" opacity="1" stroke="#ffffff" stroke-linecap="round" stroke-linejoin="round" stroke-width="10" vectornator:layerName="Curve 3"/>
<path d="M1701.4 1638.14C1695.65 1638.21 1697 1631.26 1695.15 1627.09C1692.66 1621.46 1690.77 1617.22 1685 1614.42" fill="none" opacity="1" stroke="#ffffff" stroke-linecap="round" stroke-linejoin="round" stroke-width="10" vectornator:layerName="Curve 4"/>
<path d="M2034.84 1780.27C2035.63 1779.73 2033.3 1781.54 2032.36 1781.69C2031.42 1781.83 2032.89 1779.85 2032.88 1778.9C2032.87 1777.79 2033.01 1776.66 2032.84 1775.56C2032.25 1771.77 2031.89 1767.82 2032.15 1763.89C2032.98 1751.2 2037.7 1738.78 2040.61 1726.53C2041.22 1723.98 2044.08 1717.82 2041.6 1715.39C2039.85 1713.69 2035.61 1715.8 2033.82 1716.59C2030.3 1718.15 2017.24 1727.32 2013.87 1722.94C2011.62 1720.01 2016.89 1706.76 2018.1 1703.43C2018.54 1702.21 2020.77 1698.86 2019.69 1697.29C2017.84 1694.58 2010.36 1702.09 2008.63 1702.98C2008.15 1703.23 2004.97 1705.15 2005.3 1703.02C2005.77 1699.96 2008.76 1696.66 2010.2 1694.06C2013.45 1688.22 2017.59 1681.82 2020 1675.59C2020.53 1674.22 2022.59 1667.63 2021.56 1666.12C2020.29 1664.27 2016.92 1665.32 2015.44 1666.19C2012.79 1667.75 2002.7 1676.7 1999.98 1675.83C1998.1 1675.23 2003.94 1666.29 2004.31 1665.77C2010.18 1657.34 2016.16 1648.76 2020.69 1639.43C2021.73 1637.28 2023.65 1633.04 2021.15 1631.08C2017.93 1628.57 2011.35 1631.62 2008.38 1632.9C1997.11 1637.75 1987.62 1645.53 1977.45 1652.17C1974.45 1654.13 1971.03 1655.45 1968.06 1657.29C1967.61 1657.56 1967.33 1658.78 1966.96 1658.41C1966.05 1657.53 1969.36 1654.95 1969.69 1654.49C1972.67 1650.41 1975.42 1646.37 1979.01 1642.7C1989.07 1632.4 1993.57 1619.54 1999.73 1606.86C2000.58 1605.1 2005.06 1595.9 2003.49 1595.13C2000.99 1593.92 1995.7 1596.9 1993.51 1598.03C1984.4 1602.72 1975.92 1608.82 1966.99 1613.91C1962.65 1616.4 1958.96 1619.6 1954.86 1622.4C1947.82 1627.21 1940.48 1631.41 1933.32 1636C1915.14 1647.66 1895 1657.03 1878.1 1670.02C1871.61 1675 1865.29 1679.72 1858.8 1684.7C1857.5 1685.7 1852.06 1687.86 1851.62 1689.24C1851.08 1690.93 1855.51 1690.4 1856.08 1690.3C1859.86 1689.62 1863.36 1688.53 1867.18 1687.94C1876.9 1686.44 1897.14 1685.31 1903.96 1694.19C1907.42 1698.69 1890.64 1709.51 1887.49 1712.74C1887.04 1713.19 1882.77 1718.11 1884.78 1718.88C1885.67 1719.23 1888.72 1718.84 1889.79 1718.83C1897.47 1718.74 1905 1716.02 1912.54 1714.67C1914.42 1714.33 1919.16 1712.9 1920.88 1714.02C1922.18 1714.86 1919.6 1719.03 1919.28 1719.6C1916.73 1723.96 1912.18 1727.37 1909.96 1731.94C1909.8 1732.29 1908.38 1735.34 1908.9 1735.85C1910.19 1737.11 1914.04 1736.34 1915.58 1736.33C1922.82 1736.24 1930.03 1731.62 1937.2 1730.51C1938.9 1730.25 1942.89 1728.92 1944.43 1730.43C1947.81 1733.73 1939.87 1747.32 1937.99 1750.53C1937.34 1751.63 1935.25 1755.55 1936.95 1756.66C1938.92 1757.94 1944.47 1756.1 1946.39 1755.43C1953.09 1753.11 1959.5 1749.98 1966.34 1748.53C1967.87 1748.2 1971.53 1746.94 1973 1747.89C1977.6 1750.88 1967.9 1762.7 1970.99 1765.72C1975.01 1769.65 1991.64 1761.35 1995.95 1759.86C1997.35 1759.38 2001.79 1756.67 2003.15 1757.56C2004.37 1758.34 2003.76 1761.98 2003.77 1763.11C2003.82 1767.3 2001.4 1773.92 2005.6 1776.99C2011.49 1781.3 2021.63 1782.07 2028.48 1782.85C2031.1 1783.14 2033.12 1783.83 2035.71 1782.76C2037.09 1782.19 2036.72 1782.38 2037.35 1781.07C2037.54 1780.7 2038.31 1779.91 2037.9 1779.96C2035.62 1780.19 2033.5 1781.18 2034.84 1780.27Z" fill="none" opacity="1" stroke="#ffffff" stroke-linecap="round" stroke-linejoin="round" stroke-width="10" vectornator:layerName="Curve 6"/>
<path d="M1937.15 1630.39C1937.1 1626.1 1932.61 1621.99 1930.34 1618.79C1923.57 1609.24 1916.92 1599.58 1909.98 1590.1C1908.04 1587.45 1904.92 1579.04 1900.95 1579.09" fill="none" opacity="1" stroke="#ffffff" stroke-linecap="round" stroke-linejoin="round" stroke-width="10" vectornator:layerName="Curve 7"/>
<path d="M1929.88 1627.14C1932.19 1627.11 1930.88 1624.39 1929.84 1623.25C1926 1619.03 1919.77 1615.06 1915.24 1611.74C1902.6 1602.48 1886.93 1593.47 1871.06 1591.67" fill="none" opacity="1" stroke="#ffffff" stroke-linecap="round" stroke-linejoin="round" stroke-width="10" vectornator:layerName="Curve 8"/>
<path d="M1918.85 1635.06C1921.62 1629.35 1915.16 1620.46 1912.5 1615.66C1907.99 1607.51 1903.27 1598.89 1897.76 1591.36C1894.67 1587.14 1890.5 1582.69 1888.15 1578.12" fill="none" opacity="1" stroke="#ffffff" stroke-linecap="round" stroke-linejoin="round" stroke-width="10" vectornator:layerName="Curve 9"/>
<path d="M1914.28 1625.1C1912.88 1618.5 1907.16 1612.42 1902.95 1607.43C1895.18 1598.21 1886.21 1590.52 1877.63 1582.14" fill="none" opacity="1" stroke="#ffffff" stroke-linecap="round" stroke-linejoin="round" stroke-width="10" vectornator:layerName="Curve 10"/>
<path d="M2192.82 1537.5C2190.06 1538.62 2187.69 1538.7 2184.75 1538.46" fill="none" opacity="1" stroke="#ffffff" stroke-linecap="round" stroke-linejoin="round" stroke-width="10" vectornator:layerName="Curve 15"/>
<path d="M2200.65 1505.11C2198.32 1507.74 2195.61 1509.21 2192.57 1510.97" fill="none" opacity="1" stroke="#ffffff" stroke-linecap="round" stroke-linejoin="round" stroke-width="10" vectornator:layerName="Curve 16"/>
<path d="M2190.73 1476.1C2188.8 1478.29 2187.41 1480.84 2185.48 1483.02" fill="none" opacity="1" stroke="#ffffff" stroke-linecap="round" stroke-linejoin="round" stroke-width="10" vectornator:layerName="Curve 17"/>
<path d="M2173.9 1456.88C2173.75 1454.51 2173.45 1451.35 2170.75 1450.63" fill="none" opacity="1" stroke="#ffffff" stroke-linecap="round" stroke-linejoin="round" stroke-width="10" vectornator:layerName="Curve 18"/>
<path d="M2153.38 1472.57C2150.03 1474.26 2146.83 1476.21 2143.59 1478.08" fill="none" opacity="1" stroke="#ffffff" stroke-linecap="round" stroke-linejoin="round" stroke-width="10" vectornator:layerName="Curve 19"/>
<path d="M2177.11 1489.21C2174.45 1487.83 2169.86 1488.91 2167.87 1491.16" fill="none" opacity="1" stroke="#ffffff" stroke-linecap="round" stroke-linejoin="round" stroke-width="10" vectornator:layerName="Curve 20"/>
<path d="M2178.87 1507.83C2176.88 1507.95 2174.9 1508.04 2172.92 1508.35" fill="none" opacity="1" stroke="#ffffff" stroke-linecap="round" stroke-linejoin="round" stroke-width="10" vectornator:layerName="Curve 21"/>
<path d="M2176.3 1528.39C2174.08 1528.53 2172.12 1527.88 2169.99 1528.01" fill="none" opacity="1" stroke="#ffffff" stroke-linecap="round" stroke-linejoin="round" stroke-width="10" vectornator:layerName="Curve 22"/>
<path d="M2158.43 1549.6C2156.97 1548.97 2155.32 1548.56 2153.75 1548.35" fill="none" opacity="1" stroke="#ffffff" stroke-linecap="round" stroke-linejoin="round" stroke-width="10" vectornator:layerName="Curve 23"/>
<path d="M2177.67 1547.27C2184.61 1541.49 2189.08 1524.37 2187.53 1515.63C2186.81 1511.53 2183.95 1507.42 2182.44 1503.55C2180.65 1498.98 2179.82 1494.08 2177.91 1489.58C2176.34 1485.92 2173.55 1483.07 2171.03 1480.04C2166.19 1474.23 2161.24 1468.88 2154.34 1465.55C2144.44 1460.76 2133.62 1460.5 2122.88 1460.16C2119.68 1460.05 2116.01 1460.45 2112.86 1459.63C2102.82 1457 2098.71 1449.16 2099.6 1439.44" fill="none" opacity="1" stroke="#ffffff" stroke-linecap="round" stroke-linejoin="round" stroke-width="10" vectornator:layerName="Curve 24"/>
<path d="M2137.1 1457.19C2140.36 1452.73 2142.91 1448.47 2145.13 1443.4" fill="none" opacity="1" stroke="#ffffff" stroke-linecap="round" stroke-linejoin="round" stroke-width="10" vectornator:layerName="Curve 25"/>
<path d="M2119.11 1456.91C2122.04 1452.9 2124.66 1447.05 2125.13 1441.96" fill="none" opacity="1" stroke="#ffffff" stroke-linecap="round" stroke-linejoin="round" stroke-width="10" vectornator:layerName="Curve 26"/>
<path d="M2102.85 1446.32C2105.39 1444.2 2107.68 1441.83 2109.87 1439.41C2111.51 1437.59 2112.59 1435.01 2114.48 1433.44" fill="none" opacity="1" stroke="#ffffff" stroke-linecap="round" stroke-linejoin="round" stroke-width="10" vectornator:layerName="Curve 27"/>
<path d="M2093.8 1456.34C2092.93 1458.31 2090.98 1459.92 2089.64 1461.58" fill="none" opacity="1" stroke="#ffffff" stroke-linecap="round" stroke-linejoin="round" stroke-width="10" vectornator:layerName="Curve 28"/>
<path d="M2112.09 1470.21C2109.84 1472.08 2106.84 1474.42 2105.28 1476.95" fill="none" opacity="1" stroke="#ffffff" stroke-linecap="round" stroke-linejoin="round" stroke-width="10" vectornator:layerName="Curve 29"/>
<path d="M2133.44 1469.64C2135.86 1468.31 2132.75 1470.04 2132.83 1469.97C2133.46 1469.45 2132.61 1470.1 2133.44 1469.64Z" fill="none" opacity="1" stroke="#ffffff" stroke-linecap="round" stroke-linejoin="round" stroke-width="10" vectornator:layerName="Curve 30"/>
<path d="M1503.9 1721.34C1511.21 1725.05 1517.67 1725.42 1525.62 1724.71C1528.21 1724.48 1532.32 1723.47 1534.22 1721.43C1536.45 1719.03 1534.1 1715.24 1536.08 1714C1537.54 1713.09 1541.32 1713.26 1543.04 1713C1546.35 1712.5 1549.95 1709.96 1551.75 1707.14C1553.15 1704.95 1554.64 1702.71 1554.65 1700.01C1554.67 1697.7 1553.18 1693.76 1554.99 1691.81C1557.59 1689.01 1563.45 1690.2 1565.79 1687.02C1567.75 1684.35 1563.65 1682.76 1564.98 1680.15C1566.4 1677.34 1572.21 1676.15 1574.36 1672.96C1576.56 1669.7 1575.49 1665.97 1576.62 1662.39C1578.2 1657.36 1580.8 1651.67 1581.39 1646.41C1581.57 1644.8 1580.36 1643.4 1580.37 1641.82C1580.39 1637.8 1580.65 1633.95 1579.39 1630.09C1578.79 1628.25 1577 1626.78 1575.12 1626.25C1574.28 1626.02 1571.25 1626.04 1570.94 1625.08C1569.92 1621.98 1576.85 1618.72 1572.71 1615.47C1570.07 1613.38 1566.31 1613.03 1563.1 1612.74C1562.28 1612.66 1559.59 1613.01 1559.1 1612.14C1558.32 1610.75 1560.08 1607.95 1559.23 1606.23C1557.29 1602.29 1551.8 1601.38 1548.11 1600.35C1547.17 1600.09 1545.83 1600.39 1544.97 1599.95C1543.88 1599.4 1545.86 1596.68 1545.95 1595.66C1546.18 1593.07 1544.73 1590.79 1542.17 1589.92C1536.61 1588.03 1530.29 1590.23 1524.73 1588.48C1520.09 1587.02 1517.8 1582.78 1513.34 1581.26C1508.22 1579.52 1502.24 1580.03 1497.04 1580.4C1493.43 1580.66 1493.89 1577.43 1491.15 1577.41C1485.15 1577.37 1484.32 1584.49 1481.65 1588.12C1480.4 1589.81 1478.34 1589.98 1477.62 1592.29C1476.85 1594.73 1477.25 1597.37 1475.38 1599.52C1474.3 1600.76 1471.95 1602.53 1472.39 1604.46C1472.89 1606.61 1478.68 1611.12 1477.59 1612.6C1474.63 1616.61 1460.67 1611.33 1458.98 1616.3C1457.5 1620.63 1464.62 1624.29 1463.29 1628.53C1462.38 1631.42 1455.53 1631.91 1456.1 1635.16C1456.64 1638.25 1464 1643.76 1463.46 1646.54C1462.55 1651.27 1454.55 1649.51 1452.65 1653.25C1451.39 1655.73 1458.73 1658.52 1459.18 1661.1C1459.69 1664.02 1453.99 1665.79 1453.13 1668.31C1451.73 1672.44 1458.81 1675.77 1458.02 1679.88C1457 1685.13 1449.09 1685.35 1452.22 1692.24C1453.46 1694.96 1457.39 1696.3 1460.11 1696.48C1461.44 1696.56 1463.49 1695.95 1464.68 1696.89C1465.41 1697.46 1464.78 1700.33 1464.66 1701.18C1464.26 1703.82 1463.76 1708.04 1465.84 1710.14C1470.13 1714.49 1475.56 1708.44 1480.05 1709.47C1480.99 1709.68 1479.48 1711.79 1481.84 1712.53C1484.87 1713.48 1489.67 1709.62 1492.42 1712.4C1494.13 1714.13 1491.71 1719.25 1494.27 1721.47C1496.91 1723.76 1505.84 1720.41 1510 1722.52" fill="none" opacity="1" stroke="#ffffff" stroke-linecap="round" stroke-linejoin="round" stroke-width="10" vectornator:layerName="Curve 31"/>
<path d="M2213.82 1104.32C2212.58 1100.19 2218.27 1102.61 2220.17 1103.2C2226.12 1105.02 2230.98 1109.03 2236.6 1111.68C2243.03 1114.7 2249.16 1118.51 2255.56 1121.72C2260.2 1124.05 2265.13 1125.81 2269.46 1128.64C2272.26 1130.47 2276.1 1133.39 2276.37 1137.13C2276.94 1145.04 2264.89 1149.03 2259.29 1151.5C2241.14 1159.48 2224.81 1161.62 2209.67 1175.82" fill="none" opacity="1" stroke="#ffffff" stroke-linecap="round" stroke-linejoin="round" stroke-width="10" vectornator:layerName="Curve 32"/>
<path d="M2341.89 1130.71C2343.79 1128.15 2337.94 1127.78 2336.3 1127.49C2332.48 1126.82 2328.58 1126.72 2324.7 1126.58C2309.37 1126.03 2294.45 1126.59 2279.69 1131" fill="none" opacity="1" stroke="#ffffff" stroke-linecap="round" stroke-linejoin="round" stroke-width="10" vectornator:layerName="Curve 33"/>
<path d="M2311.41 1122.56C2308.22 1111.88 2298.3 1091.71 2285.3 1089.43" fill="none" opacity="1" stroke="#ffffff" stroke-linecap="round" stroke-linejoin="round" stroke-width="10" vectornator:layerName="Curve 34"/>
<path d="M2308.16 1131.51C2310.4 1139.03 2314.72 1145.2 2318.59 1151.82C2325.28 1163.28 2330.59 1175.73 2338.24 1186.63" fill="none" opacity="1" stroke="#ffffff" stroke-linecap="round" stroke-linejoin="round" stroke-width="10" vectornator:layerName="Curve 35"/>
<path d="M2399.13 1117.24C2400.01 1115.61 2402.52 1113.08 2401.9 1111.01C2400.5 1106.31 2386.41 1103.81 2382.57 1103.14C2376.64 1102.1 2369.86 1100.1 2363.81 1101.52C2354.29 1103.77 2348.4 1118.8 2349.72 1127.61C2351.5 1139.55 2363.28 1147.73 2375.13 1145.51C2381.04 1144.4 2386.57 1141.56 2392.32 1140.12C2399.13 1138.42 2411.77 1137.77 2413.26 1129.24" fill="none" opacity="1" stroke="#ffffff" stroke-linecap="round" stroke-linejoin="round" stroke-width="10" vectornator:layerName="Curve 36"/>
<path d="M2406.39 1126.91C2408.68 1130.18 2411.87 1133.21 2413.02 1137.04" fill="none" opacity="1" stroke="#ffffff" stroke-linecap="round" stroke-linejoin="round" stroke-width="10" vectornator:layerName="Curve 37"/>
<path d="M2496.33 1032.39C2483.29 1041.54 2477.63 1059.22 2475.03 1074.01" fill="none" opacity="1" stroke="#ffffff" stroke-linecap="round" stroke-linejoin="round" stroke-width="10" vectornator:layerName="Curve 38"/>
<path d="M2497.25 1084.62C2485.52 1079.4 2474.74 1078.17 2462.51 1075.17C2453.82 1073.04 2445.63 1069.97 2436.82 1068.42" fill="none" opacity="1" stroke="#ffffff" stroke-linecap="round" stroke-linejoin="round" stroke-width="10" vectornator:layerName="Curve 39"/>
<path d="M2454.65 1104.03C2453.14 1098.99 2460.86 1103.24 2462.44 1104.27C2471.81 1110.4 2479.61 1118.75 2489.11 1124.63C2490.59 1125.55 2498.07 1130.97 2497.74 1132.87C2497.41 1134.74 2485.08 1136.34 2483.65 1136.55C2469.8 1138.62 2453.47 1140.58 2441.75 1148.8" fill="none" opacity="1" stroke="#ffffff" stroke-linecap="round" stroke-linejoin="round" stroke-width="10" vectornator:layerName="Curve 40"/>
<path d="M2473.8 1122.51C2468.35 1123.32 2469 1135.05 2468.67 1138.96" fill="none" opacity="1" stroke="#ffffff" stroke-linecap="round" stroke-linejoin="round" stroke-width="10" vectornator:layerName="Curve 41"/>
<path d="M2488.71 1181.12C2486.61 1181.56 2484.42 1181.63 2482.36 1182.24C2473.38 1184.92 2465.82 1203.09 2464.33 1211.56" fill="none" opacity="1" stroke="#ffffff" stroke-linecap="round" stroke-linejoin="round" stroke-width="10" vectornator:layerName="Curve 42"/>
<path d="M2487.86 1227.44C2482.9 1223.15 2478.81 1218.01 2473.38 1214.26C2466.98 1209.85 2459.69 1206.9 2452.89 1203.39C2446.99 1200.34 2439.58 1194.26 2432.46 1195.32" fill="none" opacity="1" stroke="#ffffff" stroke-linecap="round" stroke-linejoin="round" stroke-width="10" vectornator:layerName="Curve 43"/>
<path d="M2494.22 1258.24C2487.54 1248.71 2472.41 1251.72 2462.52 1253.79" fill="none" opacity="1" stroke="#ffffff" stroke-linecap="round" stroke-linejoin="round" stroke-width="10" vectornator:layerName="Curve 44"/>
<path d="M2401.84 1245.38C2399.72 1244.24 2400.54 1245.09 2399.51 1242.74" fill="none" opacity="1" stroke="#ffffff" stroke-linecap="round" stroke-linejoin="round" stroke-width="10" vectornator:layerName="Curve 45"/>
<path d="M2423.89 1018.47C2406.11 1016.82 2396.57 1029.78 2387.51 1042.62C2384.12 1047.42 2380.87 1051.63 2378.14 1056.96" fill="none" opacity="1" stroke="#ffffff" stroke-linecap="round" stroke-linejoin="round" stroke-width="10" vectornator:layerName="Curve 46"/>
<path d="M1219.87 923.944C1217.56 926.475 1213.19 925.98 1210.12 925.807C1203.73 925.447 1196.76 924.105 1191.58 920.001C1188.42 917.498 1186.05 913.965 1183.09 911.265" fill="none" opacity="1" stroke="#ffffff" stroke-linecap="round" stroke-linejoin="round" stroke-width="10" vectornator:layerName="Curve 50"/>
<path d="M2062.17 687.82C2059.15 690.141 2075.42 681.326 2071.61 681.37C2066.88 681.425 2063.03 685.379 2059 687.857C2057.73 688.64 2057.06 690.153 2055.87 691.063C2054.93 691.783 2051.71 693.292 2052.72 692.685C2060.03 688.307 2067.29 683.891 2062.17 687.82Z" fill="none" opacity="1" stroke="#ffffff" stroke-linecap="round" stroke-linejoin="round" stroke-width="10" vectornator:layerName="Curve 61"/>
<path d="M2078.59 736.764C2074.87 739.312 2069.98 739.601 2065.97 741.666C2060.11 744.682 2051.85 754.048 2051.93 760.85" fill="none" opacity="1" stroke="#ffffff" stroke-linecap="round" stroke-linejoin="round" stroke-width="10" vectornator:layerName="Curve 62"/>
<path d="M2118.49 760.075C2107.65 765.655 2100.15 771.887 2094.98 782.539" fill="none" opacity="1" stroke="#ffffff" stroke-linecap="round" stroke-linejoin="round" stroke-width="10" vectornator:layerName="Curve 63"/>
<path d="M2135.31 791.173C2128.78 791.438 2118.54 793.9 2116.46 801.096" fill="none" opacity="1" stroke="#ffffff" stroke-linecap="round" stroke-linejoin="round" stroke-width="10" vectornator:layerName="Curve 64"/>
<path d="M2153.18 808.016C2146.17 808.3 2141.42 812.187 2135.56 815.833" fill="none" opacity="1" stroke="#ffffff" stroke-linecap="round" stroke-linejoin="round" stroke-width="10" vectornator:layerName="Curve 65"/>
<path d="M2156.37 826.763C2152.14 826.934 2140.38 831.071 2139.15 835.311" fill="none" opacity="1" stroke="#ffffff" stroke-linecap="round" stroke-linejoin="round" stroke-width="10" vectornator:layerName="Curve 66"/>
<path d="M2163.52 850.956C2158.01 853.998 2153.26 856.242 2148.98 860.891" fill="none" opacity="1" stroke="#ffffff" stroke-linecap="round" stroke-linejoin="round" stroke-width="10" vectornator:layerName="Curve 67"/>
<path d="M2179.61 869.74C2178.51 873.569 2175.27 875.283 2172.85 878.237C2169.26 882.621 2164.85 887.462 2162.02 892.32" fill="none" opacity="1" stroke="#ffffff" stroke-linecap="round" stroke-linejoin="round" stroke-width="10" vectornator:layerName="Curve 68"/>
<path d="M2199.23 901.837C2193.29 905.116 2189.27 911.146 2183.29 914.445" fill="none" opacity="1" stroke="#ffffff" stroke-linecap="round" stroke-linejoin="round" stroke-width="10" vectornator:layerName="Curve 69"/>
<path d="M2205.39 929.434C2199.2 926.47 2189.11 921.324 2182.85 926.611" fill="none" opacity="1" stroke="#ffffff" stroke-linecap="round" stroke-linejoin="round" stroke-width="10" vectornator:layerName="Curve 70"/>
<path d="M2196.27 944.008C2190.98 942.482 2180.34 937.445 2178.18 944.929" fill="none" opacity="1" stroke="#ffffff" stroke-linecap="round" stroke-linejoin="round" stroke-width="10" vectornator:layerName="Curve 71"/>
<path d="M2199.77 965.92C2193.53 967.072 2189.92 963.355 2184.76 968.959" fill="none" opacity="1" stroke="#ffffff" stroke-linecap="round" stroke-linejoin="round" stroke-width="10" vectornator:layerName="Curve 72"/>
<path d="M2199.53 992.281C2197.08 992.381 2197.84 991.759 2197.18 994.059" fill="none" opacity="1" stroke="#ffffff" stroke-linecap="round" stroke-linejoin="round" stroke-width="10" vectornator:layerName="Curve 73"/>
<path d="M2199.28 1022.94C2198.84 1023.59 2200.08 1021.45 2199.94 1020.67C2199.86 1020.24 2199.37 1021.34 2199.04 1021.64C2198.52 1022.13 2197.85 1022.46 2197.42 1023.02C2197.18 1023.33 2196.76 1024.37 2197.09 1024.15C2198.63 1023.11 2200.07 1021.8 2199.28 1022.94Z" fill="none" opacity="1" stroke="#ffffff" stroke-linecap="round" stroke-linejoin="round" stroke-width="10" vectornator:layerName="Curve 74"/>
<path d="M2218.55 1037.11C2212.7 1034.08 2203.73 1030.94 2201.26 1039.5" fill="none" opacity="1" stroke="#ffffff" stroke-linecap="round" stroke-linejoin="round" stroke-width="10" vectornator:layerName="Curve 75"/>
<path d="M2227.65 1058.8C2226.66 1058.98 2225.65 1058.63 2224.65 1058.54C2219.77 1058.13 2215.06 1063.36 2212.46 1066.7" fill="none" opacity="1" stroke="#ffffff" stroke-linecap="round" stroke-linejoin="round" stroke-width="10" vectornator:layerName="Curve 76"/>
<path d="M2230.92 1079.41C2221.95 1076.82 2215.87 1080.41 2213.37 1089.09" fill="none" opacity="1" stroke="#ffffff" stroke-linecap="round" stroke-linejoin="round" stroke-width="10" vectornator:layerName="Curve 77"/>
<path d="M2221.3 1095.69C2221.93 1095.87 2227.58 1097.56 2227.94 1098.22C2228.7 1099.6 2217.68 1107.01 2216.39 1108.41" fill="none" opacity="1" stroke="#ffffff" stroke-linecap="round" stroke-linejoin="round" stroke-width="10" vectornator:layerName="Curve 78"/>
<path d="M1239.55 869.856C1249.33 865.5 1259.3 860.645 1269.58 857.524" fill="none" opacity="1" stroke="#ffffff" stroke-linecap="round" stroke-linejoin="round" stroke-width="10" vectornator:layerName="Curve 79"/>
<path d="M1263.52 838.457C1269.4 839.459 1275.71 843.251 1281.6 845.03" fill="none" opacity="1" stroke="#ffffff" stroke-linecap="round" stroke-linejoin="round" stroke-width="10" vectornator:layerName="Curve 80"/>
<path d="M1276.7 819.18C1278.45 820.468 1279.64 822.396 1281.11 824.004C1284.67 827.897 1290.29 831.836 1295.12 833.955" fill="none" opacity="1" stroke="#ffffff" stroke-linecap="round" stroke-linejoin="round" stroke-width="10" vectornator:layerName="Curve 81"/>
<path d="M1271.37 782.204C1277.87 786.183 1282.82 792.157 1289.32 796.318C1297.86 801.784 1307.15 806.461 1315 812.912" fill="none" opacity="1" stroke="#ffffff" stroke-linecap="round" stroke-linejoin="round" stroke-width="10" vectornator:layerName="Curve 82"/>
<path d="M1259.16 768.488C1263 767.897 1267.29 769.293 1271.13 769.947C1277.86 771.094 1284.85 771.794 1291.48 773.417C1296.4 774.623 1300.92 777.091 1305.7 778.749" fill="none" opacity="1" stroke="#ffffff" stroke-linecap="round" stroke-linejoin="round" stroke-width="10" vectornator:layerName="Curve 83"/>
<path d="M1294.71 740.809C1296.26 761.049 1310.65 779.013 1331.23 782.521" fill="none" opacity="1" stroke="#ffffff" stroke-linecap="round" stroke-linejoin="round" stroke-width="10" vectornator:layerName="Curve 84"/>
<path d="M1324.86 720.935C1325.74 725.756 1326.11 730.712 1327.63 735.37C1330.55 744.302 1341.96 754.312 1350.65 757.327" fill="none" opacity="1" stroke="#ffffff" stroke-linecap="round" stroke-linejoin="round" stroke-width="10" vectornator:layerName="Curve 85"/>
<path d="M1352.87 716.986C1356.83 725.862 1359.87 736.212 1370.8 738.076" fill="none" opacity="1" stroke="#ffffff" stroke-linecap="round" stroke-linejoin="round" stroke-width="10" vectornator:layerName="Curve 86"/>
<path d="M1374.02 708.956C1375.23 709.839 1375.92 711.26 1376.93 712.361C1380.68 716.46 1385.64 716.858 1390.78 716.467" fill="none" opacity="1" stroke="#ffffff" stroke-linecap="round" stroke-linejoin="round" stroke-width="10" vectornator:layerName="Curve 87"/>
<path d="M1378.55 682.388C1382.51 685.289 1384.7 690.395 1388.88 693.456C1395.89 698.593 1404.87 701.999 1413.36 703.446" fill="none" opacity="1" stroke="#ffffff" stroke-linecap="round" stroke-linejoin="round" stroke-width="10" vectornator:layerName="Curve 88"/>
<path d="M1387.39 664.697C1394.75 675.09 1406.71 679.818 1418.52 683.385" fill="none" opacity="1" stroke="#ffffff" stroke-linecap="round" stroke-linejoin="round" stroke-width="10" vectornator:layerName="Curve 89"/>
<path d="M1189.08 1052.56C1196.63 1046.22 1205.79 1042.2 1214.39 1037.43C1220.24 1034.18 1225.99 1030.81 1231.95 1027.74" fill="none" opacity="1" stroke="#ffffff" stroke-linecap="round" stroke-linejoin="round" stroke-width="10" vectornator:layerName="Curve 91"/>
<path d="M1162.52 1098.14C1168.77 1102.48 1178 1101.24 1185.16 1099.91C1198.6 1097.41 1211.28 1093.18 1224.52 1090.35" fill="none" opacity="1" stroke="#ffffff" stroke-linecap="round" stroke-linejoin="round" stroke-width="10" vectornator:layerName="Curve 92"/>
<path d="M1167.05 1130.98C1168.64 1135.56 1170.34 1141.25 1175.43 1143.21C1180.04 1144.99 1187.6 1141.66 1191.85 1140.54C1199.64 1138.48 1207.37 1136.14 1215.21 1134.07" fill="none" opacity="1" stroke="#ffffff" stroke-linecap="round" stroke-linejoin="round" stroke-width="10" vectornator:layerName="Curve 93"/>
<path d="M1185.67 1203.54C1190.43 1204.43 1194.15 1199.01 1197.09 1195.99C1203.05 1189.88 1205.39 1182.34 1209.98 1175.26" fill="none" opacity="1" stroke="#ffffff" stroke-linecap="round" stroke-linejoin="round" stroke-width="10" vectornator:layerName="Curve 94"/>
<path d="M1180.66 1197.85C1182.04 1190.48 1187.32 1186.01 1192.37 1180.84C1199.04 1173.99 1205.95 1168.3 1213.52 1162.47" fill="none" opacity="1" stroke="#ffffff" stroke-linecap="round" stroke-linejoin="round" stroke-width="10" vectornator:layerName="Curve 95"/>
<path d="M1173.93 1153.93C1179.36 1152.04 1185.23 1151.1 1190.73 1149.19C1199.16 1146.26 1207.22 1141.2 1216.11 1139.81" fill="none" opacity="1" stroke="#ffffff" stroke-linecap="round" stroke-linejoin="round" stroke-width="10" vectornator:layerName="Curve 96"/>
<path d="M1179.17 1113.55C1191.16 1123.44 1205.29 1129.92 1220.54 1132.77" fill="none" opacity="1" stroke="#ffffff" stroke-linecap="round" stroke-linejoin="round" stroke-width="10" vectornator:layerName="Curve 97"/>
<path d="M1207.16 1243.99C1206.15 1241.09 1209.39 1235.59 1210.72 1232.84C1215 1223.99 1220.02 1215.6 1225.61 1207.56" fill="none" opacity="1" stroke="#ffffff" stroke-linecap="round" stroke-linejoin="round" stroke-width="10" vectornator:layerName="Curve 98"/>
<path d="M1208.13 1287.16C1206.11 1281.36 1208.35 1272.76 1209.92 1266.98C1214.11 1251.58 1216.11 1242.3 1227.55 1230.56" fill="none" opacity="1" stroke="#ffffff" stroke-linecap="round" stroke-linejoin="round" stroke-width="10" vectornator:layerName="Curve 99"/>
<path d="M1187.58 1224.08C1200.99 1221.67 1211.06 1212.14 1221.88 1204.72" fill="none" opacity="1" stroke="#ffffff" stroke-linecap="round" stroke-linejoin="round" stroke-width="10" vectornator:layerName="Curve 100"/>
<path d="M1228.61 1312.81C1226.06 1307.87 1231.65 1301.64 1234.17 1297.93C1239.43 1290.21 1245.51 1283.8 1252 1277.14" fill="none" opacity="1" stroke="#ffffff" stroke-linecap="round" stroke-linejoin="round" stroke-width="10" vectornator:layerName="Curve 101"/>
<path d="M1240.38 1364.89C1250.52 1354.49 1252.35 1338.9 1258.39 1326.41" fill="none" opacity="1" stroke="#ffffff" stroke-linecap="round" stroke-linejoin="round" stroke-width="10" vectornator:layerName="Curve 102"/>
<path d="M1434.02 1590.87C1428.99 1592.18 1428.84 1583.22 1428.08 1580.3C1425.87 1571.8 1424.53 1554.47 1429.18 1546.55" fill="none" opacity="1" stroke="#ffffff" stroke-linecap="round" stroke-linejoin="round" stroke-width="10" vectornator:layerName="Curve 103"/>
<path d="M1398.21 1570.87C1404.43 1564.52 1410.36 1557.61 1416.73 1551.39C1418.84 1549.33 1421.62 1547.57 1423.4 1545.19C1425.16 1542.84 1426.88 1540.43 1428.95 1538.33" fill="none" opacity="1" stroke="#ffffff" stroke-linecap="round" stroke-linejoin="round" stroke-width="10" vectornator:layerName="Curve 104"/>
<path d="M1382.97 1541.69C1392.54 1542.77 1400.62 1540.6 1409.79 1538.21C1421.17 1535.25 1434.58 1531.54 1438.26 1519.01" fill="none" opacity="1" stroke="#ffffff" stroke-linecap="round" stroke-linejoin="round" stroke-width="10" vectornator:layerName="Curve 105"/>
<path d="M1363.28 1517.49C1365.5 1516.91 1365.84 1517.45 1368.28 1515.87C1370 1514.75 1371.67 1510.1 1372.7 1508.34C1374.5 1505.27 1375.22 1502.15 1376.27 1498.81C1378.26 1492.47 1381.19 1486.11 1384.55 1480.4" fill="none" opacity="1" stroke="#ffffff" stroke-linecap="round" stroke-linejoin="round" stroke-width="10" vectornator:layerName="Curve 106"/>
<path d="M1349.23 1502.66C1355.56 1506.38 1365.66 1493.96 1369.98 1490.56C1372.47 1488.6 1375.67 1486.84 1378.01 1484.65C1380.77 1482.06 1383.84 1478.97 1379.72 1476.55" fill="none" opacity="1" stroke="#ffffff" stroke-linecap="round" stroke-linejoin="round" stroke-width="10" vectornator:layerName="Curve 107"/>
<path d="M1333.97 1479.54C1337.61 1479.78 1340.39 1481.86 1343.94 1482.36C1351.01 1483.36 1359.73 1480.59 1365.28 1476.17C1366.22 1475.42 1366.79 1474.25 1367.8 1473.6" fill="none" opacity="1" stroke="#ffffff" stroke-linecap="round" stroke-linejoin="round" stroke-width="10" vectornator:layerName="Curve 108"/>
<path d="M1394.81 1528.4C1396.35 1524.38 1398.96 1520.94 1399.71 1516.61C1400.28 1513.31 1398.78 1509.93 1398.42 1506.75" fill="none" opacity="1" stroke="#ffffff" stroke-linecap="round" stroke-linejoin="round" stroke-width="10" vectornator:layerName="Curve 109"/>
<path d="M1378.59 1522.43C1383.36 1516.72 1388.46 1511.65 1392.27 1505.16" fill="none" opacity="1" stroke="#ffffff" stroke-linecap="round" stroke-linejoin="round" stroke-width="10" vectornator:layerName="Curve 110"/>
<path d="M1317.88 1448.34C1328.84 1453.69 1336.34 1455.9 1348.79 1456.87C1351.46 1457.08 1365.28 1455.83 1360.01 1449.81" fill="none" opacity="1" stroke="#ffffff" stroke-linecap="round" stroke-linejoin="round" stroke-width="10" vectornator:layerName="Curve 111"/>
<path d="M1303.67 1418.26C1306.77 1419.64 1311.31 1422.86 1314.94 1422.34C1318 1421.89 1321.1 1421.52 1324.05 1420.6C1325.64 1420.11 1328.88 1417.3 1329.84 1415.91C1332.84 1411.53 1328.66 1407.63 1325.47 1405.25" fill="none" opacity="1" stroke="#ffffff" stroke-linecap="round" stroke-linejoin="round" stroke-width="10" vectornator:layerName="Curve 112"/>
<path d="M1273.88 1393.18C1283.03 1392.66 1289.95 1388.81 1291.47 1378.72" fill="none" opacity="1" stroke="#ffffff" stroke-linecap="round" stroke-linejoin="round" stroke-width="10" vectornator:layerName="Curve 113"/>
<path d="M1254.08 1364.87C1259.14 1356.26 1267.98 1350.66 1273.01 1342.09" fill="none" opacity="1" stroke="#ffffff" stroke-linecap="round" stroke-linejoin="round" stroke-width="10" vectornator:layerName="Curve 114"/>
<path d="M2204.49 1101.53C2207.74 1381.06 1991.34 1610.22 1721.14 1613.36C1450.94 1616.51 1229.26 1392.45 1226 1112.92C1222.75 833.382 1439.15 604.225 1709.35 601.08C1979.55 597.935 2201.23 821.992 2204.49 1101.53Z" fill="#ffffff" fill-rule="nonzero" opacity="1" stroke="#ffffff" stroke-linecap="butt" stroke-linejoin="round" stroke-width="10" vectornator:layerName="Oval 1"/>
<path d="M880.449 913.478C879.855 918.739 878.926 923.974 878.668 929.262C878.58 931.062 878.873 932.898 879.417 934.616C882.514 944.384 885.9 954.066 889.565 963.636C891.656 969.093 895.962 975.101 899.192 979.923C911.794 998.742 927.712 1013.63 945.156 1027.86C967.533 1046.13 991.694 1063.15 1019.24 1072.71C1073.52 1091.55 1137.52 1086 1179.07 1043.21C1190.21 1031.74 1198.39 1018.65 1205.32 1004.27C1212.97 988.401 1217.22 970.762 1218.32 953.119C1220.96 910.648 1206.08 861.105 1179.93 827.283C1165.32 808.386 1145.4 797.334 1124.36 787.193C1075.01 763.418 1012.87 756.011 966.159 790.852C923.207 822.893 899.755 874.36 897.08 927.316C896.256 943.621 897.234 960.001 898.467 976.246" fill="none" opacity="1" stroke="#ffffff" stroke-linecap="round" stroke-linejoin="round" stroke-width="10" vectornator:layerName="Curve 150"/>
<path d="M1161.12 985.473C1159.66 996.948 1175 999.197 1183.13 1000.24" fill="none" opacity="1" stroke="#ffffff" stroke-linecap="round" stroke-linejoin="round" stroke-width="10" vectornator:layerName="Curve 151"/>
<path d="M1169.61 969.591C1173.28 980.083 1184.93 984.464 1194.37 989.01" fill="none" opacity="1" stroke="#ffffff" stroke-linecap="round" stroke-linejoin="round" stroke-width="10" vectornator:layerName="Curve 152"/>
<path d="M1185.96 918.39C1193.16 919.311 1200.8 915.684 1207.7 914.718" fill="none" opacity="1" stroke="#ffffff" stroke-linecap="round" stroke-linejoin="round" stroke-width="10" vectornator:layerName="Curve 153"/>
<path d="M1162.95 881.511C1166.64 878.658 1173.27 881.397 1177.69 880.289C1187.19 877.907 1193.23 871.237 1200.61 865.537" fill="none" opacity="1" stroke="#ffffff" stroke-linecap="round" stroke-linejoin="round" stroke-width="10" vectornator:layerName="Curve 154"/>
<path d="M1129.86 979.561C1130.59 981.671 1129.93 985.139 1131.31 986.916C1133.18 989.344 1138.43 988.939 1141.06 989.12C1144.77 989.375 1148.73 990.93 1152.47 989.624C1157.17 987.978 1159.51 982.172 1162.03 978.419C1166.73 971.404 1168.08 960.93 1169.36 952.831C1170.54 945.415 1172.44 938.08 1173.4 930.644C1175.27 916.013 1174.04 898.267 1172.71 883.715C1171.91 875.033 1165.83 860.94 1155.58 858.82C1146.66 856.975 1140.54 871.807 1136.74 877.201C1132.15 883.71 1124.31 888.054 1119.9 894.882C1108.04 913.253 1106.67 938.747 1116.8 958.295" fill="none" opacity="1" stroke="#ffffff" stroke-linecap="round" stroke-linejoin="round" stroke-width="10" vectornator:layerName="Curve 155"/>
<path d="M1116.05 975.405C1113.73 980.209 1108.93 980.411 1105.44 983.607C1100.12 988.476 1100.37 997.368 1099.03 1003.82C1097.67 1010.4 1101.95 1021.32 1109.03 1022.78C1111.83 1023.36 1114.96 1022.94 1117.76 1023.66C1120.63 1024.4 1125.51 1026.74 1127.89 1028.54C1128.78 1029.21 1128.83 1031.05 1129.94 1031.19C1131.43 1031.38 1131.96 1028.19 1132.57 1027.47C1133.94 1025.82 1136.29 1024.81 1137.87 1023.36C1140.31 1021.13 1141.37 1017.84 1142.78 1014.91C1147.66 1004.79 1151.86 993.992 1151.69 982.594" fill="none" opacity="1" stroke="#ffffff" stroke-linecap="round" stroke-linejoin="round" stroke-width="10" vectornator:layerName="Curve 156"/>
<path d="M1123.85 1004.12C1123.63 1004.57 1123.41 1005.02 1123.2 1005.48" fill="none" opacity="1" stroke="#ffffff" stroke-linecap="round" stroke-linejoin="round" stroke-width="10" vectornator:layerName="Curve 157"/>
<path d="M1132.06 1015.57C1131.71 1014.56 1132.62 1018.11 1131.77 1018.76C1131.37 1019.07 1131.38 1014.79 1131.37 1014.41C1131.36 1013.85 1131.21 1012.19 1131.35 1012.73C1131.96 1015.16 1132.75 1017.53 1132.06 1015.57Z" fill="none" opacity="1" stroke="#ffffff" stroke-linecap="round" stroke-linejoin="round" stroke-width="10" vectornator:layerName="Curve 158"/>
<path d="M1102.35 1001.25C1102.16 1004.31 1099.82 1008.5 1096.75 1008.54C1092 1008.61 1086.85 992.894 1090.78 989.857C1092.27 988.709 1098.41 992.703 1099.21 993.086C1099.93 993.434 1104.64 995.615 1104.61 995.689C1103.1 999.399 1102.48 999.077 1102.35 1001.25Z" fill="none" opacity="1" stroke="#ffffff" stroke-linecap="round" stroke-linejoin="round" stroke-width="10" vectornator:layerName="Curve 159"/>
<path d="M1102.51 989.685C1097.9 987.462 1096.65 973.773 1099.54 969.947C1100.31 968.933 1103.91 971.032 1104.59 971.55C1108.25 974.307 1111.84 977.597 1115.12 980.783" fill="none" opacity="1" stroke="#ffffff" stroke-linecap="round" stroke-linejoin="round" stroke-width="10" vectornator:layerName="Curve 160"/>
<path d="M2382.3 302.116C2381.55 301.953 2391.84 302.616 2388.68 298.512C2384.47 293.044 2366.58 307.684 2364.09 309.6C2343.82 325.212 2316.39 338.897 2299.5 357.595C2296.4 361.022 2277.21 377.086 2280.31 380.217C2301.19 401.302 2317.46 432.985 2336.27 457.417C2360.54 488.931 2388.9 518.608 2410.62 552.271C2423.8 572.69 2438.7 591.566 2453.5 610.781C2458.44 617.202 2464.68 625.842 2468.08 633.113C2468.96 634.992 2470.02 639.028 2470.02 639.028C2470.02 639.028 2471.44 636.708 2472.6 636.163C2482.11 631.715 2491.1 625.715 2500.24 620.548C2513.28 613.182 2564.41 551.615 2561.94 545.583C2554.58 527.696 2525.64 513.135 2514.47 495.834C2499.07 471.963 2479.95 444.628 2461.06 423.645C2444.54 405.296 2436.11 379.357 2421.09 359.849C2411.21 347.011 2400.18 334.324 2391.45 320.787C2388.52 316.247 2385.41 312.277 2382.58 307.569C2381.33 305.488 2375.46 303.375 2377.61 302.245C2380.87 300.53 2384.93 302.682 2382.3 302.116Z" fill="none" opacity="1" stroke="#ffffff" stroke-linecap="round" stroke-linejoin="round" stroke-width="10" vectornator:layerName="Curve 161"/>
<path d="M2647.17 690.237C2628.22 671.261 2577.26 713.054 2557.44 724.254C2551.77 727.457 2531.51 736.358 2528.43 740.923C2528.06 741.474 2535.6 749.097 2536.56 750.351C2540.96 756.057 2543.97 762.679 2547.98 768.579C2567.37 797.069 2587.52 829.68 2602.2 861.065C2623.45 906.473 2651.19 949.974 2670.3 996.474C2673.2 1003.52 2684.4 1030.5 2691.48 1032.47C2692.76 1032.82 2699.9 1028.59 2702.55 1028.73C2741.07 1030.75 2726.6 1016.35 2746.92 998.056C2759.19 987.006 2777.18 983.429 2786.89 969.022C2791.57 962.07 2783.51 953.32 2789.26 948.893C2792.31 946.544 2802.65 947.415 2802.92 942.296C2802.95 941.653 2763.83 883.767 2759.62 877.575C2735.74 842.488 2713.6 805.888 2694.12 767.62C2686.27 752.183 2679.41 733.234 2669.07 719.797C2661.59 710.089 2654.74 697.816 2647.17 690.237Z" fill="none" opacity="1" stroke="#ffffff" stroke-linecap="round" stroke-linejoin="round" stroke-width="10" vectornator:layerName="Curve 162"/>
<path d="M2514.87 602.749C2518.59 607.586 2530.45 622.158 2531.55 627.817" fill="none" opacity="1" stroke="#ffffff" stroke-linecap="round" stroke-linejoin="round" stroke-width="10" vectornator:layerName="Curve 163"/>
<path d="M2553.48 633.374C2522.27 614.546 2502.57 662.34 2530.71 675.969C2539.44 680.196 2561.21 676.08 2567.85 668.728C2572.49 663.589 2578.54 650.91 2578.54 650.91C2578.54 650.91 2575.42 650.382 2574.3 649.376C2566.88 642.672 2560.58 637.656 2553.48 633.374Z" fill="none" opacity="1" stroke="#ffffff" stroke-linecap="round" stroke-linejoin="round" stroke-width="10" vectornator:layerName="Curve 164"/>
<path d="M2559.33 677.47C2564.8 681.154 2568.07 688.472 2571.21 694.034" fill="none" opacity="1" stroke="#ffffff" stroke-linecap="round" stroke-linejoin="round" stroke-width="10" vectornator:layerName="Curve 165"/>
<path d="M2334.75 332.627C2341.55 337.203 2359.48 383.078 2366.26 393.353C2396.2 438.742 2428.95 484.809 2464.51 526.031C2480.85 544.983 2495.22 565.436 2511.32 584.56C2517.02 591.329 2522.77 598.031 2529.25 603.879C2530.86 605.341 2538.31 613.955 2536.18 611.181" fill="none" opacity="1" stroke="#ffffff" stroke-linecap="round" stroke-linejoin="round" stroke-width="10" vectornator:layerName="Curve 166"/>
<path d="M2579.25 690.893C2588.97 697.438 2588.49 715.018 2593.02 725.183C2600.24 741.387 2610.25 756.812 2619.45 771.953C2664.71 846.522 2714.92 925.127 2745.51 1006.98" fill="none" opacity="1" stroke="#ffffff" stroke-linecap="round" stroke-linejoin="round" stroke-width="10" vectornator:layerName="Curve 167"/>
<path d="M2398.78 338.237C2367.43 362.378 2323.8 376.537 2297.15 406.042" fill="none" opacity="1" stroke="#ffffff" stroke-linecap="round" stroke-linejoin="round" stroke-width="10" vectornator:layerName="Curve 168"/>
<path d="M2407.17 389.311C2394.75 380.945 2345.08 426.531 2331.98 435.438" fill="none" opacity="1" stroke="#ffffff" stroke-linecap="round" stroke-linejoin="round" stroke-width="10" vectornator:layerName="Curve 169"/>
<path d="M2442.56 429.613C2404.7 436.994 2374.83 460.413 2345.23 483.204" fill="none" opacity="1" stroke="#ffffff" stroke-linecap="round" stroke-linejoin="round" stroke-width="10" vectornator:layerName="Curve 170"/>
<path d="M2477.31 446.438C2451.36 451.498 2422.26 482.293 2401.64 498.166" fill="none" opacity="1" stroke="#ffffff" stroke-linecap="round" stroke-linejoin="round" stroke-width="10" vectornator:layerName="Curve 171"/>
<path d="M2487.29 481.468C2449.36 495.645 2427.65 514.748 2396.91 538.425" fill="none" opacity="1" stroke="#ffffff" stroke-linecap="round" stroke-linejoin="round" stroke-width="10" vectornator:layerName="Curve 172"/>
<path d="M2510.96 502.026C2506.83 500.879 2503.18 498.309 2499.02 497.274C2493.93 496.007 2479.96 516.576 2477.41 519.582C2462 537.752 2444.92 553.646 2424.19 565.36" fill="none" opacity="1" stroke="#ffffff" stroke-linecap="round" stroke-linejoin="round" stroke-width="10" vectornator:layerName="Curve 173"/>
<path d="M2539.53 543.658C2530.1 542.432 2472.76 591.084 2459.15 599.451" fill="none" opacity="1" stroke="#ffffff" stroke-linecap="round" stroke-linejoin="round" stroke-width="10" vectornator:layerName="Curve 174"/>
<path d="M2651.15 728.796C2620.22 734.827 2582.3 751.557 2555.86 768.617" fill="none" opacity="1" stroke="#ffffff" stroke-linecap="round" stroke-linejoin="round" stroke-width="10" vectornator:layerName="Curve 175"/>
<path d="M2663.79 745.212C2649.89 753.071 2634.81 759.062 2620.83 766.963C2602.4 777.375 2586.43 794.427 2567.35 803.351" fill="none" opacity="1" stroke="#ffffff" stroke-linecap="round" stroke-linejoin="round" stroke-width="10" vectornator:layerName="Curve 176"/>
<path d="M2690.42 780.928C2657.07 787.432 2625.09 794.194 2597.28 815.61" fill="none" opacity="1" stroke="#ffffff" stroke-linecap="round" stroke-linejoin="round" stroke-width="10" vectornator:layerName="Curve 177"/>
<path d="M2687.79 823.923C2661.66 829.018 2635.29 852.675 2611.58 864.744" fill="none" opacity="1" stroke="#ffffff" stroke-linecap="round" stroke-linejoin="round" stroke-width="10" vectornator:layerName="Curve 178"/>
<path d="M2709.65 875.516C2676.56 881.969 2645.89 886.122 2624.95 917.205" fill="none" opacity="1" stroke="#ffffff" stroke-linecap="round" stroke-linejoin="round" stroke-width="10" vectornator:layerName="Curve 179"/>
<path d="M2767.93 912.143C2734.26 918.708 2678.78 927.206 2657.46 958.856" fill="none" opacity="1" stroke="#ffffff" stroke-linecap="round" stroke-linejoin="round" stroke-width="10" vectornator:layerName="Curve 180"/>
<path d="M2778.05 947.93C2743.2 947.762 2708.08 955.1 2685.05 983.37" fill="none" opacity="1" stroke="#ffffff" stroke-linecap="round" stroke-linejoin="round" stroke-width="10" vectornator:layerName="Curve 181"/>
</g>
</svg>
