<svg xmlns="http://www.w3.org/2000/svg" xmlns:v="https://svgstorm.com"
viewBox = "0 0 322 330"
width="322"
height="330">
<g fill="None" fill-opacity="0.0" stroke="#000000" stroke-opacity="0.01" stroke-width="0.3"><path d="
M 0.00 330.00 
L 322.00 330.00
L 322.00 0.00
L 0.00 0.00
L 0.00 330.00
M 148.00 4.00 
C 150.49 8.85 155.04 4.35 158.22 5.78 C 161.61 7.80 162.47 12.82 167.00 14.00
C 164.81 20.46 169.16 26.58 168.22 32.22 C 159.63 39.61 169.03 42.70 177.00 42.00
C 173.56 41.10 175.85 36.95 172.00 37.00
C 172.31 33.73 173.93 32.75 173.00 29.00
C 178.90 29.69 173.12 23.07 180.00 23.00
C 176.55 20.47 181.23 19.86 179.00 17.00
C 183.05 15.36 185.96 15.12 188.00 11.00
C 190.17 12.82 192.75 10.71 195.00 10.00
C 197.08 15.89 203.44 13.15 207.00 16.00
C 206.29 21.15 213.20 26.81 207.75 32.75 C 210.33 40.14 204.09 44.70 200.00 50.00
C 213.24 55.05 225.80 63.06 236.00 73.00
C 240.78 65.85 247.87 68.17 251.00 61.00
C 256.21 63.97 258.88 60.49 265.00 63.00
C 266.15 69.99 271.94 73.93 268.65 80.70 C 263.28 83.95 261.51 93.98 254.00 92.00
C 260.86 103.32 267.31 115.85 272.00 128.00
C 277.98 122.87 266.27 111.39 280.00 114.00
C 280.69 107.06 288.72 106.73 289.00 114.00
C 296.06 111.24 301.43 118.16 294.00 122.00
C 300.51 126.90 297.07 133.54 289.00 131.00
C 286.18 144.85 280.15 127.19 272.00 131.00
C 291.72 191.22 255.91 261.15 197.00 283.00
C 197.54 295.46 209.02 280.65 215.00 286.00
C 205.16 286.21 202.37 297.34 195.75 302.75 C 181.28 304.84 196.49 322.59 186.00 328.00
C 186.94 323.20 189.14 316.94 185.07 310.93 C 183.96 303.83 186.83 296.01 184.08 289.92 C 172.20 286.79 156.31 295.03 142.78 291.22 C 117.05 290.36 93.16 280.32 72.92 265.08 C 69.49 261.66 62.14 254.19 61.03 263.03 C 59.55 268.60 56.51 277.22 48.98 273.02 C 44.83 268.58 35.46 277.59 34.00 270.00
C 31.28 269.52 29.51 271.40 28.00 273.00
C 26.13 271.10 25.27 268.30 23.00 267.00
C 26.38 264.09 25.17 261.26 24.00 257.00
C 19.73 257.12 18.65 261.56 15.00 263.00
C 19.83 253.40 13.49 239.88 23.08 233.08 C 31.11 225.13 46.96 231.26 41.00 243.00
C 44.35 240.88 44.66 244.74 43.00 247.00
C 47.35 252.18 54.60 253.71 61.00 255.00
C 21.49 215.76 12.80 150.87 41.00 103.00
C 35.44 103.47 33.34 113.13 27.00 113.00
C 26.67 109.39 21.59 110.18 19.00 109.00
C 22.65 103.70 34.61 106.64 35.92 96.92 C 40.22 91.28 42.08 82.27 50.00 81.00
C 53.31 87.71 42.15 90.19 46.00 96.00
C 66.29 63.92 101.67 44.26 138.00 40.00
C 134.82 36.84 128.97 29.52 136.00 27.00
C 130.42 24.47 138.53 19.16 134.00 16.00
C 139.26 12.80 140.07 5.71 148.00 4.00
M 15.00 7.00 
C 15.00 11.00 15.00 15.00 15.00 19.00
C 6.09 21.83 8.14 12.55 7.00 7.00
C 9.67 7.00 12.33 7.00 15.00 7.00
M 37.00 7.00 
C 37.00 11.00 37.00 15.00 37.00 19.00
C 26.93 23.54 26.85 2.49 37.00 7.00
M 24.00 20.00 
C 27.87 19.52 31.05 21.71 35.00 21.00
C 31.65 22.51 27.09 23.00 23.00 23.00
C 23.17 26.50 26.35 26.30 27.00 29.00
C 22.90 30.29 21.79 30.72 18.00 29.00
C 18.15 26.37 22.57 26.92 21.00 23.00
C 16.75 23.64 13.27 21.36 9.00 22.00
C 12.87 20.03 26.09 21.07 19.00 14.00
C 24.63 12.74 24.90 15.19 24.00 20.00
M 15.00 24.00 
C 15.00 28.00 15.00 32.00 15.00 36.00
C 4.93 40.54 4.85 19.49 15.00 24.00
M 37.00 24.00 
C 37.00 28.00 37.00 32.00 37.00 36.00
C 26.93 40.54 26.85 19.49 37.00 24.00
M 18.00 203.00 
C 17.04 206.70 12.47 207.25 11.00 211.00
C 11.35 208.11 12.38 205.82 11.00 203.00
C 13.37 204.15 15.30 202.70 18.00 203.00
M 30.00 208.00 
C 26.27 208.01 22.92 206.34 19.00 207.00
C 18.49 202.55 31.05 202.40 30.00 208.00
M 296.00 223.00 
C 294.71 225.04 292.50 228.23 290.00 226.00
C 291.29 223.96 293.50 220.77 296.00 223.00
M 299.00 226.00 
C 297.71 228.04 295.50 231.23 293.00 229.00
C 294.29 226.96 296.50 223.77 299.00 226.00
M 296.00 232.00 
C 300.49 222.77 304.51 235.62 296.00 232.00
M 300.00 243.00 
C 295.03 243.00 295.99 240.12 294.00 237.00
C 298.85 238.43 301.97 231.51 306.00 228.00
C 314.42 233.34 297.32 235.83 300.00 243.00
M 308.00 235.00 
C 310.05 238.45 314.00 240.58 316.00 244.00
C 311.27 250.56 306.42 241.46 303.00 238.00
C 304.93 237.34 305.67 234.61 308.00 235.00
M 7.00 256.00 
C 8.90 257.91 9.31 260.33 9.00 263.00
C 13.40 263.26 14.95 266.51 18.00 269.00
C 11.49 272.45 20.78 277.89 19.00 283.00
C 14.86 283.79 15.42 279.62 16.00 277.00
C 6.01 276.43 4.32 262.00 7.00 256.00 Z"/>
</g>
<g fill="None" fill-opacity="0.0" stroke="#FEFEFE" stroke-opacity="1.00" stroke-width="0.3"><path d="
M 148.00 4.00 
C 140.07 5.71 139.26 12.80 134.00 16.00
C 138.53 19.16 130.42 24.47 136.00 27.00
C 128.97 29.52 134.82 36.84 138.00 40.00
C 101.67 44.26 66.29 63.92 46.00 96.00
C 42.15 90.19 53.31 87.71 50.00 81.00
C 42.08 82.27 40.22 91.28 35.92 96.92 C 34.61 106.64 22.65 103.70 19.00 109.00
C 21.59 110.18 26.67 109.39 27.00 113.00
C 33.34 113.13 35.44 103.47 41.00 103.00
C 12.80 150.87 21.49 215.76 61.00 255.00
C 54.60 253.71 47.35 252.18 43.00 247.00
C 44.66 244.74 44.35 240.88 41.00 243.00
C 46.96 231.26 31.11 225.13 23.08 233.08 C 13.49 239.88 19.83 253.40 15.00 263.00
C 18.65 261.56 19.73 257.12 24.00 257.00
C 25.17 261.26 26.38 264.09 23.00 267.00
C 25.27 268.30 26.13 271.10 28.00 273.00
C 29.51 271.40 31.28 269.52 34.00 270.00
C 35.46 277.59 44.83 268.58 48.98 273.02 C 56.51 277.22 59.55 268.60 61.03 263.03 C 62.14 254.19 69.49 261.66 72.92 265.08 C 93.16 280.32 117.05 290.36 142.78 291.22 C 156.31 295.03 172.20 286.79 184.08 289.92 C 186.83 296.01 183.96 303.83 185.07 310.93 C 189.14 316.94 186.94 323.20 186.00 328.00
C 196.49 322.59 181.28 304.84 195.75 302.75 C 202.37 297.34 205.16 286.21 215.00 286.00
C 209.02 280.65 197.54 295.46 197.00 283.00
C 255.91 261.15 291.72 191.22 272.00 131.00
C 280.15 127.19 286.18 144.85 289.00 131.00
C 297.07 133.54 300.51 126.90 294.00 122.00
C 301.43 118.16 296.06 111.24 289.00 114.00
C 288.72 106.73 280.69 107.06 280.00 114.00
C 266.27 111.39 277.98 122.87 272.00 128.00
C 267.31 115.85 260.86 103.32 254.00 92.00
C 261.51 93.98 263.28 83.95 268.65 80.70 C 271.94 73.93 266.15 69.99 265.00 63.00
C 258.88 60.49 256.21 63.97 251.00 61.00
C 247.87 68.17 240.78 65.85 236.00 73.00
C 225.80 63.06 213.24 55.05 200.00 50.00
C 204.09 44.70 210.33 40.14 207.75 32.75 C 213.20 26.81 206.29 21.15 207.00 16.00
C 203.44 13.15 197.08 15.89 195.00 10.00
C 192.75 10.71 190.17 12.82 188.00 11.00
C 185.96 15.12 183.05 15.36 179.00 17.00
C 181.23 19.86 176.55 20.47 180.00 23.00
C 173.12 23.07 178.90 29.69 173.00 29.00
C 173.93 32.75 172.31 33.73 172.00 37.00
C 175.85 36.95 173.56 41.10 177.00 42.00
C 169.03 42.70 159.63 39.61 168.22 32.22 C 169.16 26.58 164.81 20.46 167.00 14.00
C 162.47 12.82 161.61 7.80 158.22 5.78 C 155.04 4.35 150.49 8.85 148.00 4.00
M 286.00 110.00 
C 292.76 120.35 274.67 112.90 286.00 110.00
M 278.00 115.00 
C 281.60 116.03 278.64 122.33 275.32 120.66 C 272.25 117.94 273.14 113.81 278.00 115.00
M 295.00 115.00 
C 298.55 126.19 282.71 116.02 295.00 115.00
M 286.00 118.00 
C 290.46 120.21 289.70 127.19 283.97 126.97 C 278.89 125.18 280.75 117.50 286.00 118.00
M 278.00 124.00 
C 284.72 134.21 265.51 127.76 278.00 124.00
M 296.00 130.00 
C 283.33 132.19 295.83 117.28 296.00 130.00
M 286.00 136.00 
C 275.15 131.17 292.43 125.20 286.00 136.00
M 192.00 285.00 
C 195.90 293.94 183.52 287.99 192.00 285.00 Z"/>
</g>
<g fill="None" fill-opacity="0.0" stroke="#FFFFFF" stroke-opacity="1.00" stroke-width="0.3"><path d="
M 15.00 7.00 
C 12.33 7.00 9.67 7.00 7.00 7.00
C 8.14 12.55 6.09 21.83 15.00 19.00
C 15.00 15.00 15.00 11.00 15.00 7.00 Z"/>
</g>
<g fill="None" fill-opacity="0.0" stroke="#FFFFFF" stroke-opacity="1.00" stroke-width="0.3"><path d="
M 37.00 7.00 
C 26.85 2.49 26.93 23.54 37.00 19.00
C 37.00 15.00 37.00 11.00 37.00 7.00 Z"/>
</g>
<g fill="None" fill-opacity="0.0" stroke="#FFFFFF" stroke-opacity="1.00" stroke-width="0.3"><path d="
M 24.00 20.00 
C 24.90 15.19 24.63 12.74 19.00 14.00
C 26.09 21.07 12.87 20.03 9.00 22.00
C 13.27 21.36 16.75 23.64 21.00 23.00
C 22.57 26.92 18.15 26.37 18.00 29.00
C 21.79 30.72 22.90 30.29 27.00 29.00
C 26.35 26.30 23.17 26.50 23.00 23.00
C 27.09 23.00 31.65 22.51 35.00 21.00
C 31.05 21.71 27.87 19.52 24.00 20.00 Z"/>
</g>
<g fill="None" fill-opacity="0.0" stroke="#FFFFFF" stroke-opacity="1.00" stroke-width="0.3"><path d="
M 15.00 24.00 
C 4.85 19.49 4.93 40.54 15.00 36.00
C 15.00 32.00 15.00 28.00 15.00 24.00 Z"/>
</g>
<g fill="None" fill-opacity="0.0" stroke="#FFFFFF" stroke-opacity="1.00" stroke-width="0.3"><path d="
M 37.00 24.00 
C 26.85 19.49 26.93 40.54 37.00 36.00
C 37.00 32.00 37.00 28.00 37.00 24.00 Z"/>
</g>
<g fill="None" fill-opacity="0.0" stroke="#000000" stroke-opacity="1.00" stroke-width="0.3"><path d="
M 286.00 110.00 
C 274.67 112.90 292.76 120.35 286.00 110.00 Z"/>
</g>
<g fill="None" fill-opacity="0.0" stroke="#000000" stroke-opacity="1.00" stroke-width="0.3"><path d="
M 278.00 115.00 
C 273.14 113.81 272.25 117.94 275.32 120.66 C 278.64 122.33 281.60 116.03 278.00 115.00 Z"/>
</g>
<g fill="None" fill-opacity="0.0" stroke="#000000" stroke-opacity="1.00" stroke-width="0.3"><path d="
M 295.00 115.00 
C 282.71 116.02 298.55 126.19 295.00 115.00 Z"/>
</g>
<g fill="None" fill-opacity="0.0" stroke="#000000" stroke-opacity="1.00" stroke-width="0.3"><path d="
M 286.00 118.00 
C 280.75 117.50 278.89 125.18 283.97 126.97 C 289.70 127.19 290.46 120.21 286.00 118.00
M 286.00 121.00 
C 286.77 127.08 279.86 121.31 286.00 121.00 Z"/>
</g>
<g fill="None" fill-opacity="0.0" stroke="#FFFFFF" stroke-opacity="1.00" stroke-width="0.3"><path d="
M 286.00 121.00 
C 279.86 121.31 286.77 127.08 286.00 121.00 Z"/>
</g>
<g fill="None" fill-opacity="0.0" stroke="#000000" stroke-opacity="1.00" stroke-width="0.3"><path d="
M 278.00 124.00 
C 265.51 127.76 284.72 134.21 278.00 124.00 Z"/>
</g>
<g fill="None" fill-opacity="0.0" stroke="#000000" stroke-opacity="1.00" stroke-width="0.3"><path d="
M 296.00 130.00 
C 295.83 117.28 283.33 132.19 296.00 130.00 Z"/>
</g>
<g fill="None" fill-opacity="0.0" stroke="#000000" stroke-opacity="1.00" stroke-width="0.3"><path d="
M 286.00 136.00 
C 292.43 125.20 275.15 131.17 286.00 136.00 Z"/>
</g>
<g fill="None" fill-opacity="0.0" stroke="#F2F2F2" stroke-opacity="1.00" stroke-width="0.3"><path d="
M 18.00 203.00 
C 15.30 202.70 13.37 204.15 11.00 203.00
C 12.38 205.82 11.35 208.11 11.00 211.00
C 12.47 207.25 17.04 206.70 18.00 203.00 Z"/>
</g>
<g fill="None" fill-opacity="0.0" stroke="#FFFFFF" stroke-opacity="1.00" stroke-width="0.3"><path d="
M 30.00 208.00 
C 31.05 202.40 18.49 202.55 19.00 207.00
C 22.92 206.34 26.27 208.01 30.00 208.00 Z"/>
</g>
<g fill="None" fill-opacity="0.0" stroke="#FFFFFF" stroke-opacity="1.00" stroke-width="0.3"><path d="
M 296.00 223.00 
C 293.50 220.77 291.29 223.96 290.00 226.00
C 292.50 228.23 294.71 225.04 296.00 223.00 Z"/>
</g>
<g fill="None" fill-opacity="0.0" stroke="#FFFFFF" stroke-opacity="1.00" stroke-width="0.3"><path d="
M 299.00 226.00 
C 296.50 223.77 294.29 226.96 293.00 229.00
C 295.50 231.23 297.71 228.04 299.00 226.00 Z"/>
</g>
<g fill="None" fill-opacity="0.0" stroke="#FFFFFF" stroke-opacity="1.00" stroke-width="0.3"><path d="
M 296.00 232.00 
C 304.51 235.62 300.49 222.77 296.00 232.00 Z"/>
</g>
<g fill="None" fill-opacity="0.0" stroke="#FAFAFA" stroke-opacity="1.00" stroke-width="0.3"><path d="
M 300.00 243.00 
C 297.32 235.83 314.42 233.34 306.00 228.00
C 301.97 231.51 298.85 238.43 294.00 237.00
C 295.99 240.12 295.03 243.00 300.00 243.00 Z"/>
</g>
<g fill="None" fill-opacity="0.0" stroke="#FFFFFF" stroke-opacity="1.00" stroke-width="0.3"><path d="
M 308.00 235.00 
C 305.67 234.61 304.93 237.34 303.00 238.00
C 306.42 241.46 311.27 250.56 316.00 244.00
C 314.00 240.58 310.05 238.45 308.00 235.00 Z"/>
</g>
<g fill="None" fill-opacity="0.0" stroke="#FFFFFF" stroke-opacity="1.00" stroke-width="0.3"><path d="
M 7.00 256.00 
C 4.32 262.00 6.01 276.43 16.00 277.00
C 15.42 279.62 14.86 283.79 19.00 283.00
C 20.78 277.89 11.49 272.45 18.00 269.00
C 14.95 266.51 13.40 263.26 9.00 263.00
C 9.31 260.33 8.90 257.91 7.00 256.00 Z"/>
</g>
<g fill="None" fill-opacity="0.0" stroke="#000000" stroke-opacity="1.00" stroke-width="0.3"><path d="
M 192.00 285.00 
C 183.52 287.99 195.90 293.94 192.00 285.00 Z"/>
</g>
<g fill="#000000" fill-opacity="0.01" stroke="None">
<path d="
M 0.00 330.00 
L 322.00 330.00
L 322.00 0.00
L 0.00 0.00
L 0.00 330.00
M 148.00 4.00 
C 150.49 8.85 155.04 4.35 158.22 5.78 C 161.61 7.80 162.47 12.82 167.00 14.00
C 164.81 20.46 169.16 26.58 168.22 32.22 C 159.63 39.61 169.03 42.70 177.00 42.00
C 173.56 41.10 175.85 36.95 172.00 37.00
C 172.31 33.73 173.93 32.75 173.00 29.00
C 178.90 29.69 173.12 23.07 180.00 23.00
C 176.55 20.47 181.23 19.86 179.00 17.00
C 183.05 15.36 185.96 15.12 188.00 11.00
C 190.17 12.82 192.75 10.71 195.00 10.00
C 197.08 15.89 203.44 13.15 207.00 16.00
C 206.29 21.15 213.20 26.81 207.75 32.75 C 210.33 40.14 204.09 44.70 200.00 50.00
C 213.24 55.05 225.80 63.06 236.00 73.00
C 240.78 65.85 247.87 68.17 251.00 61.00
C 256.21 63.97 258.88 60.49 265.00 63.00
C 266.15 69.99 271.94 73.93 268.65 80.70 C 263.28 83.95 261.51 93.98 254.00 92.00
C 260.86 103.32 267.31 115.85 272.00 128.00
C 277.98 122.87 266.27 111.39 280.00 114.00
C 280.69 107.06 288.72 106.73 289.00 114.00
C 296.06 111.24 301.43 118.16 294.00 122.00
C 300.51 126.90 297.07 133.54 289.00 131.00
C 286.18 144.85 280.15 127.19 272.00 131.00
C 291.72 191.22 255.91 261.15 197.00 283.00
C 197.54 295.46 209.02 280.65 215.00 286.00
C 205.16 286.21 202.37 297.34 195.75 302.75 C 181.28 304.84 196.49 322.59 186.00 328.00
C 186.94 323.20 189.14 316.94 185.07 310.93 C 183.96 303.83 186.83 296.01 184.08 289.92 C 172.20 286.79 156.31 295.03 142.78 291.22 C 117.05 290.36 93.16 280.32 72.92 265.08 C 69.49 261.66 62.14 254.19 61.03 263.03 C 59.55 268.60 56.51 277.22 48.98 273.02 C 44.83 268.58 35.46 277.59 34.00 270.00
C 31.28 269.52 29.51 271.40 28.00 273.00
C 26.13 271.10 25.27 268.30 23.00 267.00
C 26.38 264.09 25.17 261.26 24.00 257.00
C 19.73 257.12 18.65 261.56 15.00 263.00
C 19.83 253.40 13.49 239.88 23.08 233.08 C 31.11 225.13 46.96 231.26 41.00 243.00
C 44.35 240.88 44.66 244.74 43.00 247.00
C 47.35 252.18 54.60 253.71 61.00 255.00
C 21.49 215.76 12.80 150.87 41.00 103.00
C 35.44 103.47 33.34 113.13 27.00 113.00
C 26.67 109.39 21.59 110.18 19.00 109.00
C 22.65 103.70 34.61 106.64 35.92 96.92 C 40.22 91.28 42.08 82.27 50.00 81.00
C 53.31 87.71 42.15 90.19 46.00 96.00
C 66.29 63.92 101.67 44.26 138.00 40.00
C 134.82 36.84 128.97 29.52 136.00 27.00
C 130.42 24.47 138.53 19.16 134.00 16.00
C 139.26 12.80 140.07 5.71 148.00 4.00
M 15.00 7.00 
C 15.00 11.00 15.00 15.00 15.00 19.00
C 6.09 21.83 8.14 12.55 7.00 7.00
C 9.67 7.00 12.33 7.00 15.00 7.00
M 37.00 7.00 
C 37.00 11.00 37.00 15.00 37.00 19.00
C 26.93 23.54 26.85 2.49 37.00 7.00
M 24.00 20.00 
C 27.87 19.52 31.05 21.71 35.00 21.00
C 31.65 22.51 27.09 23.00 23.00 23.00
C 23.17 26.50 26.35 26.30 27.00 29.00
C 22.90 30.29 21.79 30.72 18.00 29.00
C 18.15 26.37 22.57 26.92 21.00 23.00
C 16.75 23.64 13.27 21.36 9.00 22.00
C 12.87 20.03 26.09 21.07 19.00 14.00
C 24.63 12.74 24.90 15.19 24.00 20.00
M 15.00 24.00 
C 15.00 28.00 15.00 32.00 15.00 36.00
C 4.93 40.54 4.85 19.49 15.00 24.00
M 37.00 24.00 
C 37.00 28.00 37.00 32.00 37.00 36.00
C 26.93 40.54 26.85 19.49 37.00 24.00
M 18.00 203.00 
C 17.04 206.70 12.47 207.25 11.00 211.00
C 11.35 208.11 12.38 205.82 11.00 203.00
C 13.37 204.15 15.30 202.70 18.00 203.00
M 30.00 208.00 
C 26.27 208.01 22.92 206.34 19.00 207.00
C 18.49 202.55 31.05 202.40 30.00 208.00
M 296.00 223.00 
C 294.71 225.04 292.50 228.23 290.00 226.00
C 291.29 223.96 293.50 220.77 296.00 223.00
M 299.00 226.00 
C 297.71 228.04 295.50 231.23 293.00 229.00
C 294.29 226.96 296.50 223.77 299.00 226.00
M 296.00 232.00 
C 300.49 222.77 304.51 235.62 296.00 232.00
M 300.00 243.00 
C 295.03 243.00 295.99 240.12 294.00 237.00
C 298.85 238.43 301.97 231.51 306.00 228.00
C 314.42 233.34 297.32 235.83 300.00 243.00
M 308.00 235.00 
C 310.05 238.45 314.00 240.58 316.00 244.00
C 311.27 250.56 306.42 241.46 303.00 238.00
C 304.93 237.34 305.67 234.61 308.00 235.00
M 7.00 256.00 
C 8.90 257.91 9.31 260.33 9.00 263.00
C 13.40 263.26 14.95 266.51 18.00 269.00
C 11.49 272.45 20.78 277.89 19.00 283.00
C 14.86 283.79 15.42 279.62 16.00 277.00
C 6.01 276.43 4.32 262.00 7.00 256.00 Z"/>
</g>
<g fill="#FEFEFE" fill-opacity="1.00" stroke="None">
<path d="
M 148.00 4.00 
C 140.07 5.71 139.26 12.80 134.00 16.00
C 138.53 19.16 130.42 24.47 136.00 27.00
C 128.97 29.52 134.82 36.84 138.00 40.00
C 101.67 44.26 66.29 63.92 46.00 96.00
C 42.15 90.19 53.31 87.71 50.00 81.00
C 42.08 82.27 40.22 91.28 35.92 96.92 C 34.61 106.64 22.65 103.70 19.00 109.00
C 21.59 110.18 26.67 109.39 27.00 113.00
C 33.34 113.13 35.44 103.47 41.00 103.00
C 12.80 150.87 21.49 215.76 61.00 255.00
C 54.60 253.71 47.35 252.18 43.00 247.00
C 44.66 244.74 44.35 240.88 41.00 243.00
C 46.96 231.26 31.11 225.13 23.08 233.08 C 13.49 239.88 19.83 253.40 15.00 263.00
C 18.65 261.56 19.73 257.12 24.00 257.00
C 25.17 261.26 26.38 264.09 23.00 267.00
C 25.27 268.30 26.13 271.10 28.00 273.00
C 29.51 271.40 31.28 269.52 34.00 270.00
C 35.46 277.59 44.83 268.58 48.98 273.02 C 56.51 277.22 59.55 268.60 61.03 263.03 C 62.14 254.19 69.49 261.66 72.92 265.08 C 93.16 280.32 117.05 290.36 142.78 291.22 C 156.31 295.03 172.20 286.79 184.08 289.92 C 186.83 296.01 183.96 303.83 185.07 310.93 C 189.14 316.94 186.94 323.20 186.00 328.00
C 196.49 322.59 181.28 304.84 195.75 302.75 C 202.37 297.34 205.16 286.21 215.00 286.00
C 209.02 280.65 197.54 295.46 197.00 283.00
C 255.91 261.15 291.72 191.22 272.00 131.00
C 280.15 127.19 286.18 144.85 289.00 131.00
C 297.07 133.54 300.51 126.90 294.00 122.00
C 301.43 118.16 296.06 111.24 289.00 114.00
C 288.72 106.73 280.69 107.06 280.00 114.00
C 266.27 111.39 277.98 122.87 272.00 128.00
C 267.31 115.85 260.86 103.32 254.00 92.00
C 261.51 93.98 263.28 83.95 268.65 80.70 C 271.94 73.93 266.15 69.99 265.00 63.00
C 258.88 60.49 256.21 63.97 251.00 61.00
C 247.87 68.17 240.78 65.85 236.00 73.00
C 225.80 63.06 213.24 55.05 200.00 50.00
C 204.09 44.70 210.33 40.14 207.75 32.75 C 213.20 26.81 206.29 21.15 207.00 16.00
C 203.44 13.15 197.08 15.89 195.00 10.00
C 192.75 10.71 190.17 12.82 188.00 11.00
C 185.96 15.12 183.05 15.36 179.00 17.00
C 181.23 19.86 176.55 20.47 180.00 23.00
C 173.12 23.07 178.90 29.69 173.00 29.00
C 173.93 32.75 172.31 33.73 172.00 37.00
C 175.85 36.95 173.56 41.10 177.00 42.00
C 169.03 42.70 159.63 39.61 168.22 32.22 C 169.16 26.58 164.81 20.46 167.00 14.00
C 162.47 12.82 161.61 7.80 158.22 5.78 C 155.04 4.35 150.49 8.85 148.00 4.00
M 286.00 110.00 
C 292.76 120.35 274.67 112.90 286.00 110.00
M 278.00 115.00 
C 281.60 116.03 278.64 122.33 275.32 120.66 C 272.25 117.94 273.14 113.81 278.00 115.00
M 295.00 115.00 
C 298.55 126.19 282.71 116.02 295.00 115.00
M 286.00 118.00 
C 290.46 120.21 289.70 127.19 283.97 126.97 C 278.89 125.18 280.75 117.50 286.00 118.00
M 278.00 124.00 
C 284.72 134.21 265.51 127.76 278.00 124.00
M 296.00 130.00 
C 283.33 132.19 295.83 117.28 296.00 130.00
M 286.00 136.00 
C 275.15 131.17 292.43 125.20 286.00 136.00
M 192.00 285.00 
C 195.90 293.94 183.52 287.99 192.00 285.00 Z"/>
</g>
<g fill="#FFFFFF" fill-opacity="1.00" stroke="None">
<path d="
M 15.00 7.00 
C 12.33 7.00 9.67 7.00 7.00 7.00
C 8.14 12.55 6.09 21.83 15.00 19.00
C 15.00 15.00 15.00 11.00 15.00 7.00 Z"/>
</g>
<g fill="#FFFFFF" fill-opacity="1.00" stroke="None">
<path d="
M 37.00 7.00 
C 26.85 2.49 26.93 23.54 37.00 19.00
C 37.00 15.00 37.00 11.00 37.00 7.00 Z"/>
</g>
<g fill="#FFFFFF" fill-opacity="1.00" stroke="None">
<path d="
M 24.00 20.00 
C 24.90 15.19 24.63 12.74 19.00 14.00
C 26.09 21.07 12.87 20.03 9.00 22.00
C 13.27 21.36 16.75 23.64 21.00 23.00
C 22.57 26.92 18.15 26.37 18.00 29.00
C 21.79 30.72 22.90 30.29 27.00 29.00
C 26.35 26.30 23.17 26.50 23.00 23.00
C 27.09 23.00 31.65 22.51 35.00 21.00
C 31.05 21.71 27.87 19.52 24.00 20.00 Z"/>
</g>
<g fill="#FFFFFF" fill-opacity="1.00" stroke="None">
<path d="
M 15.00 24.00 
C 4.85 19.49 4.93 40.54 15.00 36.00
C 15.00 32.00 15.00 28.00 15.00 24.00 Z"/>
</g>
<g fill="#FFFFFF" fill-opacity="1.00" stroke="None">
<path d="
M 37.00 24.00 
C 26.85 19.49 26.93 40.54 37.00 36.00
C 37.00 32.00 37.00 28.00 37.00 24.00 Z"/>
</g>
<g fill="#000000" fill-opacity="1.00" stroke="None">
<path d="
M 286.00 110.00 
C 274.67 112.90 292.76 120.35 286.00 110.00 Z"/>
</g>
<g fill="#000000" fill-opacity="1.00" stroke="None">
<path d="
M 278.00 115.00 
C 273.14 113.81 272.25 117.94 275.32 120.66 C 278.64 122.33 281.60 116.03 278.00 115.00 Z"/>
</g>
<g fill="#000000" fill-opacity="1.00" stroke="None">
<path d="
M 295.00 115.00 
C 282.71 116.02 298.55 126.19 295.00 115.00 Z"/>
</g>
<g fill="#000000" fill-opacity="1.00" stroke="None">
<path d="
M 286.00 118.00 
C 280.75 117.50 278.89 125.18 283.97 126.97 C 289.70 127.19 290.46 120.21 286.00 118.00
M 286.00 121.00 
C 286.77 127.08 279.86 121.31 286.00 121.00 Z"/>
</g>
<g fill="#FFFFFF" fill-opacity="1.00" stroke="None">
<path d="
M 286.00 121.00 
C 279.86 121.31 286.77 127.08 286.00 121.00 Z"/>
</g>
<g fill="#000000" fill-opacity="1.00" stroke="None">
<path d="
M 278.00 124.00 
C 265.51 127.76 284.72 134.21 278.00 124.00 Z"/>
</g>
<g fill="#000000" fill-opacity="1.00" stroke="None">
<path d="
M 296.00 130.00 
C 295.83 117.28 283.33 132.19 296.00 130.00 Z"/>
</g>
<g fill="#000000" fill-opacity="1.00" stroke="None">
<path d="
M 286.00 136.00 
C 292.43 125.20 275.15 131.17 286.00 136.00 Z"/>
</g>
<g fill="#F2F2F2" fill-opacity="1.00" stroke="None">
<path d="
M 18.00 203.00 
C 15.30 202.70 13.37 204.15 11.00 203.00
C 12.38 205.82 11.35 208.11 11.00 211.00
C 12.47 207.25 17.04 206.70 18.00 203.00 Z"/>
</g>
<g fill="#FFFFFF" fill-opacity="1.00" stroke="None">
<path d="
M 30.00 208.00 
C 31.05 202.40 18.49 202.55 19.00 207.00
C 22.92 206.34 26.27 208.01 30.00 208.00 Z"/>
</g>
<g fill="#FFFFFF" fill-opacity="1.00" stroke="None">
<path d="
M 296.00 223.00 
C 293.50 220.77 291.29 223.96 290.00 226.00
C 292.50 228.23 294.71 225.04 296.00 223.00 Z"/>
</g>
<g fill="#FFFFFF" fill-opacity="1.00" stroke="None">
<path d="
M 299.00 226.00 
C 296.50 223.77 294.29 226.96 293.00 229.00
C 295.50 231.23 297.71 228.04 299.00 226.00 Z"/>
</g>
<g fill="#FFFFFF" fill-opacity="1.00" stroke="None">
<path d="
M 296.00 232.00 
C 304.51 235.62 300.49 222.77 296.00 232.00 Z"/>
</g>
<g fill="#FAFAFA" fill-opacity="1.00" stroke="None">
<path d="
M 300.00 243.00 
C 297.32 235.83 314.42 233.34 306.00 228.00
C 301.97 231.51 298.85 238.43 294.00 237.00
C 295.99 240.12 295.03 243.00 300.00 243.00 Z"/>
</g>
<g fill="#FFFFFF" fill-opacity="1.00" stroke="None">
<path d="
M 308.00 235.00 
C 305.67 234.61 304.93 237.34 303.00 238.00
C 306.42 241.46 311.27 250.56 316.00 244.00
C 314.00 240.58 310.05 238.45 308.00 235.00 Z"/>
</g>
<g fill="#FFFFFF" fill-opacity="1.00" stroke="None">
<path d="
M 7.00 256.00 
C 4.32 262.00 6.01 276.43 16.00 277.00
C 15.42 279.62 14.86 283.79 19.00 283.00
C 20.78 277.89 11.49 272.45 18.00 269.00
C 14.95 266.51 13.40 263.26 9.00 263.00
C 9.31 260.33 8.90 257.91 7.00 256.00 Z"/>
</g>
<g fill="#000000" fill-opacity="1.00" stroke="None">
<path d="
M 192.00 285.00 
C 183.52 287.99 195.90 293.94 192.00 285.00 Z"/>
</g>
</svg>