<!DOCTYPE svg PUBLIC "-//W3C//DTD SVG 1.1//EN" "http://www.w3.org/Graphics/SVG/1.1/DTD/svg11.dtd">
<svg xmlns="http://www.w3.org/2000/svg" viewBox="0 0 322 330">
<path d="M7.252 12.5c.011 2.2.216 2.982.455 1.738.239-1.244.23-3.044-.02-4s-.446.062-.435 2.262M138 12c-.589 1.1-.845 2-.57 2s.981-.9 1.57-2c.589-1.1.845-2 .57-2s-.981.9-1.57 2m61.226 1.579c.95.991 1.942 1.587 2.205 1.324.263-.263-.514-1.074-1.726-1.803-2.107-1.265-2.128-1.243-.479.479m-64.942 2.671c.084 1.512.504 2.75.934 2.75.96 0 .903-.895-.223-3.5-.745-1.726-.843-1.623-.711.75m71.795 1.333c.048 1.165.285 1.402.604.605.289-.722.253-1.585-.079-1.917-.332-.332-.568.258-.525 1.312M178.5 19c-.34.55-.141 1 .441 1S180 19.55 180 19s-.198-1-.441-1-.719.45-1.059 1M166 21.941c0 .518.445 1.216.989 1.552.566.35.734-.051.393-.941-.665-1.732-1.382-2.049-1.382-.611M176 24c-.589 1.1-.845 2-.57 2s.981-.9 1.57-2c.589-1.1.845-2 .57-2s-.981.9-1.57 2m34.079 1.583c.048 1.165.285 1.402.604.605.289-.722.253-1.585-.079-1.917-.332-.332-.568.258-.525 1.312m-41.868 2.816c.709.77 1.447 1.25 1.639 1.067.593-.564-.91-2.466-1.948-2.466-.54 0-.401.63.309 1.399M164.5 38c-.34.55-.141 1 .441 1S166 38.55 166 38s-.198-1-.441-1-.719.45-1.059 1m43.125-.202c-.271.439-.093 1.445.397 2.237.671 1.086.848.889.721-.798-.183-2.427-.364-2.66-1.118-1.439m-71.067 1.295c.308.499.008.907-.666.907s-.991.235-.704.521c.287.287 1.566.136 2.843-.337l2.322-.859-2.178-.569c-1.198-.313-1.926-.161-1.617.337m28.255 1.59c.721.289 1.584.253 1.916-.079.332-.332-.258-.568-1.312-.525-1.165.048-1.402.285-.604.604M204.5 45c-.34.55-.141 1 .441 1S206 45.55 206 45s-.198-1-.441-1-.719.45-1.059 1m-4 3c-.34.55-.141 1 .441 1S202 48.55 202 48s-.198-1-.441-1-.719.45-1.059 1m49.146 14.468c-1.02.773-1.695 1.771-1.5 2.219.194.447 1.35-.2 2.568-1.437 2.457-2.496 1.815-2.966-1.068-.782M259 62c.825.533 1.95.969 2.5.969s.325-.436-.5-.969c-.825-.533-1.95-.969-2.5-.969s-.325.436.5.969m6 4.344c0 .304 1.125 1.767 2.5 3.251 1.375 1.483 2.492 2.294 2.483 1.801-.019-.955-4.983-5.989-4.983-5.052m-34 2.034c0 .207.787.995 1.75 1.75 1.586 1.243 1.621 1.208.378-.378-1.307-1.666-2.128-2.195-2.128-1.372M60.462 77.25 55.5 82.5l5.25-4.962C65.628 72.926 66.459 72 65.712 72c-.158 0-2.52 2.362-5.25 5.25m-16.59 6.5c-1.243 1.586-1.208 1.621.378.378C45.916 82.821 46.445 82 45.622 82c-.207 0-.995.787-1.75 1.75m218.752 2.789c-.965 2.514-.681 3.163.498 1.136.584-1.004.851-2.036.593-2.293-.257-.258-.749.263-1.091 1.157M44.5 96c-.349 1.1-1.002 2-1.451 2-.449 0-1.051.9-1.339 2-.743 2.84-.325 2.528 2.671-2 1.456-2.2 2.221-4 1.701-4-.521 0-1.233.9-1.582 2m-11.095 13.25L31.5 111.5l2.25-1.905c1.237-1.048 2.25-2.06 2.25-2.25 0-.8-.805-.209-2.595 1.905m249.732 1.494c-1.97 3.681-1.442 5.425 1.536 5.072 3.418-.404 3.882-1.909 1.497-4.855l-1.896-2.341-1.137 2.124m-3.573 2.963c-.542 1.425-.428 1.54.56.56.684-.679.991-1.486.683-1.793-.308-.308-.867.247-1.243 1.233m-5.693 1.543c-.538 1.042-.309 5.52.264 5.166.4-.247 1.028.038 1.395.633.794 1.285 4.47-1.673 4.47-3.597 0-1.584-5.44-3.538-6.129-2.202m16.796.417c-1.224 1.223-.686 4.388.846 4.976 1.962.753 4.487-1.366 4.487-3.765 0-1.865-3.814-2.731-5.333-1.211m-7.917 3.413c-4.298 2.504-.753 9.153 3.78 7.088 3.052-1.39 3.37-5.616.536-7.133-2.302-1.232-2.12-1.234-4.316.045m.917 2.587c-1.151 1.15-.729 2.333.833 2.333.825 0 1.5-.675 1.5-1.5 0-1.562-1.183-1.984-2.333-.833m6.333 1.392c0 .582.45.781 1 .441s1-.816 1-1.059-.45-.441-1-.441-1 .477-1 1.059m-15.227 2.691c-.845.963-1.811 2.875-2.145 4.25-.335 1.375-.351 1.938-.035 1.25.315-.687 1.9-1.25 3.522-1.25 3.334 0 4.761-2.24 2.874-4.513-1.593-1.92-2.339-1.874-4.216.263m16.477-1.088c-.687.278-1.25 1.592-1.25 2.921 0 3.588 5.552 3.541 6.239-.053.26-1.358.118-2.251-.314-1.983-.433.267-1.069.028-1.415-.531-.671-1.086-1.281-1.152-3.26-.354m-4.25 3.397c0 .582.45.781 1 .441s1-.816 1-1.059-.45-.441-1-.441-1 .477-1 1.059m-4.531 2.441-.958 3.052c-.268.854-.074 1.296.431.984.506-.313 1.185-.14 1.509.384 1.236 2.001 4.049.717 4.082-1.864.05-3.779-4.038-5.842-5.064-2.556m-7.719 1.162c.688.278 1.813.278 2.5 0 .688-.277.125-.504-1.25-.504s-1.937.227-1.25.504m18 0c.688.278 1.813.278 2.5 0 .688-.277.125-.504-1.25-.504s-1.937.227-1.25.504m-16.671 19.921c.048 1.165.285 1.402.604.605.289-.722.253-1.585-.079-1.917-.332-.332-.568.258-.525 1.312M24.232 159c0 1.925.206 2.713.457 1.75.252-.963.252-2.537 0-3.5-.251-.963-.457-.175-.457 1.75m0 13c0 1.925.206 2.713.457 1.75.252-.963.252-2.537 0-3.5-.251-.963-.457-.175-.457 1.75m-6.153 32.583c.048 1.165.285 1.402.604.605.289-.722.253-1.585-.079-1.917-.332-.332-.568.258-.525 1.312M30 206c0 1.1.408 2 .906 2 .499 0 .671-.9.384-2-.288-1.1-.696-2-.907-2-.21 0-.383.9-.383 2m-19.379 2.376c-.395 1.573-.471 3.107-.17 3.409.302.301.549-.04.549-.758 0-.719.787-1.952 1.75-2.741.963-.789 1.226-1.173.585-.854-.64.319-1.351.019-1.58-.668-.229-.687-.74.039-1.134 1.612m280.784 14.874-1.905 2.25 2.25-1.905c2.114-1.79 2.705-2.595 1.905-2.595-.19 0-1.202 1.012-2.25 2.25m3 3-1.905 2.25 2.25-1.905c2.114-1.79 2.705-2.595 1.905-2.595-.19 0-1.202 1.012-2.25 2.25m-257.006 1c-.396.688-.347.912.11.498.456-.414 1.765.036 2.91 1 2.079 1.751 2.079 1.75.176-.498-2.223-2.625-2.255-2.635-3.196-1m260.006 2-1.905 2.25 2.25-1.905c2.114-1.79 2.705-2.595 1.905-2.595-.19 0-1.202 1.012-2.25 2.25M34 229c.825.533 1.95.969 2.5.969s.325-.436-.5-.969c-.825-.533-1.95-.969-2.5-.969s-.325.436.5.969m266.5 3c-1.002 1.107-1.596 2.237-1.321 2.512.275.275 1.319-.405 2.321-1.512 1.002-1.107 1.596-2.237 1.321-2.512-.275-.275-1.319.405-2.321 1.512m7.372.75c-1.243 1.586-1.208 1.621.378.378.962-.755 1.75-1.543 1.75-1.75 0-.823-.821-.294-2.128 1.372M304 236c-.901.582-1.025.975-.309.985.655.008 1.469-.435 1.809-.985.767-1.242.421-1.242-1.5 0m-9.109 3.206c.705.939.951 2.289.548 3-.59 1.042-.469 1.049.621.037 1.131-1.05 1.041-1.544-.548-3-1.713-1.569-1.775-1.573-.621-.037M41.5 240c-.34.55-.254 1.007.191 1.015.445.009.134.452-.691.985-1.282.828-1.246.972.25.985 1.088.009 1.75-.741 1.75-1.985 0-2.19-.541-2.551-1.5-1m11.5 6.378c0 .207.788.995 1.75 1.75 1.586 1.243 1.621 1.208.378-.378-1.307-1.666-2.128-2.195-2.128-1.372m186.966 8.372-5.466 5.75 5.75-5.466c5.342-5.078 6.208-6.034 5.466-6.034-.156 0-2.744 2.588-5.75 5.75m-178.094 1.5c1.111 1.416 1.132 2.04.109 3.273-1.057 1.273-.995 1.42.378.893 2.138-.821 2.09-2.819-.109-4.544-1.586-1.243-1.621-1.208-.378.378M6.158 261c0 1.375.227 1.938.504 1.25.278-.687.278-1.812 0-2.5-.277-.687-.504-.125-.504 1.25M67 260.378c0 .207.787.995 1.75 1.75 1.586 1.243 1.621 1.208.378-.378-1.307-1.666-2.128-2.195-2.128-1.372m-45 5.558c0 .369 1.575 2.198 3.5 4.064s3.5 3.049 3.5 2.629c0-.42-1.575-2.249-3.5-4.064-1.925-1.816-3.5-2.999-3.5-2.629m36.638 2.564c-.316.825-.139 1.5.393 1.5.533 0 .969-.675.969-1.5s-.177-1.5-.393-1.5c-.216 0-.652.675-.969 1.5m-45.559 10.083c.048 1.165.285 1.402.604.605.289-.722.253-1.585-.079-1.917-.332-.332-.568.258-.525 1.312M18 283.969c0 .532.675.709 1.5.393.825-.317 1.5-.753 1.5-.969 0-.216-.675-.393-1.5-.393s-1.5.436-1.5.969m171.395 1.645c-1.196.494-.652 5.386.599 5.386 1.462 0 3.225-2.987 2.649-4.487-.589-1.535-1.259-1.72-3.248-.899m-48.645 6.048c.688.278 1.813.278 2.5 0 .688-.277.125-.504-1.25-.504s-1.937.227-1.25.504m17.519.031c.973.254 2.323.237 3-.037.677-.274-.119-.481-1.769-.461-1.65.02-2.204.244-1.231.498M184.232 305c0 1.925.206 2.712.457 1.75.252-.962.252-2.538 0-3.5-.251-.962-.457-.175-.457 1.75m5.926 16c0 1.375.227 1.938.504 1.25.278-.687.278-1.812 0-2.5-.277-.687-.504-.125-.504 1.25m-2.286 5.75c-1.243 1.586-1.208 1.621.378.378.963-.755 1.75-1.543 1.75-1.75 0-.823-.821-.294-2.128 1.372" fill-rule="evenodd"/>
</svg>